<?xml version="1.0" encoding="UTF-8"?>
<svg version="1.1" xmlns="http://www.w3.org/2000/svg" width="500" height="500">
<path d="M0 0 C-0.56419668 4.44815935 -2.22413489 7.28446223 -4.6875 11 C-5.07252686 11.58668457 -5.45755371 12.17336914 -5.85424805 12.77783203 C-8.39757441 16.63928289 -10.98814871 20.46915265 -13.5703125 24.3046875 C-14.18817627 25.22507813 -14.80604004 26.14546875 -15.44262695 27.09375 C-16.66524952 28.91227934 -17.89275851 30.72753546 -19.12573242 32.5390625 C-26.53265749 43.37717703 -26.53265749 43.37717703 -29 56 C-27.20456387 58.6931542 -25.90734338 59.67976116 -22.875 60.75 C-13.57634352 61.55857882 -4.28164351 60.69302938 5 60 C5.20157715 60.62044189 5.4031543 61.24088379 5.61083984 61.88012695 C6.52749556 64.69248566 7.45116203 67.50249284 8.375 70.3125 C8.69210938 71.28896484 9.00921875 72.26542969 9.3359375 73.27148438 C9.6453125 74.20927734 9.9546875 75.14707031 10.2734375 76.11328125 C10.69761963 77.40939331 10.69761963 77.40939331 11.13037109 78.73168945 C11.99052782 81.22421953 11.99052782 81.22421953 14 84 C16.69571315 84.84162039 16.69571315 84.84162039 20 84 C28.3923288 78.72827306 34.98470349 71.00677023 41.62695312 63.76757812 C47.78632643 57.35176214 47.78632643 57.35176214 51.2019043 56.36181641 C53.265625 56.32421875 53.265625 56.32421875 57 57 C57.99386719 57.17015625 58.98773438 57.3403125 60.01171875 57.515625 C69.98042482 60.25156185 69.98042482 60.25156185 73 64 C73.66364 67.98184001 73.36531349 70.23616269 71.625 73.875 C60.89194847 87.88759506 44.10623844 95.91796471 27.2109375 99.609375 C5.34809271 102.26908848 -15.6824836 98.79038239 -33.375 85.0625 C-34.93493489 83.72941838 -36.47771147 82.37591464 -38 81 C-38.69609375 80.38511719 -39.3921875 79.77023437 -40.109375 79.13671875 C-52.33833712 67.68984142 -60.43111752 51.30958248 -61.1015625 34.4453125 C-60.84077385 27.84535369 -58.80119303 23.52764765 -54 19 C-50.49998632 16.32908336 -46.85620947 14.11805298 -43 12 C-41.76830078 11.32130859 -41.76830078 11.32130859 -40.51171875 10.62890625 C-29.07629043 4.92008434 -12.85702824 0 0 0 Z M-18 18 C-17.67 18.99 -17.34 19.98 -17 21 C-17 20.01 -17 19.02 -17 18 C-17.33 18 -17.66 18 -18 18 Z " fill="#225F9B" transform="translate(237,199)"/>
<path d="M0 0 C15.22616973 11.64984013 24.80284067 28.37107783 27.43359375 47.3125 C28.58924166 59.07909694 27.69202511 70.42840022 21.96484375 80.9375 C21.03285156 80.74414062 20.10085938 80.55078125 19.140625 80.3515625 C10.77607815 78.64313129 2.41886342 77.14929034 -6.03515625 75.9375 C-5.57625 75.22464844 -5.11734375 74.51179688 -4.64453125 73.77734375 C-0.53647241 67.38329511 -0.53647241 67.38329511 3.27734375 60.8125 C4.96484375 57.9375 4.96484375 57.9375 6.96484375 56.9375 C7.30828619 55.27288708 7.63886335 53.6056204 7.96484375 51.9375 C9.21624537 48.81072919 10.51412418 45.71812484 11.88085938 42.640625 C13.7389428 38.23161347 14.37860292 34.70447182 13.96484375 29.9375 C11.57864977 25.56281103 8.79697669 24.22683832 4.19433594 22.56738281 C1.3131605 21.75338449 -1.45138999 21.56997576 -4.42749023 21.37036133 C-13.07511616 20.6620976 -17.80156816 18.34528902 -23.47265625 11.75 C-25.13808333 9.7533066 -26.78977928 7.74595659 -28.43896484 5.73583984 C-32.43417923 1.23465459 -37.66704506 -2.37844441 -43.03515625 -5.0625 C-45.03475637 -5.102492 -47.03562867 -5.10596799 -49.03515625 -5.0625 C-51.05080176 -0.50585457 -52.86432522 4.01591823 -54.015625 8.87109375 C-54.17643555 9.54325928 -54.33724609 10.2154248 -54.50292969 10.90795898 C-54.95750771 12.87204793 -55.38547718 14.84223655 -55.8125 16.8125 C-57.03515625 19.9375 -57.03515625 19.9375 -59.29858398 21.07202148 C-61.89229017 21.89231664 -64.36194378 22.46281012 -67.04296875 22.91015625 C-82.40179198 25.63824294 -96.81551387 29.8280641 -111.49926758 35.07714844 C-113.66790031 35.81290099 -115.80503551 36.4249491 -118.03515625 36.9375 C-115.85068942 22.35618388 -104.54558314 8.47621599 -93.03515625 -0.0625 C-64.87774969 -19.99932675 -28.22540711 -19.18019943 0 0 Z M7.96484375 59.9375 C8.96484375 61.9375 8.96484375 61.9375 8.96484375 61.9375 Z M8.96484375 61.9375 C9.96484375 64.9375 9.96484375 64.9375 9.96484375 64.9375 Z M9.96484375 64.9375 C10.96484375 67.9375 10.96484375 67.9375 10.96484375 67.9375 Z M10.96484375 67.9375 C11.96484375 70.9375 11.96484375 70.9375 11.96484375 70.9375 Z " fill="#225F9B" transform="translate(297.03515625,174.0625)"/>
<path d="M0 0 C2.97571985 -0.07405358 5.94700026 -0.09083682 8.92358398 -0.09277344 C9.93356445 -0.10501953 10.94354492 -0.11726562 11.98413086 -0.12988281 C12.9605957 -0.13181641 13.93706055 -0.13375 14.94311523 -0.13574219 C15.81685791 -0.13985107 16.69060059 -0.14395996 17.59082031 -0.14819336 C21.27646333 0.20705364 24.04927318 1.04679986 26.71679688 3.67944336 C27.16788818 4.294729 27.61897949 4.91001465 28.08374023 5.54394531 C28.84460938 6.5697168 28.84460938 6.5697168 29.62084961 7.61621094 C30.13325195 8.33099609 30.6456543 9.04578125 31.17358398 9.78222656 C31.68985352 10.47767578 32.20612305 11.173125 32.73803711 11.88964844 C34.23590773 13.93324007 35.68579622 15.99996251 37.11108398 18.09472656 C37.75279541 19.03759521 37.75279541 19.03759521 38.4074707 19.99951172 C40.02816912 22.56799512 41.1082803 24.50128101 41.12280273 27.57519531 C39.72230531 31.06292056 37.89267838 34.21993628 35.92358398 37.40722656 C35.54911133 38.03306641 35.17463867 38.65890625 34.78881836 39.30371094 C34.00892111 40.58600405 33.20793818 41.85568091 32.38769531 43.11254883 C31.50354782 44.4853531 30.67277033 45.89344893 29.88720703 47.32495117 C27.85075566 50.65911567 26.42580545 52.72926702 22.56494141 53.80249023 C19.44952126 54.07763386 16.42523385 54.09998823 13.29858398 54.03222656 C11.06419782 54.04903137 8.82982197 54.06726739 6.59545898 54.08691406 C5.49911133 54.08401367 4.40276367 54.08111328 3.27319336 54.078125 C-1.14843682 54.10133924 -5.541277 54.35744297 -9.95141602 54.65722656 C-11.31727819 54.74223617 -12.68316103 54.82691511 -14.04907227 54.91113281 C-14.9862207 54.97171875 -15.92336914 55.03230469 -16.88891602 55.09472656 C-17.18137207 54.53487061 -17.47382813 53.97501465 -17.77514648 53.39819336 C-19.10300079 50.85862591 -20.43342857 48.32041542 -21.76391602 45.78222656 C-22.45420898 44.46061523 -22.45420898 44.46061523 -23.15844727 43.11230469 C-23.60317383 42.26474609 -24.04790039 41.4171875 -24.50610352 40.54394531 C-24.9145752 39.76365967 -25.32304687 38.98337402 -25.74389648 38.17944336 C-26.95831812 35.8978527 -26.95831812 35.8978527 -28.88891602 33.09472656 C-28.65267549 28.41064726 -26.14842386 24.88340155 -23.70141602 21.03222656 C-20.10172389 15.30978418 -17.22838921 9.65245019 -14.86157227 3.29003906 C-12.53189234 0.69740516 -11.79926916 0.6692375 -8.43579102 0.28613281 C-5.62410599 0.1441053 -2.81367878 0.09225956 0 0 Z " fill="#225F9B" transform="translate(257.888916015625,196.9052734375)"/>
<path d="M0 0 C7 0 7 0 9.328125 2.01171875 C9.96234375 2.89472656 10.5965625 3.77773438 11.25 4.6875 C11.89453125 5.55761719 12.5390625 6.42773438 13.203125 7.32421875 C14.88515609 9.82898244 16.44769974 12.4128329 18 15 C18.33 10.05 18.66 5.1 19 0 C21.31 0 23.62 0 26 0 C26 9.57 26 19.14 26 29 C19 29 19 29 17.19555664 27.62304688 C16.77137451 26.99462891 16.34719238 26.36621094 15.91015625 25.71875 C15.43642578 25.04199219 14.96269531 24.36523438 14.47460938 23.66796875 C14.00861328 22.95253906 13.54261719 22.23710937 13.0625 21.5 C12.56943359 20.78457031 12.07636719 20.06914062 11.56835938 19.33203125 C10.35776018 17.56902271 9.17597453 15.78629042 8 14 C7.67 18.95 7.34 23.9 7 29 C4.69 29 2.38 29 0 29 C0 19.43 0 9.86 0 0 Z " fill="#225F9B" transform="translate(287,311)"/>
<path d="M0 0 C7 0 7 0 9.8359375 2.7734375 C10.70537291 3.95734954 11.55135976 5.15878357 12.375 6.375 C13.03048828 7.27992188 13.03048828 7.27992188 13.69921875 8.203125 C15.27987571 10.40527866 16.78607596 12.57215192 18 15 C18.33 10.05 18.66 5.1 19 0 C20.98 0 22.96 0 25 0 C25 9.57 25 19.14 25 29 C19 29 19 29 17.30908203 27.62304688 C16.87966309 26.99462891 16.45024414 26.36621094 16.0078125 25.71875 C15.29238281 24.70361328 15.29238281 24.70361328 14.5625 23.66796875 C14.088125 22.95253906 13.61375 22.23710937 13.125 21.5 C12.62742187 20.78457031 12.12984375 20.06914062 11.6171875 19.33203125 C10.39345611 17.56703405 9.19428567 15.78505332 8 14 C7.67 18.95 7.34 23.9 7 29 C4.69 29 2.38 29 0 29 C0 19.43 0 9.86 0 0 Z " fill="#225F9B" transform="translate(413,311)"/>
<path d="M0 0 C3.8053125 -0.12375 3.8053125 -0.12375 7.6875 -0.25 C8.87218872 -0.30462402 8.87218872 -0.30462402 10.08081055 -0.36035156 C13.85384029 -0.41950641 15.68431827 -0.18744879 19.01953125 1.79296875 C21 4 21 4 21 7.5625 C20.06919104 10.7621558 19.61655007 12.06602821 17 14 C17.845625 14.680625 18.69125 15.36125 19.5625 16.0625 C22 19 22 19 22.125 22.625 C21 26 21 26 18.94921875 27.69921875 C15.1486603 29.37549155 11.74985066 29.32798117 7.6875 29.1875 C5.150625 29.125625 2.61375 29.06375 0 29 C0 19.43 0 9.86 0 0 Z M7 5 C7 6.98 7 8.96 7 11 C8.65 11 10.3 11 12 11 C12.38218767 9.34385343 12.71395102 7.67542976 13 6 C11.93354885 4.70366379 11.93354885 4.70366379 9.4375 4.9375 C8.633125 4.958125 7.82875 4.97875 7 5 Z M7 16 C7 18.64 7 21.28 7 24 C10.465 23.505 10.465 23.505 14 23 C13.67 21.35 13.34 19.7 13 18 C11.02 17.34 9.04 16.68 7 16 Z " fill="#225F9B" transform="translate(122,311)"/>
<path d="M0 0 C3.8053125 -0.12375 3.8053125 -0.12375 7.6875 -0.25 C8.87218872 -0.30462402 8.87218872 -0.30462402 10.08081055 -0.36035156 C13.87053877 -0.41976821 15.66042369 -0.20845719 18.984375 1.83203125 C21 4 21 4 21.5625 6.9375 C20.88971155 10.60045935 19.5249075 12.31728578 17 15 C18.76980402 18.83171162 21.15601771 21.8963861 23.7578125 25.1953125 C25 27 25 27 25 29 C21.84076252 29.56866275 19.13528713 29.76980221 16 29 C13.34306215 26.34306215 11.56722681 23.40487707 10 20 C10 19.34 10 18.68 10 18 C9.01 18 8.02 18 7 18 C7 21.63 7 25.26 7 29 C4.69 29 2.38 29 0 29 C0 19.43 0 9.86 0 0 Z M7 5 C7 7.31 7 9.62 7 12 C8.66611905 12.042721 10.33382885 12.04063832 12 12 C13.28322547 10.9404123 13.28322547 10.9404123 13.125 8.5 C13.28322547 6.0595877 13.28322547 6.0595877 12 5 C10.33382885 4.95936168 8.66611905 4.957279 7 5 Z " fill="#225F9B" transform="translate(175,311)"/>
<path d="M0 0 C1.134375 0.020625 2.26875 0.04125 3.4375 0.0625 C6.7357622 6.24864154 9.57229234 12.58915368 12.25 19.0625 C12.56396729 19.816521 12.87793457 20.57054199 13.20141602 21.34741211 C15.4375 26.8133263 15.4375 26.8133263 15.4375 29.0625 C12.7975 29.0625 10.1575 29.0625 7.4375 29.0625 C5.9525 25.5975 5.9525 25.5975 4.4375 22.0625 C0.8075 21.7325 -2.8225 21.4025 -6.5625 21.0625 C-6.871875 22.196875 -7.18125 23.33125 -7.5 24.5 C-8.5625 28.0625 -8.5625 28.0625 -9.5625 29.0625 C-11.22867115 29.10313832 -12.89638095 29.105221 -14.5625 29.0625 C-13.99380631 25.0001364 -13.09732896 21.48701688 -11.53125 17.69921875 C-11.13292969 16.73048828 -10.73460938 15.76175781 -10.32421875 14.76367188 C-9.90785156 13.76916016 -9.49148437 12.77464844 -9.0625 11.75 C-8.64613281 10.73615234 -8.22976562 9.72230469 -7.80078125 8.67773438 C-4.23957973 0.07437859 -4.23957973 0.07437859 0 0 Z M-1.5625 8.0625 C-3.0475 12.0225 -3.0475 12.0225 -4.5625 16.0625 C-2.2525 16.0625 0.0575 16.0625 2.4375 16.0625 C1.4475 13.4225 0.4575 10.7825 -0.5625 8.0625 C-0.8925 8.0625 -1.2225 8.0625 -1.5625 8.0625 Z " fill="#225F9B" transform="translate(78.5625,310.9375)"/>
<path d="M0 0 C6.6 0 13.2 0 20 0 C20 1.65 20 3.3 20 5 C16.04 5 12.08 5 8 5 C8 6.98 8 8.96 8 11 C11.3 11 14.6 11 18 11 C18 12.65 18 14.3 18 16 C14.7 16 11.4 16 8 16 C8 18.64 8 21.28 8 24 C12.29 24 16.58 24 21 24 C21 25.65 21 27.3 21 29 C14.07 29 7.14 29 0 29 C0 19.43 0 9.86 0 0 Z " fill="#225F9B" transform="translate(373,311)"/>
<path d="M0 0 C6.6 0 13.2 0 20 0 C20 1.65 20 3.3 20 5 C16.04 5 12.08 5 8 5 C8 6.98 8 8.96 8 11 C11.3 11 14.6 11 18 11 C18 12.65 18 14.3 18 16 C14.7 16 11.4 16 8 16 C8 18.64 8 21.28 8 24 C12.29 24 16.58 24 21 24 C21 25.65 21 27.3 21 29 C14.07 29 7.14 29 0 29 C0 19.43 0 9.86 0 0 Z " fill="#225F9B" transform="translate(247,311)"/>
<path d="M0 0 C6.6 0 13.2 0 20 0 C20 1.65 20 3.3 20 5 C14.06 5.495 14.06 5.495 8 6 C8 7.65 8 9.3 8 11 C11.3 11 14.6 11 18 11 C18 12.65 18 14.3 18 16 C14.7 16 11.4 16 8 16 C8 18.64 8 21.28 8 24 C12.29 24 16.58 24 21 24 C21 25.65 21 27.3 21 29 C14.07 29 7.14 29 0 29 C0 19.43 0 9.86 0 0 Z " fill="#225F9B" transform="translate(149,311)"/>
<path d="M0 0 C0.7734375 -0.00257813 1.546875 -0.00515625 2.34375 -0.0078125 C4.5 0.125 4.5 0.125 7.5 1.125 C7.5 3.105 7.5 5.085 7.5 7.125 C3.87 6.795 0.24 6.465 -3.5 6.125 C-3.5 7.445 -3.5 8.765 -3.5 10.125 C-2.654375 10.33125 -1.80875 10.5375 -0.9375 10.75 C3.3450626 12.46302504 6.60067136 14.49669731 9.5 18.125 C10.25 21.6875 10.25 21.6875 9.5 25.125 C7.50690508 27.77477937 5.95431803 29.82100998 2.59033203 30.52416992 C0.43516607 30.61656311 -1.65921673 30.56257901 -3.8125 30.4375 C-4.55306641 30.41494141 -5.29363281 30.39238281 -6.05664062 30.36914062 C-7.87197357 30.3105815 -9.68625681 30.22090886 -11.5 30.125 C-11.5 27.815 -11.5 25.505 -11.5 23.125 C-11.005 23.29 -10.51 23.455 -10 23.625 C-6.46555911 24.33188818 -3.10309299 24.18505155 0.5 24.125 C0.83 22.805 1.16 21.485 1.5 20.125 C0.79875 19.8775 0.0975 19.63 -0.625 19.375 C-5.21045347 17.38132458 -8.70658691 15.31511964 -11.5 11.125 C-11.875 8.1875 -11.875 8.1875 -11.5 5.125 C-8.20818711 0.92510079 -5.19659874 -0.017322 0 0 Z " fill="#225F9B" transform="translate(329.5,309.875)"/>
<path d="M0 0 C-3.62539713 7.98284561 -11.14194024 13.48146578 -19 17 C-22.25 17.375 -22.25 17.375 -25 16 C-29.29362268 11.70637732 -31.26281778 8.06223963 -32 2 C-21.28712612 0.73300752 -10.8029818 -0.34910893 0 0 Z " fill="#225F9B" transform="translate(277,256)"/>
<path d="M0 0 C9.24 0 18.48 0 28 0 C28 1.65 28 3.3 28 5 C24.7 5 21.4 5 18 5 C18 12.92 18 20.84 18 29 C15.36 29 12.72 29 10 29 C10 21.08 10 13.16 10 5 C6.7 5 3.4 5 0 5 C0 3.35 0 1.7 0 0 Z " fill="#225F9B" transform="translate(341,311)"/>
<path d="M0 0 C9.57 0 19.14 0 29 0 C29 1.65 29 3.3 29 5 C25.37 5 21.74 5 18 5 C18 12.92 18 20.84 18 29 C15.69 29 13.38 29 11 29 C11 21.08 11 13.16 11 5 C7.37 5 3.74 5 0 5 C0 3.35 0 1.7 0 0 Z " fill="#225F9B" transform="translate(200,311)"/>
<path d="M0 0 C3.74735479 1.07333948 5.52270569 2.58919708 8.32421875 5.2734375 C9.16339844 6.06492188 10.00257813 6.85640625 10.8671875 7.671875 C11.61613281 8.40664062 12.36507813 9.14140625 13.13671875 9.8984375 C13.73097656 10.44757813 14.32523437 10.99671875 14.9375 11.5625 C16.13671875 12.8984375 16.13671875 12.8984375 16.13671875 14.8984375 C6.89671875 15.2284375 -2.34328125 15.5584375 -11.86328125 15.8984375 C-11.04950352 11.82954884 -10.42750179 9.67215233 -8.48828125 6.2109375 C-8.06804687 5.44394531 -7.6478125 4.67695313 -7.21484375 3.88671875 C-5.15951418 0.86312698 -3.67065928 -0.13020074 0 0 Z " fill="#225F9B" transform="translate(259.86328125,178.1015625)"/>
<path d="M0 0 C2.31 0 4.62 0 7 0 C7 7.92 7 15.84 7 24 C11.29 24 15.58 24 20 24 C20 25.65 20 27.3 20 29 C13.4 29 6.8 29 0 29 C0 19.43 0 9.86 0 0 Z " fill="#225F9B" transform="translate(98,311)"/>
<path d="M0 0 C0.66 0 1.32 0 2 0 C3.51314319 2.91002834 5.00814417 5.829009 6.5 8.75 C7.14388672 9.9875 7.14388672 9.9875 7.80078125 11.25 C8.20683594 12.04921875 8.61289063 12.8484375 9.03125 13.671875 C9.40830078 14.4050293 9.78535156 15.13818359 10.17382812 15.89355469 C11 18 11 18 11 22 C8.91731407 22.08126087 6.83371342 22.13930839 4.75 22.1875 C3.00976562 22.23970703 3.00976562 22.23970703 1.234375 22.29296875 C-2.25319541 21.97706563 -3.58948361 21.49203143 -6 19 C-7.51634979 11.87315597 -3.35791305 6.0862174 0 0 Z " fill="#225F9B" transform="translate(227,231)"/>
<path d="M0 0 C2.31 0 4.62 0 7 0 C7 9.57 7 19.14 7 29 C4.69 29 2.38 29 0 29 C0 19.43 0 9.86 0 0 Z " fill="#225F9B" transform="translate(399,311)"/>
<path d="M0 0 C2.31 0 4.62 0 7 0 C7 9.57 7 19.14 7 29 C4.69 29 2.38 29 0 29 C0 19.43 0 9.86 0 0 Z " fill="#225F9B" transform="translate(273,311)"/>
<path d="M0 0 C6.12963279 0.92065631 11.19224384 1.79321336 16 6 C18.39082119 9.7421549 18.08845527 12.90535735 17.42578125 17.12890625 C16.93142477 19.30135352 16.18115195 21.11015688 15 23 C14.34 23 13.68 23 13 23 C12.39671875 21.90300781 11.7934375 20.80601562 11.171875 19.67578125 C10.3648274 18.22121872 9.55752208 16.76679917 8.75 15.3125 C8.35425781 14.59126953 7.95851563 13.87003906 7.55078125 13.12695312 C5.30921086 9.10315054 2.90427073 5.59037138 0 2 C0 1.34 0 0.68 0 0 Z " fill="#225F9B" transform="translate(286,198)"/>
</svg>
