<?xml version="1.0" encoding="UTF-8"?>
<svg version="1.1" xmlns="http://www.w3.org/2000/svg" width="559" height="200">
<path d="M0 0 C4.25602779 1.50711045 7.78396837 2.50962726 12.36914062 2.03271484 C15.08040447 0.606498 15.08040447 0.606498 17.36914062 -0.96728516 C18.02914062 -0.96728516 18.68914062 -0.96728516 19.36914062 -0.96728516 C19.36914062 12.56271484 19.36914062 26.09271484 19.36914062 40.03271484 C18.70914063 40.03271484 18.04914063 40.03271484 17.36914062 40.03271484 C16.32158317 38.88694888 15.33104345 37.68877924 14.36914062 36.47021484 C6.97047987 27.82064649 -5.16984921 19.58472664 -16.63085938 18.03271484 C-26.37377172 17.39435002 -36.47929159 16.7499334 -44.34570312 23.50537109 C-47.74403403 27.48734885 -48.2120053 31.38941811 -48.29492188 36.50537109 C-47.05641688 41.2189754 -43.93336946 44.14872902 -40.02929688 46.79833984 C-30.8033126 51.32789285 -21.29181301 54.86069896 -11.57763672 58.21728516 C1.7985069 62.95519568 14.50786115 69.20209732 21.30664062 82.22021484 C26.202725 92.49369358 25.23286788 103.52392702 21.61914062 114.06396484 C17.47623025 123.90337698 8.67583238 132.20300375 -0.81835938 136.90771484 C-21.03557079 145.13697414 -42.56191871 143.22817881 -62.31591797 135.01464844 C-65.85198811 133.56421077 -68.79559971 132.39004971 -72.63085938 133.03271484 C-73.29085938 134.02271484 -73.95085937 135.01271484 -74.63085938 136.03271484 C-75.29085938 136.03271484 -75.95085937 136.03271484 -76.63085938 136.03271484 C-76.63085938 123.16271484 -76.63085938 110.29271484 -76.63085938 97.03271484 C-73.25639764 98.15753542 -72.61131252 99.01671033 -70.44335938 101.72021484 C-61.90445209 111.68227334 -50.77466499 117.05701199 -37.77148438 118.81005859 C-28.05529043 119.49889324 -18.65839794 119.07292905 -10.63085938 113.03271484 C-7.98003843 110.32118808 -6.76071948 107.65032007 -6.45117188 103.79443359 C-6.67571462 99.34100252 -7.62156849 95.69736891 -10.84960938 92.41552734 C-18.33958044 86.60094454 -27.77817424 83.81884555 -36.56835938 80.59521484 C-66.77350897 69.47308303 -66.77350897 69.47308303 -74.63085938 55.22021484 C-79.41926383 44.16087502 -79.72516103 32.52755797 -75.58789062 21.16943359 C-70.34872329 9.99593433 -61.78635795 2.21261689 -50.25585938 -2.27978516 C-32.63491643 -8.07058869 -17.10343377 -6.21386336 0 0 Z " fill="#183884" transform="translate(439.630859375,43.96728515625)"/>
<path d="M0 0 C31.35 0 62.7 0 95 0 C95 9.24 95 18.48 95 28 C93.35 26.35 91.7 24.7 90 23 C86.66630456 21.93190739 83.42160971 21.85775521 79.93432617 21.79467773 C78.95368698 21.77473251 77.97304779 21.75478729 76.96269226 21.73423767 C75.9166835 21.71752518 74.87067474 21.70081268 73.79296875 21.68359375 C72.71243729 21.66281265 71.63190582 21.64203156 70.51863098 21.62062073 C67.07498389 21.55535964 63.63126205 21.49634925 60.1875 21.4375 C57.84960172 21.39429249 55.51171093 21.35067749 53.17382812 21.30664062 C47.44929417 21.19893729 41.72470157 21.09968913 36 21 C36 33.21 36 45.42 36 58 C42.62132987 57.94898821 49.24029278 57.88610827 55.86083984 57.79248047 C58.11304096 57.76425089 60.36534152 57.7430463 62.61767578 57.72900391 C65.85501083 57.7076024 69.09114774 57.66096505 72.328125 57.609375 C73.33554749 57.60814636 74.34296997 57.60691772 75.38092041 57.60565186 C80.85165752 57.58774421 80.85165752 57.58774421 85.54199219 55.08691406 C86.26370605 54.0538916 86.26370605 54.0538916 87 53 C87.99 52.01 87.99 52.01 89 51 C90 52 90 52 90.11352539 55.23461914 C90.11336631 56.66814126 90.10767407 58.10166912 90.09765625 59.53515625 C90.0962413 60.28840683 90.09482635 61.04165741 90.09336853 61.81773376 C90.08775376 64.2326956 90.07519883 66.64756601 90.0625 69.0625 C90.0574869 70.69596221 90.05292366 72.32942586 90.04882812 73.96289062 C90.03777954 77.97529585 90.02050506 81.98763241 90 86 C87 85 87 85 85.47949219 82.97558594 C81.50041555 79.80517553 77.27193174 80.39665439 72.328125 80.390625 C71.29057068 80.37408875 70.25301636 80.35755249 69.184021 80.34051514 C65.8726209 80.29196015 62.56168029 80.27064698 59.25 80.25 C57.00388304 80.22184668 54.75778755 80.19192016 52.51171875 80.16015625 C47.00759957 80.08286263 41.50494089 80.04241095 36 80 C36 93.2 36 106.4 36 120 C43.47570469 119.94900611 50.94930677 119.88614743 58.42431641 119.79248047 C60.96754191 119.76424044 63.51085567 119.7430411 66.05419922 119.72900391 C69.70846853 119.70761723 73.36167314 119.66098609 77.015625 119.609375 C78.72362274 119.60753204 78.72362274 119.60753204 80.46612549 119.60565186 C81.52692322 119.58593323 82.58772095 119.5662146 83.68066406 119.54589844 C84.61332092 119.53701599 85.54597778 119.52813354 86.50689697 119.51898193 C89.73559595 118.84687315 90.88417141 117.46797439 93 115 C93.66 114.34 94.32 113.68 95 113 C95 122.57 95 132.14 95 142 C63.65 142 32.3 142 0 142 C0 141.34 0 140.68 0 140 C0.598125 139.79375 1.19625 139.5875 1.8125 139.375 C5.03138118 137.35170326 5.63973226 135.57887409 7 132 C7.43842569 128.07110828 7.40979741 124.16479501 7.38818359 120.21484375 C7.39606903 118.44308273 7.39606903 118.44308273 7.40411377 116.63552856 C7.41503031 113.40818558 7.41250652 110.18121369 7.40297651 106.9538765 C7.39535786 103.56942237 7.40243163 100.18499225 7.40713501 96.80053711 C7.41258617 91.11795632 7.40541784 85.43549267 7.39111328 79.75292969 C7.37478789 73.19199835 7.38007686 66.63134674 7.3965925 60.07042217 C7.4102257 54.427767 7.4121181 48.78519582 7.40427649 43.14252949 C7.39961001 39.7766035 7.39894673 36.4108088 7.40888596 33.04489136 C7.41650518 29.291454 7.40488854 25.53855362 7.38818359 21.78515625 C7.39425629 20.67536407 7.40032898 19.5655719 7.40658569 18.42214966 C7.36106236 12.90033157 7.23499456 8.71341713 4 4 C1.94906855 2.59533047 1.94906855 2.59533047 0 2 C0 1.34 0 0.68 0 0 Z " fill="#183884" transform="translate(262,41)"/>
<path d="M0 0 C11.19372947 3.42260266 20.33580545 10.3118644 29 18 C29.7321875 18.64839844 30.464375 19.29679687 31.21875 19.96484375 C39.5478489 27.79740022 44.71716241 37.11015703 48 48 C48.28810547 48.928125 48.28810547 48.928125 48.58203125 49.875 C50.66586999 60.46946984 49.32195085 71.23715463 43.4921875 80.359375 C41.76507058 82.68897457 39.94104819 84.84586269 38 87 C37.36449219 87.71671875 36.72898438 88.4334375 36.07421875 89.171875 C10.77386369 116.04456851 -29.19875345 130.56094307 -65.53356934 132.10786438 C-68.28574382 132.16379416 -71.03634515 132.19085205 -73.7890625 132.203125 C-75.31954727 132.21167511 -75.31954727 132.21167511 -76.88095093 132.22039795 C-79.03748556 132.22980267 -81.19403427 132.23636381 -83.35058594 132.24023438 C-86.56733189 132.24982801 -89.78340657 132.2808484 -93 132.3125 C-107.22721091 132.38539979 -120.95755439 131.27009856 -135 129 C-136.20849609 128.80647949 -137.41699219 128.61295898 -138.66210938 128.41357422 C-141.43505429 127.93224822 -144.18485073 127.39801612 -146.9375 126.8125 C-147.90856689 126.6067334 -148.87963379 126.4009668 -149.88012695 126.18896484 C-165.92855055 122.61577863 -181.97986493 117.76258442 -196 109 C-196 108.34 -196 107.68 -196 107 C-189.50074516 107.39763373 -183.09936172 108.10318398 -176.65942383 109.04248047 C-119.01552612 117.40805823 -51.95008325 116.50398827 -2.86279297 80.7800293 C7.44757154 73.02877591 18.40498408 62.18360765 21 49 C21.84331494 40.72497211 21.22115128 34.20684365 17 27 C16.443125 25.989375 15.88625 24.97875 15.3125 23.9375 C11.54854875 19.15626462 6.91104633 14.81689443 1.734375 11.5859375 C0 10 0 10 -0.390625 7.51953125 C-0.34421875 6.62621094 -0.2978125 5.73289062 -0.25 4.8125 C-0.21390625 3.91144531 -0.1778125 3.01039062 -0.140625 2.08203125 C-0.09421875 1.39496094 -0.0478125 0.70789063 0 0 Z " fill="#183884" transform="translate(196,68)"/>
<path d="M0 0 C0.86602341 0.00359528 1.73204681 0.00719055 2.62431335 0.01089478 C3.98515549 0.01067574 3.98515549 0.01067574 5.37348938 0.01045227 C8.38737843 0.01115176 11.40120651 0.01894582 14.41508484 0.02676392 C16.49873826 0.02862797 18.58239212 0.03005193 20.66604614 0.03105164 C26.16191305 0.03487783 31.65775372 0.04470897 37.15361023 0.05575562 C42.75704086 0.06596757 48.36047572 0.07054879 53.96391296 0.07559204 C64.96718158 0.08633115 75.9704238 0.10392876 86.97367859 0.12442017 C86.97367859 9.36442017 86.97367859 18.60442017 86.97367859 28.12442017 C84.99367859 26.47442017 83.01367859 24.82442017 80.97367859 23.12442017 C78.00457392 22.36183992 78.00457392 22.36183992 74.91899109 22.41738892 C73.25610046 22.37388306 73.25610046 22.37388306 71.55961609 22.32949829 C70.41750671 22.32369751 69.27539734 22.31789673 68.09867859 22.31192017 C66.93336609 22.28678345 65.76805359 22.26164673 64.56742859 22.23574829 C61.70250563 22.17704085 58.83910498 22.14063956 55.97367859 22.12442017 C56.05759867 36.51076133 56.15286943 50.89698897 56.26120567 65.28316784 C56.31117751 71.9630627 56.35750762 78.64293223 56.39555359 85.32290649 C56.43239492 91.76796334 56.4787521 98.21288759 56.5317421 104.65783119 C56.5502921 107.11820464 56.5653978 109.57860653 56.57702255 112.03902245 C56.59387431 115.48193349 56.62290752 118.92454043 56.65483093 122.36734009 C56.65699112 123.38729568 56.65915131 124.40725128 56.66137695 125.45811462 C56.66273099 132.04464321 56.66273099 132.04464321 58.97367859 138.12442017 C60.99103064 139.46852278 60.99103064 139.46852278 62.97367859 140.12442017 C62.97367859 140.78442017 62.97367859 141.44442017 62.97367859 142.12442017 C48.78367859 142.12442017 34.59367859 142.12442017 19.97367859 142.12442017 C19.97367859 141.46442017 19.97367859 140.80442017 19.97367859 140.12442017 C22.44867859 139.13442017 22.44867859 139.13442017 24.97367859 138.12442017 C25.30367859 99.84442017 25.63367859 61.56442017 25.97367859 22.12442017 C2.09796103 20.09426035 2.09796103 20.09426035 -4.02632141 27.12442017 C-4.68632141 27.78442017 -5.34632141 28.44442017 -6.02632141 29.12442017 C-7.82911333 27.32162825 -7.15668746 24.58394315 -7.15913391 22.15567017 C-7.16042297 20.94524048 -7.16171204 19.73481079 -7.16304016 18.48770142 C-7.15917297 17.2128186 -7.15530579 15.93793579 -7.15132141 14.62442017 C-7.1551886 13.34953735 -7.15905579 12.07465454 -7.16304016 10.76113892 C-7.1617511 9.55070923 -7.16046204 8.34027954 -7.15913391 7.09317017 C-7.15800598 5.97361938 -7.15687805 4.8540686 -7.15571594 3.70059204 C-6.91058814 -1.17976379 -4.25177311 0.00745609 0 0 Z " fill="#183884" transform="translate(472.0263214111328,40.875579833984375)"/>
<path d="M0 0 C0.11704205 14.44744896 0.20475696 28.89482391 0.25906086 43.34265041 C0.2847919 50.05175609 0.31984358 56.76056639 0.37719727 63.46948242 C0.43162034 69.94692676 0.46144277 76.42406467 0.47438622 82.90172005 C0.48360744 85.37002446 0.50161442 87.83831256 0.52865028 90.30648613 C0.56507558 93.77036335 0.56993945 97.2329828 0.56762695 100.69702148 C0.58560333 101.71194672 0.60357971 102.72687195 0.62210083 103.77255249 C0.52842857 116.78434966 -7.58929355 124.57862681 -16.34765625 133.3515625 C-31.82667526 148 -31.82667526 148 -39 148 C-39 104.44 -39 60.88 -39 16 C-3 0 -3 0 0 0 Z " fill="#E77817" transform="translate(192,0)"/>
<path d="M0 0 C0 32.01 0 64.02 0 97 C-17.41935484 103.96774194 -17.41935484 103.96774194 -23.9375 105.8125 C-24.61361328 106.01552734 -25.28972656 106.21855469 -25.98632812 106.42773438 C-30.76326537 107.81281762 -34.88731082 108.36091385 -40 109 C-40 78.97 -40 48.94 -40 18 C-2.8 0 -2.8 0 0 0 Z " fill="#E77817" transform="translate(143,57)"/>
<path d="M0 0 C0 17.16 0 34.32 0 52 C-13.75876288 54.11673275 -26.06519838 55 -40 55 C-40 42.79 -40 30.58 -40 18 C-22.78660613 8.81952327 -22.78660613 8.81952327 -15.3125 5.625 C-13.80826978 4.97210007 -12.30435187 4.31848002 -10.80078125 3.6640625 C-10.16309814 3.39029785 -9.52541504 3.1165332 -8.8684082 2.83447266 C-6.94593946 2.00345165 -6.94593946 2.00345165 -4.94995117 0.89599609 C-3 0 -3 0 0 0 Z " fill="#E77817" transform="translate(94,116)"/>
<path d="M0 0 C0.99 0.495 1.98 0.99 3 1.5 C2.67 2.82 2.34 4.14 2 5.5 C-1 5.5 -1 5.5 -4 4.5 C-5.39439664 4.43334624 -6.79169875 4.41461801 -8.1875 4.4375 C-9.445625 4.458125 -10.70375 4.47875 -12 4.5 C-12 5.16 -12 5.82 -12 6.5 C-11.09636719 6.60957031 -10.19273437 6.71914063 -9.26171875 6.83203125 C-7.49248047 7.06986328 -7.49248047 7.06986328 -5.6875 7.3125 C-4.51574219 7.46332031 -3.34398437 7.61414062 -2.13671875 7.76953125 C1.02534035 8.50590118 2.13643817 8.919191 4 11.5 C4.875 13.875 4.875 13.875 5 16.5 C3.37844371 19.98634601 2.23546708 21.34302194 -1 23.5 C-7.67140297 24.31799049 -13.08994881 23.6520273 -19 20.5 C-18.67 18.85 -18.34 17.2 -18 15.5 C-17.21625 15.83 -16.4325 16.16 -15.625 16.5 C-11.00638131 17.77410171 -6.75750644 17.66923936 -2 17.5 C-2 16.18 -2 14.86 -2 13.5 C-2.90363281 13.39042969 -3.80726563 13.28085937 -4.73828125 13.16796875 C-6.50751953 12.93013672 -6.50751953 12.93013672 -8.3125 12.6875 C-9.48425781 12.53667969 -10.65601563 12.38585938 -11.86328125 12.23046875 C-15.01079339 11.49748647 -16.19942166 11.12769914 -18 8.5 C-18.4026126 5.27909921 -18.6274149 3.3664301 -16.6875 0.6875 C-11.70539801 -2.81842362 -5.34969369 -2.30515257 0 0 Z " fill="#183884" transform="translate(552,10.5)"/>
<path d="M0 0 C2.536875 -0.061875 5.07375 -0.12375 7.6875 -0.1875 C8.47729248 -0.21481201 9.26708496 -0.24212402 10.08081055 -0.27026367 C14.61241447 -0.3235497 17.43653056 0.16783959 21 3 C23.61525329 7.05815166 24.70124748 10.19144587 24 15 C21.96006092 18.6578218 20.49580738 20.66946174 17 23 C15.09887695 23.22705078 15.09887695 23.22705078 12.98828125 23.1953125 C12.30548096 23.19031738 11.62268066 23.18532227 10.91918945 23.18017578 C10.05898193 23.16196777 9.19877441 23.14375977 8.3125 23.125 C4.1978125 23.063125 4.1978125 23.063125 0 23 C0 15.41 0 7.82 0 0 Z M5 4 C5 8.95 5 13.9 5 19 C10.92371787 19.39905819 10.92371787 19.39905819 16.5 17.875 C18.58744474 15.26569407 18.86474313 13.31379342 19 10 C18.2185916 7.44266341 17.48443321 6.37264093 15.375 4.75 C11.86146845 3.64046372 8.67700382 3.87743321 5 4 Z " fill="#183884" transform="translate(473,10)"/>
<path d="M0 0 C2.701875 -0.0825 5.40375 -0.165 8.1875 -0.25 C9.02949951 -0.28641602 9.87149902 -0.32283203 10.73901367 -0.36035156 C14.68099401 -0.41845278 16.55811767 -0.28373497 19.96875 1.90625 C23.27538905 5.31463179 23.89646271 7.08295545 24.4375 11.875 C24.33897037 16.66712268 22.35822174 18.72173592 19 22 C15.69428083 23.65285959 12.004622 23.1005118 8.375 23.0625 C5.61125 23.041875 2.8475 23.02125 0 23 C0 15.41 0 7.82 0 0 Z M5 4 C5 8.95 5 13.9 5 19 C11.2945423 19.46222791 11.2945423 19.46222791 17.0625 17.375 C19.23644121 15.11111445 19.23644121 15.11111445 19.5 12 C18.95698679 8.74192075 18.31873852 7.31873852 16 5 C13.24921116 4.08307039 11.64051087 3.89113917 8.8125 3.9375 C7.554375 3.958125 6.29625 3.97875 5 4 Z " fill="#183884" transform="translate(414,10)"/>
<path d="M0 0 C7.59 0 15.18 0 23 0 C23 1.32 23 2.64 23 4 C17.06 4 11.12 4 5 4 C5 5.65 5 7.3 5 9 C8.96 9 12.92 9 17 9 C17 10.32 17 11.64 17 13 C13.04 13 9.08 13 5 13 C5 14.98 5 16.96 5 19 C11.27 19 17.54 19 24 19 C24 20.32 24 21.64 24 23 C16.08 23 8.16 23 0 23 C0 15.41 0 7.82 0 0 Z " fill="#183884" transform="translate(504,10)"/>
<path d="M0 0 C2.65868909 1.77245939 3.59886916 2.77422056 4.625 5.75 C2.645 6.74 2.645 6.74 0.625 7.75 C0.13 7.255 -0.365 6.76 -0.875 6.25 C-4.40201508 4.13379095 -7.35889652 4.1821493 -11.375 4.75 C-14.01124641 5.47685588 -14.01124641 5.47685588 -15.375 7.75 C-15.69724406 10.77909419 -15.60393734 13.71658025 -15.375 16.75 C-11.34751359 18.09249547 -7.59024869 18.2175094 -3.375 17.75 C-1.11045927 16.28228729 -1.11045927 16.28228729 0.625 14.75 C2.875 15.0625 2.875 15.0625 4.625 15.75 C4.625 16.74 4.625 17.73 4.625 18.75 C-0.3611769 23.21131617 -3.29725531 24.04418753 -9.83203125 23.96875 C-14.13025845 23.59901003 -17.09597509 22.13944433 -20.00390625 18.98046875 C-22.51808047 14.89045884 -22.10933996 10.37565542 -21.375 5.75 C-16.154075 -1.559295 -8.17917245 -3.02932313 0 0 Z " fill="#183884" transform="translate(340.375,10.25)"/>
<path d="M0 0 C1.65 0 3.3 0 5 0 C6.27339482 2.51956743 7.54376642 5.04058649 8.8125 7.5625 C9.16892578 8.26697266 9.52535156 8.97144531 9.89257812 9.69726562 C12.09092409 14.07378925 14.11663926 18.47874598 16 23 C14.02 23 12.04 23 10 23 C9.34 21.68 8.68 20.36 8 19 C4.37 19 0.74 19 -3 19 C-3.66 20.32 -4.32 21.64 -5 23 C-6.98 23 -8.96 23 -11 23 C-9.54237887 19.91632949 -8.08377822 16.83312328 -6.625 13.75 C-6.2125 12.87730469 -5.8 12.00460938 -5.375 11.10546875 C-4.97539062 10.26113281 -4.57578125 9.41679687 -4.1640625 8.546875 C-3.79748535 7.77182617 -3.4309082 6.99677734 -3.05322266 6.19824219 C-2.05768996 4.12040807 -1.03691854 2.0574431 0 0 Z M2 7 C1.34 8.98 0.68 10.96 0 13 C1.65 13 3.3 13 5 13 C4.34 11.02 3.68 9.04 3 7 C2.67 7 2.34 7 2 7 Z " fill="#183884" transform="translate(452,10)"/>
<path d="M0 0 C1.32 0 2.64 0 4 0 C4.06058594 1.04800781 4.12117188 2.09601562 4.18359375 3.17578125 C4.26801738 4.55470048 4.35266447 5.93360605 4.4375 7.3125 C4.47681641 8.00279297 4.51613281 8.69308594 4.55664062 9.40429688 C4.74927415 12.47161535 5.02322717 15.06968152 6 18 C9.63 18 13.26 18 17 18 C17.33 12.06 17.66 6.12 18 0 C19.65 0 21.3 0 23 0 C23.08733513 3.08315385 23.14050127 6.16598827 23.1875 9.25 C23.21263672 10.12269531 23.23777344 10.99539062 23.26367188 11.89453125 C23.33759744 18.35069754 23.33759744 18.35069754 21.67578125 21.546875 C18.4505246 24.34360105 15.14332139 24.16227861 11.0625 24.1875 C9.50208984 24.20876953 9.50208984 24.20876953 7.91015625 24.23046875 C5.0209799 24.0016615 3.39863726 23.58610585 1 22 C-0.20029908 19.59940183 -0.11459743 18.10639351 -0.09765625 15.4296875 C-0.09443359 14.53378906 -0.09121094 13.63789063 -0.08789062 12.71484375 C-0.07951172 11.77769531 -0.07113281 10.84054688 -0.0625 9.875 C-0.05798828 8.93011719 -0.05347656 7.98523438 -0.04882812 7.01171875 C-0.03702357 4.67441613 -0.02055759 2.33723939 0 0 Z " fill="#183884" transform="translate(354,10)"/>
<path d="M0 0 C1.32 0 2.64 0 4 0 C5.27182393 2.37447413 6.54248424 4.74955897 7.8125 7.125 C8.34713867 8.12273438 8.34713867 8.12273438 8.89257812 9.140625 C15 20.57102924 15 20.57102924 15 23 C12.625 23.125 12.625 23.125 10 23 C9.34 22.34 8.68 21.68 8 21 C8 20.01 8 19.02 8 18 C4.04 18 0.08 18 -4 18 C-4.99 20.475 -4.99 20.475 -6 23 C-7.65 23 -9.3 23 -11 23 C-10.34251427 19.84155182 -9.23161861 17.2946779 -7.71484375 14.453125 C-7.26689453 13.60878906 -6.81894531 12.76445312 -6.35742188 11.89453125 C-5.88884766 11.02183594 -5.42027344 10.14914063 -4.9375 9.25 C-4.46505859 8.36183594 -3.99261719 7.47367188 -3.50585938 6.55859375 C-2.34111686 4.37028963 -1.17238288 2.18421752 0 0 Z M1 8 C0.34 9.65 -0.32 11.3 -1 13 C0.65 13 2.3 13 4 13 C3.34 11.35 2.68 9.7 2 8 C1.67 8 1.34 8 1 8 Z " fill="#183884" transform="translate(300,10)"/>
<path d="M0 0 C7.26 0 14.52 0 22 0 C22 1.32 22 2.64 22 4 C16.06 4 10.12 4 4 4 C4 5.65 4 7.3 4 9 C7.63 9 11.26 9 15 9 C15 10.32 15 11.64 15 13 C11.37 13 7.74 13 4 13 C4 16.3 4 19.6 4 23 C2.68 23 1.36 23 0 23 C0 15.41 0 7.82 0 0 Z " fill="#183884" transform="translate(269,10)"/>
<path d="M0 0 C1.65 0 3.3 0 5 0 C5 6.27 5 12.54 5 19 C10.28 19 15.56 19 21 19 C21 20.32 21 21.64 21 23 C14.07 23 7.14 23 0 23 C0 15.41 0 7.82 0 0 Z " fill="#183884" transform="translate(387,10)"/>
</svg>
