<?xml version="1.0" standalone="no"?>
<!DOCTYPE svg PUBLIC "-//W3C//DTD SVG 20010904//EN"
 "http://www.w3.org/TR/2001/REC-SVG-20010904/DTD/svg10.dtd">
<svg version="1.0" xmlns="http://www.w3.org/2000/svg"
 width="404.000000pt" height="316.000000pt" viewBox="0 0 404.000000 316.000000"
 preserveAspectRatio="xMidYMid meet">

<g transform="translate(0.000000,316.000000) scale(0.100000,-0.100000)"
fill="#000000" stroke="none">
<path d="M1802 2708 l-214 -121 49 -28 c26 -16 266 -156 532 -312 l484 -283
223 125 c122 69 221 128 219 131 -2 3 -37 23 -78 44 l-74 40 -146 -82 -147
-83 -155 92 -156 92 28 16 c15 10 81 46 147 80 l118 64 -68 38 c-38 21 -74 39
-80 39 -7 0 -75 -34 -152 -76 l-141 -75 -138 80 c-76 44 -146 86 -155 93 -16
11 -2 22 117 88 74 41 135 77 135 80 0 3 -30 22 -67 42 l-68 37 -213 -121z"/>
<path d="M1445 2508 c-38 -22 -73 -43 -77 -46 -4 -4 129 -117 297 -252 167
-135 302 -246 301 -248 -2 -1 -194 79 -427 178 l-424 181 -77 -43 c-43 -23
-74 -46 -70 -49 4 -4 290 -118 637 -254 l629 -247 54 28 c50 28 80 51 71 57
-2 2 -186 163 -409 357 -223 194 -412 359 -420 366 -12 10 -27 5 -85 -28z"/>
<path d="M920 2086 l0 -85 127 -73 c658 -378 718 -415 749 -455 56 -73 52
-164 -6 -171 -18 -2 -144 67 -433 238 -224 133 -414 243 -422 247 -13 4 -15
-9 -15 -79 l0 -83 398 -235 c475 -281 473 -280 529 -280 88 0 131 46 140 150
7 69 -14 147 -65 243 -67 129 -104 156 -567 422 -229 132 -421 242 -426 243
-5 2 -9 -35 -9 -82z"/>
<path d="M2881 2041 l-204 -117 -1 -82 c-1 -45 1 -82 3 -82 2 0 35 18 73 40
39 22 72 40 74 40 2 0 3 -236 2 -525 -2 -289 1 -525 5 -525 5 0 40 18 78 40
l69 41 0 529 0 529 48 27 c81 47 82 49 82 131 0 52 -4 73 -12 72 -7 0 -105
-53 -217 -118z"/>
<path d="M2331 1728 c-24 -12 -72 -48 -106 -80 -109 -101 -167 -245 -168 -408
0 -110 15 -161 56 -196 32 -27 32 -27 148 -20 151 8 149 10 149 -130 0 -112
-12 -159 -53 -202 -24 -26 -88 -62 -110 -62 -25 0 -42 31 -47 86 l-5 53 -72
-42 -73 -41 0 -65 c0 -114 51 -181 137 -181 92 0 244 113 306 227 45 83 67
190 67 321 0 127 -12 181 -46 213 -26 25 -67 28 -190 16 -113 -11 -117 -6
-112 124 3 90 6 102 33 140 33 47 94 84 123 75 25 -8 42 -47 42 -96 0 -22 3
-40 8 -40 4 0 36 17 72 38 l65 38 3 64 c4 83 -10 132 -49 164 -40 34 -114 36
-178 4z"/>
<path d="M923 1444 c-3 -8 -2 -126 3 -261 l9 -245 519 -300 c285 -164 520
-298 521 -296 2 2 5 36 7 77 l3 73 -227 131 -228 131 -2 151 -3 150 -70 42
-70 42 -5 -148 -5 -147 -162 94 -163 94 0 172 0 172 -60 42 c-49 34 -62 39
-67 26z"/>
</g>
</svg>
