<?xml version="1.0" standalone="no"?>
<!DOCTYPE svg PUBLIC "-//W3C//DTD SVG 20010904//EN"
 "http://www.w3.org/TR/2001/REC-SVG-20010904/DTD/svg10.dtd">
<svg version="1.0" xmlns="http://www.w3.org/2000/svg"
 width="4096.000000pt" height="4096.000000pt" viewBox="0 0 4096.000000 4096.000000"
 preserveAspectRatio="xMidYMid meet">

<g transform="translate(0.000000,4096.000000) scale(0.100000,-0.100000)"
fill="#000000" stroke="none">
<path d="M32875 26783 c-27 -2 -108 -10 -178 -18 -882 -104 -1632 -537 -2074
-1198 -127 -191 -255 -465 -318 -682 -123 -422 -147 -890 -70 -1311 184 -996
937 -1781 1970 -2054 681 -180 1421 -139 2555 143 l255 63 5 754 5 755 23 50
c28 61 55 91 105 116 46 24 175 42 240 33 l47 -6 0 121 0 121 -815 0 -816 0 3
-132 3 -131 77 -18 c233 -55 316 -183 334 -517 7 -115 -11 -888 -22 -959 -4
-30 -10 -34 -97 -67 -116 -45 -295 -91 -412 -105 -49 -6 -162 -11 -250 -11
-930 0 -1634 465 -1980 1308 -86 212 -152 471 -180 711 -20 166 -19 520 0 707
116 1105 684 1767 1660 1935 152 27 522 37 676 20 447 -51 775 -226 1006 -538
59 -80 157 -237 189 -305 l18 -38 168 0 168 0 0 28 c1 40 -72 936 -76 941 -2
2 -61 15 -131 28 -70 13 -270 51 -443 84 -469 90 -833 146 -1103 168 -117 10
-419 12 -542 4z"/>
<path d="M5520 26631 l0 -128 48 -7 c189 -25 321 -103 374 -220 l23 -51 6
-1625 c5 -1622 5 -1625 27 -1740 49 -252 117 -432 228 -600 269 -409 729 -638
1449 -722 176 -21 749 -17 900 5 448 67 779 207 1048 442 333 291 533 716 603
1286 15 116 18 308 24 1439 6 1197 8 1311 24 1380 57 241 172 363 379 402 l67
13 0 117 0 118 -735 0 -736 0 3 -132 3 -132 70 -12 c302 -52 401 -202 435
-659 8 -103 10 -501 8 -1265 -5 -1211 -6 -1243 -64 -1530 -28 -143 -88 -328
-134 -421 -188 -376 -516 -585 -1002 -638 -123 -14 -396 -14 -513 -1 -341 39
-601 150 -802 343 -176 169 -285 386 -341 682 -16 83 -17 223 -17 1690 l0
1600 22 42 c50 93 143 152 285 181 l78 17 0 127 0 128 -880 0 -880 0 0 -129z"/>
<path d="M13112 26620 l3 -144 85 -12 c194 -28 305 -99 369 -234 l26 -55 3
-2025 c2 -2004 2 -2026 -18 -2091 -47 -155 -200 -248 -407 -249 l-63 0 0 -135
0 -135 1020 0 1020 0 0 120 0 120 -59 0 c-92 0 -230 28 -303 62 -123 56 -205
170 -244 338 -16 68 -18 166 -21 1003 l-4 927 636 0 c397 0 663 -4 708 -11
206 -30 299 -103 360 -281 6 -16 20 -18 112 -18 l105 0 0 500 0 500 -104 0
-104 0 -22 -65 c-54 -161 -153 -236 -350 -265 -36 -5 -356 -10 -712 -10 l-648
0 0 981 0 980 798 -4 c852 -4 894 -6 1081 -58 190 -52 320 -158 407 -333 l47
-96 130 0 130 0 -7 258 c-3 141 -9 328 -13 415 l-6 158 -346 -8 c-467 -11
-2276 -10 -3014 1 l-598 9 3 -143z"/>
<path d="M27264 26660 c-663 -143 -1631 -895 -2684 -2085 -135 -153 -406 -474
-450 -532 -23 -32 -50 -44 -50 -22 0 10 319 985 526 1611 110 329 144 475 145
628 1 86 -2 115 -20 162 -54 139 -196 219 -418 234 -337 23 -806 -192 -1356
-620 -578 -449 -1331 -1228 -1806 -1868 -103 -139 -141 -179 -141 -149 0 12
566 1684 608 1796 16 44 43 130 58 190 24 94 28 129 28 245 0 116 -3 143 -22
191 -44 111 -126 178 -248 204 -87 18 -145 19 -264 1 -408 -62 -894 -388
-1396 -936 -193 -212 -420 -486 -449 -544 -48 -95 -26 -160 63 -187 66 -19
105 8 267 187 375 415 600 574 812 574 93 0 144 -33 178 -114 20 -46 22 -172
5 -266 -10 -58 -209 -664 -1008 -3076 -171 -517 -214 -657 -208 -680 11 -42
76 -99 143 -124 89 -33 159 -43 269 -37 161 9 272 45 331 109 14 15 61 135
123 313 137 393 181 512 262 703 265 628 626 1216 1041 1700 152 177 583 636
728 776 463 447 836 665 1144 670 67 1 87 -3 120 -22 125 -71 145 -255 69
-602 -52 -232 -142 -515 -634 -1975 -285 -847 -501 -1506 -502 -1528 -2 -102
150 -181 373 -194 190 -11 334 40 384 137 7 14 75 185 150 380 158 406 253
633 357 852 380 796 780 1353 1478 2061 233 237 378 370 559 515 456 365 825
491 998 339 60 -53 78 -99 77 -202 -1 -74 -7 -111 -37 -207 -20 -64 -254 -739
-521 -1500 -507 -1450 -540 -1547 -581 -1705 -62 -236 -35 -388 85 -496 75
-68 140 -89 285 -95 453 -17 931 254 1467 831 139 150 483 545 510 586 10 14
18 45 18 67 0 37 -6 47 -50 88 -77 72 -97 67 -230 -58 -244 -232 -589 -495
-758 -580 -117 -59 -208 -62 -283 -10 -80 55 -76 118 26 406 186 527 1015
2934 1033 3003 78 293 80 531 7 682 -33 66 -110 136 -183 164 -83 32 -299 37
-428 9z"/>
<path d="M19487 20043 c-4 -3 -7 -429 -7 -945 l0 -938 3925 0 3925 0 -2 943
-3 942 -3916 3 c-2154 1 -3919 -1 -3922 -5z"/>
<path d="M19482 16418 c3 -311 4 -325 27 -381 29 -72 87 -130 161 -159 47 -19
75 -22 185 -23 115 0 136 3 180 23 60 28 100 64 128 117 21 38 22 54 25 378
l3 337 -90 0 -90 0 -3 -324 -3 -324 -24 -26 c-36 -38 -101 -60 -162 -54 -56 6
-93 28 -126 78 -23 32 -23 37 -23 356 l0 324 -96 0 -95 0 3 -322z"/>
<path d="M21820 16738 c0 -2 76 -201 169 -443 l168 -440 80 -3 80 -3 133 348
c73 191 150 392 171 446 l37 97 -92 0 -93 0 -88 -202 c-74 -171 -98 -234 -141
-368 -3 -8 -22 37 -43 100 -30 91 -122 341 -166 453 -6 15 -21 17 -111 17 -57
0 -104 -1 -104 -2z"/>
<path d="M20450 16280 l0 -430 95 0 95 0 0 298 0 297 23 -56 c13 -30 39 -82
59 -115 19 -32 79 -141 132 -241 l98 -183 94 0 94 0 0 430 0 430 -95 0 -95 0
0 -197 c0 -175 6 -262 26 -368 3 -17 -16 12 -43 65 -27 52 -98 186 -158 298
l-109 202 -108 0 -108 0 0 -430z"/>
<path d="M21450 16280 l0 -430 90 0 90 0 0 430 0 430 -90 0 -90 0 0 -430z"/>
<path d="M22790 16265 l0 -445 275 0 275 0 0 80 0 80 -185 0 -186 0 3 118 3
117 143 3 142 3 0 74 0 74 -142 3 -143 3 -3 102 -3 103 173 2 172 3 8 40 c4
22 10 50 13 63 l5 22 -275 0 -275 0 0 -445z"/>
<path d="M23600 16280 l0 -430 95 0 95 0 0 180 0 180 28 -12 c50 -21 88 -67
173 -208 l84 -140 118 0 118 0 -42 58 c-23 31 -71 102 -106 157 -36 55 -81
117 -100 137 l-36 37 40 10 c97 26 168 134 161 245 -11 172 -99 216 -435 216
l-193 0 0 -430z m398 260 c59 -36 70 -113 23 -161 -29 -28 -32 -29 -130 -29
l-101 0 0 105 0 105 88 0 c69 0 94 -4 120 -20z"/>
<path d="M25390 16280 l0 -430 90 0 90 0 0 430 0 430 -90 0 -90 0 0 -430z"/>
<path d="M25860 16280 l0 -430 174 0 c144 0 184 3 234 19 91 29 133 54 185
110 92 98 130 241 109 408 -19 147 -77 240 -186 297 -49 26 -51 26 -282 26
l-234 0 0 -430z m365 281 c50 -23 111 -89 120 -131 7 -31 -5 -160 -26 -279
-20 -116 -92 -171 -226 -171 l-73 0 0 300 0 300 83 0 c58 0 94 -6 122 -19z"/>
<path d="M26832 16287 c-84 -232 -152 -425 -152 -429 0 -5 40 -8 89 -8 l88 0
39 103 39 102 145 0 145 0 39 -102 39 -103 105 0 c79 0 103 3 99 13 -2 6 -70
192 -150 412 -80 220 -148 408 -152 418 -6 15 -21 17 -114 17 l-106 0 -153
-423z m337 -9 l30 -88 -105 0 c-81 0 -104 3 -104 14 0 7 23 84 50 170 28 86
50 160 51 164 0 4 11 -33 24 -83 13 -49 38 -129 54 -177z"/>
<path d="M27640 16280 l0 -430 174 0 c159 0 182 2 253 25 128 41 206 114 257
239 18 43 21 72 20 191 0 123 -3 147 -23 199 -29 72 -97 149 -163 182 -46 23
-54 24 -283 24 l-235 0 0 -430z m377 289 c107 -40 148 -126 148 -309 0 -115
-12 -163 -53 -212 -40 -47 -94 -68 -184 -68 l-78 0 0 300 0 300 69 0 c38 0 82
-5 98 -11z"/>
<path d="M28612 16268 l3 -443 275 0 275 0 3 78 3 77 -186 0 -185 0 0 120 0
120 145 0 145 0 0 75 0 75 -145 0 -145 0 0 105 0 105 169 0 169 0 11 50 c6 28
11 58 11 65 0 13 -41 15 -275 15 l-275 0 2 -442z"/>
<path d="M30530 16265 l0 -445 275 0 275 0 0 80 0 80 -185 0 -186 0 3 118 3
117 143 3 142 3 0 74 0 74 -142 3 -143 3 -3 102 -3 103 172 2 173 3 6 25 c4
14 10 42 14 63 l7 37 -276 0 -275 0 0 -445z"/>
<path d="M31320 16280 l0 -430 173 0 c158 0 180 2 246 25 87 29 124 51 173
102 77 80 112 183 111 333 -2 187 -58 303 -180 368 l-61 32 -231 0 -231 0 0
-430z m401 273 c31 -17 61 -40 71 -58 29 -51 48 -145 48 -235 0 -202 -68 -280
-244 -280 l-66 0 0 300 0 300 68 0 c55 0 79 -5 123 -27z"/>
<path d="M32290 16265 l0 -445 275 0 275 0 0 80 0 80 -185 0 -186 0 3 118 3
117 143 3 142 3 0 74 0 75 -145 0 -145 0 0 105 0 105 172 2 172 3 8 40 c4 22
10 50 13 63 l5 22 -275 0 -275 0 0 -445z"/>
<path d="M33100 16280 l0 -430 95 0 95 0 0 180 0 180 28 -12 c50 -21 83 -62
169 -205 l86 -143 118 0 119 0 -63 88 c-34 48 -78 113 -97 146 -19 32 -54 80
-78 107 l-43 48 38 10 c131 36 201 205 139 338 -29 62 -48 76 -146 102 -63 18
-103 21 -267 21 l-193 0 0 -430z m390 265 c63 -33 79 -118 31 -166 -29 -28
-32 -29 -130 -29 l-101 0 0 105 0 105 85 0 c57 0 96 -5 115 -15z"/>
<path d="M34082 16378 c-67 -183 -137 -377 -156 -430 l-36 -98 93 0 92 0 39
105 38 106 145 -3 145 -3 38 -100 37 -100 106 -3 107 -3 -19 48 c-10 26 -80
220 -157 431 l-138 382 -107 0 -106 0 -121 -332z m273 -85 l33 -103 -104 0
c-77 0 -104 3 -104 13 0 6 23 83 50 170 28 87 50 162 51 165 0 4 9 -27 20 -68
11 -41 35 -121 54 -177z"/>
<path d="M34890 16280 l0 -430 248 0 249 0 25 65 26 65 -184 0 -184 0 0 365 0
365 -90 0 -90 0 0 -430z"/>
<path d="M24763 16680 c-59 -12 -122 -42 -161 -75 -95 -80 -110 -263 -27 -341
35 -32 179 -87 265 -100 96 -14 146 -73 115 -133 -46 -90 -215 -105 -371 -32
l-64 30 -24 -37 c-30 -49 -46 -79 -46 -89 0 -9 89 -45 160 -64 25 -7 88 -13
140 -13 194 0 318 65 401 211 26 46 30 61 25 96 -16 107 -68 139 -363 222 -81
23 -105 49 -101 106 2 36 8 47 35 65 68 46 184 39 295 -17 l57 -29 35 59 c20
32 36 63 36 68 0 13 -59 40 -129 58 -74 19 -222 27 -278 15z"/>
<path d="M29800 16255 l0 -435 90 0 90 0 0 200 0 200 130 0 130 0 0 75 0 75
-130 0 -130 0 0 105 0 104 157 3 157 3 6 25 c4 14 10 37 14 53 l6 27 -260 0
-260 0 0 -435z"/>
<path d="M22315 15078 c-8 -20 -146 -486 -164 -550 -8 -32 -18 -58 -22 -58 -4
0 -12 21 -19 48 -7 26 -18 65 -26 87 -7 22 -29 96 -49 165 -20 69 -48 162 -61
208 l-25 82 -120 0 c-97 0 -119 -3 -119 -15 0 -8 -22 -199 -50 -425 -27 -226
-50 -413 -50 -415 0 -3 40 -5 89 -5 l89 0 6 48 c3 26 10 160 16 297 16 356 13
330 28 265 7 -30 52 -179 100 -330 l88 -275 82 -3 c45 -2 82 -1 82 2 0 14 145
463 173 535 l32 85 6 -190 c4 -104 10 -240 14 -301 l7 -113 104 0 c77 0 104 3
104 13 0 26 -71 813 -76 835 -4 21 -8 22 -120 22 -82 0 -116 -3 -119 -12z"/>
<path d="M26723 15075 c-124 -27 -261 -129 -303 -226 -28 -66 -40 -188 -29
-292 17 -156 82 -242 239 -319 59 -29 76 -33 176 -36 106 -4 186 6 307 39 l37
10 -2 207 -3 207 -182 3 c-101 1 -183 -1 -183 -6 0 -5 5 -34 11 -65 l12 -57
78 0 79 0 0 -110 0 -110 -27 -11 c-38 -15 -141 -6 -183 16 -60 30 -99 65 -120
106 -41 79 -48 272 -14 380 17 53 58 99 112 125 78 37 231 14 295 -43 17 -16
21 -14 70 36 51 51 52 52 32 68 -39 30 -144 72 -206 83 -81 13 -119 12 -196
-5z"/>
<path d="M19715 15070 c-22 -5 -84 -9 -137 -9 l-98 -1 0 -431 0 -430 198 3
c179 3 202 5 255 26 159 64 244 190 254 378 10 165 -30 298 -110 371 -67 60
-160 97 -247 100 -41 1 -93 -2 -115 -7z m161 -164 c101 -47 123 -108 107 -296
-11 -125 -28 -186 -61 -224 -33 -36 -92 -56 -174 -56 l-78 0 0 300 0 300 78 0
c60 0 88 -5 128 -24z"/>
<path d="M20450 14615 l0 -445 275 0 275 0 0 80 0 80 -180 0 -180 0 0 115 0
114 143 3 142 3 3 78 3 77 -146 0 -145 0 0 105 0 105 169 0 169 0 11 50 c6 28
11 58 11 65 0 13 -41 15 -275 15 l-275 0 0 -445z"/>
<path d="M22870 14630 l0 -430 90 0 90 0 0 430 0 430 -90 0 -90 0 0 -430z"/>
<path d="M23340 14630 l0 -430 90 0 90 0 0 297 0 297 48 -92 c26 -51 97 -184
157 -297 l110 -205 93 0 92 0 0 430 0 430 -91 0 -91 0 5 -252 c3 -139 9 -271
12 -293 5 -33 -2 -23 -48 65 -30 58 -99 188 -154 290 l-100 185 -106 3 -107 3
0 -431z"/>
<path d="M24356 14678 c-77 -211 -147 -404 -157 -430 l-19 -48 93 0 93 0 33
93 c19 50 38 98 44 105 7 8 49 12 147 12 l138 0 28 -72 c14 -40 33 -88 40
-105 l13 -33 105 0 106 0 -19 48 c-10 26 -80 219 -157 430 l-138 382 -106 0
-106 0 -138 -382z m258 157 c4 -20 25 -91 47 -159 21 -68 39 -126 39 -130 0
-3 -45 -6 -100 -6 -73 0 -100 3 -100 13 -1 20 94 317 101 317 4 0 10 -16 13
-35z"/>
<path d="M25427 15049 c-59 -14 -131 -55 -165 -93 -42 -48 -66 -133 -58 -199
9 -62 26 -97 66 -130 33 -28 183 -80 265 -93 57 -8 115 -56 115 -94 0 -32 -38
-80 -76 -96 -76 -32 -267 -8 -338 42 -11 8 -24 14 -28 14 -13 0 -80 -122 -72
-130 5 -4 43 -20 84 -35 180 -66 441 -33 549 68 42 40 91 141 91 186 0 19 -10
54 -21 79 -19 39 -30 48 -98 78 -42 20 -125 49 -185 65 -59 16 -117 34 -127
40 -47 25 -53 97 -11 139 55 54 186 52 298 -4 l65 -33 26 41 c14 22 31 51 39
63 16 25 8 34 -49 58 -95 39 -276 56 -370 34z"/>
<path d="M27380 14615 l0 -445 275 0 275 0 0 80 0 80 -180 0 -180 0 0 115 0
115 140 0 140 0 0 80 0 80 -140 0 -140 0 0 105 0 105 169 0 168 0 12 57 c6 31
11 60 11 65 0 4 -124 8 -275 8 l-275 0 0 -445z"/>
<path d="M28190 14630 l0 -430 95 0 95 0 0 179 0 179 39 -19 c51 -24 75 -55
168 -209 l78 -130 118 0 118 0 -42 58 c-23 31 -71 102 -106 157 -36 55 -81
116 -100 136 l-35 36 35 7 c54 10 111 58 141 117 48 97 29 234 -40 288 -50 40
-185 61 -383 61 l-181 0 0 -430z m419 241 c26 -24 31 -37 31 -74 0 -82 -43
-105 -197 -106 l-63 -1 0 105 0 105 99 0 c95 0 100 -1 130 -29z"/>
<path d="M29142 14637 c-84 -232 -152 -425 -152 -429 0 -5 40 -8 89 -8 l88 0
39 103 39 102 144 0 144 0 37 -100 38 -100 106 -3 106 -3 -36 98 c-19 54 -89
248 -156 431 l-121 332 -106 0 -106 0 -153 -423z m314 62 c24 -81 44 -150 44
-153 0 -3 -45 -6 -100 -6 -70 0 -100 4 -100 12 0 10 83 284 97 318 5 12 7 11
10 -5 2 -11 24 -86 49 -166z"/>
<path d="M29980 14630 l0 -430 90 0 90 0 0 430 0 430 -90 0 -90 0 0 -430z"/>
<path d="M30660 15044 c-60 -16 -90 -33 -133 -73 -89 -81 -102 -255 -26 -331
35 -34 134 -73 253 -99 95 -21 130 -43 141 -91 8 -35 -27 -88 -70 -106 -75
-31 -249 -12 -333 37 -19 11 -37 17 -42 14 -5 -3 -23 -31 -41 -62 -38 -67 -37
-68 74 -104 60 -20 93 -24 197 -24 112 0 134 3 209 29 101 35 148 74 191 158
43 87 37 160 -17 209 -38 35 -149 82 -268 113 -126 33 -149 49 -153 106 -3 33
2 48 19 66 57 61 206 56 324 -9 l45 -25 35 58 c19 32 35 63 35 69 0 17 -78 48
-164 66 -93 19 -203 18 -276 -1z"/>
</g>
</svg>
