<?xml version="1.0" encoding="UTF-8"?>
<svg version="1.1" xmlns="http://www.w3.org/2000/svg" width="1200" height="1782">
<path d="M0 0 C6.63078036 0.01138715 13.26139982 0.00459701 19.89217472 -0.00688553 C71.78367291 -0.08269631 123.71532587 1.06251557 175.51538086 4.29589844 C176.67955536 4.36792984 177.84372986 4.43996124 179.04318237 4.51417542 C264.10081069 9.88209257 348.96525584 18.68070685 556.06616211 54.58105469 C556.80248871 54.73780167 557.53881531 54.89454865 558.29745483 55.05604553 C563.28503745 56.14166423 563.28503745 56.14166423 565.52319336 57.26074219 C564.9180194 65.7133469 563.65922969 73.97295755 562.19506836 82.31542969 C561.9614691 83.66506422 561.72826314 85.01476688 561.49542236 86.36453247 C560.8830589 89.90824866 560.26552055 93.45104314 559.64678955 96.99365234 C559.03614348 100.49491592 558.43019374 103.99699114 557.82397461 107.49902344 C557.10560691 111.64733527 556.38644957 115.79550394 555.66369629 119.9430542 C554.45895028 126.85725926 553.26236328 133.77269581 552.08374023 140.69140625 C551.85284099 142.04355498 551.62190501 143.39569743 551.39093018 144.74783325 C550.95747752 147.28858071 550.52587089 149.829644 550.09637451 152.37106323 C549.90367981 153.49884186 549.71098511 154.62662048 549.51245117 155.78857422 C549.26099335 157.27117233 549.26099335 157.27117233 549.00445557 158.78372192 C548.52319336 161.26074219 548.52319336 161.26074219 547.52319336 164.26074219 C548.76842773 164.34710937 550.01366211 164.43347656 551.29663086 164.52246094 C559.1196069 165.30806054 566.79124661 166.97297585 574.48852539 168.53442383 C577.11992192 169.06751472 579.75301672 169.59145707 582.38647461 170.11425781 C592.84581227 172.2084092 603.20311695 174.56260609 613.52319336 177.26074219 C613.81331708 183.50518067 612.71147525 189.18178131 611.43334961 195.28027344 C611.2137558 196.35443512 610.99416199 197.4285968 610.76791382 198.53530884 C610.04742868 202.04941799 609.31682041 205.56133303 608.58569336 209.07324219 C608.07951976 211.52832016 607.57374581 213.98348057 607.06835938 216.4387207 C603.22841278 235.04846843 599.27597117 253.63355116 595.25961304 272.20591736 C592.79929239 283.5933462 590.38245954 294.99006543 587.96069336 306.38574219 C587.5140209 308.48657726 587.06732561 310.58740749 586.62060547 312.68823242 C585.5877936 317.54566322 584.55536924 322.40317621 583.52319336 327.26074219 C577.0525148 326.1546874 570.63694014 324.87400614 564.23022461 323.44824219 C512.53388051 311.97686449 460.18731385 303.0124929 407.64819336 296.38574219 C406.83020264 296.2819223 406.01221191 296.17810242 405.16943359 296.07113647 C394.96399347 294.78662553 384.79551875 293.82036102 374.52319336 293.26074219 C374.52319336 292.27074219 374.52319336 291.28074219 374.52319336 290.26074219 C375.18270493 290.08409027 375.84221649 289.90743835 376.52171326 289.72543335 C393.05310732 285.29675123 409.5817028 280.85775965 426.10760498 276.40863037 C434.94740304 274.02893701 443.78804115 271.65243003 452.63012695 269.28125 C461.06169023 267.02002479 469.49155301 264.75256746 477.91966152 262.47849846 C482.49407687 261.24443798 487.06922684 260.01326411 491.64620972 258.78875732 C495.97907087 257.62944789 500.30983035 256.46260048 504.6390934 255.28992844 C506.24418572 254.8565983 507.85003496 254.42606143 509.4566555 253.99843216 C511.65229767 253.41356987 513.84505454 252.81893086 516.03735352 252.22167969 C517.27200348 251.88958496 518.50665344 251.55749023 519.77871704 251.21533203 C522.65860502 250.57147486 522.65860502 250.57147486 523.52319336 248.26074219 C521.68966309 248.0865979 521.68966309 248.0865979 519.8190918 247.90893555 C513.74556715 247.23097204 507.78443808 246.05586111 501.78881836 244.88964844 C499.88381408 244.52473526 497.9788062 244.15984046 496.07366371 243.79564953 C494.0435257 243.40739892 492.0136169 243.0179637 489.98370361 242.62854004 C437.41179086 232.55931554 384.62124785 224.06194718 331.52319336 217.26074219 C330.46253662 217.12472595 329.40187988 216.98870972 328.30908203 216.84857178 C264.29881359 208.68552626 199.95341329 203.55693427 135.52319336 200.26074219 C133.36432976 200.14796692 131.20547511 200.03502005 129.04663086 199.921875 C117.34153683 199.31365448 105.63526615 198.78090022 93.92230225 198.3493042 C92.35540365 198.29146285 90.78854693 198.23247232 89.22174072 198.17218018 C7.63002284 195.03632885 -74.00699659 197.70177177 -155.47680664 202.26074219 C-156.6242334 202.32477234 -157.77166016 202.38880249 -158.95385742 202.45477295 C-250.37962484 207.61690563 -342.13760648 219.48097404 -458.78930664 242.19824219 C-459.51094749 242.34238808 -460.23258835 242.48653397 -460.97609711 242.63504791 C-465.78624128 243.59629787 -470.59481625 244.565037 -475.40258789 245.53808594 C-476.62312363 245.78355667 -477.84365936 246.0290274 -479.10118103 246.28193665 C-484.63458269 247.41009257 -490.08022237 248.59152844 -495.47680664 250.26074219 C-478.50729742 255.12976177 -461.50199753 259.82402935 -444.41430664 264.26074219 C-425.59208149 269.14842161 -406.81207379 274.18718335 -388.03930664 279.26074219 C-387.34215923 279.44910645 -386.64501183 279.6374707 -385.92673874 279.83154297 C-373.10668944 283.29543292 -360.28724718 286.76145057 -347.47680664 290.26074219 C-347.47680664 291.25074219 -347.47680664 292.24074219 -347.47680664 293.26074219 C-348.21987061 293.31496338 -348.96293457 293.36918457 -349.72851562 293.42504883 C-419.24929264 298.69312185 -488.45068666 312.42074564 -556.47680664 327.26074219 C-557.97005217 323.01929108 -559.07306169 318.83398873 -559.98217773 314.43164062 C-560.119478 313.77178288 -560.25677826 313.11192513 -560.39823914 312.43207169 C-560.85232735 310.24544641 -561.3012738 308.05779852 -561.75024414 305.87011719 C-562.07337858 304.30934098 -562.39684196 302.74863285 -562.72061157 301.18798828 C-563.58893697 296.9977758 -564.45280081 292.80665608 -565.31549072 288.61528015 C-566.21122387 284.26528624 -567.10973766 279.91586677 -568.00805664 275.56640625 C-568.37079889 273.80999969 -568.7335308 272.05359099 -569.09625244 270.29718018 C-569.27618996 269.42586708 -569.45612747 268.55455399 -569.64151764 267.65683746 C-570.18931259 265.00314413 -570.73651296 262.3493287 -571.28363037 259.69549561 C-573.41924941 249.34199503 -575.57822843 238.99376817 -577.76460648 228.65087128 C-578.74411505 224.01270203 -579.71746475 219.3732343 -580.69195557 214.73400879 C-581.21196383 212.26713391 -581.73499771 209.80089474 -582.26116943 207.33532715 C-582.98702486 203.93191443 -583.70186383 200.52635873 -584.41430664 197.12011719 C-584.62600494 196.14228271 -584.83770325 195.16444824 -585.05581665 194.15698242 C-586.24593774 188.40243942 -586.67507187 183.13810468 -586.47680664 177.26074219 C-570.74922207 173.46721926 -554.96250637 170.07044393 -539.10180664 166.88574219 C-538.20824463 166.70503174 -537.31468262 166.52432129 -536.39404297 166.33813477 C-533.83135464 165.82088844 -531.26760399 165.30932243 -528.70336914 164.79980469 C-527.54552414 164.56585495 -527.54552414 164.56585495 -526.36428833 164.32717896 C-522.97443136 163.66097007 -519.94816507 163.26074219 -516.47680664 163.26074219 C-516.66114761 162.57594788 -516.84548859 161.89115356 -517.03541565 161.18560791 C-519.23685547 152.73509599 -520.80766737 144.22403114 -522.25415039 135.62011719 C-522.50893249 134.12527923 -522.76411424 132.63050935 -523.01966858 131.13580322 C-523.68802037 127.22000969 -524.35079509 123.3032925 -525.01239014 119.38635254 C-525.67340414 115.47929299 -526.34007307 111.57319909 -527.00610352 107.66699219 C-529.86719261 90.87118595 -532.6923441 74.069432 -535.47680664 57.26074219 C-522.64854579 53.89709332 -509.72270212 51.14325191 -496.72680664 48.51074219 C-495.66322937 48.29453217 -494.5996521 48.07832214 -493.50384521 47.8555603 C-392.98801043 27.45623646 -291.28031826 14.20454662 0 0 Z M-125.10571289 70.60839844 C-129.37573047 75.75431706 -130.03765674 81.09148539 -129.81665039 87.55371094 C-128.90872537 94.78580337 -125.19115922 98.88362785 -119.81274414 103.48583984 C-115.11668755 107.05401829 -109.80358665 109.53297406 -104.54711914 112.16503906 C-99.34440119 114.88035485 -96.06830297 116.90353129 -93.47680664 122.26074219 C-93.39755564 126.77804919 -93.96440412 128.64046545 -96.85180664 132.13574219 C-102.49301437 136.70243416 -109.55631396 135.68661866 -116.47680664 135.26074219 C-120.5586183 134.49679049 -124.50909374 133.48157693 -128.47680664 132.26074219 C-128.67494925 138.3448269 -128.67494925 138.3448269 -127.47680664 144.26074219 C-121.90272048 145.51634268 -116.48082734 145.48299559 -110.78930664 145.51074219 C-109.7509668 145.53136719 -108.71262695 145.55199219 -107.64282227 145.57324219 C-98.54430185 145.6188774 -89.77600189 144.58975892 -82.94946289 138.05371094 C-78.74188617 132.93095838 -76.73966652 127.14400967 -77.09790039 120.52246094 C-78.42661412 112.59127279 -82.11016842 107.90531138 -88.47680664 103.26074219 C-91.77849656 101.24124207 -95.17285928 99.42872205 -98.60180664 97.63574219 C-112.43493288 90.3444897 -112.43493288 90.3444897 -114.47680664 86.26074219 C-115.13305664 80.44824219 -115.13305664 80.44824219 -114.47680664 78.26074219 C-108.92652195 73.43587465 -104.23040454 73.80712429 -97.20336914 73.98730469 C-92.75265181 74.31387724 -88.76730596 75.0563915 -84.47680664 76.26074219 C-84.45618164 75.00261719 -84.43555664 73.74449219 -84.41430664 72.44824219 C-84.40270508 71.74054688 -84.39110352 71.03285156 -84.37915039 70.30371094 C-84.39417447 68.05768757 -84.39417447 68.05768757 -85.47680664 65.26074219 C-98.52897435 62.38309891 -114.6729031 60.37573847 -125.10571289 70.60839844 Z M-28.47680664 63.26074219 C-28.58187504 89.28214354 -28.64349438 115.26027251 -27.47680664 141.26074219 C-22.52680664 141.26074219 -17.57680664 141.26074219 -12.47680664 141.26074219 C-12.58573381 133.3055562 -12.69808411 125.35043973 -12.8161459 117.39538479 C-12.87086081 113.69989454 -12.9241867 110.00439607 -12.97412109 106.30883789 C-13.02253818 102.72962478 -13.07488713 99.1504872 -13.12974739 95.57136726 C-13.15947057 93.56946092 -13.18532001 91.56749822 -13.21104431 89.5655365 C-13.35040553 80.76044779 -13.83279883 72.04079171 -14.47680664 63.26074219 C-19.09680664 63.26074219 -23.71680664 63.26074219 -28.47680664 63.26074219 Z M8.52319336 63.26074219 C8.52319336 89.00074219 8.52319336 114.74074219 8.52319336 141.26074219 C12.15319336 141.26074219 15.78319336 141.26074219 19.52319336 141.26074219 C19.52319336 121.46074219 19.52319336 101.66074219 19.52319336 81.26074219 C21.52319336 82.26074219 21.52319336 82.26074219 22.40235901 84.34165955 C22.69690475 85.25718094 22.9914505 86.17270233 23.29492188 87.1159668 C23.6318959 88.15051498 23.96886993 89.18506317 24.3160553 90.2509613 C24.67444992 91.37696243 25.03284454 92.50296356 25.40209961 93.66308594 C25.7742308 94.81112198 26.146362 95.95915802 26.5297699 97.14198303 C27.72218731 100.82515007 28.90425205 104.51154126 30.08569336 108.19824219 C31.2727359 111.88068743 32.46186748 115.56244822 33.65232849 119.24378967 C34.39375821 121.53892972 35.13279842 123.83484326 35.86927795 126.13157654 C36.20309982 127.16927689 36.53692169 128.20697723 36.88085938 129.27612305 C37.3214846 130.65059853 37.3214846 130.65059853 37.77101135 132.05284119 C38.46951855 134.26580055 38.46951855 134.26580055 39.52319336 136.26074219 C43.48319336 136.26074219 47.44319336 136.26074219 51.52319336 136.26074219 C54.64284485 127.56023876 57.75402603 118.85679387 60.85168457 110.1484375 C61.49475328 108.34069082 62.13835552 106.53313396 62.78198242 104.72558594 C63.90954325 101.55171101 65.03017327 98.3754885 66.14819336 95.19824219 C66.49043945 94.236521 66.83268555 93.2747998 67.18530273 92.28393555 C67.49532227 91.39843018 67.8053418 90.5129248 68.12475586 89.60058594 C68.53201904 88.44610962 68.53201904 88.44610962 68.94750977 87.26831055 C69.66101704 85.12819252 69.66101704 85.12819252 69.52319336 82.26074219 C70.18319336 82.26074219 70.84319336 82.26074219 71.52319336 82.26074219 C71.52319336 101.73074219 71.52319336 121.20074219 71.52319336 141.26074219 C76.14319336 141.26074219 80.76319336 141.26074219 85.52319336 141.26074219 C85.52319336 115.52074219 85.52319336 89.78074219 85.52319336 63.26074219 C79.58319336 63.26074219 73.64319336 63.26074219 67.52319336 63.26074219 C65.13628005 70.11006274 62.75191433 76.96026284 60.36987305 83.8112793 C59.55969541 86.14029714 58.74883032 88.46907595 57.93725586 90.79760742 C56.7687656 94.15057304 55.60277549 97.50439922 54.43725586 100.85839844 C54.07572418 101.89408463 53.7141925 102.92977081 53.34170532 103.99684143 C51.5874096 109.05285973 49.92314267 114.09486587 48.52319336 119.26074219 C47.86319336 119.26074219 47.20319336 119.26074219 46.52319336 119.26074219 C46.39050049 118.53956711 46.25780762 117.81839203 46.12109375 117.07536316 C45.54869703 114.38080093 44.81240776 111.8437785 43.95678711 109.22680664 C43.6397583 108.25262283 43.32272949 107.27843903 42.99609375 106.2747345 C42.65441162 105.23499985 42.31272949 104.1952652 41.96069336 103.12402344 C41.60934326 102.04823532 41.25799316 100.9724472 40.89599609 99.86405945 C40.15427306 97.59504459 39.41115819 95.32648431 38.66674805 93.05834961 C37.52435575 89.57678469 36.3867128 86.09369479 35.24975586 82.61035156 C34.5286812 80.40648405 33.80733634 78.20270492 33.08569336 75.99902344 C32.57317017 74.43031242 32.57317017 74.43031242 32.05029297 72.82991028 C31.73326416 71.86518295 31.41623535 70.90045563 31.08959961 69.90649414 C30.81059814 69.05553665 30.53159668 68.20457916 30.24414062 67.32783508 C29.56363762 65.23520066 29.56363762 65.23520066 28.52319336 63.26074219 C21.92319336 63.26074219 15.32319336 63.26074219 8.52319336 63.26074219 Z M109.52319336 65.26074219 C108.60365271 68.43414979 108.34140288 71.37978781 108.22607422 74.67749023 C108.16612526 76.3065052 108.16612526 76.3065052 108.10496521 77.96842957 C108.06637894 79.14125992 108.02779266 80.31409027 107.98803711 81.52246094 C107.94505997 82.74165726 107.90208282 83.96085358 107.85780334 85.21699524 C107.76755936 87.80515552 107.67943672 90.3933905 107.59326172 92.98168945 C107.4627045 96.88806711 107.32456692 100.7941195 107.18530273 104.70019531 C106.73794639 117.5617674 106.41010562 130.39135694 106.52319336 143.26074219 C111.14319336 143.26074219 115.76319336 143.26074219 120.52319336 143.26074219 C121.5994478 132.90179316 121.62109757 122.66034538 121.52319336 112.26074219 C122.7181543 112.30714844 123.91311523 112.35355469 125.14428711 112.40136719 C137.42080108 112.91583113 137.42080108 112.91583113 148.52319336 108.26074219 C149.09166992 107.89851563 149.66014648 107.53628906 150.24584961 107.16308594 C155.39633499 103.42993314 157.5751859 98.10476456 159.52319336 92.26074219 C160.05045132 85.32527211 160.21172539 79.28534451 156.52319336 73.26074219 C150.63590303 67.23964981 144.3966624 66.09476849 136.21069336 65.63574219 C135.5371582 65.59779541 134.86362305 65.55984863 134.16967773 65.52075195 C125.95897001 65.10664833 117.74125953 65.17513733 109.52319336 65.26074219 Z M197.52319336 70.26074219 C191.50710494 83.24874616 185.59331406 96.26304307 180.00366211 109.44042969 C178.05126414 114.03963097 176.06752302 118.62459428 174.07397461 123.20605469 C173.77565735 123.89204742 173.47734009 124.57804016 173.16998291 125.28482056 C171.96912109 128.04573381 170.76801234 130.80653314 169.56378174 133.565979 C168.72445582 135.4895926 167.88730853 137.41414132 167.05053711 139.33886719 C166.56319092 140.45680664 166.07584473 141.57474609 165.57373047 142.7265625 C164.45936894 144.95748727 164.45936894 144.95748727 164.52319336 146.26074219 C167.82319336 146.26074219 171.12319336 146.26074219 174.52319336 146.26074219 C178.97819336 136.36074219 178.97819336 136.36074219 183.52319336 126.26074219 C199.85819336 127.25074219 199.85819336 127.25074219 216.52319336 128.26074219 C218.83319336 135.19074219 221.14319336 142.12074219 223.52319336 149.26074219 C228.47319336 149.26074219 233.42319336 149.26074219 238.52319336 149.26074219 C236.03571631 139.71557602 233.02952793 130.38003826 229.96069336 121.01074219 C229.43076951 119.38624739 228.90115121 117.7616529 228.37182617 116.13696289 C227.56131114 113.6492585 226.75063111 111.16160963 225.93899536 108.67427063 C223.19760079 100.27185972 220.48335997 91.86076728 217.77319336 83.44824219 C217.33889428 82.10090272 216.90456893 80.75357173 216.47021484 79.40625 C215.48758418 76.35784092 214.50533979 73.30930732 213.52319336 70.26074219 C208.24319336 70.26074219 202.96319336 70.26074219 197.52319336 70.26074219 Z M-161.47680664 69.26074219 C-161.60170676 77.81032859 -161.25086572 86.18687496 -160.47680664 94.69824219 C-159.76551063 103.30373739 -159.24058294 111.87465201 -159.16430664 120.51074219 C-159.13820313 121.85736938 -159.13820313 121.85736938 -159.11157227 123.23120117 C-159.11546454 128.30331876 -159.54887164 131.9255309 -162.47680664 136.26074219 C-165.90531598 139.04826935 -169.63770933 140.15585502 -173.97680664 140.69824219 C-179.16480061 140.04974294 -183.79220096 139.16996196 -187.35180664 135.13574219 C-190.14882669 127.98780205 -190.84943487 120.6091453 -191.29321289 113.00292969 C-191.35459946 112.05563995 -191.41598602 111.10835022 -191.47923279 110.13235474 C-191.67255391 107.13386111 -191.85647876 104.1348923 -192.03930664 101.13574219 C-192.22722231 98.12957392 -192.41718758 95.12355859 -192.61009216 92.1177063 C-192.72910605 90.2558297 -192.84505134 88.39375352 -192.95741272 86.53146362 C-193.2595739 81.72604638 -193.72052246 77.01648968 -194.47680664 72.26074219 C-199.09680664 72.26074219 -203.71680664 72.26074219 -208.47680664 72.26074219 C-208.66185425 82.12377999 -208.06909525 91.9117877 -207.41479492 101.74804688 C-207.28973094 103.66915961 -207.17153651 105.5907322 -207.06030273 107.51269531 C-206.47545453 126.58429674 -206.47545453 126.58429674 -198.41430664 143.32324219 C-190.7272291 149.85644551 -181.85858308 150.89115988 -172.06274414 150.57324219 C-163.00075695 149.78352653 -156.51916973 147.25202142 -150.47680664 140.26074219 C-145.05122633 132.25604544 -145.33112878 123.77597975 -145.78930664 114.44824219 C-145.83635742 113.41449463 -145.8834082 112.38074707 -145.93188477 111.31567383 C-146.92555029 89.71516574 -146.92555029 89.71516574 -149.47680664 68.26074219 C-153.57027594 68.13669766 -157.4353947 68.62679522 -161.47680664 69.26074219 Z M249.52319336 73.26074219 C252.49074683 85.25818354 255.56237625 97.22728513 258.67724609 109.18725586 C259.45845231 112.18962927 260.23594575 115.19294942 261.01342773 118.19628906 C263.35165117 127.19998023 265.72269873 136.19453819 268.27709961 145.13964844 C268.47544907 145.8533812 268.67379852 146.56711395 268.87815857 147.30247498 C269.36540668 148.97426233 269.93630932 150.62127556 270.52319336 152.26074219 C273.48476296 153.74152699 276.35825631 153.61388256 279.64819336 153.82324219 C281.57018555 153.94892578 281.57018555 153.94892578 283.53100586 154.07714844 C284.51842773 154.13773438 285.50584961 154.19832031 286.52319336 154.26074219 C286.87716187 153.42434204 286.87716187 153.42434204 287.23828125 152.57104492 C288.35130235 149.94558808 289.46850008 147.32192625 290.58569336 144.69824219 C290.95629883 143.82232422 291.3269043 142.94640625 291.70874023 142.04394531 C294.82850478 134.72953937 298.17302125 127.52935096 301.55258179 120.33291626 C304.33893684 114.38428258 307.0881671 108.41840863 309.83227539 102.45019531 C310.55157039 100.88837292 311.27297489 99.32752057 311.99633789 97.76757812 C313.05985886 95.47333681 314.11644439 93.17601392 315.17163086 90.87792969 C315.49449066 90.18520966 315.81735046 89.49248962 316.1499939 88.77877808 C317.74037778 85.29555919 318.97777487 82.0603382 319.52319336 78.26074219 C316.22319336 78.26074219 312.92319336 78.26074219 309.52319336 78.26074219 C305.84049822 86.25344527 302.17516859 94.25395777 298.52319336 102.26074219 C298.23180481 102.89915039 297.94041626 103.53755859 297.64019775 104.1953125 C295.84296743 108.13458136 294.05237651 112.0767713 292.2696228 116.02261353 C291.69090873 117.30141861 291.11037569 118.57940216 290.52798462 119.85653687 C289.70628464 121.65957517 288.89194305 123.46596135 288.07788086 125.27246094 C287.60850098 126.30846436 287.13912109 127.34446777 286.65551758 128.41186523 C285.60808096 131.04716879 284.97032921 133.4679073 284.52319336 136.26074219 C283.53319336 136.26074219 282.54319336 136.26074219 281.52319336 136.26074219 C281.22928711 134.81634766 281.22928711 134.81634766 280.92944336 133.34277344 C278.0368812 119.5712984 274.22994236 106.0722467 270.43334961 92.52734375 C268.74095812 86.45325628 267.12424119 80.35947043 265.52319336 74.26074219 C260.82472859 73.38580813 256.43532866 73.16733495 251.6730957 73.23168945 C250.60889404 73.24607056 250.60889404 73.24607056 249.52319336 73.26074219 Z M-246.69555664 75.31933594 C-248.52600525 75.48224876 -248.52600525 75.48224876 -250.39343262 75.64845276 C-252.95170906 75.87729477 -255.50977295 76.10852452 -258.06762695 76.34204102 C-261.99252941 76.69967483 -265.91817309 77.04811818 -269.84399414 77.39550781 C-272.33623044 77.61957502 -274.82841976 77.84416566 -277.32055664 78.06933594 C-279.08296692 78.22564735 -279.08296692 78.22564735 -280.88098145 78.38511658 C-281.96641235 78.48514481 -283.05184326 78.58517303 -284.17016602 78.68823242 C-285.12515991 78.77483627 -286.08015381 78.86144012 -287.06408691 78.95066833 C-289.61493167 79.19971638 -289.61493167 79.19971638 -292.47680664 80.26074219 C-292.47680664 83.23074219 -292.47680664 86.20074219 -292.47680664 89.26074219 C-289.51829724 89.11798044 -286.56003677 88.97159654 -283.60180664 88.82324219 C-282.77938477 88.78392578 -281.95696289 88.74460937 -281.10961914 88.70410156 C-280.28461914 88.66220703 -279.45961914 88.6203125 -278.60961914 88.57714844 C-277.86599121 88.54049072 -277.12236328 88.50383301 -276.35620117 88.46606445 C-272.0537757 88.15926949 -267.76698 87.70455435 -263.47680664 87.26074219 C-263.40441772 89.10285278 -263.40441772 89.10285278 -263.33056641 90.98217773 C-262.73983844 105.05080564 -261.65328311 119.04855071 -260.41430664 133.07324219 C-260.22578324 135.24182964 -260.03763044 137.41044934 -259.84985352 139.57910156 C-259.39642095 144.80669487 -258.93805168 150.03383264 -258.47680664 155.26074219 C-253.52680664 154.93074219 -248.57680664 154.60074219 -243.47680664 154.26074219 C-244.86382433 131.19244792 -247.07640151 108.24278698 -249.47680664 85.26074219 C-248.8607959 85.27234375 -248.24478516 85.28394531 -247.61010742 85.29589844 C-241.77161417 85.35818756 -236.13728177 85.01982935 -230.35180664 84.26074219 C-229.58610352 84.16535156 -228.82040039 84.06996094 -228.03149414 83.97167969 C-226.17924254 83.74014824 -224.32791316 83.50125719 -222.47680664 83.26074219 C-221.61824009 79.82647599 -221.50089081 77.64391706 -222.47680664 74.26074219 C-230.61354127 74.10477319 -238.59527826 74.57671655 -246.69555664 75.31933594 Z M334.52319336 82.26074219 C333.17069945 91.4449414 331.98392387 100.61861336 331.01538086 109.85058594 C330.88503448 111.07934952 330.75468811 112.3081131 330.62039185 113.57411194 C330.34856525 116.14440336 330.07805964 118.71483482 329.80883789 121.28540039 C329.39662038 125.21323038 328.97770073 129.14030877 328.55834961 133.06738281 C328.29362259 135.57840795 328.02928582 138.08947427 327.76538086 140.60058594 C327.64041229 141.7673436 327.51544373 142.93410126 327.38668823 144.13621521 C327.2730191 145.23168167 327.15934998 146.32714813 327.04223633 147.45581055 C326.89140091 148.88805214 326.89140091 148.88805214 326.73751831 150.34922791 C326.49491285 153.64492095 326.52319336 156.95613176 326.52319336 160.26074219 C331.14319336 160.92074219 335.76319336 161.58074219 340.52319336 162.26074219 C341.78014609 159.74683672 341.88723513 157.65486728 342.17163086 154.85229492 C342.28845215 153.7202916 342.40527344 152.58828827 342.52563477 151.42198181 C342.6485791 150.19185867 342.77152344 148.96173553 342.89819336 147.69433594 C343.02758301 146.43114029 343.15697266 145.16794464 343.2902832 143.86647034 C343.63462909 140.49838901 343.97562034 137.13000249 344.31494141 133.76141357 C344.65782412 130.36444278 345.00461405 126.9678716 345.35131836 123.57128906 C345.74249177 119.73837065 346.13317095 115.90541173 346.52075195 112.0721283 C347.02637649 107.07710268 347.53662917 102.08375144 348.10302734 97.09521484 C348.43324581 94.0816116 348.63369142 91.22211985 348.58569336 88.19824219 C348.56506836 86.89886719 348.54444336 85.59949219 348.52319336 84.26074219 C343.90319336 83.60074219 339.28319336 82.94074219 334.52319336 82.26074219 Z M-345.53930664 86.69824219 C-346.65241211 86.83294922 -347.76551758 86.96765625 -348.91235352 87.10644531 C-354.77872729 87.7942378 -354.77872729 87.7942378 -360.47680664 89.26074219 C-358.93035286 102.64711343 -357.37486099 116.03241135 -355.80932617 129.41656494 C-355.49353523 132.11765561 -355.1785026 134.81883388 -354.86352539 137.52001953 C-354.40747411 141.4257648 -353.94668191 145.33092106 -353.48181152 149.23562622 C-353.31191641 150.66812505 -353.14353864 152.10080466 -352.97668457 153.53366089 C-352.74642844 155.50827197 -352.51022931 157.48218741 -352.27368164 159.45605469 C-352.14316406 160.55965332 -352.01264648 161.66325195 -351.87817383 162.80029297 C-351.73265818 165.1995701 -351.73265818 165.1995701 -350.47680664 166.26074219 C-348.28630643 166.17056223 -346.09834064 166.01408011 -343.91430664 165.82324219 C-342.11799805 165.67048828 -342.11799805 165.67048828 -340.28540039 165.51464844 C-339.35856445 165.43085937 -338.43172852 165.34707031 -337.47680664 165.26074219 C-338.44520215 154.18179934 -339.43463514 143.20094668 -341.47680664 132.26074219 C-337.51680664 132.26074219 -333.55680664 132.26074219 -329.47680664 132.26074219 C-328.81680664 133.91074219 -328.15680664 135.56074219 -327.47680664 137.26074219 C-326.81680664 137.26074219 -326.15680664 137.26074219 -325.47680664 137.26074219 C-325.25637695 137.95296875 -325.03594727 138.64519531 -324.80883789 139.35839844 C-323.14485971 142.98401658 -320.77564753 145.73317384 -318.16430664 148.69824219 C-317.20967967 149.80093375 -316.25525154 150.9037975 -315.30102539 152.00683594 C-314.82415283 152.54083008 -314.34728027 153.07482422 -313.85595703 153.625 C-312.47680664 155.26074219 -312.47680664 155.26074219 -311.29882812 157.02929688 C-310.03779675 158.98091556 -310.03779675 158.98091556 -307.47680664 161.26074219 C-304.31639868 161.37836756 -302.17793281 161.24439233 -299.16430664 160.63574219 C-298.42374023 160.51328125 -297.68317383 160.39082031 -296.92016602 160.26464844 C-295.10053511 159.95942003 -293.28772843 159.61398898 -291.47680664 159.26074219 C-293.10402029 155.54645016 -295.4235115 152.64433168 -297.97680664 149.51074219 C-298.77086914 148.52589844 -299.56493164 147.54105469 -300.38305664 146.52636719 C-301.07399414 145.77871094 -301.76493164 145.03105469 -302.47680664 144.26074219 C-303.13680664 144.26074219 -303.79680664 144.26074219 -304.47680664 144.26074219 C-304.72430664 143.70386719 -304.97180664 143.14699219 -305.22680664 142.57324219 C-306.70605482 139.83663305 -308.41148103 137.58423349 -310.47680664 135.26074219 C-311.13680664 135.26074219 -311.79680664 135.26074219 -312.47680664 135.26074219 C-312.74493164 134.68324219 -313.01305664 134.10574219 -313.28930664 133.51074219 C-314.50609853 131.20524176 -315.78014543 129.24018026 -317.47680664 127.26074219 C-318.13680664 127.26074219 -318.79680664 127.26074219 -319.47680664 127.26074219 C-318.77555664 126.62136719 -318.07430664 125.98199219 -317.35180664 125.32324219 C-311.6134737 119.61769972 -307.34324809 113.2540332 -307.16430664 105.13574219 C-307.22210877 99.32341651 -307.76946684 94.86373901 -311.47680664 90.26074219 C-321.36455973 82.39089789 -333.78371712 85.18751191 -345.53930664 86.69824219 Z M372.52319336 86.26074219 C372.44215866 86.85304123 372.36112396 87.44534027 372.27763367 88.05558777 C371.41825146 94.33606957 370.55799067 100.61643061 369.69726562 106.89672852 C369.3780392 109.22677706 369.05902169 111.55685423 368.74023438 113.88696289 C368.27653859 117.2759584 367.81207095 120.66484734 367.34741211 124.05371094 C367.19505096 125.167612 367.04268982 126.28151306 366.88571167 127.4291687 C366.15375867 132.76009082 365.40762049 138.08813394 364.62329102 143.41162109 C364.4830098 144.36837234 364.34272858 145.3251236 364.19819641 146.31086731 C363.93670545 148.08478037 363.67166112 149.85817502 363.40226746 151.63090515 C362.77560382 155.88515881 362.38198716 159.94504613 362.52319336 164.26074219 C367.2669736 165.00996286 372.01326576 165.73937071 376.76269531 166.4519043 C378.37221665 166.69605329 379.98098071 166.94525773 381.58886719 167.19995117 C396.34846908 169.53186708 409.44973922 170.93694101 422.52319336 162.26074219 C430.22967241 155.95397854 434.85134001 144.85242258 436.52319336 135.26074219 C437.6031856 123.64757259 437.26579091 113.20971433 430.33569336 103.51074219 C417.15349884 87.85007721 391.48300781 88.5640634 372.52319336 86.26074219 Z M-396.47680664 95.26074219 C-397.78891675 99.65735732 -397.06917429 103.57694899 -396.40258789 108.03808594 C-396.27870697 108.90946701 -396.15482605 109.78084808 -396.02719116 110.67863464 C-395.62172537 113.51958447 -395.20564933 116.35886784 -394.78930664 119.19824219 C-394.50902352 121.14523837 -394.22948563 123.09234197 -393.95068359 125.03955078 C-393.53029764 127.97387315 -393.10921337 130.90807995 -392.68504333 133.84185791 C-391.83392902 139.73167954 -391.00910797 145.62415379 -390.21899414 151.52246094 C-390.12678085 152.20797531 -390.03456757 152.89348969 -389.93955994 153.59977722 C-389.51665762 156.74657688 -389.09743547 159.89380703 -388.68310547 163.04174805 C-388.53639404 164.12721924 -388.38968262 165.21269043 -388.23852539 166.33105469 C-388.05229614 167.73508545 -388.05229614 167.73508545 -387.86230469 169.16748047 C-387.68495899 171.24170462 -387.68495899 171.24170462 -386.47680664 172.26074219 C-382.8736458 172.12267298 -379.29537064 171.81359873 -375.70166016 171.5222168 C-374.10535767 171.39278687 -374.10535767 171.39278687 -372.47680664 171.26074219 C-373.9693103 155.46736246 -376.12256706 139.77782639 -378.32263184 124.06951904 C-378.79430833 120.69673308 -379.26233381 117.32344048 -379.73071289 113.95019531 C-380.64280342 107.38658504 -381.55838691 100.82346967 -382.47680664 94.26074219 C-387.26417036 94.2147651 -391.74702034 94.48853218 -396.47680664 95.26074219 Z M479.52319336 104.26074219 C469.79645234 120.89303844 460.13020058 137.55897177 450.52319336 154.26074219 C449.92039551 155.30713867 449.31759766 156.35353516 448.6965332 157.43164062 C446.990548 160.39415223 445.28758781 163.35837909 443.58569336 166.32324219 C443.07119629 167.21615967 442.55669922 168.10907715 442.02661133 169.02905273 C441.33075928 170.24395386 441.33075928 170.24395386 440.62084961 171.48339844 C440.21358643 172.19246338 439.80632324 172.90152832 439.38671875 173.63208008 C438.44512081 175.10075429 438.44512081 175.10075429 438.52319336 176.26074219 C441.82319336 176.59074219 445.12319336 176.92074219 448.52319336 177.26074219 C452.15319336 171.32074219 455.78319336 165.38074219 459.52319336 159.26074219 C470.96231575 159.94984595 482.19794015 161.55336108 493.52319336 163.26074219 C493.57725342 163.90575684 493.63131348 164.55077148 493.68701172 165.21533203 C494.14219174 170.23675506 494.77921439 175.00064691 496.08569336 179.88574219 C496.35510742 180.90925781 496.62452148 181.93277344 496.90209961 182.98730469 C497.10706055 183.73753906 497.31202148 184.48777344 497.52319336 185.26074219 C499.10549396 185.59894384 500.6890871 185.93110158 502.27319336 186.26074219 C503.59577148 186.53917969 503.59577148 186.53917969 504.94506836 186.82324219 C507.74463301 187.37227893 507.74463301 187.37227893 511.52319336 187.26074219 C510.91490075 181.0536826 509.97450329 175.05503494 508.66772461 168.95996094 C508.39440056 167.65946808 508.39440056 167.65946808 508.11555481 166.33270264 C507.52677042 163.53690833 506.93170902 160.74250315 506.33569336 157.94824219 C505.92648372 156.02063009 505.517468 154.09297682 505.10864258 152.1652832 C504.49486492 149.27215766 503.88058573 146.37914562 503.26428223 143.48655701 C502.19254936 138.45015572 501.13845359 133.4110426 500.12010193 128.36357117 C499.71483179 126.35495902 499.30481514 124.34738083 498.89306641 122.34008789 C498.4073882 119.96550192 497.93055466 117.58908455 497.46386719 115.21069336 C497.24883545 114.17404541 497.03380371 113.13739746 496.81225586 112.06933594 C496.54469482 110.7360022 496.54469482 110.7360022 496.27172852 109.37573242 C495.63382442 106.90166527 495.63382442 106.90166527 492.52319336 105.26074219 C489.32512671 104.80036579 489.32512671 104.80036579 485.83569336 104.63574219 C484.06645508 104.52359375 484.06645508 104.52359375 482.26147461 104.40917969 C480.90602539 104.33570313 480.90602539 104.33570313 479.52319336 104.26074219 Z M-422.47680664 100.26074219 C-425.17248958 113.31673875 -427.6020854 126.39506965 -429.76928711 139.54907227 C-430.23640553 142.38144507 -430.70982829 145.2127184 -431.18383789 148.04394531 C-431.48498303 149.85703595 -431.78577834 151.67018474 -432.08618164 153.48339844 C-432.22674988 154.32387222 -432.36731812 155.16434601 -432.512146 156.0302887 C-433.0220551 159.14057682 -433.47680664 162.10305324 -433.47680664 165.26074219 C-434.13680664 165.26074219 -434.79680664 165.26074219 -435.47680664 165.26074219 C-435.74976563 164.54120361 -436.02272461 163.82166504 -436.30395508 163.08032227 C-437.45741435 160.30736199 -438.77419351 157.76594849 -440.24243164 155.14746094 C-440.79648682 154.1575415 -441.35054199 153.16762207 -441.92138672 152.14770508 C-442.51717529 151.09188232 -443.11296387 150.03605957 -443.72680664 148.94824219 C-444.33999756 147.85697021 -444.95318848 146.76569824 -445.58496094 145.64135742 C-451.70350812 134.78893365 -457.97902454 124.0296879 -464.30029297 113.29418945 C-465.06538316 111.9718329 -465.79358049 110.62719448 -466.47680664 109.26074219 C-468.39412582 109.37529899 -470.31067414 109.50280477 -472.22680664 109.63574219 C-473.82782227 109.74015625 -473.82782227 109.74015625 -475.46118164 109.84667969 C-478.32190576 110.23947341 -479.97838402 110.91725078 -482.47680664 112.26074219 C-475.40646485 124.66632352 -468.3039467 137.05262784 -461.14355469 149.40649414 C-457.96069212 154.90922977 -454.81543995 160.42844129 -451.73852539 165.99121094 C-451.14676514 167.05678223 -450.55500488 168.12235352 -449.9453125 169.22021484 C-448.82226738 171.24804599 -447.70684974 173.2801252 -446.60009766 175.31689453 C-446.10050537 176.21746582 -445.60091309 177.11803711 -445.08618164 178.04589844 C-444.65273438 178.83875244 -444.21928711 179.63160645 -443.77270508 180.44848633 C-442.52250822 182.57203568 -442.52250822 182.57203568 -439.47680664 183.26074219 C-437.23203892 182.86098903 -435.00259642 182.37108619 -432.78930664 181.82324219 C-431.02006836 181.39205078 -431.02006836 181.39205078 -429.21508789 180.95214844 C-428.31145508 180.72398437 -427.40782227 180.49582031 -426.47680664 180.26074219 C-421.63371301 153.28889149 -416.90129071 126.30463645 -412.47680664 99.26074219 C-415.9861585 99.26074219 -419.04165662 99.63616946 -422.47680664 100.26074219 Z " fill="#A22538" transform="translate(586.476806640625,1416.7392578125)"/>
<path d="M0 0 C9.95726742 11.37973419 11.17966545 24.74842621 11.1875 39.1875 C11.19974609 40.35603516 11.21199219 41.52457031 11.22460938 42.72851562 C11.2368451 50.04139957 10.60151487 56.86168983 9 64 C9.99 64 10.98 64 12 64 C12.28746094 63.13246094 12.57492187 62.26492188 12.87109375 61.37109375 C13.57978411 59.25483153 14.29949705 57.14219526 15.03515625 55.03515625 C20.56095999 39.04604353 20.5849033 22.98112659 13.84375 7.3125 C12.9245362 5.52659891 11.96664719 3.76067882 11 2 C11 1.01 11 0.02 11 -1 C82.05828886 -2.47267152 82.05828886 -2.47267152 105.875 16.875 C106.57625 17.57625 107.2775 18.2775 108 19 C106.6507021 22.14164883 105.30649493 23.74363811 102.5625 25.75 C97.89034759 29.59479209 96.51284516 33.84966547 95.5625 39.6875 C96.35570596 43.88016009 99.31339919 46.32405334 102.265625 49.23046875 C117.03020934 64.18488346 148 95.76369675 148 118 C147.319375 117.855625 146.63875 117.71125 145.9375 117.5625 C142.63726918 116.93054091 139.32855574 116.45686059 136 116 C139.14063036 122.03493678 142.49218139 127.8265616 146.25 133.5 C162.66729665 158.64269527 174.13501544 187.97347347 177 218 C177.10957031 219.05058594 177.21914063 220.10117187 177.33203125 221.18359375 C178.29641342 232.10039991 178.09666967 243.05104479 178 254 C177.01 254 176.02 254 175 254 C173.53515625 252.1015625 173.53515625 252.1015625 172.0625 249.625 C169.99967842 246.15945974 168.64934101 244.66079479 165 243 C164.96559814 243.57105469 164.93119629 244.14210938 164.89575195 244.73046875 C163.07576845 273.1278547 156.62397373 300.60781264 146 327 C145.32710937 328.7325 145.32710937 328.7325 144.640625 330.5 C134.67884408 355.12462699 117.54909998 379.71501211 94 393 C93.01 393 92.02 393 91 393 C91.28875 391.96746094 91.5775 390.93492187 91.875 389.87109375 C94.23240051 380.82564515 95.38709349 372.23611535 95.375 362.875 C95.37693359 361.4372522 95.37693359 361.4372522 95.37890625 359.97045898 C95.29237697 354.35048045 94.74474778 349.35798431 93 344 C92.34 343.67 91.68 343.34 91 343 C90.98582031 343.57105469 90.97164062 344.14210938 90.95703125 344.73046875 C89.91480369 362.44833721 79.40753327 376.05827747 66.69335938 387.56103516 C54.88374685 397.59648155 40.5320765 404.41579727 26.61352539 410.96679688 C-4.53620335 425.64465288 -35.8895836 444.55353999 -49 478 C-53.74899805 492.97886028 -52.32644916 507.45535414 -45.765625 521.67578125 C-40.05540734 532.42665564 -32.22504022 542.07622788 -21.46875 547.9921875 C-20.9840625 548.32476563 -20.499375 548.65734375 -20 549 C-20 549.66 -20 550.32 -20 551 C-25.80489842 551.16398018 -31.01868629 550.66468817 -36.6875 549.4375 C-37.9082019 549.17404785 -37.9082019 549.17404785 -39.15356445 548.90527344 C-54.99611278 545.31668821 -69.76822509 539.78483773 -84 532 C-85.20157088 531.36670907 -86.40339073 530.73389027 -87.60546875 530.1015625 C-101.30053219 522.74691114 -112.80966198 512.68669411 -124 502 C-124.90621094 501.13503906 -125.81242187 500.27007813 -126.74609375 499.37890625 C-131.38400521 494.85676169 -131.38400521 494.85676169 -133 493 C-133 492.34 -133 491.68 -133 491 C-133.66 491 -134.32 491 -135 491 C-136.59404588 489.1821746 -138.05325464 487.36852085 -139.5 485.4375 C-139.94359863 484.84888184 -140.38719727 484.26026367 -140.84423828 483.65380859 C-142.2430068 481.7787374 -143.62472116 479.89235624 -145 478 C-145.4134668 477.4332959 -145.82693359 476.8665918 -146.25292969 476.28271484 C-158.49367823 459.28717271 -172.26609011 437.11368963 -175 416 C-175.66 416 -176.32 416 -177 416 C-178.6165882 421.32645087 -180.19681324 426.66129997 -181.71875 432.015625 C-182.01136719 433.03914063 -182.30398438 434.06265625 -182.60546875 435.1171875 C-183.20594925 437.22018033 -183.80224932 439.32437095 -184.39453125 441.4296875 C-185.87244304 446.57308096 -187.36114248 451.33372755 -190 456 C-190.99 455.67 -191.98 455.34 -193 455 C-194.3057189 452.33403101 -195.40229627 449.77060856 -196.4375 447 C-196.74316895 446.1970752 -197.04883789 445.39415039 -197.36376953 444.56689453 C-207.51770861 417.053863 -208.91954996 385.39455204 -197.4765625 358.015625 C-194.73077851 352.40783336 -191.45399458 347.19407518 -188 342 C-187.34 340.99710938 -186.68 339.99421875 -186 338.9609375 C-182.54289852 333.84730823 -182.54289852 333.84730823 -181 332 C-180.34 332 -179.68 332 -179 332 C-178.75894531 331.43539063 -178.51789063 330.87078125 -178.26953125 330.2890625 C-167.60663205 311.06303502 -139.6264071 298.2432048 -120.06640625 290.8984375 C-117.82617698 290.18730118 -117.82617698 290.18730118 -117 288 C-132.85391735 288.98740121 -146.39570909 291.59428161 -161 298 C-158.3075404 277.45865091 -138.57126658 259.46822625 -123 247.25 C-121.23785086 245.90382332 -119.4659577 244.57287427 -117.68408203 243.25292969 C-116.11684995 242.08693446 -114.57111741 240.89219352 -113.02734375 239.6953125 C-82.24239462 216.57741138 -44.55371226 198.42923293 -8.31030273 185.70458984 C-7.14313721 185.29160645 -5.97597168 184.87862305 -4.7734375 184.453125 C-3.72978027 184.1015332 -2.68612305 183.74994141 -1.61083984 183.38769531 C1.5946095 181.68395732 2.41982611 180.17886344 3.8125 176.875 C5.5704431 170.0190219 6.19273026 163.28000823 3.75 156.5625 C2.03811185 154.05580664 0.17679462 152.10173273 -2 150 C-2 149.34 -2 148.68 -2 148 C-0.92621094 147.50371094 0.14757812 147.00742187 1.25390625 146.49609375 C11.35378728 141.71985953 20.05523675 137.48874051 24.3359375 126.5078125 C26.89549404 116.8417225 24.60808804 108.63082435 20 100 C18.42980871 97.56832538 16.75454139 95.30596869 15 93 C15 92.34 15 91.68 15 91 C14.01 91.495 14.01 91.495 13 92 C13.3609375 92.825 13.721875 93.65 14.09375 94.5 C17.8039634 103.73430892 19.34029281 112.00364948 18 122 C15.52620773 127.26323162 12.15948437 129.59057896 7 132 C-4.23422223 135.83453001 -15.66696654 136.09879294 -27.41796875 135.921875 C-28.3659433 135.90936707 -29.31391785 135.89685913 -30.2906189 135.88397217 C-34.2444187 135.82969714 -38.19760605 135.77414177 -42.15063477 135.67773438 C-53.96633571 135.40347455 -64.28538584 135.87302782 -75.49731445 139.81738281 C-78.69027254 140.89542624 -81.667893 141.55191009 -85 142 C-92.34016668 134.10490663 -96.29861226 123.31161281 -96.3125 112.5625 C-96.23493847 111.04007794 -96.141995 109.5177688 -96 108 C-93 109 -93 109 -91.5 111.8125 C-88.52678148 116.588017 -83.15391788 117.59371669 -78 119 C-70.09707953 120.66377273 -62.03965791 121.44609973 -55 117 C-54.22985476 104.87021246 -59.58235244 97.29109859 -67 88 C-67.57621094 87.44054687 -68.15242187 86.88109375 -68.74609375 86.3046875 C-70 85 -70 85 -70 83 C-70.58523438 82.72929688 -71.17046875 82.45859375 -71.7734375 82.1796875 C-73.9789107 81.01117363 -75.70054646 79.70550865 -77.625 78.125 C-84.62593023 72.8451857 -91.63215692 70.24377956 -100.45703125 70.6171875 C-107.20565543 71.63310942 -111.07276617 75.726286 -115 81 C-115.66 81.99 -116.32 82.98 -117 84 C-120.2443953 82.59528379 -122.23517149 80.96263471 -124.5625 78.3125 C-125.14128906 77.66925781 -125.72007812 77.02601563 -126.31640625 76.36328125 C-130.74543172 70.14620373 -131.4373018 65.05854003 -131.25 57.625 C-131.24484375 56.84511719 -131.2396875 56.06523438 -131.234375 55.26171875 C-131.12781517 46.83017212 -130.52806294 38.41339354 -130 30 C-27.08734964 -9.13358566 -27.08734964 -9.13358566 0 0 Z M-52 28 C-51.67 28.66 -51.34 29.32 -51 30 C-47.77090994 30.05834353 -44.54195662 30.09371115 -41.3125 30.125 C-40.40048828 30.14175781 -39.48847656 30.15851562 -38.54882812 30.17578125 C-32.01510813 30.29871466 -32.01510813 30.29871466 -26 28 C-23.68498196 24.98716267 -23.68498196 24.98716267 -22 22 C-24.4399019 19.5600981 -25.14494141 19.70342591 -28.5 19.6875 C-37.51628634 19.89536827 -44.6994528 22.84067475 -52 28 Z " fill="#000000" transform="translate(596,752)"/>
<path d="M0 0 C0.92167969 0.44085937 1.84335937 0.88171875 2.79296875 1.3359375 C9.9742963 5.00256737 15.99277961 9.64729765 22 15 C23.14082031 16.01513672 23.14082031 16.01513672 24.3046875 17.05078125 C46.29698171 37.82997738 55.60390016 66.29215883 57 96 C57.04382813 96.84997559 57.08765625 97.69995117 57.1328125 98.57568359 C58.40245741 127.67700304 53.84850713 157.09168045 50.0625 185.875 C47.03359275 208.92605709 44.75256812 232.0084041 42.62938213 255.15839005 C41.16447135 271.11375163 39.67120288 287.06651511 38.18071651 303.01950359 C37.5613127 309.65239007 36.94564071 316.28560969 36.33295345 322.91911983 C35.94633573 327.09922831 35.55720315 331.27910017 35.16749382 335.45892143 C34.98399964 337.43296757 34.80158933 339.40711478 34.6203022 341.38136482 C34.36983202 344.10738121 34.11554852 346.8330164 33.86035156 349.55859375 C33.78763377 350.36030471 33.71491598 351.16201567 33.63999462 351.9880209 C33.31549233 355.41580263 32.89166748 358.6762161 32 362 C31.34 362 30.68 362 30 362 C29.94054199 361.40614502 29.88108398 360.81229004 29.81982422 360.20043945 C25.28154996 315.91674486 15.53142299 274.05774436 2.78515625 231.4675293 C-5.3284178 204.2742609 -11.92008593 176.252961 1.74633789 149.69213867 C4.87929448 143.90914342 8.59281416 138.88586895 13 134 C13.79148437 133.113125 14.58296875 132.22625 15.3984375 131.3125 C16.92911934 129.60843996 18.46849319 127.91211536 20.01953125 126.2265625 C20.67308594 125.49179687 21.32664062 124.75703125 22 124 C22.556875 123.38769531 23.11375 122.77539062 23.6875 122.14453125 C31.15820765 109.93792857 28.09755154 84.71412609 24.97265625 71.4296875 C22.16559013 61.53167927 18.78380939 53.77026936 12 46 C11.09894531 44.80310547 11.09894531 44.80310547 10.1796875 43.58203125 C-0.10437605 31.39965489 -16.4897537 22.0913893 -32 19 C-32.969375 18.773125 -33.93875 18.54625 -34.9375 18.3125 C-55.24460515 16.24034641 -74.99612153 21.02915614 -91.828125 32.58203125 C-94 34 -94 34 -97 35 C-97 35.66 -97 36.32 -97 37 C-99.09604344 39.15769178 -101.21749046 41.273384 -103.421875 43.3203125 C-113.85437775 54.03325887 -117.43874117 70.46560958 -117.43725586 84.8671875 C-117.19975249 93.44885904 -114.94344982 100.99310508 -112 109 C-111.60578857 110.09973145 -111.60578857 110.09973145 -111.20361328 111.22167969 C-105.34770676 127.34362482 -97.55425085 142.62785864 -90 158 C-82.39194666 173.49581452 -75.12752469 189.03437763 -68.53515625 204.9921875 C-66.82091926 209.11764787 -65.00909077 213.17958355 -63.1171875 217.2265625 C-59.54620728 224.89502457 -56.29887277 232.68620373 -53.0625 240.5 C-52.74185577 241.272229 -52.42121155 242.04445801 -52.09085083 242.84008789 C5.06813772 380.50837357 5.06813772 380.50837357 8.66552734 415.81445312 C9.07668961 419.73039859 9.54820748 423.63779408 10.01953125 427.546875 C16.62094633 482.89161505 16.82037152 535.88081205 -17.90625 582.5625 C-25.77816694 592.55858501 -34.24274764 601.81209592 -44 610 C-44.82886719 610.7321875 -45.65773438 611.464375 -46.51171875 612.21875 C-53.35381745 617.49963475 -59.45246643 617.64386535 -67.68359375 616.7109375 C-69.45619624 616.47747773 -71.22830378 616.24024063 -73 616 C-74.51037842 615.8148584 -74.51037842 615.8148584 -76.05126953 615.62597656 C-108.53846298 611.61351631 -144.86725601 605.85915782 -166.6953125 578.8515625 C-177.79896838 563.09367961 -177.27951015 544.37766307 -174.25 526.1875 C-174.09329834 525.23302979 -173.93659668 524.27855957 -173.77514648 523.29516602 C-172.60331853 516.82175706 -170.66601627 511.00998576 -168 505 C-178.32307109 510.89889776 -184.23879049 522.65555187 -187.88671875 533.6796875 C-188.32762768 535.4370692 -188.67902579 537.21680997 -189 539 C-193.40754789 538.47978358 -197.43204461 537.65149967 -201.68896484 536.33740234 C-228.05090827 528.26939896 -256.42182464 527.18479504 -283.796875 525.51171875 C-319.57426643 523.32131465 -363.66687553 520.29791119 -389.96484375 492.47265625 C-400.37787265 479.82112594 -403.17257369 466.12625657 -402.21142578 450.14501953 C-401.32171442 441.11845598 -397.62953792 432.12538656 -392 425 C-391.34 425 -390.68 425 -390 425 C-389.73703125 424.41476562 -389.4740625 423.82953125 -389.203125 423.2265625 C-381.5010298 408.97268501 -361.69699522 400.3028323 -348 393 C-346.32490101 392.10312408 -344.64980976 391.20623366 -342.97489929 390.30900574 C-338.72210476 388.03094208 -334.46837438 385.75463126 -330.21362305 383.48022461 C-323.68181035 379.98674738 -317.15602286 376.48465973 -310.6875 372.875 C-308.96080078 371.91207031 -308.96080078 371.91207031 -307.19921875 370.9296875 C-304.74562599 369.44974266 -302.46018098 367.93241329 -300.14453125 366.2578125 C-297 364 -297 364 -296 364 C-295.91753553 365.83254385 -295.8601601 367.66622088 -295.8125 369.5 C-295.76029297 371.03140625 -295.76029297 371.03140625 -295.70703125 372.59375 C-296.07424359 376.86320547 -297.36311525 380.04741741 -299 384 C-269.54566693 374.00584009 -237.10429355 356.30520052 -222 328 C-219.23583171 330.63282552 -217.03610571 333.25470413 -214.9375 336.4375 C-189.32607719 373.49232449 -150.14560441 390.06897862 -108.80737305 404.14672852 C-81.98630275 413.28939365 -55.39893928 425.54925576 -38 449 C-27.3294023 434.63440568 -28.10448099 417.14600986 -30.45898438 400.21069336 C-35.09257046 369.48309732 -46.83714293 340.15560603 -58.55126953 311.54833984 C-60.19063796 307.53307515 -61.81305345 303.51117115 -63.43359375 299.48828125 C-72.12710093 277.92431853 -80.97683203 256.42810147 -90 235 C-90.30466187 234.27552673 -90.60932373 233.55105347 -90.92321777 232.80462646 C-103.85614128 202.06039075 -117.28895841 171.5228197 -132.64819336 141.90161133 C-146.558832 114.8614969 -153.30217985 85.33585257 -143.93359375 55.6171875 C-135.08989137 30.92486995 -117.31527044 13.1286496 -94.08178711 1.74926758 C-64.75535992 -12.06560311 -29.53204248 -14.28565562 0 0 Z " fill="#000000" transform="translate(961,793)"/>
<path d="M0 0 C1.64343384 0.1366507 1.64343384 0.1366507 3.32006836 0.27606201 C81.18104279 6.76352746 158.44153811 17.42301344 235.0625 32.6875 C236.21114532 32.91570435 237.35979065 33.14390869 238.54324341 33.37902832 C253.10874635 36.28241255 267.57465085 39.46697923 282 43 C282.08135404 54.62539679 281.93074531 66.20551642 281.41137314 77.81945229 C281.25186133 81.40402224 281.10359441 84.98904323 280.95413589 88.57404423 C280.82906997 91.57121918 280.70274384 94.56833949 280.5763855 97.56546021 C279.03436323 134.31151795 277.777434 171.06125029 276.7265625 207.82421875 C276.69980965 208.75868867 276.67305681 209.69315859 276.64549327 210.65594578 C276.10444888 229.56591771 275.5745046 248.47618707 275.06102765 267.3869279 C273.81871641 313.12068433 272.27775188 358.82245266 270.16015244 404.52441788 C269.97016438 408.64748406 269.78544632 412.77077037 269.6018219 416.89412403 C269.15759769 426.86830185 268.68854389 436.84101341 268.1875 446.8125 C268.14826542 447.5943441 268.10903084 448.3761882 268.06860733 449.18172455 C264.14835917 526.95397842 258.41865251 604.93214752 247 682 C246.8773175 682.83092163 246.75463501 683.66184326 246.62823486 684.51794434 C223.29477666 842.057835 223.29477666 842.057835 184 901 C174.53975717 899.58341805 165.11141911 898.01477146 155.6875 896.375 C154.34962873 896.14311747 153.01173819 895.91134611 151.67382812 895.6796875 C148.44902873 895.1208775 145.22442514 894.56096471 142 894 C142.78922046 890.3460427 144.03053635 888.52444336 146.5 885.6875 C151.79884014 879.23426969 155.88474573 872.2381254 160 865 C160.98806641 863.29070312 160.98806641 863.29070312 161.99609375 861.546875 C178.17647554 832.50683364 188.19031409 799.18267858 196 767 C196.16695374 766.31391663 196.33390747 765.62783325 196.50592041 764.92095947 C217.25915087 679.36123435 225.5603187 591.14625709 235.1875 442.5625 C235.22455929 441.81838993 235.26161858 441.07427986 235.29980087 440.307621 C235.81342522 429.9512487 236.28005086 419.59304595 236.72872925 409.2336731 C236.92262598 404.75830666 237.12096592 400.28315688 237.32131958 395.80807495 C239.04498455 357.17137079 240.41222714 318.52991778 241.53515625 279.87109375 C241.58241022 278.24501942 241.58241022 278.24501942 241.63061881 276.58609509 C242.11566604 259.87011679 242.58972306 243.15382903 243.0625 226.4375 C243.4777697 211.76098845 243.89475294 197.08453202 244.31963629 182.40829521 C244.47205359 177.13650345 244.6228108 171.86467726 244.76906013 166.59271049 C245.38355979 144.44979024 246.11574783 122.32848991 247.36016178 100.21072292 C247.88027146 90.79255255 248.11436989 81.43373607 248 72 C199.63928312 61.30519774 151.07282473 52.6996528 102 46 C100.34130831 45.77132367 98.68261689 45.54264537 97.02392578 45.31396484 C44.92186131 38.17814231 -7.52433865 34.10749614 -60 31 C-60.97255737 30.94177063 -61.94511475 30.88354126 -62.94714355 30.82354736 C-83.22288216 29.60966799 -103.50165041 28.59590621 -123.8079834 28.05859375 C-126.16404344 27.99561503 -128.52000349 27.92942995 -130.87597656 27.86328125 C-216.54556811 25.50310905 -302.1025583 27.37578217 -450.29754639 37.73431396 C-453.07424241 38.00729899 -455.85164513 38.27165309 -458.62939453 38.53369141 C-529.40952193 45.22543809 -599.59037448 56.67568232 -669 72 C-668.93268677 73.67606323 -668.93268677 73.67606323 -668.86401367 75.38598633 C-667.54067303 108.62647551 -666.49365845 141.87330824 -665.5 175.125 C-665.4343622 177.32012956 -665.36871887 179.51525895 -665.30307007 181.71038818 C-665.27054484 182.79795536 -665.23801962 183.88552254 -665.20450878 185.0060463 C-665.04273411 190.41419146 -664.88082108 195.82233246 -664.71875 201.23046875 C-664.67142699 202.81005623 -664.67142699 202.81005623 -664.62314796 204.42155457 C-664.0454623 223.68334797 -663.42608578 242.94335762 -662.76953125 262.20263672 C-662.69007234 264.53482965 -662.61064593 266.86702368 -662.53125 269.19921875 C-662.49088623 270.38398804 -662.45052246 271.56875732 -662.40893555 272.78942871 C-662.0521743 283.32479977 -661.71355605 293.86072469 -661.3770752 304.39676094 C-661.28060927 307.41457553 -661.1838203 310.43237958 -661.08691406 313.45018005 C-661.03842316 314.96033424 -661.03842316 314.96033424 -660.98895264 316.50099659 C-660.92325018 318.54685409 -660.85753561 320.5927112 -660.79180908 322.63856792 C-660.63278815 327.59298209 -660.47455944 332.54741865 -660.31835938 337.50192261 C-658.88937806 382.78709466 -657.00962882 428.02509244 -654.25 473.25 C-654.18576843 474.30873573 -654.12153687 475.36747147 -654.05535889 476.4582901 C-648.4984482 568.00109328 -641.13291944 660.33087842 -568.20019531 885.31103516 C-566.40651598 887.83517544 -564.7029145 890.41394612 -563 893 C-569.4921876 895.31435044 -576.15113026 896.50363328 -582.90478516 897.76928711 C-585.12719009 898.18791254 -587.34670659 898.62002288 -589.56640625 899.05273438 C-590.98421863 899.32113981 -592.40218264 899.58874581 -593.8203125 899.85546875 C-595.10180176 900.09934326 -596.38329102 900.34321777 -597.70361328 900.59448242 C-602.46047252 901.17966559 -602.46047252 901.17966559 -605 900 C-606.2734375 898.49487305 -606.2734375 898.49487305 -607.375 896.51171875 C-607.79644287 895.75826172 -608.21788574 895.00480469 -608.65209961 894.22851562 C-609.09690674 893.38998047 -609.54171387 892.55144531 -610 891.6875 C-610.47638916 890.79869141 -610.95277832 889.90988281 -611.44360352 888.99414062 C-654.4526415 806.94397265 -665.95307679 708.07512273 -691.1875 402.0625 C-691.22449257 401.19768887 -691.26148514 400.33287773 -691.29959869 399.4418602 C-691.91664479 384.96311747 -692.46474042 370.48196778 -693 356 C-693.05306612 354.570519 -693.10615358 353.1410388 -693.1592598 351.7115593 C-694.71222742 309.8737131 -696.13637206 268.03371044 -697.31640625 226.18359375 C-697.34243164 225.26130077 -697.36845703 224.33900778 -697.39527106 223.38876653 C-697.8431425 207.5015219 -698.28240242 191.61403946 -698.71972656 175.72650146 C-699.08092567 162.60790836 -699.44567528 149.48942113 -699.81640625 136.37109375 C-699.841489 135.48102993 -699.86657174 134.5909661 -699.89241457 133.67393064 C-700.55890145 110.05741305 -701.32338301 86.45520846 -702.53415203 62.85908222 C-702.59060249 61.75719956 -702.59060249 61.75719956 -702.64819336 60.63305664 C-702.68357869 59.94531001 -702.71896402 59.25756338 -702.75542164 58.54897594 C-703.01066889 53.35858293 -703.07029179 48.19543757 -703 43 C-679.40105147 37.64984321 -655.77898254 32.49056655 -632 28 C-631.11153381 27.83220032 -630.22306763 27.66440063 -629.30767822 27.49151611 C-542.91197224 11.24083688 -455.28188884 1.18966881 -324 -6 C-322.47297901 -6.06585399 -320.9459605 -6.13176543 -319.41894531 -6.19775391 C-311.64373637 -6.52420868 -303.86934271 -6.76459455 -296.08953857 -6.94854736 C-293.77717298 -7.00548688 -291.46501938 -7.06856109 -289.15283203 -7.13232422 C-202.76848376 -9.49055438 -116.01286899 -8.55082535 0 0 Z " fill="#000000" transform="translate(812,526)"/>
<path d="M0 0 C1.40214061 -0.0070238 2.8042809 -0.0141106 4.2064209 -0.02125549 C8.66626445 -0.04066335 13.12605598 -0.04569068 17.5859375 -0.046875 C18.72791721 -0.04753778 18.72791721 -0.04753778 19.89296722 -0.04821396 C43.41123377 -0.05536839 66.57166663 0.60987161 89.9609375 3.203125 C90.70145481 3.28472429 91.44197212 3.36632359 92.20492935 3.45039558 C113.7222254 5.82725444 135.16737355 8.5698895 156.57421875 11.796875 C158.14476139 12.03353347 158.14476139 12.03353347 159.74703217 12.27497292 C168.33285782 13.5714113 176.91656524 14.88166495 185.49938965 16.19781494 C277.21429323 30.26169341 374.11162027 44.10706952 484.52734375 10.0859375 C486.9609375 9.203125 486.9609375 9.203125 489.9609375 9.203125 C489.10346929 15.57288881 485.58331409 18.96709631 480.9609375 23.203125 C411.82142994 75.01443518 283.88649611 83.50624507 167.9453125 74.34375 C166.66849609 74.16005859 165.39167969 73.97636719 164.07617188 73.78710938 C125.79256649 68.31802289 87.87985003 64.94423245 49.19400024 64.83520889 C47.12515027 64.82825677 45.05637152 64.81660627 42.98754883 64.80404663 C-9.52158164 64.142444 -9.52158164 64.142444 -55.11328125 86.9296875 C-59.8133431 92.47823922 -62.165919 98.57516221 -62.2265625 105.828125 C-62.24074219 106.60414063 -62.25492187 107.38015625 -62.26953125 108.1796875 C-62.22572086 110.43149493 -62.22572086 110.43149493 -60.0390625 112.203125 C-51.55714869 113.44505381 -44.58041744 109.98043057 -36.94540405 106.73336792 C-33.05387647 105.08258561 -29.13801009 103.49169674 -25.22265625 101.8984375 C-24.43963638 101.57892624 -23.65661652 101.25941498 -22.84986877 100.93022156 C-8.09694897 94.94502076 7.01554135 89.90005163 22.5234375 86.265625 C23.31854736 86.07798584 24.11365723 85.89034668 24.93286133 85.69702148 C41.74460614 82.05638094 58.71231646 81.83378711 75.8359375 81.890625 C77.55218323 81.89335922 77.55218323 81.89335922 79.30310059 81.89614868 C98.47789011 81.94729611 117.3551395 82.87512098 136.41052246 84.93048096 C141.38666346 85.46243955 146.36553586 85.96834562 151.34375 86.48046875 C157.72941768 87.13880444 164.11443352 87.8018488 170.49707031 88.48901367 C187.79563991 90.34971631 204.82195588 91.38972065 222.22583008 91.38842773 C225.49248489 91.39060438 228.75879564 91.4087926 232.02539062 91.42773438 C250.16665697 91.47745785 267.88992443 90.13998202 285.7734375 87.078125 C287.41989258 86.80548828 287.41989258 86.80548828 289.09960938 86.52734375 C291.72119469 86.09232086 294.34153166 85.65104829 296.9609375 85.203125 C296.9609375 86.193125 296.9609375 87.183125 296.9609375 88.203125 C264.96862135 104.76682088 231.68670319 111.61352478 196.0234375 115.390625 C195.28592255 115.46943909 194.54840759 115.54825317 193.7885437 115.62945557 C188.18470242 116.21925137 182.57581552 116.7304787 176.9609375 117.203125 C175.50527374 117.32605927 175.50527374 117.32605927 174.02020264 117.45147705 C149.37554747 119.46995317 124.67802473 120.06017763 99.96954346 120.79168701 C94.06893758 120.96655455 88.16855135 121.14694229 82.26834106 121.33470154 C79.56760995 121.41856268 76.86674053 121.49470012 74.16577148 121.57043457 C65.29507381 121.83918146 56.47197079 122.32646771 47.63305664 123.13647461 C46.34043789 123.25165184 46.34043789 123.25165184 45.02170563 123.36915588 C37.7693256 124.08142547 31.25740484 125.75946386 24.3984375 128.265625 C23.25407227 128.66628174 22.10970703 129.06693848 20.93066406 129.47973633 C11.67586626 132.78677889 2.74282382 136.63154169 -6.13525391 140.83251953 C-71.46582453 171.66872463 -71.46582453 171.66872463 -97.7265625 163.578125 C-108.83655763 159.09349968 -117.5921178 151.78631043 -122.8515625 140.890625 C-132.4294161 117.89732662 -131.96245676 89.72983435 -122.6472168 66.81689453 C-117.74706417 55.54316811 -110.58825925 45.99146012 -102.0390625 37.203125 C-101.34296875 36.44515625 -100.646875 35.6871875 -99.9296875 34.90625 C-73.64233697 7.0838717 -36.56987482 0.12437085 0 0 Z " fill="#000000" transform="translate(387.0390625,592.796875)"/>
<path d="M0 0 C67.815 0.495 67.815 0.495 137 1 C137 3.31 137 5.62 137 8 C135.05859375 9.78515625 135.05859375 9.78515625 132.4375 11.0625 C119.73657817 17.86847921 112.37553259 28.89486579 105 41 C104.34257812 42.00546875 103.68515625 43.0109375 103.0078125 44.046875 C99.59885536 49.44096782 97.17788465 53.57816438 97.55859375 60.0625 C98.07879181 62.34584723 98.7736306 63.99798026 100 66 C106.15915957 69.58393103 113.64243559 69.52598479 120.5625 69.6875 C122.36944988 69.74015184 124.17636841 69.79388617 125.98326111 69.84846497 C126.92282622 69.87678815 127.86239134 69.90511133 128.83042812 69.93429279 C129.54638684 69.95597617 130.26234556 69.97765955 131 70 C130.40780244 84.12563538 129.51781393 98.19893979 128.36328125 112.2890625 C128.20161494 114.2939106 128.040262 116.29878399 127.87919617 118.30368042 C127.53790604 122.544007 127.19452111 126.78415627 126.84936523 131.02416992 C126.30178446 137.75086683 125.75895956 144.47794266 125.21679688 151.20507812 C124.48555231 160.27389834 123.75247196 169.34256807 123.01806641 178.41113281 C122.14557348 189.18769002 121.27897064 199.96470642 120.41796875 210.7421875 C120.35798391 211.49302927 120.29799908 212.24387104 120.23619652 213.01746559 C119.99862272 215.99175134 119.76111803 218.9660426 119.52372646 221.9403429 C119.11470062 227.06501761 118.70492416 232.18963185 118.29467773 237.31420898 C117.11964483 251.99284237 115.94608521 266.67159185 114.77530289 281.35056496 C114.07165758 290.17262263 113.36745776 298.99463595 112.66296005 307.8166256 C112.23384033 313.19070285 111.80500577 318.56480248 111.37695312 323.93896484 C110.34322777 336.91556407 109.30303904 349.89162321 108.25328064 362.86693573 C107.98767357 366.15247704 107.72291127 369.4380859 107.45812988 372.72369385 C107.00433691 378.3476991 106.54614266 383.97133179 106.08496475 389.5947361 C105.90969402 391.73869328 105.73569348 393.88275471 105.56301498 396.02692223 C105.32435456 398.98675605 105.08099945 401.94616734 104.83642578 404.90551758 C104.76640476 405.78645144 104.69638374 406.66738529 104.62424088 407.57501411 C104.55658398 408.38181051 104.48892708 409.18860691 104.41921997 410.01985168 C104.33349322 411.0703506 104.33349322 411.0703506 104.24603462 412.14207172 C104 414 104 414 103 417 C101.16115234 417.23783203 101.16115234 417.23783203 99.28515625 417.48046875 C87.98163623 418.99523601 76.84463245 420.91345079 65.70532227 423.3737793 C56.34442562 425.36547565 47.81366155 425.32535285 38.375 424 C37.29798828 423.85691406 37.29798828 423.85691406 36.19921875 423.7109375 C34.46536284 423.47975671 32.73255287 423.24075176 31 423 C29.83642452 419.1580988 29.6314147 415.25407428 29.3515625 411.2734375 C29.2946373 410.50704956 29.2377121 409.74066162 29.17906189 408.9510498 C29.05614741 407.29475984 28.93467444 405.6383624 28.81448364 403.98187256 C28.49006125 399.51854365 28.15372523 395.05612034 27.81640625 390.59375 C27.74802048 389.68793182 27.6796347 388.78211365 27.60917664 387.84884644 C26.99976471 379.85046706 26.29317499 371.86324966 25.5625 363.875 C24.0384986 347.11581138 22.79302989 330.33719287 21.54663086 313.55541992 C20.75332884 302.89211354 19.95122116 292.23037108 19.06640625 281.57421875 C16.79384033 254.14064495 14.82994313 226.69109219 12.95735931 199.22766495 C12.75047221 196.19442319 12.54301883 193.16122053 12.33551025 190.12802124 C12.00675537 185.3176539 11.68018893 180.50714275 11.35544968 175.69650269 C11.23395323 173.89893191 11.11195399 172.10139504 10.98942947 170.30389404 C10.82038384 167.82013688 10.65352869 165.3362423 10.48730469 162.85229492 C10.43747499 162.12584369 10.3876453 161.39939245 10.33630562 160.65092754 C9.83409906 153.06700318 9.83409906 153.06700318 10 150 C11.328125 148.5859375 11.328125 148.5859375 13.25 147.375 C22.31341564 141.10774451 34.93591282 131.39677737 38.8125 120.7734375 C39.40159927 117.49657281 39.10166392 115.24078296 37.8125 112.1875 C36.03492937 110.04215613 34.32464214 108.5230414 32 107 C33.30986694 103.07039917 35.04500055 102.50749321 38.5 100.3125 C42.39305768 97.65825083 42.39305768 97.65825083 45.0546875 93.91015625 C45.79767558 89.18946371 44.51267821 85.90180113 42 82 C39.58064251 80.55977072 37.44082166 79.44279649 34.875 78.375 C28.23585306 75.56562046 28.23585306 75.56562046 27.13671875 72.9296875 C27.09160156 72.29289063 27.04648437 71.65609375 27 71 C26.36345658 69.6520257 25.70394612 68.31403276 25 67 C27.49361571 68.20381448 29.68143083 69.45428722 32 71 C36.56811748 69.28961183 39.41016979 68.15781485 41.6875 63.6875 C42.05375507 59.36569023 41.55865539 56.46689198 39 53 C37.32615506 51.53122968 37.32615506 51.53122968 35.3828125 50.1875 C32.5217715 48.10970854 29.69958954 46.00463473 26.921875 43.81640625 C19.56638733 38.06731947 12.36924218 32.69409057 4.125 28.26953125 C2 27 2 27 1 25 C0.76404785 22.8589527 0.58578114 20.71139964 0.4375 18.5625 C0.35371094 17.40878906 0.26992187 16.25507812 0.18359375 15.06640625 C-0.04293619 10.04900916 0 5.02250827 0 0 Z " fill="#000000" transform="translate(230,863)"/>
<path d="M0 0 C11.99759644 2.26369744 20.99766509 9.06821302 30 17 C30.52916016 17.46212891 31.05832031 17.92425781 31.60351562 18.40039062 C52.44340915 36.69345815 64.54283165 59.36807387 67.7578125 87.1875 C70.49986589 130.35272758 57.39039732 160.82030785 33.421875 195.76953125 C20.37384231 215.17730649 9.58450045 236.96621525 13.46875 260.88671875 C16.29190502 271.59118155 23.05496227 281.79532355 32.59375 287.5703125 C38.8597041 290.79543593 43.86579548 292.4920141 51 292 C54.98066095 290.42275698 56.60667274 289.58999089 59 286 C61.27316204 271.39930539 53.96934753 259.00704796 46.63671875 247.0234375 C42.50138606 239.38442199 43.61819456 231.15222438 45.75 223.0625 C45.90726563 222.41087891 46.06453125 221.75925781 46.2265625 221.08789062 C48.77217981 211.11102895 53.89633652 202.13953639 58.625 193.0625 C59.25086387 191.85402984 59.8766771 190.64553344 60.50244141 189.43701172 C63.60142108 183.4714083 66.77731858 177.56663994 70.14770508 171.7487793 C83.18656514 149.18561166 90.76352585 125.79251309 84 100 C83.65406678 98.33590292 83.31619538 96.6700028 83 95 C94.64527903 99.24950533 101.3740864 108.41967306 106.75 119.1875 C116.96575551 143.63113941 112.17726147 172.27746592 108.3671875 197.72802734 C106.91392113 210.6779448 112.88949012 217.43602268 120.54101562 227.13916016 C135.33207276 246.00419321 135.33207276 246.00419321 140 255 C140.40992188 255.77085937 140.81984375 256.54171875 141.2421875 257.3359375 C146.14616309 267.78647859 144.75999581 278.84502172 141.3125 289.55859375 C136.92533734 301.06183869 130.62324981 309.46512903 122 318 C121.37738281 318.64453125 120.75476563 319.2890625 120.11328125 319.953125 C97.79008988 341.4235203 61.85277104 348.422129 31.93432617 348.30249023 C14.24438531 347.94023314 -3.04038718 344.92833869 -20 340 C-20.67853027 339.80680176 -21.35706055 339.61360352 -22.05615234 339.41455078 C-32.33138414 336.43588808 -41.61887683 332.04271371 -51 327 C-51.92683594 326.51789063 -52.85367188 326.03578125 -53.80859375 325.5390625 C-68.73509562 317.27575106 -80.34436309 303.91841451 -85.75 287.7578125 C-90.41889128 270.05493308 -83.99772326 254.21041414 -75.26171875 239.10498047 C-72.09196909 233.81674874 -68.61965176 228.73795325 -65.12402344 223.66210938 C-63.51104492 221.27697519 -62.00927593 218.82668767 -60.5 216.375 C-56.79270798 210.50584449 -52.55998043 205.07761026 -48.27636719 199.62646484 C-44.47578774 194.78341583 -40.73575628 189.89312278 -37 185 C-36.44151367 184.26894043 -35.88302734 183.53788086 -35.30761719 182.78466797 C-26.70283225 171.4929128 -18.38695582 160.05681849 -10.50683594 148.24658203 C-9.06611861 146.098578 -7.60192479 143.96848506 -6.1328125 141.83984375 C13.02296866 113.69113268 24.47028951 82.22147342 18 48 C14.9267961 32.87168688 8.83287692 18.15240667 0.93334961 4.90576172 C0 3 0 3 0 0 Z " fill="#A22437" transform="translate(878,13)"/>
<path d="M0 0 C12.69834867 -0.81013204 24.11073104 10.51203193 33.14892578 18.35986328 C54.60542388 37.37130541 66.24886228 63.41798314 68 92 C69.85502338 125.84669678 60.50216579 154.38834012 41.640625 182.09375 C17.40765669 217.33288115 17.40765669 217.33288115 13.078125 258.5546875 C16.09970286 269.8471946 22.01020539 280.05581249 32 286.3125 C38.28670264 289.83117685 43.75716372 291.8818623 51 291 C55.35380988 289.6856423 56.64825965 288.56491632 59.0625 284.6875 C62.53713077 272.76222403 54.68972545 260.85258508 49.20483398 250.82006836 C48.19980546 248.99036934 47.18816759 247.16427205 46.16748047 245.34326172 C41.68847798 236.35341105 44.10734721 226.12118744 47 217 C52.01383181 203.06002823 59.41560366 190.02584853 66.5 177.0625 C80.23449684 151.82024312 91.77244554 128.20015089 84 99 C83.36602006 97.3206276 82.71120978 95.64815135 82 94 C90.14275577 95.16936247 95.446387 100.9117734 100.25 107.25 C116.62729942 131.24616236 113.16090764 160.50821077 109.42358398 187.88256836 C107.21843455 203.88781482 107.21843455 203.88781482 114.2578125 217.984375 C115.61882109 219.7176843 116.99081978 221.44165656 118.36743164 223.16259766 C145.58465316 257.19863743 145.58465316 257.19863743 144 278 C140.48915911 296.3767443 129.62020574 312.30590387 114.625 323.375 C79.35941346 347.08071905 37.13386589 351.09461766 -3.875 343.3125 C-20.53920699 339.92029502 -36.11987733 334.18996559 -51 326 C-51.94230469 325.49726563 -52.88460937 324.99453125 -53.85546875 324.4765625 C-60.35702747 320.82762567 -65.69158389 316.20978 -71 311 C-71.639375 310.38511719 -72.27875 309.77023437 -72.9375 309.13671875 C-82.29527509 299.38207373 -86.83849292 286.720482 -87.4375 273.4375 C-86.97195056 251.69634121 -72.97419516 233.19602463 -61 216 C-60.5889502 215.40880371 -60.17790039 214.81760742 -59.75439453 214.20849609 C-55.03270302 207.44768283 -50.15518479 200.82741565 -45.09936523 194.31152344 C-38.6227702 185.95799698 -32.31838376 177.47339777 -26 169 C-25.47696289 168.3002002 -24.95392578 167.60040039 -24.41503906 166.87939453 C-0.38375826 134.68067178 25.11934076 97.22840837 19.5390625 55.0078125 C16.50866444 37.28889677 10.64879443 19.54746052 1.26171875 4.1484375 C0 2 0 2 0 0 Z " fill="#A22437" transform="translate(573,0)"/>
<path d="M0 0 C19.51333584 3.37730813 37.37548492 21.97338652 49.33203125 36.9140625 C67.26892275 63.71817576 71.21280274 97.6019701 65.49072266 128.77441406 C61.11285769 150.44049428 51.83037327 168.08371494 39.5390625 186.2265625 C17.7656793 218.4227427 17.7656793 218.4227427 12 256 C14.46742896 268.50064911 20.43216211 279.61257809 31 287 C37.43786429 290.8345749 43.39374403 292.81913526 51 292 C55.23061809 290.46830478 55.23061809 290.46830478 58.12890625 287.21875 C60.769028 280.49413496 59.53065423 273.58378597 56.84594727 267.09960938 C53.72444013 260.09991693 50.15710602 253.34035772 46.3828125 246.671875 C41.72449827 237.67106446 43.85759429 227.86455293 46.66967773 218.6081543 C49.02160951 211.4002637 52.28351457 204.77777435 55.86572266 198.11279297 C57.05527109 195.89704777 58.22293258 193.67078266 59.38671875 191.44140625 C62.7694193 184.97300318 66.17528171 178.51800356 69.6484375 172.09765625 C80.90538354 151.19849004 91.92828235 128.35052503 85 104.25 C84.443125 102.55617187 84.443125 102.55617187 83.875 100.828125 C83 98 83 98 83 95 C93.59450766 98.61947593 101.20278888 108.6995554 106.2109375 118.328125 C115.47281343 139.35885081 113.02226794 163.75284973 109.42358398 185.77783203 C106.67118945 200.2059092 106.67118945 200.2059092 109.8125 214 C110.83867463 215.36148803 111.90831671 216.69045366 113 218 C114.24312714 219.5919328 115.48616149 221.18393855 116.72802734 222.77685547 C118.15442674 224.60011398 119.58993634 226.41587951 121.02734375 228.23046875 C145.55164639 259.2902928 145.55164639 259.2902928 144 278 C140.56364937 297.96147627 129.01945091 314.06583494 112.546875 325.73828125 C78.33368489 348.29697824 37.00551197 352.31693637 -2.53540039 344.37646484 C-25.14416494 339.59889012 -46.51795744 332.17729903 -65 318 C-65.76957031 317.41476562 -66.53914063 316.82953125 -67.33203125 316.2265625 C-77.14803872 308.23111473 -84.14655094 296.26724528 -86.625 283.875 C-88.87735418 260.60067347 -78.62955987 243.95370832 -66.37353516 225.11523438 C-65.24092283 223.37101945 -64.12414741 221.61653147 -63.01171875 219.859375 C-57.54309972 211.37149624 -51.31219624 203.46066794 -45.16796875 195.45703125 C-39.53183957 188.10334872 -34.05529896 180.63467231 -28.58447266 173.15771484 C-27.10009808 171.1363123 -25.60529959 169.12323048 -24.10546875 167.11328125 C-0.02860547 134.7737053 24.48714683 97.48179603 19.03515625 55.29125977 C16.57260958 38.49784582 10.39692645 23.10965061 2.54003906 8.18969727 C0 3.30724657 0 3.30724657 0 0 Z " fill="#A22538" transform="translate(268,13)"/>
<path d="M0 0 C0.66 0 1.32 0 2 0 C2.32871094 0.90878906 2.65742188 1.81757812 2.99609375 2.75390625 C8.17627575 16.6167585 15.2621509 28.80902226 25 40 C25.68578125 40.79535156 26.3715625 41.59070312 27.078125 42.41015625 C57.88555911 77.37326942 98.36367983 98.95033018 145 103 C145.33 103.99 145.66 104.98 146 106 C140.58964922 109.14109508 135.17554988 112.27560223 129.75830078 115.40478516 C127.97436797 116.43649139 126.19142127 117.46990541 124.40966797 118.50537109 C110.80910751 126.40829341 97.04351457 133.91207378 83 141 C81.96665527 141.52207031 80.93331055 142.04414062 79.86865234 142.58203125 C63.46333828 150.81096682 46.774849 157.98480809 29.720047 164.72772217 C25.62245124 166.34857259 21.5408861 168.00334494 17.46875 169.6875 C-17.50089255 184.09672484 -52.78495117 193.48802256 -90.04833984 199.56713867 C-99.01707743 201.04171339 -107.76582222 202.81050188 -116.54321289 205.18432617 C-125.04632046 207.19074487 -132.13981926 206.90859132 -139.8046875 202.55859375 C-144.57457558 199.17214296 -148.55602406 194.77590375 -150 189 C-150.19301882 185.2683029 -150.18329948 182.54989845 -149 179 C-149.825 178.938125 -150.65 178.87625 -151.5 178.8125 C-158.71662898 177.13721113 -163.59333565 173.15140443 -167.74609375 167.09765625 C-171.97722203 160.01941361 -173.35919344 152.94252016 -171.49609375 144.796875 C-169.89529935 140.0036392 -167.41350155 136.69027195 -164 133 C-165.051875 132.21625 -166.10375 131.4325 -167.1875 130.625 C-173.1419137 125.4677289 -176.00947494 119.078043 -176.9375 111.3125 C-177.21138213 105.60125207 -176.3614465 101.25162306 -173.375 96.3125 C-167.95978141 91.03978716 -163.39390751 89.75002707 -155.8125 89.6875 C-151.06095226 89.79996267 -146.40794695 90.16167806 -141.6875 90.6875 C-131.54458647 91.55335847 -121.62994167 88.97430092 -111.75390625 86.90625 C-110.43918335 86.63397583 -110.43918335 86.63397583 -109.09790039 86.35620117 C-107.42157259 86.00537117 -105.74734189 85.64429088 -104.07592773 85.27075195 C-97.03487924 83.77357199 -88.50416778 82.23442918 -82 86 C-79.95483876 87.51631147 -77.94340233 89.05771969 -75.96484375 90.66015625 C-71.84588734 93.46890784 -66.84430327 93.79026154 -62 93 C-52.86323322 89.89069582 -42.46175292 82.92350585 -38 74 C-37.34 74 -36.68 74 -36 74 C-35.72236816 73.41532959 -35.44473633 72.83065918 -35.15869141 72.22827148 C-34.05920905 70.11386451 -32.85837031 68.27441967 -31.4609375 66.34765625 C-30.96682373 65.6604248 -30.47270996 64.97319336 -29.96362305 64.26513672 C-29.43937744 63.5382666 -28.91513184 62.81139648 -28.375 62.0625 C-14.32718424 42.31451689 -5.78421635 23.42476758 0 0 Z " fill="#000000" transform="translate(420,1205)"/>
<path d="M0 0 C1.44674527 -0.01306823 2.89346984 -0.0286266 4.34016418 -0.04646301 C8.24351726 -0.0863895 12.14599467 -0.08839677 16.04951191 -0.08077312 C19.32194145 -0.07754608 22.59419807 -0.09225986 25.86659026 -0.10658938 C33.59592683 -0.13979288 41.32482597 -0.14123547 49.05419922 -0.12304688 C56.99477699 -0.10494671 64.93375744 -0.14182524 72.87406278 -0.20575708 C79.72038883 -0.25882807 86.56620994 -0.27657427 93.41273379 -0.26684386 C97.48907129 -0.26143791 101.56427015 -0.26897633 105.64041901 -0.31098747 C109.47937466 -0.3490782 113.31586741 -0.34257321 117.15479088 -0.30375481 C118.55185261 -0.29673297 119.94909413 -0.30458842 121.34594917 -0.32962418 C134.57266403 -0.54932089 142.82277134 4.72544406 152.47167969 13.26147461 C160.45107917 21.94790949 161.7549886 31.87869825 161.61230469 43.24584961 C160.84050424 56.84141129 153.65564674 69.89375008 144.65917969 79.89428711 C143.54542969 80.84948242 143.54542969 80.84948242 142.40917969 81.82397461 C141.92691673 82.2394093 141.44465378 82.654844 140.94777679 83.08286762 C134.44449834 87.91869296 127.76349665 87.53905987 119.95019531 87.48681641 C118.49402052 87.49524024 117.03785663 87.50577007 115.58171082 87.51823425 C111.64562753 87.5451908 107.71018047 87.54060654 103.77404594 87.5285337 C100.48129693 87.52138155 97.18866403 87.52991564 93.89592409 87.5384391 C86.12565857 87.55836193 78.35570094 87.55285487 70.58544922 87.53076172 C62.58263874 87.50839328 54.58063474 87.52600848 46.57790041 87.563811 C39.69268305 87.59508623 32.8077148 87.60294873 25.92243528 87.59185725 C21.8163472 87.58538384 17.7107244 87.58730672 13.60469055 87.61118126 C9.74322827 87.6324927 5.8829006 87.62438036 2.02150917 87.5940876 C0.60904542 87.58778078 -0.80350719 87.5915714 -2.21590614 87.60649872 C-9.81393808 87.68025938 -15.29346704 87.55192577 -21.10805511 82.32565022 C-21.59736763 81.83009727 -22.08668015 81.33454432 -22.59082031 80.82397461 C-23.40550781 80.09436523 -24.22019531 79.36475586 -25.05957031 78.61303711 C-35.33456932 67.66621125 -42.19333996 53.60051292 -41.77050781 38.42553711 C-40.89892821 25.80658026 -36.90828748 17.20284119 -27.32519531 8.80834961 C-26.42285156 8.15350586 -25.52050781 7.49866211 -24.59082031 6.82397461 C-23.95010212 6.33645942 -23.30938393 5.84894423 -22.64925003 5.34665585 C-15.26840641 0.26597993 -8.74741422 -0.0526249 0 0 Z " fill="#000000" transform="translate(236.5908203125,766.176025390625)"/>
<path d="M0 0 C1.13526123 0.12858398 2.27052246 0.25716797 3.44018555 0.38964844 C16.38749408 2.14923166 26.82908586 7.81753754 34.875 18.1875 C40.62434921 27.44096723 41.54056922 37.6336537 39.2109375 48.19921875 C35.75564127 58.73036073 29.31415102 68.04436146 20.875 75.1875 C19.97523438 76.14011719 19.07546875 77.09273438 18.1484375 78.07421875 C14.3095098 80.74663269 10.8711737 80.19326897 6.4765625 79.43359375 C4.26055852 79.01967306 2.0534193 78.57710545 -0.15280151 78.11383057 C-4.16996857 77.2772102 -8.20670271 76.55241824 -12.24609375 75.83203125 C-13.06987015 75.68425232 -13.89364655 75.53647339 -14.74238586 75.38421631 C-28.08644838 73.06751779 -41.60970696 72.60509152 -55.125 72.1875 C-56.09324707 72.15430664 -57.06149414 72.12111328 -58.05908203 72.08691406 C-64.09181088 71.90563006 -70.09397013 71.97331575 -76.125 72.1875 C-77.30932617 72.22858887 -78.49365234 72.26967773 -79.71386719 72.31201172 C-100.91383659 73.1354903 -122.16035924 74.96889465 -142.86865234 79.83178711 C-145.125 80.1875 -145.125 80.1875 -147.3359375 79 C-149.62212283 77.08521662 -151.89703891 75.17004024 -154.125 73.1875 C-155.07826172 72.35798828 -155.07826172 72.35798828 -156.05078125 71.51171875 C-164.3100659 63.83845873 -170.49466319 52.75765631 -171.328125 41.42578125 C-171.50188709 30.58013096 -169.58429266 22.28058877 -162.125 14.1875 C-152.95530929 4.75877848 -144.27444041 1.73531005 -131.375 0.125 C-130.13145752 -0.03709961 -128.88791504 -0.19919922 -127.60668945 -0.36621094 C-84.66247456 -5.81541046 -42.93127648 -5.35408108 0 0 Z " fill="#000000" transform="translate(667.125,360.8125)"/>
<path d="M0 0 C1.6550354 0.32943604 1.6550354 0.32943604 3.34350586 0.66552734 C12.87632399 3.38094994 20.61090246 11.47126877 25.7578125 19.69140625 C30.26161382 28.61829561 30.49026575 39.12601758 27.41015625 48.5390625 C23.32626471 59.32171138 15.05577277 71.28327374 4.54150391 76.79907227 C-2.49067498 79.24059966 -12.06546266 75.68509432 -19.08984375 74.1640625 C-57.82037944 66.12444554 -103.40565879 62.88967721 -142.51171875 70.65625 C-155.97804657 73.29302968 -155.97804657 73.29302968 -160.86328125 71.0078125 C-163.49801295 68.6974772 -165.50159033 66.34594565 -167.58984375 63.5390625 C-168.83761097 62.26603684 -170.0874723 60.9950589 -171.33984375 59.7265625 C-180.49166094 48.96992428 -182.59140958 37.49583753 -181.859375 23.89306641 C-180.98797756 16.28254638 -176.40981727 9.13414119 -170.70703125 4.12890625 C-158.36530121 -5.13877664 -146.60680352 -6.17701012 -131.58984375 -7.4609375 C-129.53239863 -7.66512629 -127.47510445 -7.8708421 -125.41796875 -8.078125 C-83.30378369 -12.07325108 -41.38588115 -8.25019717 0 0 Z " fill="#000000" transform="translate(986.58984375,379.4609375)"/>
<path d="M0 0 C1.18207031 0.14630859 2.36414063 0.29261719 3.58203125 0.44335938 C13.43312238 2.23609119 21.90170007 8.56763245 27.671875 16.62890625 C33.6715619 26.32840006 34.47458709 37.13871073 32.12890625 48.27734375 C30.0050824 54.49018946 26.76836387 59.81939935 22.8125 65.03125 C22.338125 65.65902344 21.86375 66.28679687 21.375 66.93359375 C19.93100441 68.72681654 18.4044427 70.36836883 16.8125 72.03125 C16.30759033 72.58925293 15.80268066 73.14725586 15.2824707 73.72216797 C12.12394103 76.6656166 9.91803018 77.98969799 5.53222656 78.15454102 C2.30684687 77.82435207 -0.87094396 77.39369722 -4.06390381 76.83093262 C-6.16124087 76.46238164 -8.26133073 76.13789507 -10.36767578 75.82519531 C-13.11811935 75.41651641 -15.86646563 74.99712677 -18.61376953 74.56787109 C-25.46193599 73.53957011 -32.26506836 73.14415805 -39.1875 73.03125 C-40.3228418 73.01078613 -41.45818359 72.99032227 -42.62792969 72.96923828 C-74.10631179 72.49181484 -106.5624189 72.94497478 -137.0793457 81.40405273 C-147.86215148 84.37161188 -147.86215148 84.37161188 -152.19921875 83.2578125 C-154.58538678 81.72645169 -156.27980153 80.12003243 -158.1875 78.03125 C-159.55949199 76.94410968 -160.93452346 75.86079471 -162.3125 74.78125 C-170.70285237 67.1597347 -176.73404489 57.3453478 -177.56640625 45.90625 C-178.09873651 33.21200402 -175.54823734 25.07464519 -166.9921875 15.453125 C-159.84412459 9.28070299 -152.66556597 6.09087562 -143.4375 4.40625 C-142.41527344 4.20733154 -141.39304688 4.00841309 -140.33984375 3.8034668 C-127.04085123 1.30791483 -113.62628845 -0.4287155 -100.1875 -1.96875 C-99.15157715 -2.08879395 -98.1156543 -2.20883789 -97.04833984 -2.33251953 C-64.67357548 -5.93687773 -32.2340073 -4.01498995 0 0 Z " fill="#000000" transform="translate(365.1875,373.96875)"/>
<path d="M0 0 C1.62106028 1.62106028 1.22327736 3.46641146 1.31640625 5.70703125 C1.35838135 6.68148193 1.40035645 7.65593262 1.44360352 8.65991211 C1.48283936 9.70026611 1.5220752 10.74062012 1.5625 11.8125 C1.6049585 12.85736572 1.64741699 13.90223145 1.69116211 14.97875977 C1.96232032 21.99231863 2.10551596 28.9815398 2 36 C-7.74145703 37.35513693 -17.47426978 38.50525499 -27.265625 39.4453125 C-30.01302328 39.71488459 -32.76016638 39.98702313 -35.50732422 40.2590332 C-36.21604235 40.32901992 -36.92476048 40.39900663 -37.65495491 40.47111416 C-73.45479113 44.00942313 -109.1172386 48.29742212 -144.68847656 53.70849609 C-145.96948242 53.90137207 -147.25048828 54.09424805 -148.5703125 54.29296875 C-149.62234863 54.45692139 -150.67438477 54.62087402 -151.75830078 54.78979492 C-152.49806152 54.8591626 -153.23782227 54.92853027 -154 55 C-155.62954405 53.37045595 -155.22424483 51.49416697 -155.31640625 49.2421875 C-155.35838135 48.23406006 -155.40035645 47.22593262 -155.44360352 46.18725586 C-155.48283936 45.09421143 -155.5220752 44.00116699 -155.5625 42.875 C-155.6049585 41.76455322 -155.64741699 40.65410645 -155.69116211 39.51000977 C-156.08387362 28.33946126 -156.10343493 17.17574671 -156 6 C-107.23339511 -8.95908125 -49.7725625 -13.87760456 0 0 Z " fill="#000000" transform="translate(373,467)"/>
<path d="M0 0 C1.00981934 0.12890625 2.01963867 0.2578125 3.06005859 0.390625 C38.86226383 5.06259378 38.86226383 5.06259378 52 12 C51.0125055 44.51428851 51.0125055 44.51428851 50 58 C38.81066904 56.65444754 27.633301 55.24148395 16.47265625 53.67578125 C-20.47009098 48.50359058 -57.51714391 43.91933017 -94.69995117 40.84887695 C-95.90498291 40.74792725 -97.11001465 40.64697754 -98.3515625 40.54296875 C-99.38104004 40.46071045 -100.41051758 40.37845215 -101.47119141 40.29370117 C-104 40 -104 40 -107 39 C-106.85999343 34.8331164 -106.71194282 30.66655501 -106.5625 26.5 C-106.52318359 25.32695312 -106.48386719 24.15390625 -106.44335938 22.9453125 C-106.22276032 16.90429231 -105.88099787 10.9819015 -105 5 C-70.23760098 -1.60447127 -35.26067691 -4.67180166 0 0 Z " fill="#000000" transform="translate(935,462)"/>
<path d="M0 0 C20.9085299 -0.35577726 41.21162891 0.73836491 61.87451172 3.93701172 C62.84420898 4.0862207 63.81390625 4.23542969 64.81298828 4.38916016 C73.38393124 5.79986063 81.42260397 7.93340978 89.93701172 10.06201172 C89.93701172 22.93201172 89.93701172 35.80201172 89.93701172 49.06201172 C38.12701172 49.06201172 -13.68298828 49.06201172 -67.06298828 49.06201172 C-67.06298828 36.19201172 -67.06298828 23.32201172 -67.06298828 10.06201172 C-45.10113642 4.41467838 -22.71517119 0.45987992 0 0 Z " fill="#000000" transform="translate(590.06298828125,445.93798828125)"/>
<path d="M0 0 C0.41250525 43.59863141 0.41250525 43.59863141 -1.68798828 57.87402344 C-2.01967789 60.13408064 -2.30502256 62.39765282 -2.58984375 64.6640625 C-5.80865056 88.78658625 -14.15714887 110.86743188 -26 132 C-27.7421875 131.859375 -27.7421875 131.859375 -30 131 C-56.95076847 98.49129095 -65.22450983 46.72207113 -64 6 C-32.91478114 1.99596037 -32.91478114 1.99596037 -20.1875 0.75 C-19.4035083 0.67023926 -18.6195166 0.59047852 -17.81176758 0.50830078 C-11.8691799 -0.04547958 -5.96532169 -0.07550155 0 0 Z " fill="#000000" transform="translate(366,1650)"/>
<path d="M0 0 C21.12 0 42.24 0 64 0 C64 45.76485555 59.63022836 85.96884053 36.3828125 125.578125 C35.99754395 126.2371582 35.61227539 126.89619141 35.21533203 127.57519531 C34.81427246 128.04538086 34.41321289 128.51556641 34 129 C33.01 129 32.02 129 31 129 C21.7224263 112.87158214 13.95459213 96.97469701 9 79 C8.65195312 77.74574219 8.30390625 76.49148438 7.9453125 75.19921875 C4.41824571 61.71595865 2.6682397 47.81634048 1 34 C0.88962402 33.0920166 0.77924805 32.1840332 0.66552734 31.24853516 C-0.40387038 20.78117289 0 10.64608005 0 0 Z " fill="#000000" transform="translate(569,1639)"/>
<path d="M0 0 C11.69488433 -0.54973944 23.22026744 1.0905965 34.8125 2.4375 C36.86646967 2.67051132 38.9205058 2.90293766 40.97460938 3.13476562 C56.81012383 4.93335993 56.81012383 4.93335993 64 6 C65.17680266 10.37431332 64.84946128 14.32966255 64.328125 18.765625 C64.24504089 19.51728943 64.16195679 20.26895386 64.07635498 21.043396 C63.89835352 22.63742112 63.71656468 24.23102727 63.53125 25.82421875 C63.2558506 28.1995386 62.99408929 30.57604534 62.734375 32.953125 C58.75381397 68.56050904 49.49232892 100.72468062 30 131 C27.66552734 130.77441406 27.66552734 130.77441406 25 130 C23.53369141 128.10839844 23.53369141 128.10839844 22.3515625 125.609375 C21.9069165 124.68294189 21.46227051 123.75650879 21.00415039 122.80200195 C20.54903076 121.79484131 20.09391113 120.78768066 19.625 119.75 C19.14603271 118.71383545 18.66706543 117.6776709 18.17358398 116.61010742 C8.20106457 94.56249972 3.08870189 72.0286087 1 48 C0.88785156 46.82695313 0.77570312 45.65390625 0.66015625 44.4453125 C-0.51867282 29.68572659 -0.08749628 14.79629413 0 0 Z " fill="#000000" transform="translate(837,1651)"/>
<path d="M0 0 C3.96406357 0.72594299 7.10211464 1.89364324 10.75 3.625 C30.40187683 12.35768066 51.89651777 15.75908372 73 19 C73 23.64027447 72.44671607 24.05427765 69.5 27.375 C58.29637733 41.01333219 52.94002031 56.04931047 50.125 73.35546875 C49.26888557 77.74789506 48.00597829 79.78024884 44.375 82.5625 C43.02921875 83.67431641 43.02921875 83.67431641 41.65625 84.80859375 C40.7796875 85.53175781 39.903125 86.25492188 39 87 C28.66099672 96.75837085 23.05879898 109.93954301 18 123 C15.02555813 121.56031581 12.20083431 119.962069 9.375 118.25 C8.50359375 117.7240625 7.6321875 117.198125 6.734375 116.65625 C4.91145833 115.55208333 3.08854167 114.44791667 1.265625 113.34375 C0.39421875 112.8178125 -0.4771875 112.291875 -1.375 111.75 C-2.16648437 111.27046875 -2.95796875 110.7909375 -3.7734375 110.296875 C-5.81522403 109.1076239 -7.88241748 108.04573348 -10 107 C-9.45368467 94.59084526 -8.53605968 82.28779316 -7.1875 69.94140625 C-7.01148152 68.29342191 -6.83595569 66.64538488 -6.66088867 64.99729919 C-6.20532208 60.71909817 -5.74402484 56.44153687 -5.28112793 52.16412354 C-4.53920947 45.29823679 -3.80670851 38.4313375 -3.07339478 31.56452751 C-2.81969133 29.19604196 -2.5637579 26.82780659 -2.30737305 24.45960999 C-1.42963028 16.31438411 -0.62608888 8.16916575 0 0 Z " fill="#000000" transform="translate(367,995)"/>
<path d="M0 0 C5.76219532 3.68808816 11.20304578 7.7685251 16.625 11.9375 C17.43283936 12.55681396 18.24067871 13.17612793 19.07299805 13.81420898 C19.818479 14.39887939 20.56395996 14.9835498 21.33203125 15.5859375 C22.00339111 16.11106934 22.67475098 16.63620117 23.36645508 17.17724609 C23.8436499 17.63437988 24.32084473 18.09151367 24.8125 18.5625 C24.8125 19.2225 24.8125 19.8825 24.8125 20.5625 C21.64775884 22.00426565 18.48036674 23.44011654 15.3125 24.875 C14.425625 25.27912109 13.53875 25.68324219 12.625 26.09960938 C-1.66692073 32.5625 -1.66692073 32.5625 -6.1875 32.5625 C-6.1875 33.2225 -6.1875 33.8825 -6.1875 34.5625 C-5.4555542 34.69301758 -4.7236084 34.82353516 -3.96948242 34.95800781 C-1.38800667 35.51893225 0.87515961 36.25844405 3.32421875 37.234375 C4.16049805 37.56695313 4.99677734 37.89953125 5.85839844 38.2421875 C6.73012695 38.59539063 7.60185547 38.94859375 8.5 39.3125 C9.39106445 39.67085937 10.28212891 40.02921875 11.20019531 40.3984375 C17.21722345 42.84484894 23.10959918 45.44091218 28.8125 48.5625 C24.29151725 53.60181198 18.88782043 57.05705397 13.25 60.75 C11.83170898 61.69262695 11.83170898 61.69262695 10.38476562 62.65429688 C2.78923926 67.67324892 2.78923926 67.67324892 -1.1875 69.5625 C-0.36507812 69.74425781 0.45734375 69.92601562 1.3046875 70.11328125 C8.2338246 71.6735373 15.04395097 73.40817627 21.8125 75.5625 C20.9482833 80.0501504 18.3845513 82.58927981 15.3125 85.8125 C14.77077148 86.38734131 14.22904297 86.96218262 13.67089844 87.55444336 C-1.72840322 103.72825267 -1.72840322 103.72825267 -10.18359375 104.8203125 C-15.51177408 104.6333588 -18.75988868 102.0706684 -22.48828125 98.4375 C-27.42483146 92.99027218 -27.49638482 88.25778269 -27.390625 81.171875 C-27.1875 78.5625 -27.1875 78.5625 -26.1875 76.5625 C-27.05375 76.500625 -27.92 76.43875 -28.8125 76.375 C-33.61600839 75.21859983 -36.63591246 72.89735524 -39.32788086 68.84643555 C-42.1251939 63.6020641 -42.77916536 59.33556829 -42.625 53.4375 C-42.63208984 52.66535156 -42.63917969 51.89320313 -42.64648438 51.09765625 C-42.57576322 44.71099195 -41.06137559 40.52560777 -36.5625 35.8125 C-35.77875 35.07 -34.995 34.3275 -34.1875 33.5625 C-33.8575 32.9025 -33.5275 32.2425 -33.1875 31.5625 C-34.0846875 30.881875 -34.0846875 30.881875 -35 30.1875 C-38.8738643 25.53886284 -40.29775782 19.50483388 -40.5625 13.5 C-39.7886722 5.37480805 -37.35499816 -0.9134304 -31.1875 -6.4375 C-21.05414756 -12.41357965 -8.94414784 -5.25793773 0 0 Z " fill="#000000" transform="translate(238.1875,903.4375)"/>
<path d="M0 0 C23.51393943 1.94076594 23.51393943 1.94076594 30.41015625 8.8515625 C35.26771167 15.41582658 36.87016537 22.9917593 36 31 C35.9175 31.85207031 35.835 32.70414063 35.75 33.58203125 C34.5182085 42.55101309 31.35131251 51.87775752 24.125 57.75 C15.20347752 62.88251716 2.4547498 60.41387123 -7 58 C-6.47820269 45.19245638 -4.82131082 32.66876349 -2.9375 20 C-2.65239914 18.04956614 -2.36789027 16.09904566 -2.08398438 14.1484375 C-1.39612353 9.43126808 -0.70033184 4.71533335 0 0 Z " fill="#A9042F" transform="translate(972,1515)"/>
<path d="M0 0 C4.99008014 5.04339296 7.56002015 11.22824083 8.078125 18.22265625 C7.70220706 23.67346631 6.11136495 26.61559426 2.18359375 30.38671875 C-1.13446479 33.06823131 -4.608041 34.19619708 -8.734375 35.09765625 C-9.43473877 35.26040039 -10.13510254 35.42314453 -10.85668945 35.59082031 C-23.91374149 38.4775684 -37.95956192 38.92017595 -51.171875 36.84765625 C-50.61176073 32.17114666 -48.54181778 28.65558294 -46.109375 24.72265625 C-45.705979 24.06394531 -45.30258301 23.40523437 -44.88696289 22.7265625 C-37.91432906 11.4720076 -29.85700539 -1.21571676 -16.796875 -6.02734375 C-10.11653841 -6.34545502 -5.10740996 -4.09196034 0 0 Z " fill="#000000" transform="translate(387.171875,886.15234375)"/>
<path d="M0 0 C0 0.99 0 1.98 0 3 C-4.16634654 4.08456694 -8.33309511 5.16758028 -12.5 6.25 C-13.73927246 6.57210449 -14.97854492 6.89420898 -16.25537109 7.22607422 C-22.70297093 8.89842306 -29.15460508 10.54334791 -35.625 12.125 C-41.91925906 13.68005224 -48.12967123 15.45620345 -54.33251953 17.33837891 C-63.52285005 20.11344612 -73.1355434 22.16189238 -82.25 18.0625 C-87.48299896 15.09516133 -91.70057532 11.03097654 -95 6 C-95.71484375 3.21875 -95.71484375 3.21875 -96 1 C-92.62502674 2.09686631 -89.30247071 3.26691534 -86 4.5625 C-70.15006125 10.49499125 -53.01962707 4.81852515 -37.53417969 0.15771484 C-24.11246501 -3.8553104 -13.06303584 -6.2257873 0 0 Z " fill="#1B1918" transform="translate(527,846)"/>
<path d="M0 0 C3.79562851 3.33555233 4.95394472 5.67266955 5.4375 10.75 C5.21440935 15.90048412 3.47165791 19.36308044 -0.125 23.0625 C-5.15254527 26.19075039 -10.07504864 26.9346344 -15.9375 26.8125 C-16.44537046 23.81364586 -16.94396625 20.81371874 -17.4375 17.8125 C-17.58058594 16.97332031 -17.72367188 16.13414063 -17.87109375 15.26953125 C-18.72230242 10.04067799 -19.08464583 5.10974973 -18.9375 -0.1875 C-12.73736382 -1.49279183 -5.97757949 -2.4164683 0 0 Z " fill="#A9042F" transform="translate(259.9375,1513.1875)"/>
<path d="M0 0 C16.03524229 1.14537445 16.03524229 1.14537445 20 5 C22.72120483 9.48760095 22.73815537 13.89573414 22 19 C20.54371546 22.80330624 18.54822141 25.17585172 14.9453125 27.09375 C9.58253089 29.09783448 6.08908769 29 0 29 C0 19.43 0 9.86 0 0 Z " fill="#A9042F" transform="translate(709,1491)"/>
<path d="M0 0 C0.66 0 1.32 0 2 0 C2.38671875 1.16015625 2.7734375 2.3203125 3.171875 3.515625 C3.42243652 4.2669873 3.67299805 5.01834961 3.93115234 5.79248047 C4.47913346 7.43707735 5.02632819 9.08193645 5.57275391 10.72705078 C6.79375715 14.40016935 8.02366724 18.06841985 9.2890625 21.7265625 C9.82660156 23.28503906 9.82660156 23.28503906 10.375 24.875 C10.69210937 25.77992187 11.00921875 26.68484375 11.3359375 27.6171875 C12 30 12 30 12 34 C3.28217363 34.16311941 -5.31238511 33.65655389 -14 33 C-11.69182884 25.50829089 -8.62777717 18.53433204 -5.3125 11.4375 C-4.80138672 10.33341797 -4.29027344 9.22933594 -3.76367188 8.09179688 C-2.5133598 5.39252502 -1.25872684 2.69535545 0 0 Z " fill="#A9042F" transform="translate(788,1501)"/>
<path d="M0 0 C0.66 0 1.32 0 2 0 C3.00103953 4.35900989 3.99783887 8.71896103 4.99072266 13.07983398 C5.32907642 14.563173 5.66858682 16.04624868 6.00927734 17.52905273 C6.49881544 19.66061292 6.98418429 21.79308595 7.46875 23.92578125 C7.90864258 25.85031128 7.90864258 25.85031128 8.35742188 27.8137207 C9 31 9 31 9 34 C3.12123504 34.16032995 -2.23388095 33.6092534 -8 32.5 C-8.77472656 32.35691406 -9.54945312 32.21382812 -10.34765625 32.06640625 C-12.23295579 31.71727671 -14.11665939 31.35954684 -16 31 C-15.39508173 26.95077939 -14.08291357 23.91811445 -12.12890625 20.33203125 C-11.55462891 19.27435547 -10.98035156 18.21667969 -10.38867188 17.12695312 C-9.4847168 15.48629883 -9.4847168 15.48629883 -8.5625 13.8125 C-7.96373047 12.70712891 -7.36496094 11.60175781 -6.74804688 10.46289062 C-2.2772174 2.2772174 -2.2772174 2.2772174 0 0 Z " fill="#A9042F" transform="translate(1068,1536)"/>
</svg>
