<?xml version="1.0" standalone="no"?>
<!DOCTYPE svg PUBLIC "-//W3C//DTD SVG 20010904//EN"
 "http://www.w3.org/TR/2001/REC-SVG-20010904/DTD/svg10.dtd">
<svg version="1.0" xmlns="http://www.w3.org/2000/svg"
 width="2316.000000pt" height="1761.000000pt" viewBox="0 0 2316.000000 1761.000000"
 preserveAspectRatio="xMidYMid meet">

<g transform="translate(0.000000,1761.000000) scale(0.100000,-0.100000)"
fill="#000000" stroke="none">
<path d="M10875 17299 c-468 -45 -899 -268 -1285 -665 -328 -338 -522 -664
-595 -1004 -23 -107 -30 -313 -16 -471 51 -556 217 -996 500 -1326 96 -112
218 -216 380 -325 395 -265 632 -522 754 -818 95 -229 116 -486 57 -714 -11
-44 -18 -81 -16 -83 2 -2 43 11 92 28 445 157 763 519 879 1001 42 176 47 233
30 363 -53 399 -249 813 -522 1098 -322 336 -458 611 -488 987 -18 221 65 566
196 820 196 378 556 699 1009 900 41 19 79 37 84 41 14 12 -267 98 -424 129
-230 46 -429 58 -635 39z"/>
<path d="M12450 15953 c-339 -36 -660 -224 -848 -496 -237 -343 -264 -726 -76
-1102 25 -49 106 -181 180 -292 260 -390 318 -544 318 -843 -2 -564 -288 -999
-867 -1317 l-82 -45 135 6 c321 13 643 93 915 225 401 196 689 496 860 896
176 412 190 922 34 1254 -69 147 -139 239 -346 453 -223 232 -294 328 -337
458 -53 160 -45 343 20 472 56 111 207 232 368 295 66 26 69 28 41 34 -32 7
-256 8 -315 2z"/>
<path d="M8707 15230 c-390 -228 -627 -561 -724 -1019 -24 -114 -27 -146 -27
-346 0 -207 1 -226 26 -317 77 -281 272 -548 552 -756 290 -215 603 -313 1071
-337 66 -3 156 -13 200 -21 96 -18 232 -82 326 -153 82 -62 215 -202 296 -309
69 -92 64 -95 84 53 16 125 7 329 -20 430 -59 224 -199 412 -411 554 -138 93
-292 166 -619 296 -337 133 -368 147 -443 209 -106 87 -191 220 -252 394 -112
323 -119 744 -20 1215 14 65 27 124 31 132 7 20 8 20 -70 -25z"/>
<path d="M7341 11755 c13 -13 442 -169 714 -260 745 -250 1316 -379 2000 -452
145 -15 260 -18 780 -18 566 0 625 2 815 23 637 70 1249 208 1939 438 214 72
605 214 694 254 41 18 -21 19 -3452 19 -1922 1 -3492 -1 -3490 -4z"/>
<path d="M10091 10846 c-48 -17 -108 -71 -133 -119 -29 -54 -31 -165 -5 -218
44 -89 124 -138 225 -139 73 0 124 19 170 63 163 155 54 429 -168 426 -30 0
-70 -6 -89 -13z"/>
<path d="M10724 10836 c-159 -74 -190 -290 -58 -406 52 -45 93 -60 166 -60
101 1 180 49 224 137 27 55 26 164 -4 219 -62 119 -206 167 -328 110z"/>
<path d="M11372 10834 c-86 -43 -133 -120 -133 -220 0 -78 25 -138 78 -185 52
-45 93 -59 171 -59 59 0 75 4 122 33 98 58 141 171 110 286 -15 57 -101 145
-156 160 -68 19 -135 14 -192 -15z"/>
<path d="M15740 10224 c-353 -42 -584 -106 -845 -234 -660 -323 -1088 -905
-1216 -1651 -31 -181 -34 -599 -5 -779 78 -493 271 -890 595 -1224 327 -335
722 -551 1182 -645 195 -40 368 -54 604 -48 299 8 493 40 745 124 671 223
1191 735 1404 1383 92 282 117 450 123 842 3 169 2 319 -1 333 l-6 25 -1210 0
-1210 0 2 -512 3 -513 342 -3 341 -2 -10 -38 c-30 -110 -106 -201 -211 -251
-102 -50 -176 -65 -322 -65 -157 1 -231 17 -365 81 -79 38 -107 59 -177 129
-72 73 -90 98 -137 196 -86 179 -116 326 -116 566 0 592 301 975 765 975 234
0 410 -86 557 -272 33 -42 64 -77 69 -79 8 -3 1388 504 1398 514 6 5 -142 225
-209 309 -357 447 -855 731 -1440 820 -110 17 -557 30 -650 19z"/>
<path d="M20510 10219 c-614 -74 -1083 -353 -1344 -797 -149 -255 -226 -607
-197 -909 42 -427 255 -729 653 -923 137 -67 302 -119 553 -174 340 -75 433
-114 474 -200 38 -78 21 -177 -41 -232 -82 -75 -249 -101 -446 -69 -235 38
-499 156 -825 368 -59 38 -109 68 -111 66 -7 -7 -489 -1184 -493 -1205 -4 -17
14 -30 119 -86 371 -198 753 -326 1168 -391 111 -17 183 -21 405 -21 423 -1
678 49 985 195 471 225 787 610 890 1088 122 564 -51 1061 -465 1336 -178 118
-290 159 -660 240 -306 67 -406 95 -483 134 -126 64 -172 162 -123 259 23 44
43 63 96 90 129 64 379 54 615 -24 113 -37 303 -133 414 -207 55 -37 100 -66
101 -64 4 4 475 1137 475 1142 0 8 -172 92 -317 154 -242 103 -494 176 -753
217 -123 19 -571 28 -690 13z"/>
<path d="M903 8738 c3 -1238 6 -1418 20 -1528 47 -352 114 -555 252 -759 281
-420 755 -696 1350 -787 169 -26 600 -27 765 -1 484 75 870 256 1155 542 287
287 422 613 465 1120 6 73 10 642 10 1468 l0 1347 -785 0 -784 0 -4 -1332 c-3
-1326 -3 -1333 -25 -1428 -43 -191 -128 -300 -263 -341 -93 -28 -245 -24 -331
10 -111 43 -186 148 -222 311 -30 131 -35 367 -36 1588 l0 1192 -786 0 -785 0
4 -1402z"/>
<path d="M5710 7950 l0 -2190 785 0 785 0 2 778 3 777 613 3 612 2 0 560 0
560 -615 0 -615 0 2 253 3 252 678 3 677 2 -2 593 -3 592 -1462 3 -1463 2 0
-2190z"/>
<path d="M9267 10134 c-4 -4 -7 -990 -7 -2191 l0 -2183 775 0 775 0 0 718 0
717 379 -715 378 -715 882 -3 c484 -1 881 0 881 2 0 3 -261 402 -580 888
l-579 883 77 16 c187 41 340 126 469 264 128 135 210 295 260 505 31 130 42
412 24 567 -50 418 -236 739 -549 947 -223 148 -480 235 -834 282 -105 14
-283 17 -1233 21 -611 3 -1113 1 -1118 -3z m1891 -1134 c113 -19 171 -47 243
-119 54 -54 70 -78 88 -131 59 -176 23 -380 -84 -479 -99 -92 -205 -121 -437
-121 l-158 0 0 430 0 430 143 0 c78 0 170 -5 205 -10z"/>
<path d="M8013 3875 c-216 -58 -340 -246 -313 -471 20 -160 114 -242 365 -314
173 -49 212 -85 202 -184 -3 -40 -11 -55 -35 -77 -90 -81 -241 -51 -379 75
l-62 57 -14 -23 c-8 -13 -45 -72 -82 -133 l-67 -110 43 -37 c63 -54 155 -106
234 -131 57 -18 93 -22 195 -22 142 1 202 15 296 70 164 97 245 297 203 497
-32 150 -131 230 -364 293 -55 15 -117 36 -137 46 -93 47 -84 161 15 198 66
25 164 5 261 -54 32 -19 60 -34 62 -33 13 14 104 243 100 253 -8 22 -146 84
-221 100 -87 18 -233 18 -302 0z"/>
<path d="M892 3378 c4 -448 6 -488 25 -549 50 -166 147 -255 333 -306 91 -24
365 -24 464 0 177 44 279 144 332 323 15 52 18 119 21 537 l4 477 -180 0 -181
0 0 -392 c0 -216 -5 -424 -10 -462 -21 -143 -83 -199 -219 -199 -117 0 -174
36 -212 133 -10 27 -14 133 -17 478 l-3 442 -180 0 -181 0 4 -482z"/>
<path d="M2270 3200 l0 -660 176 0 176 0 -4 439 -3 439 48 -91 c29 -56 146
-226 300 -437 l253 -345 177 -3 177 -2 0 660 0 660 -176 0 -176 0 5 -412 c3
-227 9 -429 12 -448 4 -26 -8 -9 -47 65 -33 63 -148 230 -308 448 l-255 347
-177 0 -178 0 0 -660z"/>
<path d="M3790 3200 l0 -660 185 0 185 0 0 660 0 660 -185 0 -185 0 0 -660z"/>
<path d="M4214 3843 c3 -10 127 -306 275 -658 l268 -640 142 0 143 0 274 654
c151 359 274 655 274 657 0 3 -86 3 -192 2 l-192 -3 -123 -345 c-68 -190 -135
-385 -149 -435 -14 -49 -28 -97 -31 -105 -2 -8 -15 26 -28 75 -13 50 -82 252
-153 450 l-129 360 -192 3 c-180 2 -192 1 -187 -15z"/>
<path d="M5630 3200 l0 -660 405 0 405 0 0 145 0 145 -227 2 -228 3 0 110 0
110 218 3 217 2 0 140 0 140 -217 2 -218 3 -3 113 -3 112 231 0 230 0 0 145 0
145 -405 0 -405 0 0 -660z"/>
<path d="M6610 3200 l0 -660 170 0 170 0 0 251 c0 137 4 248 8 245 5 -3 73
-115 152 -250 l144 -246 204 0 c160 0 202 3 196 13 -4 6 -83 124 -176 260 -92
137 -168 250 -168 252 0 2 22 11 49 20 152 50 241 183 241 360 0 216 -131 371
-340 404 -36 6 -197 11 -357 11 l-293 0 0 -660z m550 358 c57 -29 80 -72 80
-153 0 -114 -58 -162 -205 -167 l-80 -3 -3 173 -2 172 83 0 c66 0 92 -5 127
-22z"/>
<path d="M8750 3200 l0 -660 185 0 185 0 0 660 0 660 -185 0 -185 0 0 -660z"/>
<path d="M9340 3200 l0 -662 333 4 c294 4 340 7 402 25 230 65 393 236 440
458 19 93 19 258 -1 348 -40 182 -152 326 -314 406 -135 66 -181 73 -542 78
l-318 5 0 -662z m585 344 c169 -43 239 -149 238 -354 -2 -234 -112 -340 -370
-357 l-93 -6 0 366 0 367 83 0 c45 0 110 -7 142 -16z"/>
<path d="M10811 3443 c-79 -230 -181 -527 -227 -661 l-84 -242 182 2 181 3 31
110 32 110 259 0 259 0 30 -112 30 -113 182 0 181 0 -227 658 -227 657 -229 3
-229 2 -144 -417z m474 -153 c41 -135 75 -249 75 -253 0 -4 -79 -7 -175 -7
-96 0 -175 2 -175 5 0 3 36 124 79 268 43 144 82 278 87 297 l7 35 14 -50 c8
-27 47 -160 88 -295z"/>
<path d="M11930 3200 l0 -662 333 4 c308 4 337 6 407 27 111 33 187 78 266
156 117 116 170 242 180 430 16 291 -106 518 -341 630 -127 60 -184 68 -532
73 l-313 4 0 -662z m624 334 c68 -26 138 -92 167 -156 21 -47 24 -68 24 -179
0 -124 0 -127 -35 -195 -58 -115 -155 -163 -332 -167 l-93 -2 -3 364 -2 364
112 -5 c76 -4 129 -12 162 -24z"/>
<path d="M13280 3200 l0 -660 405 0 405 0 0 145 0 145 -230 0 -230 0 0 115 0
115 215 0 215 0 0 140 0 140 -215 0 -215 0 0 115 0 115 230 0 230 0 0 145 0
145 -405 0 -405 0 0 -660z"/>
<path d="M14840 3200 l0 -660 175 0 175 0 2 258 3 257 213 3 212 2 0 140 0
140 -215 0 -215 0 0 115 0 115 230 0 230 0 0 145 0 145 -405 0 -405 0 0 -660z"/>
<path d="M15780 3200 l0 -660 405 0 405 0 0 145 0 145 -230 0 -231 0 3 113 3
112 213 3 212 2 0 140 0 140 -215 0 -215 0 0 115 0 115 230 0 230 0 0 145 0
145 -405 0 -405 0 0 -660z"/>
<path d="M16760 3199 l0 -661 333 5 c362 4 402 9 521 67 137 65 257 201 305
345 33 95 41 309 17 418 -47 209 -190 370 -391 438 -113 39 -222 49 -522 49
l-263 0 0 -661z m585 347 c140 -37 209 -112 235 -257 15 -79 6 -192 -20 -263
-21 -56 -82 -122 -139 -151 -43 -21 -167 -44 -243 -45 l-58 0 0 365 0 365 88
0 c48 0 110 -6 137 -14z"/>
<path d="M18110 3200 l0 -660 405 0 405 0 0 145 0 145 -227 2 -228 3 0 110 0
110 218 3 217 2 0 140 0 140 -217 2 -218 3 -3 113 -3 112 231 0 230 0 0 145 0
145 -405 0 -405 0 0 -660z"/>
<path d="M19100 3200 l0 -660 165 0 165 0 0 251 c0 149 4 248 9 245 5 -4 74
-116 152 -251 l143 -245 343 0 342 0 26 88 c15 48 30 98 34 112 l8 25 258 0
258 0 31 -112 30 -113 179 0 179 0 -5 23 c-4 12 -105 308 -226 657 l-219 635
-228 3 -229 2 -209 -607 c-115 -335 -212 -611 -216 -616 -3 -4 -73 91 -154
210 -142 210 -146 218 -124 227 133 53 180 87 220 163 38 71 51 143 46 244
-12 200 -137 336 -338 368 -36 6 -194 11 -352 11 l-288 0 0 -660z m1665 360
c9 -36 47 -167 86 -291 38 -124 69 -229 69 -232 0 -4 -79 -7 -175 -7 -96 0
-175 3 -175 8 0 4 31 108 69 232 37 124 76 255 86 293 10 37 19 66 21 65 1 -2
10 -32 19 -68z m-1128 1 c23 -11 49 -31 59 -46 23 -36 33 -108 22 -159 -18
-81 -78 -115 -213 -119 l-70 -2 -3 173 -2 172 82 0 c60 0 95 -6 125 -19z"/>
<path d="M21480 3200 l0 -660 405 0 405 0 0 155 0 155 -220 0 -220 0 0 505 0
505 -185 0 -185 0 0 -660z"/>
<path d="M2741 2059 c-228 -40 -423 -184 -522 -384 -54 -109 -72 -203 -66
-335 14 -296 193 -528 482 -626 62 -21 105 -28 190 -31 143 -6 231 12 354 73
78 38 110 62 182 133 70 70 94 102 127 171 56 115 72 183 72 311 0 175 -42
300 -145 432 -84 106 -241 207 -380 242 -76 20 -224 27 -294 14z m249 -326
c74 -34 126 -87 167 -171 37 -75 38 -78 38 -192 0 -106 -3 -120 -29 -178 -37
-81 -123 -163 -198 -188 -67 -23 -157 -23 -228 1 -76 25 -167 117 -198 200
-88 230 15 476 228 546 44 15 171 4 220 -18z"/>
<path d="M6421 2059 c-327 -58 -567 -321 -588 -643 -18 -284 132 -536 394
-666 108 -53 210 -73 343 -67 123 6 188 21 285 69 184 89 319 254 371 448 21
78 23 240 5 325 -34 160 -152 328 -297 424 -142 93 -355 139 -513 110z m236
-321 c195 -72 284 -341 184 -554 -81 -174 -267 -245 -445 -170 -58 24 -130
100 -160 167 -105 233 -3 503 214 570 51 15 148 9 207 -13z"/>
<path d="M8475 2061 c-161 -26 -279 -85 -391 -196 -135 -135 -195 -284 -196
-485 0 -123 18 -212 66 -313 85 -185 235 -310 436 -364 89 -24 318 -24 410 0
311 82 480 322 480 685 l0 92 -355 0 -355 0 0 -140 0 -140 180 0 180 0 -6 -27
c-29 -126 -166 -216 -329 -217 -189 0 -319 123 -345 329 -25 200 45 369 185
443 45 24 60 27 155 27 98 0 109 -2 159 -30 29 -16 70 -48 90 -72 l38 -42 151
72 c83 40 154 75 156 78 11 11 -88 122 -147 165 -81 60 -139 89 -229 114 -82
23 -254 34 -333 21z"/>
<path d="M17815 2056 c-280 -56 -493 -252 -562 -516 -22 -87 -22 -254 1 -340
63 -234 234 -409 482 -492 59 -20 89 -23 209 -23 124 1 149 4 218 27 390 131
582 536 437 920 -57 152 -203 302 -365 373 -126 56 -292 76 -420 51z m242
-318 c156 -58 255 -250 225 -435 -32 -192 -166 -317 -342 -317 -222 0 -369
197 -338 452 28 234 246 378 455 300z"/>
<path d="M19620 2053 c-126 -35 -217 -108 -270 -217 -39 -81 -54 -176 -40
-263 25 -155 118 -234 353 -302 130 -37 156 -50 192 -93 24 -28 27 -38 23 -85
-4 -42 -11 -60 -33 -83 -83 -86 -244 -56 -380 71 l-63 59 -69 -112 c-102 -166
-98 -155 -71 -179 58 -51 177 -121 237 -140 92 -30 273 -37 361 -15 148 38
248 112 305 229 86 176 65 391 -47 493 -52 47 -139 88 -249 119 -123 34 -169
52 -196 77 -31 29 -39 78 -19 117 45 87 204 88 332 1 25 -16 49 -30 53 -30 8
0 111 230 111 249 0 14 -119 74 -190 95 -84 26 -260 30 -340 9z"/>
<path d="M900 1375 l0 -668 308 6 c320 6 391 14 503 56 78 29 187 109 239 173
156 194 186 517 70 753 -49 100 -102 161 -188 219 -151 100 -231 116 -624 123
l-308 6 0 -668z m624 335 c75 -28 137 -85 167 -153 21 -46 24 -67 24 -182 0
-115 -3 -136 -23 -180 -57 -123 -177 -184 -364 -185 l-68 0 0 366 0 367 103
-6 c70 -3 120 -12 161 -27z"/>
<path d="M4260 1376 l0 -666 170 0 170 0 2 254 3 254 148 -254 149 -254 205 0
c112 0 202 3 200 8 -3 4 -84 124 -181 267 l-176 259 61 22 c70 25 120 62 166
123 44 57 63 127 63 232 0 202 -90 332 -270 391 -59 19 -93 21 -387 26 l-323
4 0 -666z m552 357 c50 -29 73 -77 73 -153 0 -114 -52 -157 -201 -167 l-84 -6
0 178 0 178 89 -5 c63 -4 100 -11 123 -25z"/>
<path d="M5342 1378 l3 -663 183 -3 182 -2 0 665 0 665 -185 0 -185 0 2 -662z"/>
<path d="M9390 1376 l0 -666 170 0 170 0 2 255 3 256 149 -256 149 -255 318 0
318 0 16 57 c9 32 25 85 35 118 l18 60 255 3 256 2 20 -67 c11 -38 26 -90 34
-118 l14 -50 177 -3 c143 -2 176 0 176 11 0 12 -413 1218 -442 1290 l-11 27
-226 -2 -226 -3 -205 -592 c-161 -468 -207 -590 -217 -580 -6 6 -68 95 -137
197 l-125 185 38 11 c145 44 230 145 252 302 25 177 -54 352 -193 423 -92 47
-126 51 -465 56 l-323 5 0 -666z m1629 348 c11 -45 50 -176 86 -292 36 -116
65 -213 65 -216 0 -3 -79 -6 -175 -6 -96 0 -175 3 -175 6 0 3 29 101 65 218
35 116 74 248 86 294 12 45 23 81 25 80 1 -2 12 -40 23 -84z m-1079 11 c59
-35 75 -67 75 -150 0 -58 -4 -79 -21 -102 -32 -44 -85 -65 -180 -71 l-84 -5 0
178 0 177 88 -4 c64 -3 98 -9 122 -23z"/>
<path d="M11690 1375 l0 -665 176 0 176 0 -5 428 c-2 235 -7 438 -11 452 -4
14 15 -18 42 -70 31 -59 147 -228 309 -450 l260 -355 174 0 174 0 3 663 2 662
-175 0 -175 0 1 -377 c0 -208 3 -408 8 -445 4 -38 6 -68 4 -68 -1 0 -25 44
-53 98 -33 63 -139 218 -306 445 l-255 347 -175 0 -174 0 0 -665z"/>
<path d="M13160 1376 l0 -666 228 0 c440 0 574 27 730 145 147 111 232 301
232 520 0 284 -142 511 -378 604 -111 44 -184 52 -504 58 l-308 6 0 -667z
m624 334 c75 -28 137 -85 167 -153 21 -46 24 -67 24 -182 0 -115 -3 -136 -23
-180 -57 -124 -177 -184 -369 -185 l-73 0 0 366 0 367 108 -6 c76 -3 124 -11
166 -27z"/>
<path d="M14462 1378 l3 -663 405 0 405 0 3 148 3 147 -231 0 -230 0 0 110 0
110 215 0 215 0 0 145 0 145 -215 0 -215 0 0 115 0 115 230 0 230 0 0 145 0
145 -410 0 -410 0 2 -662z"/>
<path d="M15980 1374 l0 -667 313 6 c358 6 415 15 547 79 65 31 102 58 155
112 126 127 177 262 177 471 0 210 -51 345 -178 471 -50 50 -93 82 -145 108
-141 69 -264 86 -626 86 l-243 0 0 -666z m617 342 c157 -49 237 -214 205 -421
-29 -189 -133 -270 -359 -282 l-103 -6 0 368 0 368 103 -6 c56 -3 125 -12 154
-21z"/>
<path d="M20302 1558 c4 -420 7 -491 21 -542 49 -167 151 -264 329 -314 50
-13 102 -17 248 -16 174 0 190 2 267 27 156 52 241 144 290 312 14 52 17 124
21 538 l3 477 -180 0 -180 0 -3 -437 c-5 -493 -7 -514 -73 -572 -44 -39 -71
-46 -165 -45 -84 0 -123 16 -163 64 -49 57 -51 76 -54 548 l-4 442 -180 0
-180 0 3 -482z"/>
<path d="M21640 1375 l0 -665 405 0 405 0 0 155 0 155 -225 0 -225 0 0 510 0
510 -180 0 -180 0 0 -665z"/>
</g>
</svg>
