<?xml version="1.0" standalone="no"?>
<!DOCTYPE svg PUBLIC "-//W3C//DTD SVG 20010904//EN"
 "http://www.w3.org/TR/2001/REC-SVG-20010904/DTD/svg10.dtd">
<svg version="1.0" xmlns="http://www.w3.org/2000/svg"
 width="389.000000pt" height="420.000000pt" viewBox="0 0 389.000000 420.000000"
 preserveAspectRatio="xMidYMid meet">

<g transform="translate(0.000000,420.000000) scale(0.100000,-0.100000)"
fill="#000000" stroke="none">
<path d="M1795 4194 c-205 -30 -384 -122 -526 -270 -205 -215 -284 -447 -284
-841 0 -167 -1 -180 -17 -172 -21 11 -58 12 -58 1 0 -4 16 -32 35 -62 31 -51
32 -55 15 -58 -12 -2 -20 -11 -20 -23 0 -11 41 -109 91 -217 50 -108 93 -203
96 -210 3 -7 -11 -2 -32 12 -21 14 -43 26 -49 26 -19 0 -39 -17 -28 -24 19
-11 6 -69 -17 -78 -12 -4 -24 -15 -27 -23 -9 -23 26 -57 56 -53 14 1 31 -1 38
-6 7 -4 29 -5 48 -2 24 5 48 1 82 -14 l47 -21 -30 -13 c-42 -18 -53 -35 -52
-83 0 -42 1 -43 33 -43 23 0 34 -5 39 -19 8 -28 49 -34 87 -15 29 15 41 15 91
5 32 -7 70 -17 84 -22 23 -8 24 -11 10 -22 -9 -7 -17 -31 -19 -57 -2 -36 1
-45 14 -45 9 0 20 -4 24 -8 13 -13 61 -7 75 9 16 19 63 44 84 44 11 0 15 -10
15 -35 0 -38 3 -40 63 -50 31 -5 40 -12 49 -36 l10 -29 113 0 c109 0 114 1
121 23 10 33 46 67 72 67 17 0 22 6 22 25 l0 25 46 -30 c49 -31 74 -32 142 -4
26 11 32 19 32 43 0 23 -6 31 -30 40 -16 5 -30 12 -30 15 0 2 30 14 66 26 52
18 78 21 124 16 70 -8 99 2 144 51 38 41 46 82 21 103 -21 17 -19 23 15 43 20
12 47 17 82 16 29 -1 62 3 73 9 11 6 28 13 38 16 48 15 -11 83 -76 88 l-42 4
50 23 c98 46 131 103 80 137 -21 14 -30 15 -52 5 -14 -6 -27 -10 -28 -9 -2 2
19 70 46 152 33 98 46 153 40 159 -14 14 10 57 48 85 40 30 44 72 5 72 -14 0
-34 -5 -45 -10 -18 -10 -19 -6 -19 151 0 265 -34 433 -123 604 -138 265 -353
432 -632 490 -79 16 -272 28 -330 19z m325 -31 c214 -43 397 -158 531 -336
158 -209 225 -450 217 -782 -3 -120 -6 -144 -23 -170 l-20 -29 -6 224 c-7 258
-27 382 -84 513 -142 330 -395 517 -741 546 -255 22 -472 -51 -644 -215 -119
-114 -196 -233 -244 -376 -43 -127 -58 -238 -65 -473 l-6 -219 -19 29 c-18 27
-20 48 -20 205 1 395 77 618 288 838 220 230 501 312 836 245z m-29 -59 c282
-53 491 -221 619 -498 69 -149 100 -329 100 -588 0 -143 0 -143 -25 -155 l-25
-11 0 156 c0 274 -30 445 -105 597 -110 226 -280 370 -512 437 -66 19 -101 23
-233 22 -140 0 -163 -2 -232 -26 -113 -38 -201 -91 -290 -176 -200 -191 -273
-393 -285 -784 l-6 -198 -23 0 c-24 0 -24 0 -24 129 0 331 54 559 174 739 45
67 151 179 216 228 75 55 211 113 311 133 74 15 251 12 340 -5z m-176 -194 c4
-6 13 -7 23 -1 28 14 51 0 41 -26 -7 -19 -16 -23 -52 -23 -37 0 -46 4 -55 24
-9 21 -8 25 6 29 28 8 31 7 37 -3z m184 -15 c2 -3 -7 -13 -20 -24 -46 -38
-113 -16 -78 25 10 12 23 14 53 9 22 -3 42 -8 45 -10z m-239 -16 c14 -25 14
-25 -37 -34 -36 -6 -42 -4 -48 14 -9 30 2 41 40 41 25 0 37 -6 45 -21z m-100
-18 c14 -27 14 -28 -18 -39 -23 -8 -33 -6 -53 8 -26 20 -26 21 11 37 36 17 48
15 60 -6z m424 13 c20 -8 21 -24 2 -24 -7 0 -19 -6 -25 -14 -10 -12 -19 -12
-44 -4 -42 14 -42 15 -27 33 13 15 65 20 94 9z m-516 -85 c-33 -17 -88 -16
-88 2 0 5 17 17 37 28 34 17 39 17 61 3 l24 -16 -34 -17z m417 37 c68 -18 115
-43 115 -62 0 -9 -3 -14 -7 -12 -115 59 -207 76 -320 59 -99 -15 -168 -47
-168 -79 0 -13 -9 -29 -20 -34 -11 -6 -35 -24 -54 -39 -25 -21 -38 -25 -47
-18 -41 34 -126 -85 -175 -241 -12 -41 -27 -79 -32 -85 -18 -20 2 90 28 155
72 175 218 309 388 355 67 18 227 19 292 1z m206 4 c23 -13 26 -35 3 -26 -8 3
-29 0 -47 -7 -28 -12 -36 -12 -59 3 -21 13 -25 19 -16 28 15 15 92 16 119 2z
m-283 -48 c-2 -10 9 -35 25 -55 15 -19 27 -40 27 -45 0 -33 -86 -4 -123 41
-17 19 -18 20 -11 2 4 -11 8 -36 8 -55 1 -24 8 -41 24 -54 18 -14 22 -25 18
-45 -6 -25 -6 -25 10 -6 8 11 22 29 29 39 13 17 19 18 71 7 32 -6 60 -13 62
-16 13 -13 -11 -16 -51 -7 -25 5 -50 6 -55 3 -5 -3 -21 -30 -36 -58 -14 -29
-30 -53 -35 -53 -4 0 -16 9 -27 21 -10 11 -28 26 -39 31 -20 11 -20 10 -2 -10
19 -20 18 -21 -24 -51 -52 -38 -119 -44 -119 -11 0 11 -4 20 -9 20 -4 0 -6
-10 -4 -23 6 -28 -29 -62 -82 -80 -33 -11 -41 -19 -43 -43 -4 -42 -33 -93 -49
-87 -17 7 -17 28 1 42 8 7 18 27 22 44 3 18 17 45 31 61 19 23 23 35 17 60 -8
40 -11 43 -29 25 -8 -8 -19 -48 -24 -88 -6 -42 -16 -80 -25 -89 -24 -24 -30
-7 -10 25 l18 28 -27 -24 c-19 -17 -30 -22 -38 -14 -7 7 -3 15 14 26 15 10 29
33 36 61 17 70 54 104 126 117 73 13 89 18 83 24 -11 11 -153 -27 -173 -45
-15 -14 -24 -17 -32 -9 -8 8 -20 -1 -44 -30 -47 -60 -55 -50 -17 21 64 120
239 262 299 243 18 -6 20 -12 15 -50 -4 -26 -3 -46 3 -50 7 -3 8 0 5 9 -9 23
33 101 72 136 26 23 44 30 75 30 33 0 40 -3 37 -18z m-398 -20 c0 -19 -61 -52
-97 -52 l-37 0 34 30 c33 28 100 42 100 22z m527 -39 c45 -19 63 -31 67 -49 8
-32 -14 -82 -53 -119 -27 -25 -33 -27 -41 -15 -15 24 -12 33 10 27 13 -3 25 2
35 16 15 21 14 22 -32 34 -72 17 -110 16 -117 -3 -6 -15 -10 -14 -31 6 -44 41
-26 73 24 44 25 -15 35 -16 55 -6 32 14 32 23 1 60 -43 51 -32 52 82 5z m-287
19 c0 -15 -11 -21 -27 -15 -12 5 -12 7 -1 14 17 11 28 11 28 1z m-320 -50 c0
-20 -62 -65 -99 -72 -50 -9 -52 1 -7 46 26 26 42 34 70 34 20 0 36 -4 36 -8z
m819 -87 c115 -49 154 -71 146 -85 -3 -5 -31 5 -63 21 -33 17 -73 29 -96 29
-29 0 -37 3 -33 14 4 9 -5 19 -23 26 -32 13 -50 7 -50 -16 0 -9 -9 -37 -21
-63 -17 -40 -32 -56 -92 -95 -40 -25 -98 -56 -130 -68 l-58 -21 29 -27 c17
-15 37 -41 46 -58 l16 -31 67 31 c138 63 356 127 440 129 15 0 37 5 48 10 16
7 12 8 -17 6 -43 -3 -45 -1 -22 25 16 17 19 17 65 -10 27 -15 49 -30 49 -33 0
-3 -28 -9 -63 -13 -143 -14 -388 -86 -520 -153 -67 -33 -87 -35 -87 -8 0 17
-72 95 -88 95 -6 0 9 -20 33 -45 25 -24 45 -50 45 -57 1 -40 17 -40 96 0 153
77 390 144 556 158 102 9 113 -10 16 -26 -292 -48 -447 -92 -598 -172 -86 -45
-96 -48 -105 -32 -29 50 -78 94 -106 94 -37 0 -40 -7 -79 -195 -16 -82 -36
-172 -43 -200 -13 -47 -16 -50 -43 -47 -35 4 -134 48 -134 59 0 27 24 31 72
12 27 -10 52 -19 57 -19 4 0 18 33 29 73 28 94 71 307 62 307 -3 0 -33 -20
-65 -45 -55 -43 -76 -51 -81 -29 -2 5 97 77 219 159 287 194 360 252 383 304
10 23 22 41 27 41 5 0 57 -20 116 -45z m-908 -34 c-14 -26 -29 -41 -48 -45
-15 -4 -36 -9 -47 -13 -17 -5 -16 -1 5 37 24 43 46 58 87 59 l22 1 -19 -39z
m817 -21 c-18 -21 -34 -37 -35 -36 -2 2 2 18 8 37 6 19 13 40 15 47 3 10 9 10
24 2 20 -11 19 -12 -12 -50z m-169 4 c10 -22 9 -25 -6 -22 -10 2 -19 13 -21
26 -5 30 12 28 27 -4z m-12 -44 c20 0 -51 -52 -294 -217 -99 -68 -188 -123
-196 -123 -8 0 -35 22 -60 49 -41 44 -67 98 -67 142 0 19 89 121 100 114 4 -2
0 -28 -9 -56 -11 -37 -24 -57 -43 -68 -33 -19 -32 -30 10 -56 17 -11 31 -28
32 -37 0 -14 37 -36 44 -26 25 38 36 61 36 78 0 25 5 25 39 1 35 -25 64 -29
84 -12 24 19 21 31 -6 31 -12 0 -33 7 -46 16 l-23 16 30 18 c16 10 33 23 36
29 4 6 24 11 45 11 28 0 53 10 90 35 49 34 52 35 76 19 30 -20 25 -23 60 46
l28 55 9 -32 c5 -21 15 -33 25 -33z m253 43 c0 -5 -14 -16 -30 -25 -33 -19
-37 -35 -17 -63 18 -23 70 -13 65 13 -4 19 -38 30 -38 12 0 -6 4 -9 9 -5 5 3
12 1 15 -4 8 -12 -25 -24 -37 -12 -17 17 -3 46 25 49 35 4 55 -29 39 -64 -22
-49 -111 -21 -111 35 0 34 10 48 40 60 31 12 40 13 40 4z m56 -19 c-6 -16 5
-19 20 -4 6 6 32 -5 72 -32 l63 -41 -23 -23 c-20 -20 -29 -21 -73 -14 -28 4
-51 4 -53 -1 -2 -5 -12 -9 -22 -9 -10 0 -47 -9 -82 -20 -68 -21 -69 -21 -97
28 -6 11 -22 5 -68 -25 -33 -21 -68 -43 -78 -48 -13 -8 -16 -17 -10 -34 8 -26
2 -27 132 23 104 41 183 63 257 72 79 10 47 -6 -71 -37 -88 -22 -179 -55 -320
-116 -7 -3 -13 0 -13 6 0 5 -14 26 -31 46 l-31 35 48 22 c58 25 136 71 185
110 37 28 49 28 49 -2 0 -46 99 -73 127 -34 19 25 16 61 -6 83 -13 13 -16 22
-9 29 14 14 40 3 34 -14z m-999 -76 c-27 -66 -26 -65 -36 -49 -5 8 -12 -3 -20
-34 -9 -35 -18 -48 -38 -56 -52 -20 -85 8 -36 31 16 7 23 15 16 17 -8 3 -4 16
13 40 13 20 24 44 24 54 0 20 43 48 77 49 l21 0 -21 -52z m242 -44 c-25 -30
-31 -8 -12 46 4 11 7 9 14 -9 6 -16 5 -28 -2 -37z m565 -20 c9 -24 7 -31 -9
-38 -21 -8 -42 33 -24 45 20 12 26 11 33 -7z m-46 -38 c3 -12 -1 -17 -10 -14
-7 3 -15 13 -16 22 -3 12 1 17 10 14 7 -3 15 -13 16 -22z m-458 -16 c14 -11
33 -20 43 -20 9 0 17 -4 17 -10 0 -17 -39 -11 -75 13 -19 12 -35 25 -35 30 0
13 25 7 50 -13z m423 6 c3 -8 0 -17 -8 -20 -14 -5 -28 17 -18 28 10 10 21 7
26 -8z m-38 -17 c10 -15 -1 -23 -20 -15 -9 3 -13 10 -10 16 8 13 22 13 30 -1z
m-671 -209 c24 -107 41 -198 37 -201 -3 -4 -25 -10 -48 -14 l-43 -7 1 219 c0
120 2 214 5 208 2 -5 24 -98 48 -205z m1273 186 c18 5 24 3 19 -5 -4 -6 -14
-11 -22 -11 -11 0 -12 -4 -4 -19 15 -30 12 -36 -9 -17 -16 15 -19 15 -31 1
-17 -21 -24 -12 -10 14 9 17 8 21 -5 21 -8 0 -15 4 -15 9 0 5 9 7 20 4 15 -4
20 0 21 13 1 17 2 17 6 1 3 -13 11 -15 30 -11z m-1337 -197 l0 -211 -32 7
c-71 14 -68 3 -38 138 16 67 36 157 45 200 9 42 19 77 21 77 2 0 4 -95 4 -211z
m-30 172 c-12 -43 -27 -67 -60 -94 -31 -26 -82 -43 -100 -32 -17 11 17 61 50
75 26 11 29 15 16 22 -29 16 -17 35 32 45 73 16 72 16 62 -16z m1093 -73 c2
-40 17 -111 32 -156 14 -46 24 -90 21 -98 -3 -8 -19 -14 -36 -14 -28 0 -31 -3
-29 -28 5 -42 -6 -50 -58 -46 l-48 3 48 -11 c44 -11 67 -38 31 -38 -13 0 -15
-7 -10 -37 9 -58 -1 -66 -96 -72 -136 -10 -159 -39 -156 -201 1 -47 3 -68 5
-47 5 45 19 44 51 -3 14 -21 22 -48 22 -76 0 -24 5 -46 11 -50 8 -5 9 9 4 47
-9 66 -26 101 -62 127 -32 23 -26 37 12 28 46 -12 84 -98 86 -194 1 -28 6 -56
11 -63 7 -10 8 -8 5 9 -3 12 1 29 9 36 16 16 19 30 5 22 -5 -3 -12 2 -15 11
-7 17 9 33 32 33 19 0 27 -30 13 -51 -16 -27 4 -24 22 4 12 18 19 20 34 11 31
-19 27 -49 -11 -85 -43 -40 -45 -49 -11 -49 31 0 33 -20 3 -21 -17 -1 -19 -2
-5 -6 20 -5 20 -8 7 -34 -6 -10 -18 -19 -27 -19 -14 0 -14 -2 3 -15 16 -13 17
-16 4 -25 -21 -14 -28 -12 -33 8 -3 10 -5 6 -6 -11 -1 -19 -5 -27 -13 -23 -7
3 -21 9 -30 12 -10 4 -18 10 -18 15 0 5 -7 9 -17 9 -15 0 -15 2 1 19 33 36 -7
52 -66 27 -13 -6 -19 -2 -24 18 -8 32 2 76 17 76 7 0 9 -11 6 -30 -9 -40 -1
-38 17 5 14 32 18 35 43 30 24 -5 25 -5 10 5 -10 7 -28 9 -40 6 -15 -4 -91 26
-242 96 -121 55 -221 102 -223 103 -1 1 0 9 3 18 5 12 24 7 111 -34 57 -27
151 -71 209 -98 58 -28 105 -46 105 -42 0 5 -42 27 -92 51 -275 126 -328 153
-320 164 16 22 33 87 31 114 -3 20 6 40 29 68 18 21 37 55 41 74 24 93 31 133
31 165 0 19 3 35 6 35 17 0 89 -75 104 -107 9 -21 24 -44 33 -52 24 -19 21 -8
-8 35 -30 44 -31 60 -5 74 11 6 20 15 20 21 0 6 -10 3 -21 -5 -24 -16 -44 -12
-76 17 -28 25 -29 34 -3 42 12 4 26 0 36 -10 9 -9 19 -13 23 -9 3 4 0 9 -6 11
-36 13 9 56 71 67 30 6 55 24 119 88 75 76 86 83 156 104 112 33 108 35 114
-48z m107 16 c0 -11 6 -15 20 -11 23 6 27 -8 5 -17 -13 -4 -14 -10 -5 -26 8
-14 8 -20 0 -20 -6 0 -13 7 -17 15 -5 14 -8 14 -26 -2 -19 -17 -19 -17 -13 4
5 15 2 25 -11 32 -16 9 -16 10 5 11 13 0 22 6 22 15 0 8 5 15 10 15 6 0 10 -7
10 -16z m-651 -18 c9 -11 6 -18 -15 -35 -28 -22 -54 -28 -54 -12 0 49 43 78
69 47z m298 -11 c-16 -14 -40 -25 -55 -24 -23 0 -20 4 23 25 62 30 67 30 32
-1z m-890 -58 c-32 -55 -113 -129 -135 -125 -21 4 -30 48 -10 48 8 0 23 7 34
15 18 15 18 15 -8 9 -32 -7 -35 2 -12 34 9 13 26 22 40 22 29 0 75 22 94 45
25 31 23 -3 -3 -48z m1443 47 c0 -10 6 -14 15 -10 8 3 15 1 15 -3 0 -5 -6 -11
-12 -14 -10 -3 -10 -8 1 -21 8 -9 12 -19 9 -21 -3 -3 -11 1 -18 10 -12 14 -15
14 -33 -2 -19 -18 -19 -17 -12 6 5 16 3 26 -6 32 -11 7 -10 9 4 9 9 0 17 7 17
15 0 8 5 15 10 15 6 0 10 -7 10 -16z m-975 -16 c-37 -164 -67 -286 -75 -297
-7 -13 -14 -13 -49 -1 -40 13 -60 38 -21 26 11 -3 28 -9 39 -12 16 -5 21 4 35
58 27 104 45 192 41 196 -2 2 -20 -6 -39 -18 -53 -32 -44 -8 12 33 56 42 64
44 57 15z m169 -10 c9 -12 14 -24 11 -26 -2 -2 -33 -10 -69 -17 -53 -9 -66 -9
-66 1 0 7 15 18 34 24 19 6 40 18 46 26 17 19 26 18 44 -8z m178 -37 c-22 -34
-28 -38 -71 -45 -20 -3 -52 -17 -71 -31 -36 -26 -78 -32 -111 -14 -30 16 -13
29 38 29 30 0 53 7 70 20 14 11 39 20 54 20 28 0 69 30 69 49 0 5 9 7 20 4 18
-5 18 -6 2 -32z m-42 19 c0 -11 -33 -30 -52 -30 -7 1 -3 9 11 20 25 22 41 26
41 10z m-369 -117 c-29 -129 -34 -137 -69 -115 -10 7 -8 19 8 55 12 26 22 63
24 84 2 24 12 42 27 54 13 10 25 16 27 15 1 -2 -6 -44 -17 -93z m265 85 c11
-18 -26 -38 -73 -38 -24 0 -55 -7 -68 -16 -24 -16 -25 -15 -25 4 0 26 27 42
72 43 18 0 42 4 53 9 28 12 33 12 41 -2z m-683 -88 c-14 -64 -24 -90 -46 -112
-29 -29 -57 -37 -57 -16 0 6 -8 20 -17 30 -17 19 -16 20 7 40 18 14 21 21 12
25 -9 3 -4 11 16 23 16 10 44 36 63 58 19 22 35 39 36 38 2 -2 -5 -40 -14 -86z
m1327 30 c0 -6 12 -8 28 -5 26 6 26 6 8 -9 -16 -13 -17 -19 -8 -28 18 -18 15
-33 -3 -18 -13 11 -18 10 -31 -6 -15 -18 -15 -18 -11 3 4 16 -1 23 -17 26
l-21 4 22 8 c13 4 19 13 16 21 -3 8 0 14 6 14 6 0 11 -5 11 -10z m-770 -24 c0
-2 -6 -16 -14 -30 -11 -23 -11 -37 0 -93 8 -36 12 -81 8 -100 -9 -47 -59 -112
-99 -129 -56 -23 -61 -16 -16 22 47 41 81 99 81 140 0 16 -5 53 -12 85 -10 50
-9 60 5 83 14 21 47 37 47 22z m24 -41 c-9 -14 -13 -32 -9 -44 3 -11 2 -28 -3
-38 -8 -14 -12 -8 -17 30 -8 49 4 77 31 77 12 0 12 -4 -2 -25z m1126 -67 c0
-7 -17 -29 -37 -48 -21 -20 -48 -53 -60 -75 l-22 -40 -1 49 c0 43 4 52 39 87
37 38 81 52 81 27z m-1211 -123 l-12 -30 -7 40 c-4 22 -6 44 -5 50 2 5 7 24
11 40 7 29 8 28 17 -20 6 -36 5 -59 -4 -80z m829 84 c26 0 26 -1 5 -9 -16 -6
-20 -15 -16 -32 4 -22 4 -22 -11 -4 -13 16 -19 17 -28 8 -18 -18 -32 -14 -17
5 11 13 11 17 2 20 -20 7 -15 23 7 23 12 0 21 7 21 18 1 11 3 9 6 -5 3 -17 12
-23 31 -24z m-1602 10 c44 -27 51 -43 46 -105 l-4 -51 -44 85 c-24 48 -44 87
-44 89 0 7 15 1 46 -18z m350 1 c11 0 14 -23 14 -105 0 -98 -1 -105 -20 -105
-13 0 -22 9 -26 28 -4 15 -15 60 -25 101 -24 96 -25 95 12 87 17 -3 38 -6 45
-6z m114 -2 c-1 -7 -11 -56 -24 -108 -20 -81 -26 -95 -45 -98 -21 -3 -22 -1
-19 99 3 100 4 103 28 110 40 11 60 10 60 -3z m-349 -49 c-2 -13 -4 -78 -4
-144 -1 -128 12 -185 78 -328 44 -95 40 -58 -5 47 -23 53 -48 129 -56 168 -20
91 -15 215 10 252 17 27 49 33 76 16 12 -8 10 -13 -12 -37 -40 -44 -58 -87
-57 -140 l2 -48 6 50 c8 56 28 100 60 129 31 28 26 2 -9 -49 -16 -24 -30 -50
-29 -57 0 -10 2 -10 6 0 2 6 12 12 21 12 12 0 10 -5 -8 -25 -26 -28 -17 -34
12 -8 32 29 32 5 -1 -32 -24 -28 -31 -44 -30 -73 2 -33 2 -34 6 -7 5 35 27 55
60 55 30 0 29 -5 -7 -47 -34 -38 -34 -53 0 -188 32 -126 60 -187 112 -241 l48
-51 -73 5 c-47 3 -82 0 -96 -8 -35 -18 -40 -1 -8 26 32 28 63 31 95 8 38 -26
24 -5 -47 74 -64 71 -77 95 -180 319 -61 133 -111 247 -111 253 0 27 27 0 55
-55 l30 -60 3 90 c2 66 7 94 19 107 22 24 39 17 34 -13z m1664 -6 c27 -27 27
-30 22 -113 -3 -47 -15 -112 -25 -145 l-20 -60 -1 52 c-1 67 -15 101 -46 115
-14 6 -25 17 -25 25 0 19 37 16 49 -4 5 -10 13 -15 16 -11 4 4 -10 23 -31 42
-27 25 -35 39 -28 46 28 28 65 -18 75 -95 l6 -50 2 48 c1 62 -20 102 -69 127
-57 29 -51 48 16 49 21 1 40 -8 59 -26z m59 -78 c-1 -66 -9 -114 -29 -180 -34
-113 -40 -139 -20 -96 9 18 27 74 40 125 29 107 53 166 70 166 6 0 -11 -67
-45 -168 -47 -145 -65 -184 -125 -278 -79 -124 -148 -202 -211 -239 -23 -14
-45 -25 -49 -25 -3 0 23 27 59 60 70 66 182 198 174 206 -3 2 -18 -12 -34 -33
-89 -118 -249 -259 -329 -291 -30 -12 -30 -12 -9 5 12 10 50 38 84 63 63 45
260 243 260 261 0 6 -4 8 -9 4 -6 -3 2 23 16 57 14 35 28 91 31 125 5 71 -9
102 -58 128 -17 9 -30 20 -30 25 0 18 67 11 91 -9 22 -18 24 -26 23 -108 0
-82 -3 -95 -33 -147 -18 -32 -30 -60 -28 -63 8 -7 53 76 86 157 40 101 55 185
49 276 -4 65 -3 74 11 72 13 -3 16 -18 15 -93z m-1254 43 c0 -14 -71 -81 -78
-74 -11 12 10 54 33 64 14 6 25 16 25 22 0 6 5 8 10 5 6 -3 10 -11 10 -17z
m50 -17 c0 -4 -16 -23 -36 -42 -20 -18 -40 -45 -46 -59 -7 -20 -11 -22 -18
-10 -16 26 -11 38 33 83 36 38 67 51 67 28z m104 -20 c-5 -21 -21 -43 -47 -64
-88 -70 -97 -82 -97 -131 0 -40 3 -47 30 -61 31 -16 41 -45 15 -45 -8 0 -15 5
-15 11 0 5 -16 17 -35 25 -46 19 -51 33 -27 81 10 21 22 50 26 65 4 17 22 38
46 54 22 15 43 37 46 50 4 15 14 24 25 24 11 0 22 7 26 15 9 26 14 11 7 -24z
m-64 10 c0 -23 -15 -42 -47 -62 -19 -12 -41 -36 -49 -53 l-13 -31 -1 29 c0 20
13 43 43 76 39 45 67 62 67 41z m907 -49 c18 -24 31 -48 28 -52 -3 -5 7 -16
23 -24 16 -8 34 -21 41 -30 11 -13 9 -15 -15 -13 -24 2 -29 -2 -34 -28 -4 -20
-8 -26 -13 -17 -13 20 -57 15 -57 -7 0 -17 -12 -19 -152 -23 -139 -5 -208 2
-208 21 0 3 21 19 47 34 35 22 57 28 92 27 25 -2 52 -2 59 -1 7 0 35 37 64 82
59 94 74 97 125 31z m-1079 -44 c32 -32 -13 -103 -58 -91 -27 7 -25 28 8 69
30 38 33 39 50 22z m-80 -25 c-2 -14 -15 -19 -56 -21 -47 -3 -52 -5 -52 -26 0
-16 -7 -26 -22 -29 -12 -4 -19 -9 -16 -12 3 -3 26 -1 50 5 28 7 66 9 104 3 52
-7 59 -11 62 -32 2 -13 -2 -27 -8 -31 -7 -4 -52 -5 -101 -2 -61 3 -89 1 -89
-6 0 -7 37 -12 108 -14 l107 -3 3 -27 3 -28 -103 -2 c-61 -1 -78 -3 -43 -5
106 -5 127 -11 123 -36 -3 -20 -11 -23 -73 -27 l-70 -6 59 -4 c43 -4 62 -10
70 -23 15 -24 -15 -47 -60 -47 -18 0 -35 -4 -39 -9 -3 -6 9 -7 31 -4 27 4 35
3 30 -5 -4 -7 -14 -12 -22 -12 -8 0 -23 -5 -33 -12 -16 -10 -26 -7 -59 16 -44
30 -65 70 -87 166 -24 105 -21 121 30 171 25 24 45 52 45 62 0 14 9 17 56 17
47 0 55 -3 52 -17z m330 -21 c4 -28 -14 -52 -39 -52 -14 0 -19 -7 -19 -25 0
-28 -24 -25 -41 6 -8 16 -4 21 26 33 27 12 35 21 35 41 0 34 33 31 38 -3z
m-50 0 c2 -7 -12 -19 -32 -27 -20 -9 -36 -20 -36 -26 0 -22 21 -47 50 -59 34
-14 37 -22 14 -41 -13 -11 -17 -10 -25 4 -6 9 -23 24 -39 32 -23 12 -30 22
-30 46 0 17 5 39 11 50 18 34 77 49 87 21z m-153 -9 c11 -14 10 -23 -2 -46
-21 -42 -13 -69 27 -89 l35 -17 -31 -1 c-18 0 -41 8 -52 18 -26 23 -37 95 -17
112 8 7 15 19 15 26 0 19 10 18 25 -3z m-145 -18 c0 -10 -11 -15 -35 -15 -24
0 -35 5 -35 15 0 10 11 15 35 15 24 0 35 -5 35 -15z m1260 -80 c0 -35 -5 -76
-11 -92 l-11 -28 -10 28 c-6 17 -25 35 -49 47 -21 11 -39 25 -39 30 0 18 28
10 59 -16 17 -14 31 -21 31 -15 0 5 -16 22 -35 37 -56 43 -40 63 17 22 l31
-21 -7 35 c-3 19 -3 37 0 41 16 15 24 -8 24 -68z m36 -6 c-7 -76 -44 -165
-100 -243 -64 -90 -76 -95 -37 -13 41 86 48 160 17 183 -25 17 -15 29 12 15
25 -14 36 -44 27 -78 -6 -24 -5 -25 11 -12 26 22 43 71 50 148 4 42 11 68 17
64 6 -3 7 -30 3 -64z m-968 34 c-5 -25 -28 -28 -28 -4 0 12 6 21 16 21 9 0 14
-7 12 -17z m538 -55 c4 -5 -4 -8 -17 -6 -12 1 -24 8 -26 15 -5 14 34 6 43 -9z
m54 -18 c0 -5 -4 -10 -9 -10 -6 0 -13 5 -16 10 -3 6 1 10 9 10 9 0 16 -4 16
-10z m-42 -12 c-3 -7 -11 -13 -18 -13 -7 0 -15 6 -17 13 -3 7 4 12 17 12 13 0
20 -5 18 -12z m636 -20 c8 -13 7 -21 -3 -30 -11 -10 -14 -10 -18 0 -8 20 -48
13 -73 -13 -13 -14 -21 -27 -18 -30 2 -3 15 6 28 20 28 30 50 32 50 5 0 -15
-13 -26 -47 -41 -26 -11 -62 -36 -80 -54 -39 -40 -38 -40 10 -20 52 21 80 19
112 -11 20 -19 25 -28 16 -37 -8 -8 -20 -6 -46 6 -41 20 -64 21 -85 6 -12 -8
-9 -9 13 -5 29 7 67 -8 67 -26 0 -7 -14 -8 -38 -4 -48 7 -98 -7 -131 -37 -50
-47 -65 -39 -22 11 22 27 47 55 56 62 8 7 13 16 10 20 -6 10 109 186 127 193
24 10 61 2 72 -15z m-1305 -3 c9 -9 -13 -25 -34 -25 -21 0 -55 23 -55 37 0 5
82 -6 89 -12z m116 -2 c42 -20 43 -26 10 -58 -30 -30 -58 -32 -86 -4 -25 25
-21 50 11 66 31 16 23 16 65 -4z m615 2 c7 -9 11 -18 8 -21 -8 -7 -58 14 -58
26 0 15 36 12 50 -5z m70 -25 c11 -20 4 -50 -11 -50 -5 0 -9 5 -9 12 0 6 -7
19 -16 29 -9 10 -13 22 -10 28 9 14 34 3 46 -19z m-116 5 c7 -20 -23 -32 -35
-14 -13 21 -11 29 10 29 10 0 22 -7 25 -15z m-751 -12 c8 -13 -12 -53 -25 -53
-8 0 -13 13 -14 30 -1 23 3 30 17 30 10 0 20 -3 22 -7z m107 -53 c18 0 11 -19
-14 -35 -27 -18 -72 -7 -82 20 -22 56 49 97 73 43 7 -16 17 -28 23 -28z m183
34 c59 -26 63 -37 29 -76 -19 -22 -65 -23 -86 -2 -16 16 -21 59 -10 88 8 20 1
21 67 -10z m535 3 c18 -14 15 -27 -9 -27 -21 0 -49 22 -49 38 0 11 39 4 58
-11z m90 -5 c2 -7 -3 -12 -12 -12 -9 0 -16 7 -16 16 0 17 22 14 28 -4z m90
-10 c2 -12 -15 -58 -37 -102 -23 -44 -38 -80 -33 -80 4 0 25 35 47 78 29 58
40 72 43 55 6 -40 -79 -180 -146 -239 -41 -36 -45 -29 -13 24 34 56 46 93 59
185 11 71 34 110 61 105 9 -2 17 -13 19 -26z m-1420 -56 c19 -17 48 -49 65
-71 l32 -40 -32 23 c-17 12 -51 29 -74 37 -56 20 -72 34 -59 50 6 7 8 20 4 29
-9 24 24 10 64 -28z m1332 15 c0 -23 -7 -33 -27 -43 -15 -7 -34 -26 -41 -41
-8 -17 -21 -27 -35 -27 -22 1 -22 1 -2 18 28 24 55 68 55 90 0 24 8 32 32 32
13 0 18 -8 18 -29z m-706 -12 c18 -36 14 -49 -15 -49 -11 0 -29 -5 -39 -10
-15 -8 -21 -6 -30 11 -18 33 -5 67 28 72 15 2 30 5 34 6 3 0 14 -13 22 -30z
m205 6 c40 -20 48 -28 44 -45 -6 -23 -40 -50 -62 -50 -28 0 -51 32 -51 70 0
33 6 50 17 50 2 0 26 -11 52 -25z m-402 -9 c20 -21 21 -25 8 -36 -12 -10 -19
-10 -27 -2 -17 17 -28 15 -28 -4 0 -34 -23 -6 -24 29 -1 33 2 37 24 37 14 0
35 -11 47 -24z m100 -46 c8 -22 8 -38 0 -60 -14 -38 -21 -38 -32 2 -6 18 -20
38 -33 44 -30 15 -14 29 48 43 3 0 11 -12 17 -29z m463 -31 c0 -5 -11 -21 -24
-34 -49 -49 -107 8 -80 79 5 13 13 12 55 -9 27 -14 49 -30 49 -36z m-234 16
c29 -63 -5 -90 -41 -32 -11 17 -31 37 -44 44 -24 11 -23 12 20 16 24 2 45 4
46 5 1 1 10 -14 19 -33z m-702 -37 l34 -24 -61 1 c-57 1 -62 3 -60 23 3 22 3
22 -17 2 -31 -31 -75 -20 -68 16 8 41 98 32 172 -18z m1266 34 c0 -26 -30
-112 -39 -112 -4 0 -13 11 -20 24 -14 25 -7 51 11 40 6 -4 8 1 3 15 -7 24 9
51 31 51 8 0 14 -8 14 -18z m-950 -26 c0 -14 -9 -27 -24 -34 -22 -10 -24 -8
-29 16 -4 18 0 31 10 39 21 16 43 5 43 -21z m108 -3 c6 -9 12 -25 12 -34 0
-10 4 -20 9 -23 5 -3 14 -20 20 -36 9 -28 9 -29 -9 -20 -34 18 -50 41 -50 70
0 23 -7 33 -30 45 -16 9 -30 20 -30 25 0 14 63 -8 78 -27z m210 17 c26 -25 29
-66 5 -92 -26 -29 -43 -23 -30 11 8 23 8 33 -2 45 -27 32 -91 9 -91 -32 0 -27
14 -42 50 -52 27 -8 44 -5 100 19 109 47 139 48 209 10 l59 -33 41 19 c47 21
67 12 34 -15 -28 -22 -28 -27 -5 -33 9 -3 -14 -5 -52 -6 -59 -1 -72 2 -98 24
-39 33 -72 32 -150 -5 -125 -59 -228 -30 -228 65 0 36 5 48 31 69 38 33 95 35
127 6z m-496 -12 c21 -15 32 -29 30 -41 -2 -10 12 -35 32 -57 43 -47 47 -63 9
-30 -45 39 -73 72 -94 113 -23 43 -21 44 23 15z m113 -30 c13 -59 55 -132 108
-185 28 -29 56 -53 62 -53 5 1 -4 13 -21 28 -71 61 -88 172 -26 172 11 0 12
-11 7 -49 -5 -36 -2 -57 9 -78 18 -33 21 -26 5 13 -12 34 -4 74 16 74 11 0 15
-12 15 -44 0 -73 35 -133 97 -165 43 -22 47 -10 4 14 -49 29 -70 51 -71 78 0
28 27 19 49 -16 11 -18 37 -45 56 -59 l36 -26 -26 -6 c-33 -8 -94 8 -170 47
-33 17 -94 38 -135 48 -66 16 -77 16 -103 3 -32 -17 -78 -15 -85 4 -2 7 6 12
23 12 15 0 24 4 20 10 -4 6 -26 8 -56 4 -55 -7 -62 3 -28 37 19 19 30 21 84
17 37 -3 86 -16 119 -31 31 -14 56 -24 56 -21 0 7 -58 82 -93 121 -18 19 -26
36 -22 43 6 9 13 6 27 -11 17 -20 19 -21 13 -4 -3 11 -7 22 -7 25 -4 42 28 40
37 -2z m145 -13 c0 -19 -44 -20 -59 -1 -6 7 -9 21 -5 29 5 15 9 15 35 1 16 -8
29 -21 29 -29z m423 26 c4 -16 -2 -20 -37 -23 -60 -6 -74 24 -16 35 45 8 48 7
53 -12z m-219 -24 c9 -15 7 -22 -12 -37 -27 -22 -48 -17 -58 13 -4 14 -1 25
12 34 23 17 44 13 58 -10z m-279 -47 c-23 -26 -31 -25 -39 3 -8 31 22 54 43
32 13 -13 13 -17 -4 -35z m391 35 c-11 -8 -27 -15 -35 -15 -9 1 -2 7 14 15 39
18 44 18 21 0z m214 -4 c0 -5 3 -17 7 -27 6 -16 4 -16 -25 1 -22 13 -28 21
-19 27 17 11 37 10 37 -1z m280 -31 c9 -17 7 -28 -12 -58 l-23 -37 -3 37 c-3
33 11 78 23 78 2 0 9 -9 15 -20z m288 -22 c18 -18 14 -42 -11 -66 -18 -17 -31
-20 -62 -16 -30 4 -36 3 -25 -5 8 -6 23 -11 33 -11 21 0 22 -16 1 -24 -9 -3
-51 -6 -94 -6 -61 0 -95 -6 -147 -26 -126 -47 -208 -71 -199 -56 3 5 59 30
123 56 65 25 168 73 228 106 115 62 133 68 153 48z m-657 -18 c14 -11 18 -19
11 -20 -19 0 -52 19 -52 30 0 16 16 12 41 -10z m-511 -12 c0 -19 -2 -20 -10
-8 -13 19 -13 30 0 30 6 0 10 -10 10 -22z m440 7 c-9 -8 -31 -17 -50 -20 l-35
-6 35 20 c44 25 72 29 50 6z m-279 -26 c16 -17 29 -26 29 -20 0 6 5 11 10 11
6 0 10 -11 10 -25 0 -15 7 -39 15 -55 23 -44 0 -37 -31 10 -14 21 -37 46 -50
55 -13 8 -24 24 -24 35 0 27 7 25 41 -11z m313 12 c3 -5 -1 -14 -8 -20 -16
-13 -32 2 -21 19 8 12 22 13 29 1z m-30 -36 c8 -23 -7 -25 -32 -5 -15 12 -18
20 -10 23 18 6 35 -2 42 -18z m96 18 c0 -5 -16 -16 -35 -25 -36 -18 -49 -6
-23 20 13 13 58 17 58 5z m210 -8 c14 -17 11 -21 -55 -93 -28 -32 -92 -72
-114 -72 -5 0 -3 14 6 31 11 22 13 45 8 85 l-6 54 40 0 c23 0 41 -5 41 -10 0
-18 -30 -84 -47 -102 -10 -11 -12 -18 -4 -18 15 0 49 56 57 95 3 16 8 33 11
38 8 13 50 8 63 -8z m68 -16 c-6 -17 -27 -41 -49 -55 -51 -32 -55 -30 -28 9
55 80 98 106 77 46z m-430 1 c41 -25 56 -58 48 -105 -11 -58 -82 -74 -133 -31
-37 32 -22 45 23 21 37 -20 83 -14 92 13 2 8 -6 7 -26 -5 -26 -15 -30 -15 -52
0 -19 13 -23 26 -25 72 -1 50 1 55 19 55 12 0 36 -9 54 -20z m-263 0 c3 -5 1
-10 -4 -10 -6 0 -11 5 -11 10 0 6 2 10 4 10 3 0 8 -4 11 -10z m134 -16 c6 -15
14 -24 17 -21 3 3 1 15 -6 26 -9 18 -8 21 9 21 24 0 35 -39 21 -74 -14 -37
-44 -33 -64 8 -9 19 -16 41 -16 50 0 25 26 19 39 -10z m324 -21 c7 -58 -8 -93
-47 -111 -45 -22 -76 -3 -76 47 0 44 20 73 65 96 45 23 52 19 58 -32z m-123 1
c0 -8 -5 -12 -10 -9 -6 4 -8 11 -5 16 9 14 15 11 15 -7z m-392 -73 c11 -6 8
-14 -12 -34 -14 -14 -26 -31 -26 -37 0 -5 -4 -10 -10 -10 -18 0 -11 68 8 79
21 13 24 13 40 2z m771 -22 c19 -7 31 -18 31 -28 0 -28 -10 -31 -41 -15 -16 8
-50 17 -76 21 l-48 6 35 13 c45 16 60 16 99 3z m-703 -9 l26 -10 -41 -30 c-42
-31 -65 -37 -76 -20 -13 20 17 54 62 69 1 1 14 -4 29 -9z m318 -5 c4 -10 -1
-15 -16 -15 -17 0 -18 2 -8 15 7 8 14 15 15 15 2 0 5 -7 9 -15z m-174 -51 c0
-19 -5 -24 -25 -24 -21 0 -25 5 -25 29 0 25 3 28 25 23 18 -3 25 -11 25 -28z
m310 -4 l0 -40 -150 0 -150 0 0 35 0 34 143 4 c78 1 145 4 150 5 4 1 7 -16 7
-38z m60 15 c0 -20 -5 -25 -25 -25 -20 0 -25 5 -25 25 0 20 5 25 25 25 20 0
25 -5 25 -25z m160 5 c18 -10 20 -14 9 -21 -28 -17 -83 -9 -114 17 l-30 26 57
-5 c31 -3 66 -11 78 -17z m-252 -87 c-3 -16 -16 -18 -113 -18 -97 0 -110 2
-113 18 -3 15 7 17 113 17 106 0 116 -2 113 -17z"/>
<path d="M2425 3486 c17 -7 32 -11 35 -9 8 7 -24 23 -45 22 -15 0 -13 -3 10
-13z"/>
<path d="M2271 3190 c-24 -11 -41 -23 -38 -26 3 -3 19 2 36 10 34 18 71 21 71
6 0 -5 -8 -10 -19 -10 -10 0 -34 -6 -52 -14 -19 -7 -43 -17 -54 -21 -17 -7
-14 -10 20 -21 68 -21 93 -18 110 16 8 16 23 33 32 38 14 8 12 12 -15 26 -38
20 -37 20 -91 -4z m32 -60 c-4 -16 -11 -19 -32 -13 -36 8 -37 11 -10 22 37 15
48 13 42 -9z"/>
<path d="M2330 2985 c-16 -19 -6 -45 17 -45 17 1 17 1 0 11 -18 10 -18 12 -1
30 9 10 12 19 7 19 -6 0 -16 -7 -23 -15z"/>
<path d="M2173 2290 c16 -5 35 -14 43 -21 8 -6 14 -7 14 -2 0 18 -25 33 -54
32 l-31 -1 28 -8z"/>
<path d="M2280 2273 c0 -12 3 -14 8 -7 4 7 16 14 27 17 15 4 14 5 -7 6 -21 1
-28 -4 -28 -16z"/>
<path d="M2268 2239 c-3 -9 -2 -22 2 -29 10 -16 3 -33 -11 -25 -5 4 -9 1 -9
-4 0 -6 4 -11 10 -11 5 0 7 -6 4 -14 -4 -11 0 -13 15 -9 21 5 30 23 11 23 -5
0 -7 6 -5 13 3 6 1 25 -3 42 -6 21 -10 25 -14 14z"/>
<path d="M2222 2210 c9 -13 16 -16 23 -9 7 7 5 13 -5 19 -24 15 -31 11 -18
-10z"/>
<path d="M2156 2194 c-11 -7 -17 -16 -15 -19 3 -3 14 2 25 9 10 8 17 17 14 19
-3 3 -14 -1 -24 -9z"/>
<path d="M2231 2114 c0 -11 3 -14 6 -6 3 7 2 16 -1 19 -3 4 -6 -2 -5 -13z"/>
<path d="M2405 2340 c-3 -5 -1 -10 4 -10 6 0 11 5 11 10 0 6 -2 10 -4 10 -3 0
-8 -4 -11 -10z"/>
<path d="M1848 2018 c12 -6 22 -20 22 -32 0 -15 3 -17 12 -8 14 14 -16 52 -41
51 -11 0 -9 -4 7 -11z"/>
<path d="M1997 1985 c-9 -8 -14 -22 -11 -30 8 -21 36 -27 52 -12 12 13 10 14
-12 10 -19 -4 -26 -1 -26 10 0 8 6 17 13 20 6 2 9 7 6 11 -4 4 -14 0 -22 -9z"/>
<path d="M550 1495 c0 -3 26 -42 59 -87 l58 -83 5 -160 c5 -185 19 -233 91
-303 71 -69 123 -87 257 -87 111 0 118 1 183 33 48 24 77 46 98 75 62 85 63
90 67 365 l4 253 -119 -3 -118 -3 -5 -237 c-5 -233 -5 -237 -29 -262 -49 -52
-136 -42 -169 18 -14 26 -18 67 -20 259 l-3 227 -180 0 c-98 0 -179 -2 -179
-5z"/>
<path d="M1460 1140 l0 -360 120 0 120 0 0 115 0 115 150 0 150 0 0 90 0 90
-150 0 -150 0 0 65 0 65 170 0 170 0 0 90 0 90 -290 0 -290 0 0 -360z"/>
<path d="M2130 1141 l0 -361 120 0 120 0 0 90 0 90 34 0 c32 0 39 -6 97 -90
l62 -90 125 0 c102 0 123 2 119 14 -3 8 -36 58 -73 112 l-68 97 25 16 c77 50
104 105 104 211 0 96 -12 127 -71 184 -70 68 -120 79 -371 84 l-223 4 0 -361z
m405 144 c32 -31 32 -75 3 -110 -20 -22 -34 -27 -95 -32 l-73 -6 0 87 0 86 70
0 c62 0 74 -3 95 -25z"/>
<path d="M2816 1488 c4 -7 32 -48 61 -90 l54 -78 85 0 84 0 0 -153 c0 -196 5
-190 -156 -197 l-115 -5 63 -93 63 -94 110 7 c168 10 224 46 260 168 12 39 15
108 15 299 l0 248 -266 0 c-209 0 -264 -3 -258 -12z"/>
<path d="M0 470 c0 -38 5 -80 11 -94 15 -32 59 -50 104 -42 51 10 65 37 65
128 0 71 -2 78 -20 78 -18 0 -20 -7 -20 -80 0 -68 -3 -81 -19 -90 -56 -30 -81
0 -81 96 0 67 -2 74 -20 74 -18 0 -20 -7 -20 -70z"/>
<path d="M240 435 c0 -85 3 -105 15 -105 11 0 15 17 17 72 l3 71 59 -71 c32
-40 65 -72 72 -72 11 0 14 22 14 105 0 98 -1 105 -20 105 -17 0 -19 -8 -22
-67 l-3 -67 -53 67 c-75 94 -82 91 -82 -38z"/>
<path d="M480 435 c0 -87 3 -105 15 -105 12 0 15 18 15 105 0 87 -3 105 -15
105 -12 0 -15 -18 -15 -105z"/>
<path d="M588 435 c49 -112 68 -128 92 -77 7 15 27 62 46 105 30 69 31 77 15
77 -14 0 -28 -22 -53 -80 l-35 -81 -36 81 c-27 60 -41 80 -56 80 -17 0 -14
-10 27 -105z"/>
<path d="M780 435 l0 -106 77 3 c50 2 78 7 81 16 3 9 -13 12 -57 12 l-61 0 0
30 c0 29 1 30 50 30 38 0 50 4 50 15 0 11 -12 15 -50 15 -49 0 -50 1 -50 30 0
30 1 30 55 30 42 0 55 3 55 15 0 12 -15 15 -75 15 l-75 0 0 -105z"/>
<path d="M980 435 c0 -98 1 -105 20 -105 16 0 20 7 20 30 0 26 4 30 28 30 20
0 35 -9 50 -30 13 -16 29 -30 37 -30 20 0 19 6 -5 40 -19 27 -19 27 0 45 30
27 26 79 -6 104 -20 16 -41 21 -85 21 l-59 0 0 -105z m124 56 c30 -33 -2 -71
-60 -71 -22 0 -24 4 -24 45 0 44 0 45 33 45 21 0 41 -8 51 -19z"/>
<path d="M1212 524 c-24 -17 -30 -65 -9 -82 6 -5 31 -15 54 -21 48 -13 60 -26
43 -46 -15 -18 -53 -19 -82 -4 -16 9 -23 8 -29 -2 -12 -20 46 -42 89 -35 45 7
62 23 62 56 0 33 -11 43 -65 60 -52 16 -61 25 -44 46 10 12 23 15 56 10 33 -4
43 -2 43 8 0 29 -81 36 -118 10z"/>
<path d="M1382 438 c3 -89 5 -103 21 -106 15 -3 17 7 17 102 0 100 -1 106 -20
106 -20 0 -21 -5 -18 -102z"/>
<path d="M1480 434 l0 -107 72 5 c65 5 75 9 100 37 32 35 36 76 13 120 -17 35
-60 51 -131 51 l-54 0 0 -106z m123 65 c30 -16 37 -28 37 -65 0 -40 -27 -64
-79 -71 l-41 -6 0 77 0 76 31 0 c17 0 40 -5 52 -11z"/>
<path d="M1751 457 c-52 -113 -56 -127 -36 -127 8 0 21 11 27 25 10 22 17 25
65 25 48 0 54 -3 63 -25 9 -24 40 -36 40 -16 0 5 -19 53 -42 105 -54 125 -65
126 -117 13z m89 -34 c0 -8 -14 -13 -36 -13 -30 0 -35 3 -29 18 4 9 12 30 18
46 l10 29 18 -34 c10 -19 18 -40 19 -46z"/>
<path d="M1950 436 l0 -106 53 0 c124 0 188 93 118 172 -26 30 -35 33 -100 36
l-71 4 0 -106z m134 53 c19 -15 26 -30 26 -53 0 -44 -27 -66 -81 -69 l-44 -2
-3 73 -3 72 39 0 c25 0 49 -8 66 -21z"/>
<path d="M2190 435 l0 -106 77 3 c50 2 78 7 81 16 3 9 -13 12 -57 12 l-61 0 0
30 c0 29 1 30 50 30 38 0 50 4 50 15 0 11 -12 15 -50 15 -49 0 -50 1 -50 30 0
30 1 30 55 30 42 0 55 3 55 15 0 12 -15 15 -75 15 l-75 0 0 -105z"/>
<path d="M2472 438 c3 -89 5 -103 21 -106 14 -3 17 4 17 37 l0 41 50 0 c38 0
50 4 50 15 0 11 -12 15 -50 15 l-50 0 0 35 0 35 55 0 c42 0 55 3 55 15 0 12
-15 15 -75 15 l-76 0 3 -102z"/>
<path d="M2660 435 l0 -106 77 3 c50 2 78 7 81 16 3 9 -13 12 -57 12 l-61 0 0
30 c0 29 1 30 50 30 38 0 50 4 50 15 0 11 -12 15 -50 15 -49 0 -50 1 -50 30 0
30 1 30 55 30 42 0 55 3 55 15 0 12 -15 15 -75 15 l-75 0 0 -105z"/>
<path d="M2860 434 l0 -107 68 5 c97 7 132 36 132 109 0 67 -45 99 -140 99
l-60 0 0 -106z m130 63 c50 -25 42 -107 -12 -126 -17 -6 -42 -11 -54 -11 -23
0 -24 3 -24 75 l0 75 33 0 c17 0 43 -6 57 -13z"/>
<path d="M3110 435 l0 -105 75 0 c59 0 75 3 75 15 0 10 -15 15 -57 17 -55 3
-58 4 -61 31 -3 26 -2 27 47 27 39 0 51 4 51 15 0 11 -12 15 -50 15 -49 0 -50
1 -50 30 l0 30 60 0 c47 0 60 3 60 15 0 12 -15 15 -75 15 l-75 0 0 -105z"/>
<path d="M3302 438 c3 -89 5 -103 21 -106 13 -3 17 3 17 27 0 28 3 31 29 31
21 0 36 -8 51 -30 12 -16 28 -30 36 -30 18 0 18 6 -3 41 -12 21 -14 32 -7 37
21 13 34 52 28 77 -9 35 -52 55 -119 55 l-56 0 3 -102z m123 59 c13 -10 16
-21 12 -39 -7 -26 -30 -38 -74 -38 -21 0 -23 5 -23 45 0 44 1 45 33 45 18 0
41 -6 52 -13z"/>
<path d="M3542 445 c-23 -53 -42 -100 -42 -105 0 -21 31 -9 40 15 9 22 15 25
63 25 48 0 55 -3 65 -25 11 -23 42 -36 42 -16 0 5 -20 52 -45 105 -58 126 -67
126 -123 1z m97 -27 c1 -5 -15 -8 -34 -8 -40 0 -42 5 -18 56 l18 36 17 -39 c9
-21 17 -41 17 -45z"/>
<path d="M3742 438 l3 -103 73 -3 c59 -2 72 0 72 13 0 12 -12 15 -55 15 l-55
0 0 90 c0 84 -1 90 -20 90 -20 0 -21 -5 -18 -102z"/>
<path d="M402 109 l3 -104 42 -3 c62 -5 120 14 140 45 27 41 23 98 -10 130
-24 24 -36 28 -102 31 l-76 4 3 -103z m143 46 c30 -29 32 -68 6 -94 -21 -21
-83 -37 -100 -26 -6 3 -11 37 -11 76 l0 69 40 0 c30 0 47 -7 65 -25z"/>
<path d="M675 188 c-53 -47 -49 -134 8 -168 115 -71 237 79 135 165 -40 33
-106 35 -143 3z m120 -33 c49 -48 19 -119 -50 -119 -69 0 -99 71 -50 119 31
32 69 32 100 0z"/>
<path d="M980 105 c0 -98 1 -105 20 -105 16 0 20 7 20 30 0 26 4 30 28 30 20
0 35 -9 50 -30 13 -17 29 -30 37 -30 20 0 19 6 -5 40 -19 27 -19 27 0 45 20
18 27 69 12 91 -14 22 -52 34 -106 34 l-56 0 0 -105z m124 59 c9 -8 16 -19 16
-23 0 -20 -29 -42 -63 -48 l-37 -6 0 47 c0 46 0 46 34 46 19 0 42 -7 50 -16z"/>
<path d="M1200 105 c0 -87 3 -105 15 -105 12 0 15 18 15 105 0 87 -3 105 -15
105 -12 0 -15 -18 -15 -105z"/>
<path d="M1328 194 c-57 -30 -66 -104 -19 -156 43 -48 119 -48 162 0 84 93
-30 218 -143 156z m112 -34 c30 -30 27 -83 -6 -109 -15 -12 -34 -21 -44 -21
-10 0 -29 9 -44 21 -52 41 -23 129 44 129 17 0 39 -9 50 -20z"/>
<path d="M1622 109 l3 -104 42 -3 c62 -5 120 14 140 45 27 41 23 98 -10 130
-24 24 -36 28 -102 31 l-76 4 3 -103z m143 46 c51 -50 21 -114 -55 -118 l-45
-2 -3 73 -3 72 41 0 c30 0 47 -6 65 -25z"/>
<path d="M1870 105 l0 -105 75 0 c60 0 75 3 75 15 0 12 -13 15 -55 15 -54 0
-55 0 -55 29 0 28 2 30 47 33 66 4 70 28 4 28 -50 0 -51 1 -51 30 0 30 1 30
55 30 42 0 55 3 55 15 0 12 -15 15 -75 15 l-75 0 0 -105z"/>
<path d="M2140 195 c0 -10 11 -15 35 -15 l35 0 0 -70 c0 -77 -14 -95 -52 -71
-18 11 -38 7 -38 -8 0 -11 46 -31 70 -31 11 0 29 9 40 20 17 17 20 33 20 105
l0 85 -55 0 c-42 0 -55 -3 -55 -15z"/>
<path d="M2322 112 c-23 -53 -42 -100 -42 -104 0 -19 31 -5 40 17 9 22 15 25
63 25 48 0 55 -3 65 -25 10 -23 42 -36 42 -17 0 4 -19 51 -42 104 -58 131 -68
131 -126 0z m92 -9 c7 -21 4 -23 -28 -23 -41 0 -43 5 -19 55 17 35 17 36 29
13 6 -13 15 -33 18 -45z"/>
<path d="M2522 108 c3 -88 6 -103 20 -106 15 -3 18 7 20 68 l3 71 58 -70 c32
-39 65 -71 73 -71 11 0 14 20 14 105 0 98 -1 105 -20 105 -17 0 -19 -8 -22
-67 l-3 -68 -54 68 c-32 39 -62 67 -73 67 -17 0 -18 -8 -16 -102z"/>
<path d="M2770 105 l0 -105 75 0 c59 0 75 3 75 15 0 10 -15 15 -57 17 -55 3
-58 4 -61 31 -3 26 -2 27 47 27 38 0 51 4 51 14 0 11 -14 16 -47 18 -44 3 -48
5 -51 31 -3 27 -2 27 52 27 43 0 56 3 56 15 0 12 -14 15 -70 15 l-70 0 0 -105z"/>
<path d="M2962 108 c3 -89 5 -103 21 -106 15 -3 17 7 17 102 0 100 -1 106 -20
106 -20 0 -21 -5 -18 -102z"/>
<path d="M3060 104 c0 -95 2 -105 18 -102 10 2 18 14 20 31 3 22 8 27 32 27
21 0 33 -8 47 -30 9 -17 25 -30 35 -30 23 0 23 5 -3 39 l-21 29 21 21 c30 30
27 75 -5 100 -20 16 -41 21 -85 21 l-59 0 0 -106z m118 64 c21 -21 14 -58 -14
-68 -53 -20 -64 -14 -64 35 0 44 1 45 33 45 18 0 38 -5 45 -12z"/>
<path d="M3309 195 c-54 -29 -63 -119 -15 -164 32 -30 85 -37 128 -17 100 48
66 197 -44 196 -24 -1 -55 -7 -69 -15z m110 -33 c33 -26 31 -79 -3 -109 -33
-28 -56 -29 -90 -2 -33 26 -35 73 -4 106 26 28 67 30 97 5z"/>
</g>
</svg>
