<?xml version="1.0" standalone="no"?>
<!DOCTYPE svg PUBLIC "-//W3C//DTD SVG 20010904//EN"
 "http://www.w3.org/TR/2001/REC-SVG-20010904/DTD/svg10.dtd">
<svg version="1.0" xmlns="http://www.w3.org/2000/svg"
 width="556.000000pt" height="768.000000pt" viewBox="0 0 556.000000 768.000000"
 preserveAspectRatio="xMidYMid meet">

<g transform="translate(0.000000,768.000000) scale(0.100000,-0.100000)"
fill="#000000" stroke="none">
<path d="M2875 7362 c-54 -45 -78 -73 -104 -124 l-34 -67 -38 20 -39 19 0 -70
c0 -119 -40 -172 -106 -141 -32 14 -32 15 -27 -12 3 -13 -3 -50 -11 -84 -20
-76 -20 -124 -1 -170 19 -45 20 -43 -15 -43 -25 0 -30 -4 -30 -25 0 -20 -5
-25 -25 -25 -37 0 -75 -42 -75 -82 0 -46 24 -76 65 -84 27 -5 35 -11 35 -28 0
-27 18 -46 42 -46 16 0 18 -9 18 -75 l0 -75 -522 -2 -523 -3 3 -1255 2 -1255
30 -63 c79 -169 259 -288 705 -467 209 -83 375 -162 417 -197 26 -22 27 -27
29 -138 l3 -115 -68 -8 c-80 -10 -96 -6 -96 26 0 13 -9 32 -21 43 -19 17 -42
19 -268 22 -265 4 -467 -8 -644 -38 l-112 -19 -90 92 c-50 51 -112 125 -139
164 -44 65 -48 75 -38 98 12 26 47 34 55 13 6 -18 81 25 86 49 6 31 22 43 57
43 41 0 74 29 74 65 0 15 7 40 16 56 8 17 14 33 12 35 -3 2 -29 -8 -59 -23
-34 -17 -84 -58 -137 -111 -45 -47 -85 -82 -89 -78 -11 11 147 165 202 197
l50 29 -51 0 c-65 0 -109 -18 -167 -70 -34 -31 -48 -52 -52 -78 -8 -44 -25
-82 -37 -82 -5 0 -32 47 -60 105 -47 96 -50 107 -38 134 14 34 38 48 46 26 14
-36 100 -6 106 37 3 24 17 33 72 45 43 9 47 14 69 91 10 33 11 52 5 52 -29 0
-142 -68 -208 -125 -77 -66 -113 -75 -41 -10 94 85 149 121 230 150 33 12 29
13 -44 8 -55 -4 -88 -12 -107 -24 -14 -11 -30 -19 -36 -19 -17 0 -82 -88 -82
-112 0 -13 -11 -33 -24 -45 l-24 -23 -10 28 c-18 47 -41 125 -56 189 -12 53
-12 64 0 80 13 17 15 16 39 -12 l24 -29 43 15 c32 12 44 22 46 40 6 37 19 47
72 54 57 8 59 10 81 85 9 30 20 63 24 73 7 16 0 15 -50 -7 -63 -29 -113 -64
-197 -143 -49 -46 -78 -64 -78 -49 0 14 194 173 240 197 l55 28 -60 0 c-73 1
-127 -22 -190 -80 -34 -31 -47 -52 -51 -80 -7 -40 -18 -50 -27 -25 -3 8 -11
59 -18 114 l-13 100 26 34 c24 32 24 34 7 52 -10 10 -22 15 -27 12 -17 -10
-22 34 -22 182 0 111 3 143 13 140 6 -3 17 -15 24 -27 l11 -23 11 21 c13 24
31 28 31 6 0 -8 9 -15 20 -15 12 0 24 -9 29 -23 8 -20 14 -22 51 -19 38 4 43
8 60 48 13 29 26 45 42 48 101 21 103 22 110 46 3 14 13 50 22 79 8 30 14 56
13 58 -11 11 -156 -77 -221 -133 -98 -86 -121 -103 -115 -86 2 7 44 48 93 91
77 69 120 97 236 150 14 6 16 8 5 5 -11 -4 -51 -8 -90 -9 -84 -2 -123 -18
-193 -80 -41 -37 -53 -55 -58 -86 -7 -44 -11 -46 -30 -21 -13 16 -15 16 -28 0
-29 -38 -36 -20 -36 95 0 61 3 129 7 151 l6 39 17 -23 18 -23 11 21 c16 30 56
29 77 -3 19 -28 43 -31 83 -10 18 9 30 25 34 44 5 25 13 32 49 41 93 22 90 20
109 90 9 36 20 73 24 83 7 16 0 15 -51 -8 -73 -32 -109 -57 -203 -140 -40 -37
-76 -63 -79 -60 -9 8 128 132 196 177 31 21 72 43 92 49 19 6 40 16 45 21 6 5
-3 4 -18 -1 -16 -6 -56 -11 -89 -11 -72 0 -144 -36 -202 -100 -30 -34 -36 -47
-36 -85 0 -47 -11 -58 -29 -27 -10 16 -12 16 -26 -2 -8 -11 -18 -17 -21 -14
-3 4 -1 64 5 135 21 237 25 252 54 196 14 -26 15 -26 21 -6 13 41 54 39 76 -3
24 -44 103 -19 113 36 7 33 37 50 88 50 36 0 69 32 69 68 0 15 9 46 20 70 l20
43 -23 -7 c-59 -18 -160 -81 -229 -144 -65 -60 -81 -70 -102 -64 -15 3 -26 12
-26 20 0 21 -18 17 -30 -6 -6 -11 -15 -18 -21 -14 -7 4 -6 10 1 19 6 7 8 19 4
28 -8 21 26 289 38 302 6 7 13 4 20 -8 9 -18 10 -18 24 0 12 16 13 16 14 1 0
-9 10 -18 22 -20 13 -2 27 -13 32 -25 8 -18 16 -20 45 -16 43 7 47 10 69 53
17 34 34 43 103 54 35 6 36 8 57 84 11 42 18 79 16 81 -13 13 -159 -77 -233
-144 -46 -41 -87 -73 -90 -69 -8 8 117 123 184 169 28 19 74 43 103 53 28 10
55 22 60 27 4 4 -2 4 -13 0 -11 -5 -54 -9 -95 -10 -80 -1 -115 -14 -182 -67
-46 -36 -82 -93 -75 -118 6 -22 -18 -29 -26 -7 -3 8 -10 6 -22 -8 -16 -19 -16
-17 -10 35 14 131 14 135 -1 70 -25 -99 -22 -94 -39 -80 -9 7 -12 22 -9 38 17
86 -124 214 -232 210 l-43 -1 37 -27 c65 -48 235 -240 213 -240 -7 0 -5 -9 6
-24 12 -15 20 -20 25 -13 15 24 14 -2 -1 -128 -15 -119 -32 -175 -54 -175 -5
0 -6 24 -2 53 7 61 -3 80 -80 148 -68 60 -123 83 -172 74 -33 -6 -35 -8 -18
-18 47 -25 109 -85 182 -175 43 -53 87 -104 97 -113 19 -15 19 -22 7 -180 -7
-90 -15 -170 -17 -178 -8 -24 -34 8 -34 42 0 35 -68 132 -103 147 -12 6 -33
18 -47 29 -18 14 -47 21 -98 24 l-74 4 49 -26 c27 -15 66 -40 86 -57 49 -39
171 -174 163 -181 -3 -3 -49 39 -103 93 -89 91 -157 139 -220 158 -22 7 -22 6
-9 -26 8 -18 17 -55 21 -83 10 -64 16 -71 77 -85 62 -13 78 -25 78 -56 0 -17
10 -31 33 -44 43 -27 71 -25 91 5 21 32 34 32 47 -1 9 -26 10 -26 24 -8 12 17
13 2 9 -116 -4 -74 -9 -147 -13 -162 -6 -26 -6 -27 -29 -10 -18 14 -24 31 -29
75 -6 54 -8 59 -42 77 -20 10 -43 29 -50 43 -18 34 -109 67 -179 65 l-53 -1
58 -31 c58 -31 274 -238 272 -260 -2 -18 13 -56 21 -56 4 0 12 8 16 18 5 10
11 -40 14 -128 6 -135 4 -173 -7 -142 -6 17 -32 15 -39 -3 -4 -8 -10 -15 -14
-15 -4 0 -48 32 -96 70 -93 74 -202 134 -266 145 -21 4 -38 5 -38 2 0 -3 9
-21 19 -39 11 -18 22 -52 26 -76 8 -53 34 -72 97 -72 54 0 88 -24 88 -63 0
-17 9 -26 33 -35 57 -21 83 -16 97 18 15 37 54 42 64 8 l7 -23 11 23 c6 12 14
22 18 22 4 0 12 -51 19 -112 6 -62 14 -138 18 -168 6 -52 5 -54 -12 -40 -14
11 -19 12 -22 3 -10 -28 -23 -11 -23 27 0 35 -7 48 -47 91 -26 28 -72 62 -102
77 -49 24 -68 27 -155 27 -96 1 -97 0 -52 -11 102 -26 239 -116 351 -229 32
-33 45 -40 49 -30 3 8 9 15 14 15 12 0 66 -220 57 -229 -4 -3 -21 11 -39 31
-17 20 -59 51 -91 68 -56 30 -67 32 -167 34 -114 1 -122 -3 -43 -22 76 -19
162 -65 242 -129 40 -32 83 -66 95 -75 18 -13 19 -17 7 -18 -9 0 -34 13 -55
30 -156 119 -219 155 -312 175 l-34 7 15 -29 c8 -15 23 -54 33 -85 19 -63 41
-78 114 -78 41 0 55 -11 65 -51 4 -17 17 -29 39 -37 52 -19 85 -15 95 11 5 13
17 29 26 37 15 12 19 12 30 -3 7 -10 18 -16 25 -15 11 3 100 -183 100 -207 0
-5 -7 -18 -14 -28 -13 -16 -19 -16 -117 8 -103 25 -228 32 -309 19 l-35 -6 67
-69 c72 -75 90 -81 155 -54 50 21 70 19 89 -10 13 -20 25 -25 56 -25 55 0 78
15 78 49 0 32 25 61 33 39 3 -10 8 -8 19 5 13 17 18 11 71 -75 32 -51 87 -129
122 -173 35 -44 63 -81 61 -82 -1 -2 -59 -19 -127 -37 -241 -67 -579 -188
-605 -217 -17 -19 -17 -22 -1 -68 9 -27 17 -53 17 -59 0 -5 -81 -45 -180 -88
-99 -43 -180 -81 -180 -85 0 -3 65 -12 144 -19 80 -7 150 -17 157 -21 9 -5
-15 -49 -80 -149 -52 -77 -92 -143 -90 -145 2 -1 176 73 386 167 267 119 383
176 386 188 3 10 -4 37 -14 61 -11 23 -16 46 -12 50 29 28 368 118 543 144
146 21 439 40 449 29 4 -5 18 -36 31 -69 34 -88 32 -87 124 -70 43 8 84 15 91
15 8 0 -19 -33 -59 -74 -57 -56 -84 -93 -115 -157 -34 -70 -79 -217 -69 -223
73 -42 109 -56 112 -44 2 7 14 54 26 103 12 50 43 135 70 190 39 80 60 112
111 161 63 60 65 61 133 67 39 4 71 5 73 4 1 -2 6 -91 11 -198 8 -194 8 -194
-15 -219 -12 -14 -27 -39 -33 -56 -24 -68 40 -154 114 -154 71 0 135 76 121
142 -4 16 -19 44 -35 61 l-28 32 9 160 c4 88 8 176 9 197 l0 36 63 -4 c121 -9
125 -11 197 -84 83 -83 147 -206 181 -350 12 -52 23 -96 25 -98 6 -9 94 45 94
58 0 31 -41 163 -66 213 -36 72 -97 148 -149 190 -25 19 -42 36 -39 39 3 3 37
-1 77 -8 40 -8 77 -12 83 -10 6 2 22 34 35 71 12 36 28 70 34 75 14 12 280 -4
433 -25 59 -8 157 -26 217 -40 108 -25 318 -88 343 -104 10 -6 8 -18 -8 -54
-15 -33 -18 -52 -11 -64 8 -16 759 -358 767 -350 1 1 -40 67 -92 146 -52 79
-93 145 -91 147 2 2 74 11 161 21 86 9 153 19 149 23 -4 5 -88 43 -186 85
-100 44 -176 83 -174 89 43 117 40 126 -66 167 -139 54 -456 157 -582 189 -65
17 -121 32 -123 35 -2 2 26 39 63 82 142 166 277 401 348 608 155 452 169 980
52 1962 -26 210 -55 396 -62 389 -2 -2 10 -107 26 -232 46 -347 66 -543 83
-789 1 -27 3 -189 2 -360 0 -239 -4 -337 -18 -430 -65 -448 -198 -774 -433
-1065 -34 -41 -79 -92 -101 -114 l-40 -38 -111 16 c-180 26 -411 39 -638 34
-234 -5 -245 -8 -258 -69 -6 -26 -10 -29 -48 -29 -23 0 -59 3 -81 7 l-38 6 4
124 c4 118 5 126 28 144 46 35 203 106 415 187 307 117 366 144 458 205 103
69 215 185 253 263 l29 59 3 1258 2 1257 -520 0 -520 0 0 75 c0 58 3 75 14 75
22 0 48 31 43 50 -4 14 4 19 37 23 49 7 76 36 76 84 0 44 -37 83 -79 83 -23 0
-30 5 -33 23 -2 17 -11 23 -35 25 -18 2 -33 5 -33 7 0 3 13 24 30 47 33 48 60
140 60 206 l0 45 -21 -27 c-11 -14 -27 -26 -35 -26 -17 0 -17 1 1 36 19 37 19
87 -1 125 l-15 31 -25 -28 c-32 -34 -49 -21 -33 25 9 26 9 56 -1 131 -7 54
-10 112 -7 129 4 17 3 31 -1 31 -4 -1 -38 -27 -77 -58z m-6 -376 c12 -72 9
-101 -15 -161 -7 -18 -6 -19 12 -6 10 7 6 2 -9 -13 -45 -42 -58 -33 -31 21 24
47 32 125 15 151 -6 10 -12 5 -21 -18 -14 -33 -48 -63 -62 -54 -4 3 -8 19 -8
35 0 20 -4 29 -12 27 -19 -6 -77 -106 -92 -157 -15 -53 -31 -62 -41 -24 -6 25
-8 26 -17 9 -6 -10 -8 -38 -5 -62 2 -24 1 -44 -4 -44 -15 0 -10 99 6 130 19
37 35 38 36 3 0 -22 4 -17 19 24 19 52 78 151 104 173 11 9 15 3 21 -30 4 -24
12 -39 18 -37 20 6 57 68 57 94 0 48 17 12 29 -61z m86 -139 c0 -62 -3 -72
-18 -75 -14 -3 -18 1 -13 15 9 28 9 74 1 123 -7 44 -7 45 11 27 15 -14 19 -32
19 -90z m40 -114 c-9 -23 -23 -43 -31 -43 -17 0 -17 1 1 36 8 16 15 39 15 52
0 13 6 33 13 45 11 21 12 21 15 -12 2 -19 -4 -54 -13 -78z m55 -78 c0 -13 -38
-15 -277 -17 l-278 -2 318 -5 319 -6 19 -24 c23 -28 24 -59 3 -89 l-15 -22
-363 0 c-268 0 -365 3 -374 12 -7 7 -12 30 -12 53 0 46 13 65 46 65 37 0 52
10 47 31 -5 18 3 19 281 19 248 0 286 -2 286 -15z m-6 -191 c9 -8 16 -19 16
-23 0 -13 -24 -31 -42 -31 -16 0 -18 -10 -18 -80 l0 -80 -225 0 -224 0 -3 77
c-3 72 -5 78 -27 83 -13 3 -29 13 -35 23 -9 15 -7 21 8 33 30 22 528 21 550
-2z m-1348 -315 c34 -38 50 -41 95 -19 22 12 43 20 45 17 2 -2 -5 -24 -15 -48
l-20 -44 34 -35 c19 -20 35 -38 35 -41 0 -3 -24 -4 -54 -1 l-53 4 -19 -46
c-10 -25 -22 -46 -26 -46 -4 0 -10 20 -14 45 -7 50 -24 65 -73 65 -46 0 -46
17 0 40 l42 22 -6 54 c-6 59 0 65 29 33z m431 -31 l33 -32 46 22 c26 13 48 21
50 19 3 -2 -5 -24 -15 -48 l-20 -44 34 -35 c19 -20 35 -39 35 -42 0 -4 -22 -4
-49 -1 l-50 6 -22 -47 c-13 -25 -26 -46 -30 -46 -4 0 -11 20 -15 45 -7 51 -24
65 -78 65 -47 0 -45 15 5 41 l42 21 -7 54 c-3 30 -3 54 1 54 4 0 22 -14 40
-32z m591 -311 c24 -29 -4 -42 -105 -47 -78 -4 -98 -8 -98 -20 0 -13 92 -15
758 -18 l757 -2 0 -160 0 -160 -757 2 -758 3 -3 63 -3 62 -147 0 -146 0 62 63
c34 34 62 67 62 72 0 5 -18 39 -40 76 -22 37 -40 70 -40 73 0 3 101 6 224 6
170 0 226 -3 234 -13z m-667 -53 l27 -26 41 21 c22 12 41 20 41 17 0 -2 -7
-20 -16 -41 -15 -38 -15 -38 17 -71 l33 -34 -50 0 c-48 0 -50 -1 -63 -35 -16
-45 -27 -44 -36 2 -8 43 -18 53 -57 53 -42 0 -43 18 -3 37 36 17 36 19 30 60
-7 50 -1 53 36 17z m-324 -84 c-6 -50 -6 -50 33 -72 46 -26 50 -38 16 -38 -51
0 -73 -16 -80 -59 -3 -23 -10 -41 -15 -41 -4 0 -16 18 -26 40 l-18 40 -49 -6
c-26 -4 -48 -3 -48 2 0 4 14 23 32 41 l32 33 -17 35 c-25 53 -22 57 28 33 l45
-22 33 32 c17 18 33 32 36 32 2 0 1 -22 -2 -50z m460 -288 l32 -24 46 32 c48
33 52 30 33 -33 l-12 -40 44 -39 45 -38 -57 0 -57 0 -19 -52 -20 -53 -15 35
c-8 19 -17 43 -20 53 -5 13 -18 17 -57 17 -27 0 -50 4 -50 9 0 4 18 21 39 35
l40 28 -15 46 c-22 73 -21 73 43 24z m1838 -962 l0 -665 -32 -68 c-58 -121
-184 -229 -378 -322 -49 -24 -189 -83 -310 -130 -331 -131 -439 -190 -503
-276 l-35 -48 -28 39 c-63 87 -190 158 -519 289 -369 148 -531 240 -626 358
-84 103 -81 72 -86 820 -3 365 -3 665 0 668 3 3 571 4 1261 3 l1256 -3 0 -665z
m-1284 -1516 c13 -24 26 -44 30 -44 3 0 13 17 22 38 9 20 26 48 37 62 l20 25
0 -80 c0 -44 -3 -97 -6 -117 l-7 -38 -72 0 -72 0 -6 68 c-4 37 -7 89 -7 116 0
48 1 49 19 32 10 -9 29 -37 42 -62z m-556 -159 c0 -5 -12 -11 -27 -13 -35 -4
-37 -22 -3 -22 16 0 25 -6 25 -15 0 -9 -9 -15 -25 -15 -14 0 -25 -4 -25 -10 0
-5 14 -10 31 -10 20 0 29 -4 27 -12 -3 -8 -21 -13 -44 -13 l-39 0 -3 49 c-4
69 1 78 45 74 21 -2 38 -7 38 -13z m79 5 c26 -9 36 -43 16 -55 -10 -6 -3 -35
9 -35 4 0 14 19 22 43 23 61 43 59 66 -5 l18 -53 3 53 c2 37 7 52 18 52 10 0
14 -12 14 -45 0 -25 5 -46 10 -46 6 -1 15 -2 22 -3 6 0 13 -7 16 -13 6 -20
-107 -18 -114 2 -4 8 -13 15 -20 15 -8 0 -17 -7 -20 -15 -10 -25 -52 -18 -71
12 -17 26 -18 26 -23 4 -10 -44 -25 -25 -28 37 -3 68 4 74 62 52z m-284 -15
c0 -9 -9 -15 -25 -15 -14 0 -25 -5 -25 -11 0 -7 10 -9 25 -5 18 5 25 2 25 -8
0 -8 -9 -16 -20 -18 -30 -4 -24 -24 5 -20 42 6 30 -25 -12 -31 -20 -4 -39 -4
-41 -2 -8 8 -15 94 -9 110 9 21 77 21 77 0z m98 3 c7 -7 12 -29 12 -50 0 -41
-19 -58 -64 -58 -25 0 -26 2 -26 60 l0 60 33 0 c18 0 38 -5 45 -12z m1302 -3
c0 -9 -9 -15 -25 -15 -14 0 -25 -4 -25 -10 0 -5 12 -10 26 -10 35 0 26 -23
-12 -31 -29 -7 -26 -10 10 -13 11 0 21 -7 23 -13 3 -9 -9 -13 -41 -13 -39 0
-46 3 -46 20 0 18 -2 17 -25 -5 -13 -14 -36 -25 -50 -25 -25 0 -26 1 -23 58
l3 57 37 3 c32 3 39 -1 52 -25 l15 -28 1 33 c0 31 2 32 40 32 29 0 40 -4 40
-15z m-1490 -5 c0 -6 -10 -15 -22 -20 l-23 -9 23 0 c28 -1 30 -31 2 -31 -15 0
-20 -7 -20 -25 0 -15 -6 -25 -14 -25 -10 0 -15 16 -18 53 -3 28 -3 55 -1 60 6
11 73 8 73 -3z m1664 -7 c4 -9 2 -19 -4 -23 -6 -4 -5 -12 3 -24 13 -17 14 -16
26 12 28 67 53 62 68 -13 10 -52 11 -52 28 28 3 15 12 27 19 27 8 0 19 -12 24
-27 9 -27 9 -27 16 -6 7 23 38 28 99 17 28 -6 39 -34 12 -34 -8 0 -17 -12 -21
-27 -10 -47 -13 -53 -28 -53 -11 0 -12 8 -5 42 8 31 7 43 -3 49 -21 14 -28 10
-28 -15 0 -14 -5 -37 -10 -51 -9 -23 -13 -25 -25 -15 -8 7 -15 19 -15 26 0 8
-4 14 -10 14 -5 0 -10 -9 -10 -20 0 -15 -7 -20 -30 -20 -17 0 -33 7 -38 17 -7
11 -15 14 -28 8 -11 -5 -40 -10 -66 -12 -39 -2 -49 1 -58 17 -12 22 5 39 23
21 13 -13 27 -14 27 -2 0 5 -9 11 -20 14 -26 7 -36 33 -20 52 17 20 66 19 74
-2z m-1794 -8 c0 -9 -10 -15 -26 -15 -14 0 -23 -4 -20 -9 3 -5 15 -7 26 -4 14
4 20 0 20 -11 0 -9 -8 -16 -20 -16 -11 0 -20 -4 -20 -10 0 -5 11 -10 25 -10
16 0 25 -6 25 -15 0 -9 -9 -15 -24 -15 -13 0 -31 -3 -39 -6 -11 -4 -16 7 -21
50 -4 31 -5 60 -1 66 10 17 75 12 75 -5z m-92 -37 c11 -23 11 -33 0 -55 -11
-23 -22 -29 -58 -34 -25 -4 -49 -3 -54 2 -16 14 -46 10 -46 -6 0 -8 -7 -15
-16 -15 -13 0 -14 8 -8 48 7 52 20 82 34 82 5 0 21 -23 36 -51 14 -28 27 -49
29 -47 1 1 0 24 -4 50 -5 27 -5 50 -2 53 3 3 21 5 41 3 27 -2 38 -9 48 -30z
m2246 24 c3 -5 9 -34 14 -65 7 -46 6 -57 -5 -57 -7 0 -16 7 -19 15 -7 17 -44
21 -44 5 0 -5 -7 -10 -15 -10 -22 0 -19 14 16 70 30 49 42 59 53 42z m-2454
-53 c12 -21 13 -59 2 -76 -4 -7 -22 -15 -39 -19 -34 -7 -36 -4 -48 73 -6 40
-5 42 22 45 37 5 51 0 63 -23z m2644 15 c9 -8 16 -19 16 -24 0 -17 -18 -20
-30 -5 -15 18 -40 3 -40 -25 0 -24 11 -32 27 -18 24 19 36 -6 13 -27 -17 -15
-24 -16 -45 -7 -32 15 -35 72 -5 102 24 24 43 25 64 4z m-2739 -41 c3 -21 9
-48 12 -60 4 -17 1 -23 -11 -23 -9 0 -16 8 -17 18 0 13 -3 12 -11 -6 -13 -27
-53 -39 -73 -22 -23 19 -18 33 9 26 14 -3 28 -2 31 4 3 6 -4 10 -18 10 -49 0
-62 61 -15 74 25 6 51 -11 44 -30 -3 -7 2 -18 11 -26 14 -11 15 -8 8 30 -5 34
-4 42 8 42 9 0 17 -14 22 -37z m2835 -28 c0 -30 0 -58 1 -62 2 -18 -23 -13
-28 6 -6 24 -15 26 -43 9 -10 -7 -22 -9 -26 -5 -11 11 59 106 79 107 14 0 17
-9 17 -55z m73 34 c36 -10 48 -34 17 -34 -8 0 -21 -18 -29 -40 -18 -50 -19
-51 -31 -39 -6 6 -6 24 1 49 8 29 8 40 0 43 -12 4 -15 32 -3 32 4 0 24 -5 45
-11z m-3047 -46 c0 -18 9 -41 19 -53 18 -19 18 -20 -2 -20 -11 0 -26 7 -33 15
-19 23 -31 18 -24 -10 4 -18 2 -25 -9 -25 -14 0 -37 65 -37 104 0 16 23 25 60
23 21 -2 25 -7 26 -34z m3134 -29 c0 -62 10 -64 30 -5 7 23 15 41 17 41 2 0
19 -7 38 -14 38 -16 45 -39 19 -67 -11 -12 -13 -23 -7 -34 8 -13 12 -9 21 22
16 50 27 67 41 59 7 -5 5 -23 -9 -58 -23 -62 -22 -60 -54 -52 -18 4 -29 16
-35 38 -9 30 -10 30 -17 8 -5 -19 -11 -22 -33 -17 -14 3 -33 16 -43 28 -14 18
-18 19 -32 7 -11 -8 -20 -10 -27 -3 -11 11 57 103 77 103 10 0 14 -15 14 -56z
m-3230 26 c0 -5 -11 -12 -25 -16 -31 -8 -33 -20 -2 -19 30 0 38 -19 10 -23
-13 -2 -23 -8 -23 -14 0 -6 12 -8 30 -4 42 8 40 -18 -1 -33 -46 -16 -46 -16
-61 42 l-13 52 -5 -60 c-6 -75 -24 -81 -63 -23 -26 39 -28 40 -21 13 17 -69
-1 -104 -22 -42 -26 74 -26 73 3 86 25 12 29 10 50 -16 l23 -28 0 35 c0 34 2
36 53 51 52 16 67 16 67 -1z m3441 -76 c7 -28 7 -28 14 -6 4 12 14 22 21 22
18 0 18 -9 -1 -53 -23 -55 -19 -56 23 -8 48 56 62 49 62 -30 0 -46 -3 -59 -15
-59 -8 0 -15 6 -15 14 0 18 -30 30 -43 17 -6 -6 -20 -5 -38 1 -22 8 -29 16
-29 36 -1 25 -2 25 -14 10 -19 -26 -39 -23 -30 5 27 89 53 109 65 51z m-3655
-35 c8 -24 14 -50 14 -56 0 -18 -20 -16 -43 5 -18 16 -19 16 -16 -7 7 -44 -19
-33 -35 15 -26 78 -16 96 31 52 l23 -22 -6 33 c-11 51 16 35 32 -20z m-98 -28
c16 -53 15 -69 -7 -81 -35 -18 -51 -11 -71 33 -23 50 -25 67 -7 67 8 0 21 -19
30 -42 21 -52 42 -42 27 12 -13 45 -13 50 3 50 8 0 19 -17 25 -39z m2005 -28
c3 -5 1 -95 -5 -201 l-9 -193 31 -30 c42 -43 43 -105 1 -151 -25 -28 -36 -33
-76 -33 -40 0 -51 5 -76 33 -43 48 -38 122 12 162 18 14 18 26 10 210 -5 107
-7 198 -4 203 2 4 28 7 58 7 30 0 56 -3 58 -7z"/>
<path d="M2590 6360 l-32 -40 67 0 67 0 -32 40 c-17 22 -33 40 -35 40 -2 0
-18 -18 -35 -40z m70 -22 c0 -4 -16 -8 -35 -8 -39 0 -42 5 -18 32 15 17 17 17
35 2 10 -10 18 -21 18 -26z"/>
<path d="M2730 6360 l-32 -40 67 0 66 0 -20 28 c-39 56 -46 57 -81 12z m63 -5
l18 -25 -41 0 c-44 0 -48 5 -23 32 21 23 24 23 46 -7z"/>
<path d="M2882 6364 l-33 -39 36 -3 c19 -2 49 -2 66 0 l31 3 -34 39 -34 39
-32 -39z m68 -26 c0 -4 -19 -8 -42 -8 l-41 0 23 25 c22 23 25 24 42 8 10 -9
18 -20 18 -25z"/>
<path d="M2597 5632 c-13 -20 -45 -152 -37 -152 4 0 11 11 14 25 4 16 13 25
26 25 12 0 25 -10 32 -25 24 -52 26 -22 3 51 -25 81 -30 90 -38 76z m22 -79
c1 -7 -6 -13 -14 -13 -16 0 -20 26 -8 57 6 16 8 15 14 -7 4 -14 7 -31 8 -37z"/>
<path d="M2677 5633 c-11 -11 -8 -153 3 -153 6 0 10 16 10 36 0 28 4 35 17 32
10 -2 24 -17 33 -33 20 -40 19 -39 26 -33 3 4 -1 19 -9 34 -13 25 -13 31 1 51
23 37 3 73 -41 73 -19 0 -37 -3 -40 -7z m71 -40 c3 -20 -1 -23 -27 -23 -27 0
-31 4 -31 26 0 22 4 25 28 22 19 -2 28 -9 30 -25z"/>
<path d="M2800 5620 c-14 -26 1 -55 38 -72 31 -15 35 -36 9 -52 -15 -9 -22 -7
-38 13 -14 17 -19 19 -19 8 0 -36 62 -53 82 -23 19 28 8 57 -27 72 -43 18 -50
54 -10 54 14 0 25 -4 25 -10 0 -5 5 -10 10 -10 7 0 7 6 0 20 -6 12 -21 20 -35
20 -14 0 -29 -8 -35 -20z"/>
<path d="M2970 5560 l0 -80 48 2 c43 1 44 2 10 5 -34 4 -38 7 -38 34 0 26 3
29 30 29 17 0 30 5 30 10 0 6 -13 10 -30 10 -25 0 -30 4 -30 25 0 21 5 25 30
25 17 0 30 5 30 10 0 6 -18 10 -40 10 l-40 0 0 -80z"/>
<path d="M3080 5630 c0 -5 7 -10 15 -10 12 0 15 -14 15 -70 0 -40 4 -70 10
-70 6 0 10 30 10 70 0 56 3 70 15 70 8 0 15 5 15 10 0 6 -18 10 -40 10 -22 0
-40 -4 -40 -10z"/>
<path d="M3260 5625 c-19 -23 -4 -62 30 -73 20 -8 30 -18 30 -32 0 -31 -30
-37 -52 -11 -18 23 -18 23 -18 2 0 -45 71 -45 85 -1 8 24 -7 45 -44 63 -14 7
-26 19 -26 27 0 22 37 25 52 4 10 -14 13 -15 13 -3 0 36 -47 52 -70 24z"/>
<path d="M3376 5618 c-23 -33 -21 -103 4 -128 11 -11 25 -20 30 -20 13 0 50
37 50 50 0 18 -18 10 -23 -11 -4 -15 -12 -20 -29 -17 -49 7 -48 128 1 128 11
0 25 -8 30 -17 9 -15 10 -15 11 -2 0 40 -50 52 -74 17z"/>
<path d="M3493 5560 c0 -47 2 -66 4 -42 2 23 2 61 0 85 -2 23 -4 4 -4 -43z"/>
<path d="M3530 5560 l0 -80 48 1 47 2 -40 6 c-34 5 -40 10 -43 34 -3 25 -1 27
32 27 20 0 36 5 36 10 0 6 -16 10 -35 10 -31 0 -35 3 -35 25 0 22 4 25 35 25
19 0 35 5 35 10 0 6 -18 10 -40 10 l-40 0 0 -80z"/>
<path d="M3642 5558 c1 -69 2 -73 5 -25 2 31 7 57 11 57 4 0 18 -25 31 -55 13
-30 27 -55 32 -55 5 0 8 37 7 83 l-1 82 -6 -65 -7 -65 -28 63 c-16 34 -33 62
-37 62 -5 0 -8 -37 -7 -82z"/>
<path d="M3750 5630 c0 -5 9 -10 20 -10 18 0 20 -7 20 -70 0 -38 3 -70 8 -70
4 0 5 30 4 66 -3 59 -2 66 17 71 37 9 23 23 -24 23 -25 0 -45 -4 -45 -10z"/>
<path d="M3873 5560 c0 -47 2 -66 4 -42 2 23 2 61 0 85 -2 23 -4 4 -4 -43z"/>
<path d="M3925 5573 c-10 -38 -20 -74 -23 -80 -2 -7 1 -13 6 -13 6 0 12 10 14
23 5 34 45 36 58 1 6 -15 13 -24 16 -21 8 7 -37 157 -46 157 -4 0 -15 -30 -25
-67z m39 5 c9 -35 8 -38 -15 -38 -15 0 -19 4 -15 16 3 9 6 22 6 30 0 22 17 16
24 -8z"/>
<path d="M1860 4911 c0 -6 5 -13 10 -16 6 -3 10 1 10 9 0 9 -4 16 -10 16 -5 0
-10 -4 -10 -9z"/>
<path d="M1905 4890 c3 -19 10 -37 15 -38 6 -2 8 -8 4 -13 -8 -13 10 -11 23 2
8 8 15 8 26 -2 13 -12 13 -16 -1 -33 -14 -16 -14 -18 -2 -14 8 3 24 10 35 14
l20 7 -20 -23 -20 -23 35 18 35 18 -25 -28 c-23 -26 -23 -27 -3 -16 29 15 36
14 30 -3 -4 -11 -1 -13 11 -9 15 6 15 5 3 -10 -17 -21 -3 -22 23 -2 29 22 45
18 19 -4 -13 -11 -23 -23 -23 -27 0 -4 5 -3 12 4 7 7 19 12 27 12 12 -1 10 -6
-8 -20 -31 -26 -11 -25 33 1 41 24 50 10 10 -16 -35 -23 -23 -30 18 -10 l33
16 -30 -27 c-30 -28 -24 -30 30 -8 20 7 20 7 0 -15 l-19 -22 29 6 30 6 -22
-19 c-32 -28 -29 -35 7 -17 31 16 43 3 13 -14 -17 -10 -17 -10 0 -11 9 0 17
-5 17 -11 0 -6 7 -8 16 -5 12 4 15 2 10 -9 -7 -18 -7 -18 40 0 l39 16 -30 -27
c-30 -28 -27 -29 30 -9 14 5 11 -1 -10 -19 -16 -14 -35 -26 -40 -26 -6 0 -55
-22 -111 -49 -92 -45 -104 -49 -140 -41 -60 14 -64 13 -64 -23 0 -26 -14 -51
-60 -108 -32 -41 -74 -102 -91 -137 -24 -47 -39 -64 -58 -68 -94 -21 -86 -13
-86 -89 l0 -68 47 -31 c32 -22 51 -43 63 -73 9 -23 34 -62 56 -86 39 -45 39
-46 39 -127 l0 -81 74 2 c67 2 78 -1 125 -29 28 -18 60 -32 70 -32 10 0 41 24
70 54 l51 55 0 79 0 80 -32 13 c-18 7 -53 25 -78 38 l-45 25 205 66 c125 41
206 62 208 55 1 -6 -54 -121 -123 -255 -119 -233 -135 -270 -117 -270 4 0 65
116 136 258 l129 259 91 -1 c50 -1 110 3 133 7 l42 9 102 -204 c59 -117 104
-196 107 -186 2 10 -40 101 -92 202 -53 101 -96 188 -96 194 0 29 49 12 252
-86 l222 -107 -72 -29 c-40 -15 -72 -33 -73 -39 0 -7 0 -41 1 -77 1 -60 3 -67
33 -93 18 -16 44 -35 58 -42 24 -13 30 -11 75 19 l50 32 67 -27 c80 -33 80
-32 75 66 -2 44 1 65 9 65 16 0 102 98 109 124 4 17 20 26 75 40 l70 18 -3 66
-3 67 -48 30 c-57 36 -69 66 -38 99 18 19 21 35 21 103 l0 80 -61 7 c-54 5
-67 11 -111 51 -28 25 -77 62 -109 82 -48 29 -59 41 -59 62 0 25 -2 26 -47 22
-63 -5 -207 41 -254 81 l-34 29 39 -16 c47 -19 50 -19 43 -1 -4 10 -1 13 9 9
7 -3 14 0 14 6 0 6 8 11 18 11 16 1 16 1 0 11 -31 17 -19 30 12 14 17 -9 30
-11 30 -6 0 6 -9 15 -20 21 -11 6 -20 15 -20 21 0 6 7 6 19 -1 31 -16 36 -12
15 12 -19 21 -19 21 1 14 54 -22 60 -20 30 8 l-30 27 33 -16 c41 -20 53 -13
18 10 -41 27 -30 38 15 15 23 -12 43 -19 46 -16 3 3 -2 8 -11 12 -25 9 -19 26
7 18 21 -6 21 -6 -3 14 -30 26 -20 28 23 5 31 -15 31 -15 17 2 -14 17 -13 17
10 10 22 -7 23 -6 11 9 -16 19 -9 20 22 5 15 -7 12 -1 -11 21 -26 24 -32 36
-26 53 6 19 5 20 -10 8 -13 -11 -16 -11 -16 0 0 8 -6 5 -15 -7 -8 -10 -15 -14
-15 -9 -1 20 -20 -20 -20 -42 0 -13 -4 -23 -8 -23 -5 0 -7 15 -5 33 3 26 1 28
-6 12 -5 -11 -10 -30 -10 -42 -1 -13 -5 -23 -11 -23 -5 0 -7 15 -5 33 3 17 3
27 -1 20 -3 -7 -12 -9 -19 -6 -11 3 -16 -7 -21 -36 -9 -57 -28 -66 -20 -10 6
45 4 43 -23 -23 -8 -20 -10 -18 -10 15 -1 54 -21 36 -21 -19 0 -28 -4 -43 -10
-39 -5 3 -10 19 -10 35 0 34 -20 51 -21 18 0 -13 -3 -17 -6 -10 -7 18 -23 4
-23 -21 0 -18 -2 -19 -11 -7 -7 11 -9 1 -7 -38 4 -63 -9 -69 -19 -9 l-8 42 -6
-60 -5 -60 -9 45 c-8 45 -8 45 -18 16 -7 -21 -12 -25 -18 -15 -6 10 -9 6 -9
-14 0 -16 -4 -26 -10 -22 -6 3 -17 -1 -26 -10 -14 -14 -32 -15 -118 -9 -59 3
-139 2 -193 -5 l-93 -11 -30 28 c-16 16 -30 35 -30 43 0 11 -2 11 -10 -1 -8
-12 -10 -9 -10 13 0 15 -4 27 -10 27 -5 0 -10 -12 -10 -27 0 -16 -5 -35 -11
-43 -8 -11 -9 -1 -5 38 3 30 1 52 -4 52 -6 0 -10 -13 -10 -29 0 -17 -5 -33
-11 -37 -9 -5 -10 6 -7 40 5 45 -6 74 -15 39 -3 -10 -5 -2 -6 17 -2 33 -2 34
-16 16 -14 -19 -15 -18 -15 10 0 22 -3 26 -10 14 -5 -8 -10 -28 -10 -45 0 -23
-3 -27 -10 -15 -5 8 -10 30 -10 48 0 17 -5 32 -11 32 -7 0 -8 -11 -4 -30 4
-17 2 -30 -3 -30 -5 0 -13 16 -16 35 -10 52 -28 55 -21 3 4 -31 3 -38 -4 -23
-5 11 -12 32 -15 46 -3 16 -14 29 -27 32 -18 5 -20 2 -14 -25 5 -21 4 -28 -4
-24 -6 4 -11 17 -11 29 0 12 -5 29 -11 37 -8 11 -9 7 -5 -18 7 -41 -9 -34 -18
8 -3 17 -10 29 -15 26 -5 -3 -12 2 -15 11 -6 15 -8 15 -16 3 -7 -10 -10 -11
-10 -2 0 6 -4 12 -9 12 -4 0 -7 -12 -5 -27 4 -24 2 -23 -10 7 -13 34 -14 34
-18 10 l-4 -25 -13 30 c-12 27 -14 28 -21 10 -7 -19 -7 -19 -15 4 -5 17 -9 20
-15 11 -6 -9 -10 -6 -16 11 l-8 24 -6 -25 c-7 -25 -7 -25 -24 10 l-16 35 5
-35z m552 -446 c-3 -3 -12 -4 -19 -1 -8 3 -5 6 6 6 11 1 17 -2 13 -5z m350
-84 c2 -29 1 -31 -6 -10 -9 33 -25 9 -17 -26 4 -14 2 -24 -4 -24 -5 0 -10 8
-10 18 0 12 -5 10 -18 -10 -21 -35 -30 -35 -38 -3 -7 29 -21 33 -27 8 -3 -10
-5 -1 -6 20 0 20 -5 37 -11 37 -5 0 -10 4 -10 9 0 10 61 19 115 17 27 -1 30
-4 32 -36z m250 9 c81 -21 220 -75 228 -88 2 -4 -69 -29 -158 -56 -89 -26
-168 -51 -176 -55 -8 -4 -28 2 -49 16 -19 13 -42 24 -51 24 -9 1 -27 7 -41 16
l-25 15 33 -6 c39 -8 41 -1 5 20 l-28 15 39 -6 c28 -5 37 -4 32 5 -5 7 1 11
15 11 22 0 22 0 3 16 -18 15 -18 15 9 11 37 -6 34 8 -5 23 -42 15 -21 24 26
11 40 -10 45 -6 19 16 -16 12 -14 13 17 7 31 -6 33 -5 21 10 -18 21 -8 21 86
-5z m-544 -26 c-5 -13 -3 -15 13 -9 31 12 74 19 74 12 0 -4 -13 -12 -30 -17
-38 -14 -39 -28 -2 -22 26 4 26 4 8 -11 -19 -16 -19 -16 3 -16 14 0 20 -4 15
-12 -5 -8 3 -9 30 -5 22 3 34 2 31 -4 -4 -5 -12 -9 -20 -9 -8 0 -17 -5 -21
-11 -5 -9 1 -10 21 -5 24 6 27 5 16 -7 -13 -17 -71 -28 -86 -17 -5 4 -53 24
-105 45 -52 21 -99 42 -104 46 -4 4 25 18 65 32 92 31 100 32 92 10z m987 -83
c0 -5 -2 -10 -4 -10 -3 0 -8 5 -11 10 -3 6 -1 10 4 10 6 0 11 -4 11 -10z
m-1008 -189 c7 -6 -416 -133 -451 -135 -11 -1 -14 11 -12 54 3 65 29 128 76
185 l34 42 173 -69 c95 -39 176 -73 180 -77z m1079 14 c23 -40 27 -57 23 -85
-8 -42 -41 -115 -59 -130 -9 -8 -69 12 -231 75 -121 48 -222 89 -226 93 -4 4
88 37 205 73 l212 66 24 -21 c13 -12 36 -43 52 -71z m-1044 48 c-3 -10 -5 -4
-5 12 0 17 2 24 5 18 2 -7 2 -21 0 -30z m68 -33 c13 -6 15 -9 5 -9 -8 0 -22 4
-30 9 -18 12 -2 12 25 0z m52 -16 c-3 -3 -12 -4 -19 -1 -8 3 -5 6 6 6 11 1 17
-2 13 -5z m273 -54 c0 -5 -5 -10 -11 -10 -5 0 -7 5 -4 10 3 6 8 10 11 10 2 0
4 -4 4 -10z m-1100 -79 c0 -8 -1 -12 -3 -10 -1 2 -11 15 -22 28 l-20 24 23
-14 c12 -8 22 -20 22 -28z"/>
<path d="M3548 4905 c-3 -11 -9 -29 -14 -40 -7 -19 -7 -19 10 -3 9 10 16 28
14 40 -3 22 -4 22 -10 3z"/>
<path d="M3585 4909 c-9 -14 -2 -20 14 -10 8 6 9 11 3 15 -6 3 -14 1 -17 -5z"/>
<path d="M3508 4875 c-3 -14 0 -29 6 -34 9 -7 11 -1 8 24 -5 41 -8 44 -14 10z"/>
<path d="M3480 4871 c0 -5 -3 -16 -6 -24 -3 -8 1 -17 9 -20 10 -4 12 3 9 24
-4 27 -12 40 -12 20z"/>
<path d="M3446 4851 c-7 -19 -4 -28 15 -42 13 -10 29 -19 34 -19 6 0 0 8 -12
18 -12 9 -23 28 -25 42 l-4 25 -8 -24z"/>
<path d="M3421 4848 c-1 -9 -3 -22 -6 -30 -3 -8 7 -21 25 -31 16 -10 30 -14
30 -8 0 5 -7 14 -15 19 -9 4 -20 21 -24 38 -5 16 -10 21 -10 12z"/>
<path d="M1945 4820 c-3 -5 -2 -10 4 -10 5 0 13 5 16 10 3 6 2 10 -4 10 -5 0
-13 -4 -16 -10z"/>
<path d="M2230 2720 c0 -5 7 -10 16 -10 8 0 12 5 9 10 -3 6 -10 10 -16 10 -5
0 -9 -4 -9 -10z"/>
<path d="M2030 2689 c0 -38 24 -35 28 4 2 19 -1 27 -12 27 -11 0 -16 -10 -16
-31z"/>
<path d="M3227 2714 c-11 -11 -8 -64 3 -64 5 0 14 10 21 21 8 17 8 24 -3 35
-8 8 -17 11 -21 8z"/>
<path d="M3510 2710 c0 -5 5 -10 11 -10 5 0 7 5 4 10 -3 6 -8 10 -11 10 -2 0
-4 -4 -4 -10z"/>
<path d="M1610 2650 c0 -20 5 -30 15 -30 10 0 15 10 15 30 0 20 -5 30 -15 30
-10 0 -15 -10 -15 -30z"/>
<path d="M1408 2644 c-9 -9 5 -65 16 -61 17 6 19 54 3 60 -8 3 -17 4 -19 1z"/>
<path d="M1275 2610 c-3 -5 1 -10 10 -10 9 0 13 5 10 10 -3 6 -8 10 -10 10 -2
0 -7 -4 -10 -10z"/>
<path d="M1175 2580 c-3 -5 1 -10 9 -10 9 0 16 5 16 10 0 6 -4 10 -9 10 -6 0
-13 -4 -16 -10z"/>
<path d="M4425 2540 c3 -5 10 -10 16 -10 5 0 9 5 9 10 0 6 -7 10 -16 10 -8 0
-12 -4 -9 -10z"/>
<path d="M1077 6229 c-23 -23 -57 -48 -74 -55 -18 -8 -33 -22 -33 -31 0 -9
-11 -35 -24 -57 -15 -27 -26 -65 -30 -115 -7 -67 -6 -75 15 -97 25 -26 51 -31
67 -11 5 6 13 39 16 72 15 128 47 228 96 303 30 44 17 40 -33 -9z"/>
<path d="M1102 6185 c-36 -72 -48 -115 -62 -220 -6 -44 -13 -87 -16 -96 -3
-10 3 -19 13 -24 13 -4 26 3 46 26 29 35 34 58 16 76 -17 17 -1 50 42 85 40
32 47 54 29 88 -6 10 -16 43 -24 72 l-13 53 -31 -60z"/>
<path d="M4430 6193 c0 -12 -9 -45 -20 -73 -36 -92 -21 -158 59 -250 l38 -45
42 64 c66 103 58 162 -39 256 l-51 50 30 -65 c16 -36 31 -78 32 -95 4 -64 -1
-185 -9 -185 -5 0 -8 51 -8 113 1 110 0 113 -36 182 -25 47 -37 63 -38 48z"/>
<path d="M979 5830 c-15 -16 -15 -19 3 -34 11 -10 17 -24 14 -32 -8 -21 -2
-17 22 16 19 25 20 33 10 50 -15 24 -28 24 -49 0z"/>
<path d="M595 5813 c3 -10 11 -38 17 -63 22 -97 19 -94 82 -110 33 -8 60 -19
62 -25 1 -5 5 -22 8 -37 5 -21 15 -30 44 -37 49 -14 50 -14 62 9 9 17 1 32
-59 104 -72 86 -122 131 -178 160 -41 20 -47 20 -38 -1z"/>
<path d="M4792 5743 c-41 -7 -86 -21 -103 -33 -25 -18 -89 -111 -89 -130 0 -3
44 15 98 41 61 30 111 62 136 88 22 22 38 42 35 44 -2 1 -37 -3 -77 -10z"/>
<path d="M4170 5717 c65 -167 111 -217 200 -217 46 0 128 18 135 30 3 5 -54
41 -127 80 -73 40 -152 85 -175 100 -39 27 -41 27 -33 7z"/>
<path d="M4226 5711 c68 -41 274 -149 274 -143 0 13 -75 105 -101 124 -32 24
-88 37 -154 38 l-50 0 31 -19z"/>
<path d="M4839 5684 c-19 -21 -72 -55 -124 -80 -49 -23 -99 -49 -110 -57 -18
-14 -16 -15 38 -22 112 -14 161 9 199 94 19 42 39 101 34 101 -1 0 -18 -16
-37 -36z"/>
<path d="M515 5483 c14 -32 35 -117 35 -139 0 -29 15 -39 78 -54 53 -12 82
-38 82 -71 0 -23 19 -36 66 -44 39 -6 42 -5 48 20 12 47 -153 229 -256 281
-56 29 -62 29 -53 7z"/>
<path d="M4935 5429 c-11 -4 -50 -11 -87 -14 -44 -4 -79 -14 -100 -28 -30 -20
-118 -137 -118 -157 0 -12 218 106 270 146 45 36 45 35 -7 -14 -34 -33 -90
-69 -159 -103 -116 -58 -117 -62 -7 -74 76 -8 137 21 170 80 23 41 68 164 62
169 -2 2 -13 0 -24 -5z"/>
<path d="M1320 5409 c-14 -6 -45 -7 -69 -4 -36 6 -54 2 -106 -24 -76 -38 -145
-108 -145 -148 0 -58 13 -54 105 28 80 71 131 103 235 147 32 14 13 14 -20 1z"/>
<path d="M4210 5406 c0 -23 83 -177 108 -200 38 -35 101 -44 186 -26 65 13 64
19 -9 45 -78 28 -176 82 -220 121 -39 35 -34 33 50 -23 36 -24 225 -106 231
-101 7 8 -74 113 -103 135 -29 22 -49 27 -128 33 -51 4 -98 11 -104 14 -6 4
-11 5 -11 2z"/>
<path d="M4976 5063 c-4 -4 -41 -10 -82 -14 -96 -10 -139 -36 -189 -119 -20
-34 -35 -63 -33 -65 8 -8 206 95 246 129 61 51 67 44 8 -10 -29 -27 -91 -65
-155 -96 l-106 -51 35 -9 c19 -6 65 -8 102 -6 58 3 72 8 97 32 26 25 74 122
96 194 6 21 -4 30 -19 15z"/>
<path d="M4261 5003 c28 -74 71 -151 98 -177 37 -36 111 -45 192 -26 l53 13
-39 18 c-155 68 -215 101 -255 139 l-45 42 40 -29 c65 -48 106 -70 190 -103
44 -17 86 -36 93 -42 22 -19 13 6 -23 59 -58 87 -91 105 -200 113 -51 4 -98
11 -104 14 -8 5 -8 -1 0 -21z"/>
<path d="M431 4680 c10 -28 19 -66 19 -84 0 -39 19 -63 58 -72 94 -21 95 -22
107 -76 3 -16 11 -28 19 -28 7 0 19 -7 26 -15 20 -25 69 -19 82 10 6 13 17 25
24 27 20 4 -138 172 -205 218 -53 35 -123 70 -141 70 -5 0 0 -23 11 -50z"/>
<path d="M5015 4709 c-11 -4 -40 -8 -65 -8 -118 -2 -198 -63 -252 -193 -6 -15
-4 -16 19 -7 64 24 185 93 244 140 l64 50 -62 -60 c-43 -42 -91 -74 -162 -109
-104 -53 -105 -57 -22 -68 101 -13 162 18 205 105 25 50 60 150 55 155 -2 2
-13 0 -24 -5z"/>
<path d="M4260 4682 c0 -19 83 -171 103 -190 34 -32 93 -44 157 -32 93 18 91
24 -12 64 -97 38 -178 86 -213 127 -15 18 -10 16 20 -8 22 -17 59 -40 83 -52
36 -19 190 -81 200 -81 7 0 -23 48 -56 89 -46 57 -97 78 -199 83 -46 3 -83 2
-83 0z"/>
<path d="M390 4372 c8 -6 31 -13 50 -17 65 -13 159 -65 254 -140 52 -41 97
-75 100 -75 3 0 6 15 6 33 0 41 -76 126 -147 164 -41 22 -62 26 -138 28 -49 1
-101 5 -115 9 -17 5 -20 4 -10 -2z"/>
<path d="M5023 4369 c-12 -4 -50 -11 -85 -14 -94 -10 -122 -22 -167 -70 -38
-41 -97 -142 -88 -151 2 -3 54 21 116 51 79 40 131 74 178 118 45 42 60 52 45
30 -40 -57 -114 -112 -224 -168 -116 -58 -115 -55 -12 -70 50 -8 112 7 148 36
15 12 39 46 55 78 29 58 66 160 60 165 -2 2 -14 0 -26 -5z"/>
<path d="M1260 4361 c-14 -5 -40 -6 -58 -3 -41 6 -138 -24 -155 -49 -8 -10
-29 -29 -48 -42 -31 -20 -35 -28 -39 -80 -3 -31 -4 -57 -3 -57 2 0 33 28 70
62 84 76 169 132 234 153 65 22 65 35 -1 16z"/>
<path d="M4265 4285 c43 -94 69 -131 105 -150 35 -18 114 -19 177 -3 l46 11
-22 18 c-13 11 -51 28 -86 38 -88 28 -155 63 -190 103 -23 25 -24 28 -5 12 14
-12 37 -29 52 -39 27 -17 220 -86 225 -81 7 7 -59 86 -92 112 -32 24 -49 29
-129 34 -50 3 -97 9 -104 14 -6 4 4 -27 23 -69z"/>
<path d="M1223 4306 c-69 -33 -107 -59 -185 -131 l-66 -61 27 -33 27 -33 47
21 c36 16 47 27 47 44 0 33 19 47 61 47 49 0 89 32 89 71 0 16 7 45 14 64 18
43 11 44 -61 11z"/>
<path d="M4206 4017 c17 -55 70 -149 101 -179 33 -32 37 -33 111 -32 42 1 90
7 107 13 l30 12 -25 19 c-14 11 -47 27 -75 36 -72 24 -179 81 -206 111 -20 22
-15 20 31 -10 30 -20 93 -51 140 -68 47 -17 90 -35 97 -41 22 -18 14 2 -18 47
-53 73 -96 97 -177 97 -26 -1 -64 3 -85 8 -36 8 -37 7 -31 -13z"/>
<path d="M435 3941 c13 -25 28 -65 34 -88 14 -50 33 -63 93 -63 52 0 86 -21
90 -56 2 -22 11 -29 52 -42 48 -16 49 -16 67 9 11 13 24 30 31 38 9 11 3 22
-33 53 -114 100 -210 157 -310 183 l-47 13 23 -47z"/>
<path d="M4810 3973 c-39 -14 -95 -62 -131 -112 -21 -30 -37 -56 -35 -58 2 -2
41 8 87 23 88 27 199 82 237 117 12 11 22 16 22 11 -1 -29 -153 -115 -265
-150 l-70 -22 30 -13 c17 -7 65 -13 107 -13 74 -1 78 0 112 33 20 19 54 69 75
111 l40 77 -97 1 c-53 0 -104 -2 -112 -5z"/>
<path d="M4146 3664 c70 -168 117 -206 230 -189 92 13 92 19 0 53 -76 29 -192
102 -211 132 -4 6 15 -4 41 -23 27 -19 64 -42 83 -52 46 -23 174 -75 178 -72
4 5 -47 79 -76 110 -39 43 -71 55 -152 60 -41 3 -82 8 -91 12 -17 7 -17 5 -2
-31z"/>
<path d="M4728 3630 c-47 -14 -95 -49 -139 -101 -38 -45 -40 -50 -18 -45 13 3
60 12 104 22 83 17 163 48 218 84 l32 22 -30 -26 c-50 -44 -148 -87 -239 -104
-47 -9 -86 -20 -86 -23 0 -4 31 -17 70 -29 113 -36 167 -13 251 112 56 82 56
83 7 83 -24 0 -65 3 -93 7 -27 3 -62 3 -77 -2z"/>
<path d="M4019 3398 c28 -82 57 -133 91 -162 26 -21 42 -26 90 -26 74 0 120 9
120 25 0 6 -24 22 -52 35 -135 59 -175 81 -208 116 l-35 37 45 -34 c25 -19 65
-43 90 -53 25 -10 69 -29 97 -42 l53 -23 -15 28 c-43 84 -97 120 -195 131 -36
4 -73 11 -82 15 -16 7 -16 3 1 -47z"/>
<path d="M4545 3251 c-33 -16 -69 -36 -80 -44 -18 -14 -17 -16 30 -23 78 -13
246 -10 288 5 21 7 41 11 44 8 3 -3 -21 -13 -52 -23 -45 -13 -87 -15 -191 -12
l-133 4 22 -24 c41 -44 107 -76 158 -76 52 0 114 35 199 112 44 40 44 41 18
42 -14 0 -55 13 -90 30 -82 39 -134 39 -213 1z"/>
<path d="M757 3243 c-9 -9 -46 -27 -84 -40 -67 -23 -67 -23 -18 -16 86 14 205
6 310 -21 55 -13 102 -22 105 -20 14 15 -31 58 -81 78 -76 31 -209 42 -232 19z"/>
<path d="M272 948 c4 -432 6 -489 22 -538 62 -190 212 -338 392 -385 76 -20
202 -20 278 0 137 36 278 148 344 272 68 130 72 162 72 675 l0 459 -137 -3
-138 -3 -5 -470 c-5 -461 -5 -471 -27 -511 -31 -59 -79 -103 -142 -132 -45
-21 -64 -24 -120 -20 -108 8 -196 69 -240 168 -20 43 -21 64 -21 508 l0 462
-141 0 -140 0 3 -482z"/>
<path d="M1660 715 l0 -715 133 0 134 0 6 128 c4 70 7 200 7 290 l0 162 275 0
276 0 -3 138 -3 137 -271 3 -271 2 -6 137 c-3 75 -3 141 0 146 4 6 151 9 417
6 l411 -4 0 140 0 140 -552 3 -553 2 0 -715z"/>
<path d="M3220 1414 c-141 -38 -246 -142 -291 -285 -61 -197 30 -418 211 -509
78 -39 146 -48 330 -43 176 5 205 -3 248 -67 20 -29 23 -44 20 -88 -4 -45 -10
-59 -42 -90 l-36 -37 -375 -3 -375 -3 0 -144 0 -145 343 0 c189 0 371 5 406
11 265 43 426 321 330 573 -46 123 -146 219 -267 256 -54 17 -93 20 -251 20
-167 0 -189 2 -218 20 -47 28 -67 65 -67 121 0 53 19 87 68 123 26 20 42 21
394 24 l367 3 -2 137 -2 137 -368 2 c-298 1 -378 -1 -423 -13z"/>
<path d="M4582 1410 c-96 -25 -163 -62 -237 -131 -71 -67 -127 -157 -158 -254
-20 -64 -22 -89 -22 -315 0 -231 2 -249 24 -310 67 -189 210 -329 382 -373 59
-16 682 -29 687 -14 1 4 2 68 2 141 l0 135 -312 3 c-352 3 -352 3 -430 85 -71
73 -78 102 -78 332 0 123 4 219 11 241 19 64 78 131 144 165 l59 30 305 3 306
3 -3 140 -3 139 -302 -1 c-264 0 -311 -2 -375 -19z"/>
</g>
</svg>
