<?xml version="1.0" standalone="no"?>
<!DOCTYPE svg PUBLIC "-//W3C//DTD SVG 20010904//EN"
 "http://www.w3.org/TR/2001/REC-SVG-20010904/DTD/svg10.dtd">
<svg version="1.0" xmlns="http://www.w3.org/2000/svg"
 width="850.000000pt" height="918.000000pt" viewBox="0 0 850.000000 918.000000"
 preserveAspectRatio="xMidYMid meet">

<g transform="translate(0.000000,918.000000) scale(0.100000,-0.100000)"
fill="#000000" stroke="none">
<path d="M2667 8952 c205 -367 970 -1679 975 -1674 3 4 216 372 473 817 257
446 482 836 501 868 l33 57 -1010 0 -1011 0 39 -68z"/>
<path d="M1902 8013 l-500 -868 1000 -3 c551 -1 1003 0 1005 2 6 5 -990 1735
-998 1736 -3 0 -231 -390 -507 -867z"/>
<path d="M4362 8013 l-500 -868 1001 -3 c550 -1 1002 0 1004 2 6 5 -990 1735
-998 1736 -4 0 -232 -390 -507 -867z"/>
<path d="M1402 6882 c18 -46 1005 -1739 1010 -1734 4 4 174 297 379 652 204
355 429 745 500 868 l128 222 -1010 0 c-556 0 -1009 -4 -1007 -8z"/>
<path d="M3863 6883 c58 -114 1004 -1740 1009 -1735 3 4 174 297 378 652 205
355 430 745 501 868 l128 222 -1010 0 c-556 0 -1008 -3 -1006 -7z"/>
<path d="M6357 6822 c203 -363 969 -1680 975 -1674 3 4 174 297 378 652 205
355 430 745 501 868 l128 222 -1010 0 -1011 0 39 -68z"/>
<path d="M676 5883 c-274 -475 -496 -866 -494 -869 3 -2 453 -3 1001 -2 l997
3 -496 860 c-273 473 -499 863 -503 866 -3 4 -230 -382 -505 -858z"/>
<path d="M3133 5882 l-501 -867 1001 -3 c550 -1 1002 0 1004 2 5 4 -973 1704
-991 1723 -9 10 -125 -184 -513 -855z"/>
<path d="M5593 5883 l-500 -868 1000 -3 c550 -1 1002 0 1004 2 5 4 -973 1703
-991 1724 -9 9 -125 -183 -513 -855z"/>
<path d="M2748 4547 c64 -111 290 -503 502 -870 293 -507 387 -664 396 -654
11 12 994 1716 994 1723 0 2 -452 4 -1005 4 l-1004 0 117 -203z"/>
<path d="M5228 4512 c707 -1226 867 -1501 874 -1494 9 9 998 1722 998 1728 0
2 -452 4 -1004 4 l-1005 0 137 -238z"/>
<path d="M4364 3753 l-500 -868 1000 -3 c549 -1 1001 0 1003 2 4 3 -981 1714
-995 1728 -4 4 -233 -382 -508 -859z"/>
<path d="M4025 2322 c-197 -51 -339 -166 -429 -348 -73 -147 -105 -351 -86
-548 23 -252 94 -413 242 -551 76 -72 156 -116 263 -147 101 -29 310 -31 417
-5 230 57 402 207 483 421 14 37 25 69 25 71 0 3 -92 5 -204 5 l-204 0 -21
-34 c-29 -47 -69 -85 -116 -109 -33 -17 -58 -21 -141 -22 -92 0 -105 2 -160
30 -89 46 -141 135 -160 276 l-7 49 514 2 514 3 3 90 c14 405 -159 700 -473
802 -69 22 -101 26 -235 29 -125 3 -169 0 -225 -14z m364 -358 c84 -45 141
-145 141 -246 l0 -38 -301 0 -302 0 7 38 c22 142 94 236 206 273 14 5 64 7
111 5 72 -3 95 -8 138 -32z"/>
<path d="M5575 2324 c-38 -8 -106 -32 -150 -54 -197 -96 -282 -240 -273 -460
3 -79 8 -105 31 -152 68 -139 226 -222 585 -309 254 -61 315 -96 314 -180 -1
-75 -55 -120 -172 -141 -77 -15 -219 1 -277 31 -53 26 -100 82 -109 126 l-6
35 -210 0 -210 0 7 -56 c32 -257 225 -418 545 -455 305 -35 607 45 736 195
129 149 152 407 50 562 -70 105 -204 167 -526 244 -215 52 -327 97 -350 140
-30 56 15 137 87 157 97 28 225 23 293 -12 47 -24 88 -76 101 -126 l13 -49
198 0 198 0 0 23 c0 49 -42 184 -73 235 -64 107 -180 190 -327 233 -99 29
-368 36 -475 13z"/>
<path d="M7360 2322 c-108 -29 -203 -97 -283 -202 l-27 -35 0 103 0 102 -195
0 -195 0 0 -1075 0 -1075 200 0 200 0 0 401 0 401 40 -51 c183 -231 560 -255
785 -49 108 99 185 230 225 386 43 172 44 427 0 596 -60 235 -216 420 -410
487 -90 30 -250 36 -340 11z m125 -347 c145 -38 222 -153 246 -365 23 -195
-20 -367 -115 -464 -61 -63 -120 -86 -216 -86 -88 0 -149 22 -209 76 -96 87
-137 220 -127 419 5 128 19 192 56 265 68 137 207 196 365 155z"/>
<path d="M2672 2310 c-98 -26 -163 -63 -239 -135 l-63 -60 0 87 0 88 -200 0
-200 0 0 -770 0 -770 203 2 202 3 5 505 c5 504 5 505 29 557 26 60 91 124 148
148 105 44 257 24 311 -40 56 -68 56 -67 62 -640 l5 -530 203 -3 202 -2 0 583
c0 549 -1 588 -20 661 -35 140 -99 225 -210 281 -111 56 -300 71 -438 35z"/>
<path d="M352 1688 c3 -552 5 -608 22 -658 27 -81 52 -126 99 -177 73 -79 155
-116 297 -134 197 -24 374 35 506 166 l43 44 3 -87 3 -87 200 0 200 0 3 768 2
767 -210 0 -210 0 0 -488 c0 -542 -1 -551 -65 -635 -47 -62 -123 -99 -218
-105 -129 -8 -208 33 -243 126 -17 43 -19 95 -22 575 l-3 527 -205 0 -205 0 3
-602z"/>
</g>
</svg>
