<?xml version="1.0" standalone="no"?>
<!DOCTYPE svg PUBLIC "-//W3C//DTD SVG 20010904//EN"
 "http://www.w3.org/TR/2001/REC-SVG-20010904/DTD/svg10.dtd">
<svg version="1.0" xmlns="http://www.w3.org/2000/svg"
 width="1782.000000pt" height="2000.000000pt" viewBox="0 0 1782.000000 2000.000000"
 preserveAspectRatio="xMidYMid meet">

<g transform="translate(0.000000,2000.000000) scale(0.100000,-0.100000)"
fill="#000000" stroke="none">
<path d="M11325 19974 c-196 -42 -371 -179 -465 -366 -55 -111 -74 -205 -67
-342 8 -181 72 -324 202 -451 135 -132 260 -186 450 -193 141 -5 222 11 330
63 237 114 384 351 385 616 1 442 -399 765 -835 673z"/>
<path d="M8170 16617 l0 -3205 63 -7 c96 -11 302 -52 401 -81 49 -14 92 -22
96 -17 4 4 103 238 220 518 117 281 259 620 315 755 57 135 189 452 295 705
106 253 261 624 345 825 396 948 699 1672 816 1950 l128 305 -32 25 c-67 52
-191 178 -237 240 -164 223 -249 518 -222 770 7 71 7 97 -1 102 -19 12 -450
114 -620 147 -456 89 -934 146 -1414 167 l-153 7 0 -3206z"/>
<path d="M7470 19803 c-19 -1 -93 -8 -165 -14 -563 -46 -1227 -188 -1805 -384
-316 -108 -797 -310 -793 -333 2 -8 1689 -4124 2338 -5703 l28 -67 66 20 c110
32 270 66 374 79 l97 12 0 3199 0 3198 -52 -2 c-29 0 -69 -3 -88 -5z"/>
<path d="M4160 18823 c-580 -304 -1177 -724 -1690 -1189 -141 -127 -511 -495
-566 -562 l-27 -34 2119 -2119 c1165 -1165 2123 -2119 2127 -2119 5 0 45 29
90 64 99 77 276 193 363 238 35 18 64 39 64 45 0 7 -78 203 -174 435 -372 905
-409 994 -1623 3953 -63 154 -134 327 -158 385 -263 640 -396 965 -398 967 -2
1 -59 -28 -127 -64z"/>
<path d="M12260 18479 c-140 -129 -314 -226 -496 -276 -90 -25 -114 -27 -274
-28 -96 0 -189 3 -206 7 l-30 7 -229 -547 c-378 -905 -639 -1528 -785 -1877
-737 -1761 -1100 -2634 -1100 -2643 0 -5 33 -28 73 -50 97 -53 232 -144 341
-226 l89 -68 2133 2133 c1174 1174 2134 2138 2134 2143 0 13 -173 225 -335
409 -271 309 -481 506 -830 779 -121 95 -404 298 -414 298 -3 -1 -35 -28 -71
-61z"/>
<path d="M1474 16562 c-466 -586 -826 -1200 -1096 -1872 -54 -135 -60 -151
-137 -369 -28 -80 -49 -146 -48 -147 2 -2 116 -50 254 -108 138 -58 1317 -551
2619 -1097 1303 -546 2378 -994 2389 -996 16 -3 33 20 93 124 40 71 110 177
155 237 45 59 86 115 92 122 8 11 -468 492 -2100 2124 -1161 1161 -2112 2110
-2115 2110 -3 -1 -51 -58 -106 -128z"/>
<path d="M12066 14571 l-2109 -2109 65 -83 c80 -103 182 -258 238 -362 23 -43
46 -77 50 -75 216 82 5200 2137 5200 2144 0 13 -185 436 -314 719 -153 334
-492 1004 -612 1210 -109 186 -307 509 -379 617 l-31 47 -2108 -2108z"/>
<path d="M80 13714 c0 -3 -7 -60 -15 -127 -49 -404 -70 -1117 -46 -1545 20
-356 83 -895 126 -1090 l5 -22 2508 2 2507 3 3 40 c6 77 43 281 74 400 17 66
32 131 35 145 4 24 -7 29 -254 132 -394 164 -3892 1628 -4608 1928 -345 145
-335 141 -335 134z"/>
<path d="M14565 13194 c-610 -250 -1605 -658 -2210 -906 -1764 -723 -1849
-758 -1858 -767 -5 -5 1 -39 12 -77 31 -104 51 -204 75 -369 l22 -150 2633 0
2633 0 33 101 c75 230 211 424 392 560 43 32 80 59 82 61 2 1 -31 116 -74 255
-201 658 -583 1740 -616 1745 -8 2 -513 -202 -1124 -453z"/>
<path d="M17005 11486 c-251 -50 -444 -215 -529 -455 -28 -80 -30 -95 -30
-221 0 -119 3 -144 27 -216 99 -297 393 -494 703 -470 174 13 305 75 434 205
139 140 200 286 200 480 0 121 -19 203 -72 311 -82 165 -261 310 -440 354 -94
23 -210 28 -293 12z"/>
<path d="M10600 10486 c0 -30 -36 -262 -51 -336 -87 -399 -269 -791 -515
-1107 -35 -45 -64 -85 -64 -90 0 -10 2052 -2063 2063 -2063 4 0 119 64 255
142 1372 788 2599 1678 3780 2742 67 61 122 114 122 118 0 4 -23 33 -51 64
-109 121 -208 302 -248 458 l-18 71 -2637 3 c-1450 1 -2636 0 -2636 -2z"/>
<path d="M280 10467 c0 -7 66 -171 123 -308 193 -457 461 -984 712 -1394 150
-247 299 -475 310 -475 6 0 258 102 560 226 303 124 597 245 655 269 58 23
584 239 1170 480 586 241 1155 475 1265 520 165 67 200 85 199 101 -1 10 -15
73 -32 139 -29 111 -67 320 -74 405 l-3 35 -2442 3 c-1344 1 -2443 1 -2443 -1z"/>
<path d="M5209 9373 c-139 -58 -438 -180 -664 -273 -225 -93 -471 -193 -545
-223 -74 -31 -227 -94 -340 -140 -113 -46 -464 -190 -780 -320 -316 -129 -699
-287 -851 -349 -152 -62 -278 -116 -280 -120 -9 -15 449 -433 706 -643 261
-214 644 -493 893 -652 l104 -66 1179 1179 c648 648 1179 1183 1179 1187 0 4
-24 38 -53 75 -84 105 -143 193 -221 326 l-72 123 -255 -104z"/>
<path d="M4992 7497 c-622 -622 -1132 -1135 -1132 -1139 0 -11 350 -185 530
-263 1333 -579 2762 -778 4200 -584 80 10 154 21 165 24 19 4 20 13 20 157 1
203 31 332 116 501 80 159 203 306 341 408 38 29 67 57 65 63 -3 6 -53 130
-112 276 -59 146 -150 371 -202 500 -237 587 -265 655 -272 662 -3 4 -47 -4
-96 -18 -410 -113 -881 -123 -1315 -28 -373 82 -732 250 -1053 492 -60 45
-112 82 -115 82 -4 0 -517 -510 -1140 -1133z"/>
<path d="M9560 8563 c-136 -105 -267 -190 -398 -258 -38 -20 -52 -33 -49 -44
3 -9 78 -196 167 -416 89 -220 216 -535 282 -700 67 -165 125 -309 130 -321 9
-19 14 -20 81 -11 85 11 256 2 347 -17 275 -59 536 -228 696 -452 25 -35 49
-64 52 -64 16 1 736 366 739 375 2 6 -439 452 -979 992 l-983 982 -85 -66z"/>
<path d="M9755 6345 c-147 -33 -253 -91 -355 -194 -265 -267 -265 -692 0 -961
212 -215 515 -268 785 -135 374 182 499 646 268 997 -148 226 -444 350 -698
293z"/>
<path d="M15277 1853 c-4 -3 -7 -420 -7 -925 l0 -918 270 0 270 0 0 205 0 205
544 0 c322 0 565 4 597 10 123 23 260 121 329 236 61 101 69 153 69 466 1 268
0 279 -24 356 -60 192 -213 333 -391 362 -66 11 -1647 14 -1657 3z m1403 -484
c67 -15 116 -54 146 -116 23 -47 26 -62 22 -123 -6 -86 -36 -136 -105 -177
l-48 -28 -442 -3 -443 -3 0 224 c0 123 3 227 7 230 11 11 813 8 863 -4z"/>
<path d="M154 1837 c-2 -7 -3 -339 -2 -738 4 -810 0 -767 77 -887 51 -78 140
-145 230 -172 64 -20 89 -20 866 -18 l800 3 68 32 c79 38 163 114 200 181 57
105 57 103 57 879 l0 713 -255 0 -254 0 -3 -597 c-3 -535 -5 -601 -20 -628
-22 -42 -66 -83 -110 -106 -35 -18 -65 -19 -503 -19 -508 0 -507 0 -568 58
-16 15 -39 45 -50 67 -22 40 -22 47 -25 643 l-3 602 -250 0 c-197 0 -251 -3
-255 -13z"/>
<path d="M7090 1823 c-79 -16 -154 -56 -218 -116 -63 -61 -97 -115 -123 -198
-18 -56 -19 -99 -19 -572 0 -409 3 -521 14 -558 54 -177 208 -323 379 -359 36
-7 254 -10 687 -8 l635 3 57 27 c104 49 190 145 227 256 18 52 21 86 21 217
l0 155 -251 -2 -252 -3 -12 -43 c-18 -59 -57 -106 -108 -131 -41 -20 -58 -21
-375 -21 -367 0 -376 1 -441 63 -68 64 -71 80 -71 387 0 312 3 324 78 392 72
65 107 70 459 66 278 -3 311 -5 343 -22 67 -35 106 -85 120 -151 l6 -30 257
-3 257 -2 0 108 c0 134 -13 209 -51 289 -46 96 -116 165 -217 216 l-85 42
-221 2 c-724 9 -1043 7 -1096 -4z"/>
<path d="M11880 925 l0 -915 253 2 252 3 5 510 5 510 329 -513 329 -512 331 2
330 3 291 484 290 485 5 -485 5 -484 250 0 250 0 3 913 2 912 -292 -2 -292 -3
-421 -702 c-231 -387 -423 -703 -426 -703 -4 0 -210 317 -459 705 l-454 705
-293 0 -293 0 0 -915z"/>
<path d="M5710 920 l0 -910 255 0 255 0 0 910 0 910 -255 0 -255 0 0 -910z"/>
<path d="M2880 915 l0 -905 265 0 265 0 0 586 c0 337 4 584 9 582 5 -1 233
-265 507 -585 l498 -583 413 0 413 0 0 900 0 900 -270 0 -270 0 -2 -615 -3
-614 -200 237 c-110 130 -346 409 -524 620 l-323 382 -389 0 -389 0 0 -905z"/>
<path d="M9488 923 c-202 -489 -370 -896 -374 -905 -6 -17 11 -18 264 -18
l270 0 62 145 62 145 509 0 508 0 21 -72 c12 -40 25 -86 30 -103 5 -16 14 -49
20 -72 l11 -43 291 0 c272 0 290 1 285 17 -2 10 -64 157 -137 328 -72 171
-202 474 -287 675 -85 201 -196 461 -246 578 l-90 212 -416 0 -416 0 -367
-887z m938 190 c82 -202 151 -370 152 -375 2 -4 -134 -8 -303 -8 l-307 0 6 23
c11 42 291 727 297 727 4 0 73 -165 155 -367z"/>
</g>
</svg>
