<?xml version="1.0" encoding="UTF-8"?>
<svg version="1.1" xmlns="http://www.w3.org/2000/svg" width="1920" height="396">
<path d="M0 0 C4.14581417 -0.03298473 8.29159401 -0.0527687 12.4375 -0.0703125 C13.60216797 -0.07973877 14.76683594 -0.08916504 15.96679688 -0.09887695 C46.44564827 -0.19546486 75.16280333 11.98118829 97.08984375 33.04296875 C123.30849072 59.15781375 133.15377085 99.86190746 133.29008484 135.81765747 C133.28926086 137.22332775 133.28826343 138.62899793 133.28710938 140.03466797 C133.29315524 141.56445675 133.30008482 143.09424224 133.30781555 144.62402344 C133.32254844 147.88351265 133.33141397 151.14294229 133.33552551 154.40246201 C133.34232585 159.57550713 133.36417901 164.74842668 133.38806152 169.92141724 C133.43672347 180.90591511 133.46923319 191.89043961 133.5 202.875 C133.53322947 214.73335077 133.56942326 226.59165137 133.62413073 238.44992554 C133.64347176 242.74160778 133.65882392 247.03322356 133.66447449 251.32494736 C133.70935705 284.13453066 134.58339275 315.19238997 154.53125 342.8125 C156 345 156 345 156 347 C156.66 347 157.32 347 158 347 C159.36379622 348.60358457 160.66525959 350.26035125 161.9375 351.9375 C167.54995845 358.96212542 174.10894072 364.57578272 181.6875 369.4375 C182.450625 369.953125 183.21375 370.46875 184 371 C184 371.66 184 372.32 184 373 C185.175625 373.309375 185.175625 373.309375 186.375 373.625 C189.40058827 374.77263693 191.60931784 375.92453669 194.3125 377.625 C206.41399474 385.06369992 219.65707991 390.2590432 233 395 C233 395.33 233 395.66 233 396 C215.57869666 396.07040103 198.15743837 396.12313927 180.73602486 396.15543652 C172.6450942 396.17083812 164.55425245 396.19179757 156.46337891 396.22631836 C149.40294353 396.25642802 142.34257262 396.27562359 135.28207481 396.28226548 C131.55123075 396.28614165 127.82057093 396.29510698 124.08978653 396.31719017 C105.49450828 396.42299204 87.37056795 396.2465901 69.5 390.4375 C68.72575684 390.18701904 67.95151367 389.93653809 67.15380859 389.6784668 C42.19881195 381.12181832 22.60595522 363.67004025 11 340 C3.19304865 323.22951192 -0.16724358 306.10316794 -0.12025452 287.64880371 C-0.12110894 286.4169026 -0.12196337 285.1850015 -0.12284368 283.91577005 C-0.12420179 280.51335105 -0.12109259 277.11099007 -0.11606562 273.70857811 C-0.11173487 270.03315612 -0.11320941 266.35773583 -0.1139679 262.68231201 C-0.11449147 256.31999795 -0.11136207 249.95769417 -0.10573006 243.59538269 C-0.09759248 234.39662313 -0.09499752 225.19786852 -0.09374207 215.99910575 C-0.0915551 201.07361977 -0.08490463 186.14813926 -0.07543945 171.22265625 C-0.06625616 156.72656278 -0.05917981 142.23047079 -0.05493164 127.734375 C-0.05466892 126.84037811 -0.05440619 125.94638123 -0.05413551 125.02529353 C-0.05283044 120.54023724 -0.05156674 116.05518094 -0.05032361 111.57012463 C-0.03996204 74.38007922 -0.02235337 37.19004004 0 0 Z " fill="#1B4F82" transform="translate(0,0)"/>
<path d="M0 0 C1.25619141 0.00451172 2.51238281 0.00902344 3.80664062 0.01367188 C6.89197663 0.02540319 9.97721316 0.041819 13.0625 0.0625 C13.15425934 37.65143559 13.22464183 75.24035417 13.26676132 112.8293793 C13.27176354 117.27736633 13.27694088 121.72535314 13.28222656 126.17333984 C13.2832758 127.05877222 13.28432505 127.94420459 13.28540608 128.85646825 C13.30276308 143.15206334 13.33427453 157.44759341 13.37111118 171.74315007 C13.40865212 186.43567348 13.4307635 201.12816308 13.43885398 215.82073247 C13.44431463 224.87082818 13.46149671 233.92074005 13.49416587 242.97077911 C13.51547659 249.19522852 13.52166307 255.41958432 13.51650551 261.64406748 C13.51396915 265.2235396 13.51757136 268.80269287 13.5393219 272.38210678 C13.72662639 304.84136139 9.46834146 337.00790597 -12.9375 362.0625 C-13.75418409 363.12178731 -14.56746932 364.18371829 -15.375 365.25 C-27.99593811 379.10224915 -50.90873713 392.03815909 -69.77734375 393.32421875 C-74.37900574 393.21192965 -78.46807065 392.00518357 -82.8125 390.5625 C-83.63403564 390.29477783 -84.45557129 390.02705566 -85.30200195 389.7512207 C-100.99199283 384.48722051 -116.15428433 377.25131045 -129.9375 368.0625 C-129.9375 367.4025 -129.9375 366.7425 -129.9375 366.0625 C-130.989375 365.7221875 -130.989375 365.7221875 -132.0625 365.375 C-135.67878535 363.72408712 -138.02519976 361.7716165 -140.9375 359.0625 C-140.9375 358.4025 -140.9375 357.7425 -140.9375 357.0625 C-141.5975 357.0625 -142.2575 357.0625 -142.9375 357.0625 C-142.9375 356.4025 -142.9375 355.7425 -142.9375 355.0625 C-143.5975 355.0625 -144.2575 355.0625 -144.9375 355.0625 C-144.9375 354.4025 -144.9375 353.7425 -144.9375 353.0625 C-145.5975 353.0625 -146.2575 353.0625 -146.9375 353.0625 C-146.40653722 349.2474341 -145.56822756 347.27765754 -143 344.4375 C-134.63914884 334.12463194 -128.27156116 320.87231393 -124.9375 308.0625 C-124.72738281 307.26714844 -124.51726562 306.47179687 -124.30078125 305.65234375 C-122.38425187 297.72797051 -121.80558569 289.69457062 -121.63647461 281.56567383 C-121.61686991 280.75336241 -121.59726521 279.94105099 -121.57706642 279.10412407 C-121.5137912 276.38851273 -121.45754069 273.67281819 -121.40234375 270.95703125 C-121.38168287 269.99624979 -121.361022 269.03546833 -121.33973503 268.04557228 C-120.95940405 250.13971406 -120.80303695 232.23350492 -120.69140625 214.32421875 C-120.68293166 212.98737713 -120.67445157 211.65053555 -120.66596603 210.313694 C-120.58836524 197.99213655 -120.51742508 185.67054879 -120.46069336 173.34887695 C-120.42915858 166.51474702 -120.3875155 159.68072966 -120.34049797 152.84668922 C-120.32465555 150.2837598 -120.31225401 147.72080638 -120.30359077 145.15784264 C-120.18076088 109.48114252 -115.54023727 66.68625572 -89.9375 39.0625 C-89.2775 39.0625 -88.6175 39.0625 -87.9375 39.0625 C-87.56044922 38.20205078 -87.56044922 38.20205078 -87.17578125 37.32421875 C-79.06282049 22.50590872 -56.48981392 11.17983578 -40.9609375 5.93359375 C-27.16757124 1.95953603 -14.38156633 -0.09803899 0 0 Z " fill="#1B4F82" transform="translate(318.9375,-0.0625)"/>
<path d="M0 0 C14.19 0 28.38 0 43 0 C43.02505615 3.89393555 43.0501123 7.78787109 43.07592773 11.79980469 C43.15977571 24.73181294 43.24836722 37.66378515 43.33933926 50.59574509 C43.39432789 58.42872529 43.44774837 66.26171001 43.49731445 74.09472656 C43.54058254 80.93180242 43.58695858 87.76884939 43.63687855 94.60588002 C43.66314192 98.21708912 43.68797714 101.82829377 43.70907402 105.43953705 C43.81158477 124.48205478 43.81158477 124.48205478 44.44165039 143.51269531 C44.4955564 144.68344667 44.4955564 144.68344667 44.55055141 145.87784958 C45.18114524 157.3783213 47.99708297 169.56695331 56.5625 177.8125 C65.20786482 184.53136547 73.34126249 186.44793294 84.125 186.5625 C85.04297363 186.57724365 85.96094727 186.5919873 86.90673828 186.60717773 C97.02153124 186.45589971 104.82890854 183.11841218 112.09375 176.109375 C123.17725644 163.84483918 122.13511416 141.54373305 122.20532227 126.01318359 C122.21492244 124.63241294 122.2249337 123.25164509 122.23532104 121.87088013 C122.26214473 118.15260074 122.28327494 114.43430895 122.30332303 110.71598768 C122.32532315 106.81890626 122.35264263 102.92186207 122.37937927 99.02481079 C122.42911787 91.65864308 122.47412585 84.29245449 122.51740164 76.92624629 C122.56693589 68.53437195 122.62179352 60.14253499 122.67708123 51.7506969 C122.79061184 34.50049794 122.89681031 17.25026439 123 0 C135.54 0 148.08 0 161 0 C161.045309 18.72516446 161.082083 37.45028389 161.10362434 56.17548943 C161.11389633 64.8717331 161.12787775 73.56794006 161.15087891 82.26416016 C161.17093864 89.85197226 161.18374599 97.43975775 161.18817699 105.02759564 C161.19076328 109.03784874 161.19675493 113.04802576 161.21146011 117.05825424 C161.42199191 176.82826344 161.42199191 176.82826344 143.21875 195.8203125 C125.83340073 212.89958168 104.64805566 217.22762538 80.97583008 217.18310547 C56.63177367 216.86402182 33.54345386 210.3547634 16.1472168 192.68554688 C1.7981919 177.39633995 -0.33458655 156.62220517 -0.22705078 136.57104492 C-0.22648511 135.07160957 -0.22680626 133.57217368 -0.22793579 132.07273865 C-0.22850423 128.04466144 -0.21683339 124.01670595 -0.20278788 119.98865676 C-0.19019468 115.76330306 -0.1891033 111.53794587 -0.18673706 107.31257629 C-0.18054733 99.33022361 -0.16417083 91.3479264 -0.14403808 83.36559802 C-0.12160056 74.26995143 -0.11066599 65.17430204 -0.10064721 56.07863462 C-0.07980208 37.38571867 -0.04315759 18.69287867 0 0 Z " fill="#1B4F82" transform="translate(430,41)"/>
<path d="M0 0 C13.86 0 27.72 0 42 0 C42.33 27.72 42.66 55.44 43 84 C44.98 81.36 46.96 78.72 49 76 C49.66 76 50.32 76 51 76 C51 75.34 51 74.68 51 74 C51.66 74 52.32 74 53 74 C53.25910156 73.40058594 53.51820312 72.80117187 53.78515625 72.18359375 C58.17084089 64.3006429 69.12063108 60.73785742 77.13671875 57.8828125 C90.62432197 54.80071106 105.89387105 55.51851735 117.796875 62.68359375 C125.19036131 67.53948519 125.19036131 67.53948519 127 72 C127.66 72 128.32 72 129 72 C129.96875839 73.82784602 130.92446873 75.66260941 131.875 77.5 C132.40867187 78.5209375 132.94234375 79.541875 133.4921875 80.59375 C136.95794154 88.42312182 137.28260265 95.47714383 137.22705078 103.92382812 C137.22734283 105.0954248 137.22763489 106.26702148 137.22793579 107.47412109 C137.22654825 111.3265741 137.2110139 115.178831 137.1953125 119.03125 C137.19158033 121.7102491 137.18863587 124.38923749 137.18673706 127.0682373 C137.18053839 133.38621292 137.16414958 139.70411875 137.14403808 146.02206373 C137.12162866 153.21920041 137.11067301 160.41634054 137.10064721 167.61350346 C137.07978179 182.40904278 137.04312588 197.20450729 137 212 C123.14 212 109.28 212 95 212 C94.97494385 209.02830811 94.9498877 206.05661621 94.92407227 202.99487305 C94.84038865 193.14814075 94.75173066 183.30145769 94.66066074 173.45479107 C94.60562666 167.48802626 94.5522392 161.5212564 94.50268555 155.55444336 C94.45475249 149.79020513 94.40240173 144.02602204 94.34705925 138.26185036 C94.32676604 136.06878861 94.30803263 133.87571183 94.29092598 131.68262291 C94.2665907 128.5978493 94.23657972 125.51317702 94.20532227 122.4284668 C94.1995668 121.53294098 94.19381134 120.63741516 94.18788147 119.7147522 C94.12642094 107.09977433 94.12642094 107.09977433 91 95 C90.34 95 89.68 95 89 95 C89 94.34 89 93.68 89 93 C81.45038191 89.90272078 74.6129449 90.27496421 67.05859375 93.08984375 C64.07262965 94.41001383 61.59758898 96.0235736 59 98 C58.47019531 98.38542969 57.94039062 98.77085937 57.39453125 99.16796875 C55.46676158 100.67224669 53.75553842 102.29605739 52 104 C50.86631737 105.08272186 50.86631737 105.08272186 49.70973206 106.18731689 C41.04667812 115.85158967 41.74634459 125.7099273 41.90234375 138.171875 C41.89668262 140.30708175 41.8870611 142.44228133 41.87367249 144.57745361 C41.84918139 150.1608385 41.87802487 155.74268595 41.91845703 161.32592773 C41.95582072 168.0442063 41.92609754 174.76249125 41.90778351 181.48080444 C41.88747815 191.65478755 41.95171351 201.82507147 42 212 C28.14 212 14.28 212 0 212 C0 142.04 0 72.08 0 0 Z " fill="#1B4F82" transform="translate(1016,41)"/>
<path d="M0 0 C13.86 0 27.72 0 42 0 C42.02505615 3.144104 42.0501123 6.28820801 42.07592773 9.52758789 C42.15944206 19.92116804 42.24812277 30.3146995 42.33933926 40.70821476 C42.39447965 47.00915373 42.44788534 53.31009742 42.49731445 59.61108398 C42.54508916 65.69301242 42.59743648 71.77488595 42.65294075 77.85674858 C42.67330499 80.17592436 42.69202768 82.49511516 42.70907402 84.8143177 C42.7332496 88.06515039 42.76328584 91.31588048 42.79467773 94.56665039 C42.80331093 96.00164131 42.80331093 96.00164131 42.81211853 97.46562195 C42.89591264 108.83811566 42.89591264 108.83811566 49 118 C54.13615787 121.42410525 60.01566634 120.60421844 66 120 C73.97752666 117.70157973 80.48862985 112.03782939 86 106 C86.65024139 105.36709549 87.30048279 104.73419098 87.97042847 104.08210754 C96.17850851 94.85432196 95.11760385 84.88668168 95 73.14453125 C95.00752801 71.03031424 95.0185703 68.9161071 95.03295898 66.80192566 C95.06126289 61.26964678 95.04218813 55.73853241 95.01287842 50.20629883 C94.98762516 43.55140746 95.02186422 36.89658239 95.04600525 30.24172211 C95.07597824 20.16047252 95.03089699 10.08207341 95 0 C108.86 0 122.72 0 137 0 C137 50.16 137 100.32 137 152 C123.14 152 109.28 152 95 152 C94.505 139.625 94.505 139.625 94 127 C92.865625 128.485 91.73125 129.97 90.5625 131.5 C80.73322897 143.70898928 67.83984445 152.87537416 52 155 C37.03622636 155.66061834 24.36853197 153.80592739 12.125 144.25 C4.95691839 137.53647966 0.65575558 127.87123317 -0.2714138 118.15603256 C-0.36635045 115.01922994 -0.37147288 111.89541683 -0.34057617 108.75732422 C-0.34101425 107.57568192 -0.34145233 106.39403961 -0.34190369 105.17658997 C-0.33982723 101.30244962 -0.31654958 97.4287515 -0.29296875 93.5546875 C-0.28569269 90.85613243 -0.28295282 88.15757779 -0.28010559 85.45901489 C-0.27081887 79.10210669 -0.24625138 72.74535513 -0.21605712 66.38851559 C-0.18240737 59.14539654 -0.16600065 51.9022696 -0.15097082 44.65909171 C-0.11969831 29.77262647 -0.0647291 14.88636442 0 0 Z " fill="#1B4F82" transform="translate(1631,101)"/>
<path d="M0 0 C1.51231201 0.00858032 1.51231201 0.00858032 3.05517578 0.01733398 C15.03158021 0.30349586 25.08064587 3.82359554 33.6875 12.5 C43.21348016 24.11960217 45.01611586 37.67514036 44.91455078 52.30541992 C44.91484283 53.42868683 44.91513489 54.55195374 44.91543579 55.70925903 C44.91405419 59.38307711 44.89854838 63.05668657 44.8828125 66.73046875 C44.87907821 69.29307443 44.8762332 71.85568156 44.87423706 74.41828918 C44.86740849 80.44930317 44.85168232 86.48022906 44.83153808 92.51120788 C44.8090854 99.38435685 44.79816223 106.25750957 44.78814721 113.13068616 C44.76731296 127.25383884 44.73067468 141.37689885 44.6875 155.5 C30.8275 155.5 16.9675 155.5 2.6875 155.5 C2.657771 151.00487793 2.657771 151.00487793 2.62744141 146.41894531 C2.56034063 136.48437396 2.48270453 126.54990467 2.39997292 116.61545181 C2.35016478 110.59603399 2.30383399 104.57663242 2.265625 98.55712891 C2.22857588 92.74096814 2.18216406 86.92494862 2.12943649 81.10890961 C2.11099636 78.89714807 2.09585071 76.68535638 2.08415604 74.47354889 C3.12723302 55.8171691 3.12723302 55.8171691 -2.625 38.875 C-7.14945872 34.87664113 -10.92747196 34.03004909 -16.8515625 34.1875 C-29.12008115 35.74540713 -37.90842018 44.26798027 -45.3125 53.5 C-45.8075 54.49 -45.8075 54.49 -46.3125 55.5 C-46.9725 55.5 -47.6325 55.5 -48.3125 55.5 C-49.09197263 58.27071876 -49.44437604 60.75047037 -49.47071838 63.62554932 C-49.48540161 64.84543549 -49.48540161 64.84543549 -49.50038147 66.08996582 C-49.50613693 66.97325562 -49.5118924 67.85654541 -49.51782227 68.76660156 C-49.52772186 69.70352844 -49.53762146 70.64045532 -49.54782104 71.60577393 C-49.57939254 74.70069863 -49.60417635 77.79563869 -49.62890625 80.890625 C-49.64947953 83.03725583 -49.6704761 85.18388265 -49.69187927 87.33050537 C-49.74706131 92.97917425 -49.79648769 98.62787946 -49.84472656 104.27661133 C-49.90380422 111.05481946 -49.97001094 117.83296123 -50.03502655 124.6111145 C-50.13298741 134.90736912 -50.22187684 145.2036664 -50.3125 155.5 C-64.1725 155.5 -78.0325 155.5 -92.3125 155.5 C-92.3125 105.34 -92.3125 55.18 -92.3125 3.5 C-78.4525 3.5 -64.5925 3.5 -50.3125 3.5 C-49.8175 15.38 -49.8175 15.38 -49.3125 27.5 C-47.3325 24.86 -45.3525 22.22 -43.3125 19.5 C-40.0625 16 -40.0625 16 -37.3125 13.5 C-36.6525 13.5 -35.9925 13.5 -35.3125 13.5 C-35.3125 12.84 -35.3125 12.18 -35.3125 11.5 C-33.19487397 10.21538825 -31.06956754 8.94775939 -28.9375 7.6875 C-28.06158203 7.15286133 -28.06158203 7.15286133 -27.16796875 6.60742188 C-18.50041404 1.52804841 -9.9721843 -0.06599117 0 0 Z " fill="#1B4F82" transform="translate(719.3125,97.5)"/>
<path d="M0 0 C1.21333008 0.00498505 1.21333008 0.00498505 2.45117188 0.0100708 C31.87958289 0.15183316 31.87958289 0.15183316 44.9375 5.375 C44.9375 15.275 44.9375 25.175 44.9375 35.375 C42.545 34.776875 40.1525 34.17875 37.6875 33.5625 C36.89110107 33.36575684 36.09470215 33.16901367 35.27416992 32.96630859 C32.10030905 32.18146903 28.9443408 31.37695938 25.80078125 30.4765625 C13.23091824 26.93526218 -2.65393411 24.87041113 -14.5625 31.25 C-18.52345854 34.61681476 -19.87848295 35.94886785 -20.5625 41.25 C-20.37562982 44.85392483 -19.48257229 47.28641094 -16.90771484 49.95703125 C-8.13074904 56.70175438 3.44988781 60.08062768 13.72314453 63.97412109 C23.34537646 67.63515477 32.13294228 72.03586728 40.9375 77.375 C40.9375 78.035 40.9375 78.695 40.9375 79.375 C41.52402344 79.62765625 42.11054687 79.8803125 42.71484375 80.140625 C49.70369647 84.02195621 53.69085178 91.63505535 56.125 98.9375 C58.67449819 110.39934655 57.00525664 121.89323332 51.40625 132.19140625 C50.00913008 134.37954259 48.6790566 136.44933599 46.9375 138.375 C46.2775 138.375 45.6175 138.375 44.9375 138.375 C44.9375 139.035 44.9375 139.695 44.9375 140.375 C44.2775 140.375 43.6175 140.375 42.9375 140.375 C42.9375 141.035 42.9375 141.695 42.9375 142.375 C42.2775 142.375 41.6175 142.375 40.9375 142.375 C40.9375 143.035 40.9375 143.695 40.9375 144.375 C20.24713795 160.34512736 -6.89326281 160.51443333 -31.8125 157.5625 C-34.23401145 157.19747386 -36.65121296 156.80238348 -39.0625 156.375 C-39.70606445 156.2625293 -40.34962891 156.15005859 -41.01269531 156.03417969 C-48.93990386 154.6256742 -56.31054188 152.70058744 -64.0625 150.375 C-64.0625 140.145 -64.0625 129.915 -64.0625 119.375 C-58.80110736 120.12662752 -55.71878656 120.72919198 -51.0625 122.6875 C-34.05625682 129.42766053 -14.84632847 134.62482207 2.9375 128.375 C7.78941712 125.86240006 10.25208834 123.62951872 11.9375 118.375 C12.21440819 113.62560504 11.70730744 110.39386279 8.8125 106.5625 C1.81991562 101.24205537 -5.87299904 98.36606787 -14 95.1875 C-27.53214968 89.78244591 -40.87683347 83.92942349 -52.0625 74.375 C-52.0625 73.715 -52.0625 73.055 -52.0625 72.375 C-52.7225 72.375 -53.3825 72.375 -54.0625 72.375 C-55.5 70.58203125 -55.5 70.58203125 -57.0625 68.1875 C-57.578125 67.41019531 -58.09375 66.63289063 -58.625 65.83203125 C-64.34003704 56.06366631 -64.26902441 44.11288942 -62.0625 33.25 C-58.99071053 22.33288905 -50.88740556 13.58336014 -41.3828125 7.72265625 C-28.16069462 0.55044642 -14.66154548 -0.14270511 0 0 Z " fill="#1B4F82" transform="translate(1443.0625,97.625)"/>
<path d="M0 0 C0.83888763 -0.00111786 1.67777527 -0.00223572 2.54208374 -0.00338745 C39.58341528 0.02091528 39.58341528 0.02091528 44.9375 5.375 C45.02533542 7.59355264 45.04444609 9.81488496 45.03515625 12.03515625 C45.0337413 12.69962265 45.03232635 13.36408905 45.03086853 14.0486908 C45.02525518 16.17833899 45.01270054 18.30788339 45 20.4375 C44.99498671 21.87825369 44.99042351 23.31900903 44.98632812 24.75976562 C44.97528145 28.29821102 44.95800792 31.83659539 44.9375 35.375 C43.91003662 35.09865723 42.88257324 34.82231445 41.82397461 34.53759766 C39.21881142 33.83903963 36.61258383 33.14612499 34.00390625 32.4609375 C31.62335995 31.83253071 29.26387804 31.17560096 26.90234375 30.4765625 C14.07633092 26.83260386 -1.68991717 25.04626075 -14 31.125 C-17.46422404 33.67014419 -18.75667339 35.29429184 -20.0625 39.375 C-19.88242019 43.78695529 -18.80748216 46.92163534 -16.0625 50.375 C-8.53333986 56.66621198 1.80353832 59.55316758 10.9375 62.80859375 C27.26132158 68.65846143 45.65152777 76.08298704 53.9375 92.375 C57.90715625 101.42083688 57.8845105 115.42314776 55.24169922 124.859375 C53.60645609 128.99746641 51.46770641 132.70878254 48.9375 136.375 C48.2775 136.375 47.6175 136.375 46.9375 136.375 C46.69 136.9525 46.4425 137.53 46.1875 138.125 C44.75450012 140.70439979 43.15325324 142.43621592 40.9375 144.375 C40.2775 144.375 39.6175 144.375 38.9375 144.375 C38.9375 145.035 38.9375 145.695 38.9375 146.375 C14.6172184 159.96445211 -10.67293677 161.09031269 -38.0625 156.375 C-38.74521973 156.2625293 -39.42793945 156.15005859 -40.13134766 156.03417969 C-48.07887173 154.71654953 -55.35690665 152.94353112 -63.0625 150.375 C-63.0625 140.145 -63.0625 129.915 -63.0625 119.375 C-58.41244765 120.15000872 -55.34242685 120.93430969 -51.125 122.6875 C-34.18782448 129.33933057 -13.87961448 135.03043193 3.92578125 128.4453125 C7.54781257 126.51825118 9.89363302 123.90267076 11.9375 120.375 C13.12314372 116.39960636 13.21033824 114.26627158 12 110.3125 C6.61755146 102.64658844 -1.56150985 99.66425386 -10.0625 96.5 C-22.8467632 91.5654444 -35.81127323 86.34461896 -47.0625 78.375 C-47.0625 77.715 -47.0625 77.055 -47.0625 76.375 C-47.6503125 76.1171875 -48.238125 75.859375 -48.84375 75.59375 C-51.25477431 74.26938454 -52.72412406 72.91392604 -54.5625 70.875 C-55.1296875 70.2665625 -55.696875 69.658125 -56.28125 69.03125 C-61.30898632 61.53374847 -62.71214681 54.27898512 -62.5625 45.375 C-62.57796875 44.45460937 -62.5934375 43.53421875 -62.609375 42.5859375 C-62.55967968 33.76501778 -60.04932536 26.14735363 -54.4375 19.25 C-53.84710937 18.50492188 -53.25671875 17.75984375 -52.6484375 16.9921875 C-52.12507813 16.45851563 -51.60171875 15.92484375 -51.0625 15.375 C-50.4025 15.375 -49.7425 15.375 -49.0625 15.375 C-49.0625 14.715 -49.0625 14.055 -49.0625 13.375 C-35.40114419 1.33747459 -17.25750257 -0.03211421 0 0 Z " fill="#1B4F82" transform="translate(1864.0625,97.625)"/>
<path d="M0 0 C0.76486725 0.0036557 1.5297345 0.0073114 2.31777954 0.01107788 C16.8932918 0.09277342 29.87894769 1.19679289 43.6875 6.375 C43.6875 16.275 43.6875 26.175 43.6875 36.375 C40.01107116 35.76226186 36.65882325 35.16868346 33.10546875 34.21875 C14.47619345 29.39686633 -0.93080678 27.71496622 -19.3125 34.375 C-19.3125 35.035 -19.3125 35.695 -19.3125 36.375 C-19.9725 36.375 -20.6325 36.375 -21.3125 36.375 C-21.3125 37.035 -21.3125 37.695 -21.3125 38.375 C-21.9725 38.375 -22.6325 38.375 -23.3125 38.375 C-23.58191406 38.91898438 -23.85132813 39.46296875 -24.12890625 40.0234375 C-24.97457922 41.70361943 -25.8386725 43.37458119 -26.71484375 45.0390625 C-29.99425682 51.36424089 -32.57261988 57.46554803 -34.3125 64.375 C-34.48378418 64.99205811 -34.65506836 65.60911621 -34.83154297 66.24487305 C-38.29618822 81.58955823 -34.63996416 98.87048825 -26.73828125 112.14453125 C-21.48789755 120.3581452 -14.51868038 125.40304205 -5.01953125 127.83984375 C10.00913114 130.81087802 23.84539959 127.97859596 38.1484375 123.14453125 C40.6875 122.375 40.6875 122.375 43.6875 122.375 C43.6875 131.945 43.6875 141.515 43.6875 151.375 C38.24034035 153.19071988 33.33793254 154.81690738 27.8125 156 C26.72195313 156.23976562 25.63140625 156.47953125 24.5078125 156.7265625 C15.45315773 158.26344664 6.41914705 158.55685049 -2.75 158.5625 C-3.79220703 158.57474609 -4.83441406 158.58699219 -5.90820312 158.59960938 C-23.3266184 158.63200568 -43.05173187 154.4913116 -56.3125 142.375 C-56.3125 141.715 -56.3125 141.055 -56.3125 140.375 C-57.3025 140.045 -58.2925 139.715 -59.3125 139.375 C-77.51976317 120.15837895 -81.91776237 96.90606706 -81.3125 71.375 C-80.93212752 58.64981162 -77.6397428 46.43270508 -71.3125 35.375 C-70.91417969 34.66085938 -70.51585937 33.94671875 -70.10546875 33.2109375 C-69.19130945 31.58935457 -68.25479728 29.98039536 -67.3125 28.375 C-66.6525 28.375 -65.9925 28.375 -65.3125 28.375 C-65.03277344 27.78203125 -64.75304687 27.1890625 -64.46484375 26.578125 C-58.61906889 15.40179611 -46.15295307 8.10583656 -34.61791992 4.0546875 C-23.06067867 0.64736359 -11.96680351 -0.12524136 0 0 Z " fill="#1B4F82" transform="translate(946.3125,97.625)"/>
<path d="M0 0 C0 9.9 0 19.8 0 30 C10.56 30 21.12 30 32 30 C32 38.58 32 47.16 32 56 C21.44 56 10.88 56 0 56 C0.08569096 66.53615659 0.17953877 77.07215545 0.28752708 87.60810757 C0.33735532 92.50099826 0.38368606 97.39386876 0.421875 102.28686523 C0.4588986 107.01374525 0.5053038 111.74045061 0.55806351 116.46718025 C0.57651709 118.26554343 0.59165795 120.06394392 0.60334396 121.86236382 C0.62036214 124.39206492 0.64943255 126.92137386 0.68115234 129.45092773 C0.68331253 130.18533081 0.68547272 130.91973389 0.68769836 131.6763916 C0.78833245 138.00762396 1.47491331 144.30176971 4.625 149.875 C10.23466833 154.89417692 17.65645712 155.9601976 25 156 C28.3 155.67 31.6 155.34 35 155 C35 163.58 35 172.16 35 181 C16.2766169 186.54766907 -4.00452261 187.94006088 -22 179 C-25.13404347 177.18113549 -28.22823166 175.34328241 -31 173 C-31 172.34 -31 171.68 -31 171 C-31.66 171 -32.32 171 -33 171 C-34.40234375 169.1640625 -34.40234375 169.1640625 -35.9375 166.625 C-36.44152344 165.81289062 -36.94554687 165.00078125 -37.46484375 164.1640625 C-41.11998618 156.63056283 -42.44583853 149.4625705 -42.34057617 141.14404297 C-42.34123329 139.75196877 -42.34123329 139.75196877 -42.34190369 138.33177185 C-42.33983414 135.3016871 -42.31659056 132.27217412 -42.29296875 129.2421875 C-42.28736626 127.12655947 -42.28309925 125.01092752 -42.28010559 122.89529419 C-42.26870825 117.35507261 -42.2392854 111.81509088 -42.20599365 106.27496338 C-42.17518214 100.61042524 -42.16157666 94.94584797 -42.14648438 89.28125 C-42.11441052 78.18739523 -42.06327652 67.09371764 -42 56 C-47.61 56 -53.22 56 -59 56 C-59 47.42 -59 38.84 -59 30 C-53.39 30 -47.78 30 -42 30 C-42 21.42 -42 12.84 -42 4 C-37.6264514 3.42439783 -33.25272974 2.85285654 -28.87744141 2.29101562 C-27.39342175 2.09928016 -25.90968708 1.90532389 -24.42626953 1.70898438 C-22.27710456 1.42494099 -20.12699435 1.14926771 -17.9765625 0.875 C-16.04417725 0.62363281 -16.04417725 0.62363281 -14.07275391 0.3671875 C-9.39919502 -0.05416681 -4.69251448 0 0 0 Z " fill="#1B4F82" transform="translate(1575,71)"/>
<path d="M0 0 C0 12.54 0 25.08 0 38 C-3.63 37.34 -7.26 36.68 -11 36 C-24.29773354 34.8785044 -34.4103415 37.83748458 -45 46 C-47.17457252 48.23533902 -49.05462507 50.55581099 -51 53 C-51.66 53 -52.32 53 -53 53 C-55.44889707 57.76751419 -55.30614101 62.24238519 -55.31884766 67.47192383 C-55.33391609 68.89216354 -55.33391609 68.89216354 -55.34928894 70.34109497 C-55.38011945 73.4630677 -55.39715586 76.58495466 -55.4140625 79.70703125 C-55.43277423 81.87465655 -55.45234765 84.04227457 -55.4727478 86.20988464 C-55.52407431 91.90949205 -55.56369738 97.60912307 -55.60089111 103.30883789 C-55.64796903 110.15051 -55.70956917 116.99206488 -55.76873779 123.83364105 C-55.85695636 134.22238006 -55.92671648 144.61109653 -56 155 C-70.19 155 -84.38 155 -99 155 C-99 104.84 -99 54.68 -99 3 C-84.81 3 -70.62 3 -56 3 C-55.505 14.385 -55.505 14.385 -55 26 C-53.02 23.36 -51.04 20.72 -49 18 C-34.73801782 1.56331841 -20.75121966 -0.41502439 0 0 Z " fill="#1B4F82" transform="translate(1287,98)"/>
<path d="M0 0 C14.19 0 28.38 0 43 0 C43 50.16 43 100.32 43 152 C28.81 152 14.62 152 0 152 C0 101.84 0 51.68 0 0 Z " fill="#1B4F82" transform="translate(799,101)"/>
<path d="M0 0 C13.86 0 27.72 0 42 0 C42 50.16 42 100.32 42 152 C28.14 152 14.28 152 0 152 C0 101.84 0 51.68 0 0 Z " fill="#1B4F82" transform="translate(1304,101)"/>
<path d="M0 0 C5.9631823 -0.02290595 11.92621311 -0.04283396 17.8894043 -0.05493164 C19.91968298 -0.05997278 21.94995802 -0.06680557 23.98022461 -0.07543945 C26.89177347 -0.08751467 29.8032745 -0.09323034 32.71484375 -0.09765625 C33.6283812 -0.10281754 34.54191864 -0.10797882 35.48313904 -0.11329651 C37.65575427 -0.11349168 39.82827296 -0.06211805 42 0 C43 1 43 1 43.11352539 4.32641602 C43.11327435 5.80225555 43.10771514 7.27810097 43.09765625 8.75390625 C43.09664917 9.44093628 43.09564209 10.12796631 43.09460449 10.83581543 C43.08935776 13.41139384 43.07539659 15.98694853 43.0625 18.5625 C43.041875 24.316875 43.02125 30.07125 43 36 C28.81 36 14.62 36 0 36 C0 24.12 0 12.24 0 0 Z " fill="#1B4F82" transform="translate(799,41)"/>
<path d="M0 0 C13.86 0 27.72 0 42 0 C42 11.88 42 23.76 42 36 C28.14 36 14.28 36 0 36 C0 24.12 0 12.24 0 0 Z " fill="#1B4F82" transform="translate(1304,41)"/>
<path d="M0 0 C3.3 0 6.6 0 10 0 C10.01458252 1.34634521 10.02916504 2.69269043 10.04418945 4.07983398 C10.10245086 9.10646242 10.1796814 14.13265589 10.26245117 19.15893555 C10.29556998 21.32845973 10.32364193 23.49806738 10.34643555 25.66772461 C10.38022212 28.79837389 10.43254978 31.92826726 10.48828125 35.05859375 C10.49467117 36.01833603 10.5010611 36.97807831 10.50764465 37.96690369 C10.6336577 43.82553265 11.03969946 49.80061625 14 55 C20.53941306 57.93146103 27.28541955 57.23819348 34 55 C36.17509874 48.68773363 36.33646806 42.56610803 36.4140625 35.9375 C36.43342865 34.90560547 36.4527948 33.87371094 36.4727478 32.81054688 C36.53214727 29.54044657 36.57876973 26.27031031 36.625 23 C36.66321627 20.77212074 36.70227009 18.54425568 36.7421875 16.31640625 C36.83781604 10.87772057 36.92199244 5.4389658 37 0 C39.97 0 42.94 0 46 0 C46.07616325 7.29566754 46.1286476 14.59123224 46.16479492 21.88720703 C46.17986662 24.3683658 46.20032746 26.84949799 46.22631836 29.33056641 C46.26277167 32.90013189 46.27974292 36.46934461 46.29296875 40.0390625 C46.30845261 41.14553131 46.32393646 42.25200012 46.33988953 43.39199829 C46.34132324 49.97631076 45.88597819 54.65683715 41.421875 59.828125 C34.57794112 65.6486669 27.79856186 66.67575162 19 66 C14.20311382 65.25623193 9.9261478 63.94461085 6 61 C6 60.34 6 59.68 6 59 C5.34 59 4.68 59 4 59 C0.10964475 51.9835895 -0.54705792 46.11874886 -0.390625 38.18359375 C-0.38213531 36.53799217 -0.38213531 36.53799217 -0.37347412 34.85914612 C-0.35123774 31.38480394 -0.30106382 27.91152593 -0.25 24.4375 C-0.2299186 22.06967644 -0.21167072 19.70183658 -0.1953125 17.33398438 C-0.15141448 11.55558495 -0.08247449 5.77797236 0 0 Z " fill="#1B4F82" transform="translate(809,288)"/>
<path d="M0 0 C0 2.97 0 5.94 0 9 C-1.75029762 8.68917128 -3.50022694 8.37626821 -5.25 8.0625 C-6.22453125 7.88847656 -7.1990625 7.71445312 -8.203125 7.53515625 C-9.82303364 7.22520166 -11.43866422 6.8818981 -13.03125 6.453125 C-19.68096242 4.92263563 -26.4088273 5.29347776 -32.34765625 8.73046875 C-36.37107765 11.82174997 -38.46757366 16.27986823 -40 21 C-41.13062229 30.10612426 -41.05722591 39.17128491 -36.38671875 47.25 C-34.93642511 49.26455795 -34.93642511 49.26455795 -32 51 C-32 51.66 -32 52.32 -32 53 C-22.49099448 55.22782415 -12.70751687 55.14533477 -3.85546875 50.875 C-2 50 -2 50 0 50 C0 52.97 0 55.94 0 59 C-10.29429234 64.59865022 -21.52651058 65.63396785 -32.94140625 62.68359375 C-41.13047974 59.96426195 -46.38440394 54.53935497 -50.3125 46.9375 C-53.97658635 38.00628952 -54.40040203 25.83543055 -51.1796875 16.6640625 C-50.21566597 14.37925558 -49.15174621 12.19538627 -48 10 C-47.46375 8.948125 -46.9275 7.89625 -46.375 6.8125 C-41.23340612 0.72377041 -34.19290351 -2.76287306 -26.34375 -3.890625 C-17.700869 -4.17333606 -7.79195531 -3.89597765 0 0 Z " fill="#1B4F82" transform="translate(1558,290)"/>
<path d="M0 0 C1.19012695 0.1247168 1.19012695 0.1247168 2.40429688 0.25195312 C6.55266868 0.72913779 8.95314857 1.25782429 12.8125 3.1875 C12.8125 6.1575 12.8125 9.1275 12.8125 12.1875 C11.04118439 11.87774532 9.27046222 11.56459575 7.5 11.25 C6.02080078 10.98896484 6.02080078 10.98896484 4.51171875 10.72265625 C1.8125 10.1875 1.8125 10.1875 -1.1875 9.1875 C-8.4587983 8.53039008 -15.32133434 8.36935002 -21.1875 13.1875 C-26.39466809 18.96732341 -28.19519242 26.11050236 -28.18359375 33.765625 C-27.77891596 39.37945301 -26.36478572 44.01644643 -24.1875 49.1875 C-23.8575 50.1775 -23.5275 51.1675 -23.1875 52.1875 C-22.5275 52.1875 -21.8675 52.1875 -21.1875 52.1875 C-21.1875 52.8475 -21.1875 53.5075 -21.1875 54.1875 C-20.40375 54.496875 -19.62 54.80625 -18.8125 55.125 C-16.1875 56.1875 -16.1875 56.1875 -14.1875 57.1875 C-5.8836135 57.82067135 1.33770645 57.73815417 8.95703125 54.0625 C10.8125 53.1875 10.8125 53.1875 12.8125 53.1875 C12.8125 56.1575 12.8125 59.1275 12.8125 62.1875 C2.51820766 67.78615022 -8.71401058 68.82146785 -20.12890625 65.87109375 C-27.67051749 63.36676364 -32.51348057 58.84012824 -36.44921875 51.9921875 C-41.12304878 41.52936799 -41.17089775 27.15189768 -37.25 16.4375 C-33.63887372 9.24576401 -28.17908787 3.97949395 -20.5625 1.25 C-13.56242274 -0.77492656 -7.15178354 -0.86670419 0 0 Z " fill="#1B4F82" transform="translate(469.1875,286.8125)"/>
<path d="M0 0 C3.3 0 6.6 0 10 0 C10 8.91 10 17.82 10 27 C10.66 27 11.32 27 12 27 C12 26.34 12 25.68 12 25 C12.66 25 13.32 25 14 25 C14 24.34 14 23.68 14 23 C19.43935484 20.2224571 23.89137245 19.18774169 30 20 C33.4567952 21.21627979 35.3467183 22.19185342 37.64575195 25.03588867 C39.53201009 29.16443745 39.3747406 32.75386003 39.29296875 37.23828125 C39.28872391 38.11904831 39.28447906 38.99981537 39.28010559 39.90727234 C39.26336644 42.7093311 39.2257233 45.51066009 39.1875 48.3125 C39.17244699 50.21678646 39.15875966 52.12108424 39.14648438 54.02539062 C39.11347854 58.68387322 39.06172929 63.34181305 39 68 C36.03 68 33.06 68 30 68 C29.98018066 67.02651611 29.96036133 66.05303223 29.93994141 65.05004883 C29.86364633 61.42495649 29.77496664 57.80025306 29.68261719 54.17553711 C29.64442591 52.60920919 29.60955606 51.04279651 29.578125 49.47631836 C29.53225929 47.219582 29.47430231 44.96342417 29.4140625 42.70703125 C29.40251129 42.01100296 29.39096008 41.31497467 29.37905884 40.59785461 C29.26037251 36.65368487 28.71878696 33.56120596 27 30 C21.2799241 29.54239393 18.44703273 30.36151868 14 34 C10.67420401 37.45997653 10.58812263 40.24061167 10.48828125 44.953125 C10.47033005 45.61334656 10.45237885 46.27356812 10.43388367 46.95379639 C10.37991191 49.05246689 10.34592957 51.15091177 10.3125 53.25 C10.27931505 54.67711464 10.24482429 56.10419956 10.20898438 57.53125 C10.1241953 61.02061652 10.05732112 64.51006191 10 68 C6.7 68 3.4 68 0 68 C0 45.56 0 23.12 0 0 Z " fill="#1B4F82" transform="translate(1580,284)"/>
<path d="M0 0 C6.11044307 5.0108417 8.33919598 11.62178949 9.28125 19.2890625 C9.6381235 27.70532927 7.35408608 35.18735844 1.79296875 41.52734375 C-3.1746377 45.60749109 -7.78673075 46.45899321 -14.0625 46.3125 C-14.75666016 46.31572266 -15.45082031 46.31894531 -16.16601562 46.32226562 C-20.20550861 46.28006769 -23.36560791 45.77823083 -27 44 C-27 43.34 -27 42.68 -27 42 C-27.5775 41.79375 -28.155 41.5875 -28.75 41.375 C-32.81955293 38.88805099 -34.54745975 35.15397763 -36.25 30.8125 C-38.19476528 20.92660983 -37.03787481 13.4472238 -32.1875 4.75 C-24.84688803 -4.4781979 -10.01628277 -6.2741816 0 0 Z M-21 6 C-21 6.66 -21 7.32 -21 8 C-21.66 8 -22.32 8 -23 8 C-26.84413065 14.88740075 -27.2674177 22.61806688 -25.4609375 30.2890625 C-24.07621929 33.86498315 -22.4105989 36.24597771 -19 38 C-14.9941619 39.02276717 -11.99079948 39.0563881 -8 38 C-8 37.34 -8 36.68 -8 36 C-7.01 35.67 -6.02 35.34 -5 35 C-0.90932716 28.33371834 -0.84476611 20.24780668 -2.50390625 12.7109375 C-3.56496362 9.86124057 -4.92116842 8.06982225 -7.1875 6.0625 C-11.86545946 4.29527087 -16.2193756 4.40645853 -21 6 Z " fill="#1B4F82" transform="translate(751,307)"/>
<path d="M0 0 C5.35544808 4.35908565 8.63855517 10.24513913 10 17 C10.79551641 25.00105924 9.15489221 33.6422996 4 40 C-1.11524721 45.12751399 -6.0347805 46.54529612 -13.1875 46.5625 C-13.86449951 46.56483643 -14.54149902 46.56717285 -15.23901367 46.56958008 C-20.64445448 46.39132048 -24.65300239 44.97372783 -28.79296875 41.4921875 C-34.69937427 34.64274244 -36.58287622 27.70164053 -36.28125 18.703125 C-35.49768106 11.17215687 -32.87628493 4.93929189 -27 0 C-19.12035815 -4.95342139 -7.86190277 -4.65296286 0 0 Z M-22 8 C-25.18756613 13.69208238 -26.80886928 19.89548976 -25.52734375 26.3984375 C-24.15951209 30.89808044 -22.57653932 34.82085394 -19 38 C-14.75200709 39.28241295 -12.48993879 39.15514728 -8.25 37.8125 C-4.60400437 35.77915628 -2.70049215 34.23466863 -1.4453125 30.23046875 C0.08192377 22.58089058 -0.357798 14.90762448 -4 8 C-6.86407836 5.38141407 -9.22763012 4.80971114 -13 4.625 C-16.75574361 4.80182409 -19.11533141 5.44500782 -22 8 Z " fill="#1B4F82" transform="translate(1450,307)"/>
<path d="M0 0 C0 0.66 0 1.32 0 2 C0.66 2 1.32 2 2 2 C4.03091001 6.20588112 4.23353223 9.62583452 4.1953125 14.26953125 C4.1924826 14.95053391 4.18965271 15.63153656 4.18673706 16.33317566 C4.17560525 18.49313455 4.15051457 20.65266794 4.125 22.8125 C4.11496111 24.28319711 4.10583685 25.75390076 4.09765625 27.22460938 C4.07568913 30.81654286 4.0412082 34.40822985 4 38 C6.97 38.495 6.97 38.495 10 39 C10.04254356 40.99954746 10.04080783 43.00041636 10 45 C8.34905878 46.65094122 6.45514063 46.28867693 4.1875 46.375 C-0.62069522 46.36124265 -0.62069522 46.36124265 -3.625 43.5 C-4.07875 42.675 -4.5325 41.85 -5 41 C-5.65742187 41.54140625 -5.65742187 41.54140625 -6.328125 42.09375 C-12.30395431 46.46630803 -17.72460355 47.11378962 -25 46 C-28.21020361 44.78382671 -30.30015155 43.14211379 -32.125 40.1640625 C-33.72649688 36.20321755 -33.54279665 32.19012538 -33 28 C-30.41525422 22.92282078 -27.56598104 20.01600983 -22.296875 17.9296875 C-18.73942182 16.92651942 -15.81132666 16.79976884 -12.125 16.875 C-10.97257812 16.89304687 -9.82015625 16.91109375 -8.6328125 16.9296875 C-7.76398438 16.95289063 -6.89515625 16.97609375 -6 17 C-6.08708669 15.54054712 -6.19526907 14.08234132 -6.3125 12.625 C-6.37050781 11.81289063 -6.42851563 11.00078125 -6.48828125 10.1640625 C-6.82990528 7.62078662 -6.82990528 7.62078662 -10 6 C-16.66829933 4.9499815 -22.75651893 6.81021958 -29 9 C-29 6.03 -29 3.06 -29 0 C-19.25432996 -3.62228444 -9.42407908 -5.14040677 0 0 Z M-22 27 C-23.49082791 30.43290367 -23.49082791 30.43290367 -23 34 C-21.58333333 36.58333333 -21.58333333 36.58333333 -19 38 C-13.55603578 38.96781586 -10.44194858 36.84284709 -6 34 C-6 30.37 -6 26.74 -6 23 C-12.05638758 22.56740089 -17.18734279 22.92409525 -22 27 Z " fill="#1B4F82" transform="translate(1306,307)"/>
<path d="M0 0 C4.10369482 4.01250161 5.98361007 7.36365583 7 13 C7 16.63 7 20.26 7 24 C-2.57 24.33 -12.14 24.66 -22 25 C-19.36107919 32.75364894 -19.36107919 32.75364894 -14 37 C-8.51005853 38.20964812 -4.4806744 37.93989539 0.921875 36.47265625 C3 36 3 36 7 36 C7 38.64 7 41.28 7 44 C-0.84154624 47.09209237 -10.47432133 47.34713626 -18.67578125 45.34765625 C-24.26576946 42.81859362 -28.38023817 38.3434329 -31.03515625 32.86328125 C-34.32662736 24.09112802 -33.74832344 15.55749315 -30 7 C-27.0570923 2.11348971 -23.61470435 -0.88448492 -18.140625 -2.56640625 C-11.48394524 -3.91474832 -5.97964731 -3.44979652 0 0 Z M-21 10 C-21.33 11.98 -21.66 13.96 -22 16 C-15.73 16 -9.46 16 -3 16 C-3.30177856 9.3547909 -3.30177856 9.3547909 -6.125 6.5625 C-12.44227905 3.12919617 -16.79383533 4.30930662 -21 10 Z " fill="#1B4F82" transform="translate(1066,307)"/>
<path d="M0 0 C5.01168412 4.17640343 8.0174487 9.51516143 9 16 C9.12181749 18.69057755 9.08849534 21.30089217 9 24 C8 25 8 25 5.22436523 25.11352539 C4.01466064 25.10828857 2.80495605 25.10305176 1.55859375 25.09765625 C0.25341797 25.09443359 -1.05175781 25.09121094 -2.39648438 25.08789062 C-3.7851569 25.07953401 -5.17382877 25.07106905 -6.5625 25.0625 C-7.95507656 25.05748666 -9.34765481 25.05292347 -10.74023438 25.04882812 C-14.1601987 25.03699434 -17.58007844 25.0205088 -21 25 C-20.01 28.3 -19.02 31.6 -18 35 C-17.34 35 -16.68 35 -16 35 C-16 35.66 -16 36.32 -16 37 C-9.27126028 38.48009503 -3.6267887 39.50953147 3.0625 37.5078125 C5 37 5 37 9 37 C9 39.64 9 42.28 9 45 C0.38766506 47.82928217 -11.24992237 49.27560924 -19.75 45.375 C-25.38153712 41.75922561 -28.6271122 36.89177123 -30.49609375 30.55859375 C-31.99617731 22.94189041 -32.02212172 14.82627701 -28 8 C-25.20619844 4.0350594 -22.49919251 0.79956934 -18.1875 -1.5 C-12.17052346 -2.44383946 -5.4156203 -3.24937218 0 0 Z M-20 11 C-20.33 12.98 -20.66 14.96 -21 17 C-14.73 17 -8.46 17 -2 17 C-1.41709212 11.22282242 -1.41709212 11.22282242 -4.0625 8.125 C-6.87729152 5.76678964 -6.87729152 5.76678964 -10.4375 5.375 C-14.99100288 6.17386015 -16.89752048 7.60204624 -20 11 Z " fill="#1B4F82" transform="translate(532,306)"/>
<path d="M0 0 C3.24952698 5.01139832 3.40445558 9.13658057 3.29296875 14.8984375 C3.28872391 15.73339752 3.28447906 16.56835754 3.28010559 17.42861938 C3.26340333 20.07775035 3.22576775 22.7261016 3.1875 25.375 C3.1724422 27.17837438 3.15875571 28.98176076 3.14648438 30.78515625 C3.11352762 35.1904015 3.06180469 39.59506886 3 44 C-0.3 44 -3.6 44 -7 44 C-7.01981934 42.99098633 -7.03963867 41.98197266 -7.06005859 40.94238281 C-7.13623336 37.19245804 -7.22493216 33.44291529 -7.31738281 29.69335938 C-7.35562358 28.07169141 -7.39048503 26.44994004 -7.421875 24.828125 C-7.46763257 22.49448883 -7.52560816 20.16142438 -7.5859375 17.828125 C-7.59748871 17.10506165 -7.60903992 16.38199829 -7.62094116 15.63702393 C-7.72853178 11.95276792 -7.97721889 9.13708508 -10 6 C-15.70939788 5.54324817 -18.55127459 6.37894444 -23 10 C-25.45378929 13.68068393 -25.30646214 15.68053719 -25.4140625 20.07421875 C-25.43342865 20.7580513 -25.4527948 21.44188385 -25.4727478 22.1464386 C-25.53243997 24.32666625 -25.57888631 26.50694702 -25.625 28.6875 C-25.66318943 30.1673405 -25.70224174 31.647159 -25.7421875 33.12695312 C-25.83813202 36.7511005 -25.92220151 40.37541257 -26 44 C-29.3 44 -32.6 44 -36 44 C-36 28.49 -36 12.98 -36 -3 C-32.7 -3 -29.4 -3 -26 -3 C-25.67 -1.68 -25.34 -0.36 -25 1 C-24.0925 0.360625 -23.185 -0.27875 -22.25 -0.9375 C-14.66741095 -5.74952767 -7.09280551 -5.28483548 0 0 Z " fill="#1B4F82" transform="translate(917,308)"/>
<path d="M0 0 C3.3 0 6.6 0 10 0 C10.33 12.54 10.66 25.08 11 38 C18.28409757 39.23038499 18.28409757 39.23038499 24 36 C27.58566844 33.05367809 28.79863558 31.3421316 29.49511719 26.69995117 C29.71713536 22.66807052 29.79705035 18.66157106 29.8125 14.625 C29.83566369 13.20699312 29.86103293 11.78902046 29.88867188 10.37109375 C29.95128026 6.91408955 29.98380753 3.45756907 30 0 C32.97 0 35.94 0 39 0 C39 15.51 39 31.02 39 47 C36.03 47 33.06 47 30 47 C29.505 44.525 29.505 44.525 29 42 C28.34 42 27.68 42 27 42 C27 42.66 27 43.32 27 44 C21.65810455 47.88501487 17.41415389 48.68433518 10.81640625 48.453125 C6.4250043 47.74660263 4.85966841 46.38644943 2 43 C-0.42543406 38.46234328 -0.25952317 34.20912294 -0.1953125 29.19921875 C-0.1924826 28.36284378 -0.18965271 27.52646881 -0.18673706 26.66474915 C-0.1755832 24.00551774 -0.15048763 21.34662882 -0.125 18.6875 C-0.11496399 16.87956217 -0.10583923 15.07161904 -0.09765625 13.26367188 C-0.07565959 8.84231688 -0.04116294 4.42121642 0 0 Z " fill="#1B4F82" transform="translate(1825,305)"/>
<path d="M0 0 C3.61563277 2.69400089 4.57386586 4.20637046 6.1875 8.375 C6.56755067 11.35072555 6.53843513 14.2776221 6.48046875 17.2734375 C6.47622391 18.10839752 6.47197906 18.94335754 6.46760559 19.80361938 C6.45090333 22.45275035 6.41326775 25.1011016 6.375 27.75 C6.3599422 29.55337438 6.34625571 31.35676076 6.33398438 33.16015625 C6.30102762 37.5654015 6.24930469 41.97006886 6.1875 46.375 C2.8875 46.375 -0.4125 46.375 -3.8125 46.375 C-3.83231934 45.29492676 -3.85213867 44.21485352 -3.87255859 43.10205078 C-3.94851623 39.10246087 -4.03724816 35.10323948 -4.12988281 31.10400391 C-4.16821341 29.37165593 -4.20305906 27.63922726 -4.234375 25.90673828 C-4.27993765 23.41930251 -4.33794503 20.93242434 -4.3984375 18.4453125 C-4.40998871 17.66817902 -4.42153992 16.89104553 -4.43344116 16.09036255 C-4.40043768 11.76849025 -4.40043768 11.76849025 -6.8125 8.375 C-11.79156007 7.90527735 -14.89195673 8.19618113 -18.8125 11.375 C-22.27039143 15.78112638 -23.32315906 18.72723673 -23.421875 24.3046875 C-23.45410156 25.59375 -23.48632812 26.8828125 -23.51953125 28.2109375 C-23.5342723 29.55728715 -23.54859 30.9036415 -23.5625 32.25 C-23.59068712 33.61982903 -23.62061837 34.98962335 -23.65234375 36.359375 C-23.72287757 39.69797602 -23.77565985 43.03588515 -23.8125 46.375 C-26.7825 46.375 -29.7525 46.375 -32.8125 46.375 C-32.8125 30.865 -32.8125 15.355 -32.8125 -0.625 C-29.8425 -0.625 -26.8725 -0.625 -23.8125 -0.625 C-23.4825 1.355 -23.1525 3.335 -22.8125 5.375 C-22.35359375 4.95347656 -21.8946875 4.53195312 -21.421875 4.09765625 C-20.80828125 3.54980469 -20.1946875 3.00195312 -19.5625 2.4375 C-18.95921875 1.89222656 -18.3559375 1.34695313 -17.734375 0.78515625 C-12.69098543 -2.91537959 -5.44686567 -2.78113268 0 0 Z " fill="#1B4F82" transform="translate(596.8125,305.625)"/>
<path d="M0 0 C3.3 0 6.6 0 10 0 C11.62722549 4.20747617 13.25138656 8.4161288 14.875 12.625 C15.56529297 14.40970703 15.56529297 14.40970703 16.26953125 16.23046875 C16.71425781 17.38417969 17.15898438 18.53789062 17.6171875 19.7265625 C18.02565918 20.78439941 18.43413086 21.84223633 18.85498047 22.93212891 C19.97366175 25.92943147 20.98830487 28.9649146 22 32 C26.29 21.44 30.58 10.88 35 0 C37.97 0 40.94 0 44 0 C44.2570393 4.07940291 43.48366191 6.75446825 41.82421875 10.46875 C39.91804138 14.85490645 38.09936272 19.25011325 36.39453125 23.71875 C35.96849609 24.83507812 35.54246094 25.95140625 35.10351562 27.1015625 C34.23098638 29.39838682 33.35859412 31.69526319 32.48632812 33.9921875 C32.06416016 35.09820312 31.64199219 36.20421875 31.20703125 37.34375 C30.8303833 38.33568359 30.45373535 39.32761719 30.06567383 40.34960938 C29.1550485 42.61438567 28.09164556 44.81670888 27 47 C23.7 47 20.4 47 17 47 C13.23107937 40.04199268 10.56179462 32.73808689 7.85595703 25.32373047 C6.93953418 22.83584893 6.00079523 20.35713366 5.05859375 17.87890625 C4.41396458 16.16930775 3.76943162 14.45967297 3.125 12.75 C2.81457764 11.94006592 2.50415527 11.13013184 2.18432617 10.2956543 C1.89920166 9.53293213 1.61407715 8.77020996 1.3203125 7.984375 C1.06523926 7.31116211 0.81016602 6.63794922 0.54736328 5.94433594 C0 4 0 4 0 0 Z " fill="#1B4F82" transform="translate(974,305)"/>
<path d="M0 0 C0 2.64 0 5.28 0 8 C-3 9 -3 9 -6 8 C-7.68545724 7.90712229 -9.374493 7.87002796 -11.0625 7.875 C-11.94035156 7.87242187 -12.81820313 7.86984375 -13.72265625 7.8671875 C-16.03198266 7.85166576 -16.03198266 7.85166576 -18 9 C-18 10.65 -18 12.3 -18 14 C-16.81921875 14.58007812 -15.6384375 15.16015625 -14.421875 15.7578125 C-12.86416599 16.54605079 -11.3068972 17.33515947 -9.75 18.125 C-8.97269531 18.50398438 -8.19539063 18.88296875 -7.39453125 19.2734375 C-2.51227624 21.77715802 0.47313264 23.9195965 3 29 C3.91171751 33.30732682 3.27028162 37.15735731 1.9375 41.3125 C-0.63383762 44.87919412 -2.79063192 46.83879501 -7 48 C-14.58815489 48.62325707 -21.79652815 48.8094664 -29 46 C-29 43.03 -29 40.06 -29 37 C-26.22612296 37.42675031 -23.49036588 37.87181664 -20.7734375 38.58203125 C-15.91214441 39.86962567 -15.91214441 39.86962567 -11 39.1875 C-9.07144899 38.15378356 -9.07144899 38.15378356 -8 37 C-7.41511438 34.62875402 -7.41511438 34.62875402 -8 32 C-11.11181005 29.35496146 -14.25651979 27.84328713 -18.0625 26.5 C-22.29813109 25.00173661 -25.73742024 23.11170911 -28.109375 19.14453125 C-29.64094782 15.45666511 -29.53735235 11.91791077 -29 8 C-26.99048085 3.65943864 -24.76297708 1.13948402 -20.19140625 -0.5390625 C-13.66383604 -1.91206301 -6.47789872 -1.43953305 0 0 Z " fill="#1B4F82" transform="translate(1170,305)"/>
<path d="M0 0 C0 2.64 0 5.28 0 8 C-3.28408617 9.09469539 -3.83464274 8.83754891 -7 8 C-8.74886981 7.93375493 -10.50002748 7.91447405 -12.25 7.9375 C-13.58804687 7.95103516 -13.58804687 7.95103516 -14.953125 7.96484375 C-15.62859375 7.97644531 -16.3040625 7.98804688 -17 8 C-17.66 9.65 -18.32 11.3 -19 13 C-16.46578931 16.02357551 -13.78063542 17.01667163 -10.125 18.375 C-4.15695081 20.78240148 -1.00614206 22.71722208 2.375 28.25 C3.43271426 32.90394274 3.35575085 37.6122597 0.953125 41.84375 C-1.35045004 44.74454819 -3.5482017 46.72950617 -7 48 C-9.66959595 48.19270969 -12.20956387 48.27934425 -14.875 48.25 C-15.56980469 48.25773437 -16.26460937 48.26546875 -16.98046875 48.2734375 C-21.36302994 48.25693068 -24.92923196 47.60788957 -29 46 C-29 43.03 -29 40.06 -29 37 C-26.48601564 37.4893291 -23.98948424 38.00254679 -21.5 38.60546875 C-17.72471868 39.48440143 -14.78337329 40.14388489 -10.9375 39.4375 C-8.79478328 38.11593815 -8.79478328 38.11593815 -8.0625 35.5625 C-7.74837398 32.75471394 -7.74837398 32.75471394 -10 30 C-12.06614752 28.94296682 -14.17806583 27.97380428 -16.3125 27.0625 C-26.68672951 22.62654097 -26.68672951 22.62654097 -29 18 C-29.49187003 12.99260181 -29.79320681 8.52295708 -27.4375 4 C-19.48192148 -2.52765417 -9.73382909 -2.16307313 0 0 Z " fill="#1B4F82" transform="translate(1755,305)"/>
<path d="M0 0 C0 2.97 0 5.94 0 9 C-0.969375 8.835 -1.93875 8.67 -2.9375 8.5 C-5.87601564 8.09303653 -8.78450993 7.84707005 -11.75 7.75 C-12.48734375 7.72421875 -13.2246875 7.6984375 -13.984375 7.671875 C-16.52362657 8.08524153 -17.38435133 9.05713135 -19 11 C-16.78207863 15.59756616 -14.74099883 16.93867568 -10 18.6875 C-6.660843 19.94377598 -3.97930834 21.01379444 -1 23 C-1 23.66 -1 24.32 -1 25 C-0.34 25 0.32 25 1 25 C3.21878991 29.43757982 2.52674608 35.18319972 2 40 C0.16133424 43.99358204 -2.91867456 46.46778523 -7 48 C-9.66959595 48.19270969 -12.20956387 48.27934425 -14.875 48.25 C-15.56980469 48.25773437 -16.26460937 48.26546875 -16.98046875 48.2734375 C-21.36302994 48.25693068 -24.92923196 47.60788957 -29 46 C-29 43.03 -29 40.06 -29 37 C-26.22612296 37.42675031 -23.49036588 37.87181664 -20.7734375 38.58203125 C-17.20940016 39.50582019 -14.65899807 40.12356214 -11 39.4375 C-8.79392182 38.12910488 -8.79392182 38.12910488 -8.0625 35.5625 C-7.74837398 32.75471394 -7.74837398 32.75471394 -10 30 C-13.18899994 28.40767534 -16.44937851 27.06787624 -19.73828125 25.6953125 C-23.21022092 23.89073547 -25.38666572 21.88466407 -28 19 C-28.33 18.67 -28.66 18.34 -29 18 C-29.51133698 13.00398628 -29.78660383 8.51027936 -27.4375 4 C-19.48192148 -2.52765417 -9.73382909 -2.16307313 0 0 Z " fill="#1B4F82" transform="translate(1918,305)"/>
<path d="M0 0 C3.46679688 0.04882812 3.46679688 0.04882812 6.93359375 0.09765625 C6.93359375 3.06765625 6.93359375 6.03765625 6.93359375 9.09765625 C10.89359375 9.09765625 14.85359375 9.09765625 18.93359375 9.09765625 C18.93359375 11.73765625 18.93359375 14.37765625 18.93359375 17.09765625 C14.97359375 17.09765625 11.01359375 17.09765625 6.93359375 17.09765625 C7.26359375 26.99765625 7.59359375 36.89765625 7.93359375 47.09765625 C13.50571585 48.99369717 13.50571585 48.99369717 18.93359375 49.09765625 C18.97601098 51.430604 18.97452312 53.76468192 18.93359375 56.09765625 C17.07724928 57.95400072 14.10529472 57.27133978 11.62109375 57.28515625 C10.46996094 57.29933594 9.31882812 57.31351562 8.1328125 57.328125 C5.10947138 57.11032631 3.46793504 56.68083735 0.93359375 55.09765625 C0.93359375 54.43765625 0.93359375 53.77765625 0.93359375 53.09765625 C0.27359375 53.09765625 -0.38640625 53.09765625 -1.06640625 53.09765625 C-3.46595169 49.36133982 -3.29634312 46.06970127 -3.26171875 41.70703125 C-3.25747391 40.65011078 -3.25747391 40.65011078 -3.25314331 39.57183838 C-3.24198426 37.33026865 -3.21688818 35.08910439 -3.19140625 32.84765625 C-3.18137089 31.32422454 -3.17224601 29.80078654 -3.1640625 28.27734375 C-3.14205916 24.55065039 -3.10755897 20.82419292 -3.06640625 17.09765625 C-5.04640625 17.09765625 -7.02640625 17.09765625 -9.06640625 17.09765625 C-9.06640625 14.45765625 -9.06640625 11.81765625 -9.06640625 9.09765625 C-7.08640625 9.09765625 -5.10640625 9.09765625 -3.06640625 9.09765625 C-3.08703125 7.79828125 -3.10765625 6.49890625 -3.12890625 5.16015625 C-3.15040079 3.80599992 -3.13788824 2.45009542 -3.06640625 1.09765625 C-2.06640625 0.09765625 -2.06640625 0.09765625 0 0 Z " fill="#1B4F82" transform="translate(1786.06640625,295.90234375)"/>
<path d="M0 0 C3.46679688 0.04882812 3.46679688 0.04882812 6.93359375 0.09765625 C6.93359375 3.06765625 6.93359375 6.03765625 6.93359375 9.09765625 C10.89359375 9.09765625 14.85359375 9.09765625 18.93359375 9.09765625 C18.97601098 11.430604 18.97452312 13.76468192 18.93359375 16.09765625 C18.60359375 16.42765625 18.27359375 16.75765625 17.93359375 17.09765625 C14.30359375 17.09765625 10.67359375 17.09765625 6.93359375 17.09765625 C7.26359375 26.99765625 7.59359375 36.89765625 7.93359375 47.09765625 C11.76359353 48.37432284 15.03962669 49.41048559 18.93359375 50.09765625 C18.97613731 52.09720371 18.97440158 54.09807261 18.93359375 56.09765625 C17.07724928 57.95400072 14.10529472 57.27133978 11.62109375 57.28515625 C10.46996094 57.29933594 9.31882812 57.31351562 8.1328125 57.328125 C5.10947138 57.11032631 3.46793504 56.68083735 0.93359375 55.09765625 C0.93359375 54.43765625 0.93359375 53.77765625 0.93359375 53.09765625 C0.27359375 53.09765625 -0.38640625 53.09765625 -1.06640625 53.09765625 C-3.46595169 49.36133982 -3.29634312 46.06970127 -3.26171875 41.70703125 C-3.25747391 40.65011078 -3.25747391 40.65011078 -3.25314331 39.57183838 C-3.24198426 37.33026865 -3.21688818 35.08910439 -3.19140625 32.84765625 C-3.18137089 31.32422454 -3.17224601 29.80078654 -3.1640625 28.27734375 C-3.14205916 24.55065039 -3.10755897 20.82419292 -3.06640625 17.09765625 C-5.04640625 17.09765625 -7.02640625 17.09765625 -9.06640625 17.09765625 C-9.06640625 14.45765625 -9.06640625 11.81765625 -9.06640625 9.09765625 C-7.08640625 9.09765625 -5.10640625 9.09765625 -3.06640625 9.09765625 C-3.08703125 7.79828125 -3.10765625 6.49890625 -3.12890625 5.16015625 C-3.15040079 3.80599992 -3.13788824 2.45009542 -3.06640625 1.09765625 C-2.06640625 0.09765625 -2.06640625 0.09765625 0 0 Z " fill="#1B4F82" transform="translate(632.06640625,295.90234375)"/>
<path d="M0 0 C3.46679688 0.04882812 3.46679688 0.04882812 6.93359375 0.09765625 C6.93359375 3.06765625 6.93359375 6.03765625 6.93359375 9.09765625 C10.89359375 9.09765625 14.85359375 9.09765625 18.93359375 9.09765625 C18.97601098 11.430604 18.97452312 13.76468192 18.93359375 16.09765625 C17.93359375 17.09765625 17.93359375 17.09765625 15.4296875 17.1953125 C14.42035156 17.18371094 13.41101562 17.17210937 12.37109375 17.16015625 C11.35917969 17.15113281 10.34726563 17.14210938 9.3046875 17.1328125 C8.13099609 17.11541016 8.13099609 17.11541016 6.93359375 17.09765625 C7.05194465 21.17296092 7.17619999 25.2480386 7.3059082 29.32299805 C7.34919593 30.70901608 7.39087539 32.09508531 7.4309082 33.48120117 C7.48875959 35.47457423 7.55289151 37.4677619 7.6171875 39.4609375 C7.65384521 40.66016846 7.69050293 41.85939941 7.72827148 43.0949707 C7.810924 46.14759974 7.810924 46.14759974 8.93359375 49.09765625 C11.90359375 49.09765625 14.87359375 49.09765625 17.93359375 49.09765625 C17.93359375 51.73765625 17.93359375 54.37765625 17.93359375 57.09765625 C5.05262471 57.78566053 5.05262471 57.78566053 1.24609375 55.41015625 C-2.10015701 52.06390549 -2.97958264 49.4029045 -3.29345703 44.68432617 C-3.2829834 43.41177979 -3.27250977 42.1392334 -3.26171875 40.828125 C-3.25747391 39.80662102 -3.25747391 39.80662102 -3.25314331 38.76448059 C-3.2420115 36.6045217 -3.21692082 34.44498831 -3.19140625 32.28515625 C-3.18136736 30.81445914 -3.1722431 29.34375549 -3.1640625 27.87304688 C-3.14209538 24.28111339 -3.10761445 20.6894264 -3.06640625 17.09765625 C-5.04640625 17.09765625 -7.02640625 17.09765625 -9.06640625 17.09765625 C-9.06640625 14.45765625 -9.06640625 11.81765625 -9.06640625 9.09765625 C-7.08640625 9.09765625 -5.10640625 9.09765625 -3.06640625 9.09765625 C-3.08703125 7.79828125 -3.10765625 6.49890625 -3.12890625 5.16015625 C-3.15040079 3.80599992 -3.13788824 2.45009542 -3.06640625 1.09765625 C-2.06640625 0.09765625 -2.06640625 0.09765625 0 0 Z " fill="#1B4F82" transform="translate(1237.06640625,295.90234375)"/>
<path d="M0 0 C1.8871875 0.0309375 1.8871875 0.0309375 3.8125 0.0625 C3.8125 3.0325 3.8125 6.0025 3.8125 9.0625 C2.45125 9.124375 1.09 9.18625 -0.3125 9.25 C-5.41844948 9.79764127 -7.6379057 11.42416584 -11.1875 15.0625 C-12.6639236 18.0153472 -12.41022939 20.74698983 -12.50390625 24.0390625 C-12.52468735 24.72431 -12.54546844 25.4095575 -12.56687927 26.11557007 C-12.63230185 28.30611069 -12.69122554 30.49677189 -12.75 32.6875 C-12.79319218 34.1718875 -12.8368067 35.65626278 -12.88085938 37.140625 C-12.98797553 40.78112084 -13.08926362 44.42175251 -13.1875 48.0625 C-16.4875 48.0625 -19.7875 48.0625 -23.1875 48.0625 C-23.1875 32.5525 -23.1875 17.0425 -23.1875 1.0625 C-19.8875 1.0625 -16.5875 1.0625 -13.1875 1.0625 C-12.8575 2.3825 -12.5275 3.7025 -12.1875 5.0625 C-11.424375 4.423125 -10.66125 3.78375 -9.875 3.125 C-6.49039769 0.52751451 -4.15078739 -0.06804569 0 0 Z " fill="#1B4F82" transform="translate(1668.1875,303.9375)"/>
<path d="M0 0 C0 2.97 0 5.94 0 9 C-1.36125 9.061875 -2.7225 9.12375 -4.125 9.1875 C-9.23094948 9.73514127 -11.4504057 11.36166584 -15 15 C-16.4764236 17.9528472 -16.22272939 20.68448983 -16.31640625 23.9765625 C-16.33718735 24.66181 -16.35796844 25.3470575 -16.37937927 26.05307007 C-16.44480185 28.24361069 -16.50372554 30.43427189 -16.5625 32.625 C-16.60569218 34.1093875 -16.6493067 35.59376278 -16.69335938 37.078125 C-16.80047553 40.71862084 -16.90176362 44.35925251 -17 48 C-20.3 48 -23.6 48 -27 48 C-27 32.49 -27 16.98 -27 1 C-23.7 1 -20.4 1 -17 1 C-16.67 2.32 -16.34 3.64 -16 5 C-15.2575 4.360625 -14.515 3.72125 -13.75 3.0625 C-9.17154612 -0.37134041 -5.66576366 -0.10895699 0 0 Z " fill="#1B4F82" transform="translate(1123,304)"/>
<path d="M0 0 C1.8871875 0.0309375 1.8871875 0.0309375 3.8125 0.0625 C3.8125 3.0325 3.8125 6.0025 3.8125 9.0625 C1.59895833 9.29036458 -0.61458333 9.51822917 -2.828125 9.74609375 C-5.01114639 10.03884993 -7.0648182 10.48314419 -9.1875 11.0625 C-9.1875 11.7225 -9.1875 12.3825 -9.1875 13.0625 C-9.8475 13.0625 -10.5075 13.0625 -11.1875 13.0625 C-12.34589043 16.53767129 -12.41551218 19.7352002 -12.50390625 23.35546875 C-12.52468735 24.06149734 -12.54546844 24.76752594 -12.56687927 25.49494934 C-12.63217491 27.74653551 -12.69116647 29.99823662 -12.75 32.25 C-12.79320425 33.7780066 -12.83681916 35.30600164 -12.88085938 36.83398438 C-12.98783574 40.57670562 -13.08915922 44.3195423 -13.1875 48.0625 C-16.4875 48.0625 -19.7875 48.0625 -23.1875 48.0625 C-23.1875 32.5525 -23.1875 17.0425 -23.1875 1.0625 C-19.8875 1.0625 -16.5875 1.0625 -13.1875 1.0625 C-12.8575 2.3825 -12.5275 3.7025 -12.1875 5.0625 C-11.424375 4.423125 -10.66125 3.78375 -9.875 3.125 C-6.49039769 0.52751451 -4.15078739 -0.06804569 0 0 Z " fill="#1B4F82" transform="translate(1359.1875,303.9375)"/>
<path d="M0 0 C1.8871875 0.0309375 1.8871875 0.0309375 3.8125 0.0625 C3.8125 3.0325 3.8125 6.0025 3.8125 9.0625 C2.45125 9.124375 1.09 9.18625 -0.3125 9.25 C-5.44107022 9.80727771 -7.61678398 11.40469334 -11.1875 15.0625 C-13.60920679 18.69506018 -13.4919503 20.58828695 -13.6015625 24.91796875 C-13.62092865 25.57960526 -13.6402948 26.24124176 -13.6602478 26.92292786 C-13.71992687 29.03182164 -13.76638087 31.14077037 -13.8125 33.25 C-13.85069066 34.68166415 -13.88974303 36.11330559 -13.9296875 37.54492188 C-14.02561773 41.05057312 -14.10969197 44.55639445 -14.1875 48.0625 C-17.1575 48.0625 -20.1275 48.0625 -23.1875 48.0625 C-23.1875 32.5525 -23.1875 17.0425 -23.1875 1.0625 C-20.2175 1.0625 -17.2475 1.0625 -14.1875 1.0625 C-13.8575 2.7125 -13.5275 4.3625 -13.1875 6.0625 C-12.259375 5.258125 -11.33125 4.45375 -10.375 3.625 C-7.0603267 0.75228314 -4.36694896 -0.07158933 0 0 Z " fill="#1B4F82" transform="translate(695.1875,303.9375)"/>
<path d="M0 0 C3.63 0 7.26 0 11 0 C11 15.51 11 31.02 11 47 C7.37 47 3.74 47 0 47 C0 31.49 0 15.98 0 0 Z " fill="#1B4F82" transform="translate(1197,305)"/>
<path d="M0 0 C3.3 0 6.6 0 10 0 C10 15.51 10 31.02 10 47 C6.7 47 3.4 47 0 47 C0 31.49 0 15.98 0 0 Z " fill="#1B4F82" transform="translate(1691,305)"/>
<path d="M0 0 C3.3 0 6.6 0 10 0 C10 15.51 10 31.02 10 47 C6.7 47 3.4 47 0 47 C0 31.49 0 15.98 0 0 Z " fill="#1B4F82" transform="translate(1382,305)"/>
<path d="M0 0 C3.3 0 6.6 0 10 0 C10 15.51 10 31.02 10 47 C6.7 47 3.4 47 0 47 C0 31.49 0 15.98 0 0 Z " fill="#1B4F82" transform="translate(945,305)"/>
<path d="M0 0 C-2.4706632 5.53635524 -6.33974832 10.15960741 -11 14 C-14.41935048 14.85483762 -16.45197572 14.56317846 -20 14 C-19.07980637 12.33001896 -18.15082142 10.66431894 -17.1796875 9.0234375 C-15.98268998 7.02601779 -15.98268998 7.02601779 -15.0078125 4.9765625 C-11.44134504 -1.40142676 -6.76378149 -0.74626661 0 0 Z " fill="#1B4F82" transform="translate(1306,284)"/>
<path d="M0 0 C0.8146875 0.00257813 1.629375 0.00515625 2.46875 0.0078125 C3.2834375 0.00523437 4.098125 0.00265625 4.9375 0 C6.96875 0.1328125 6.96875 0.1328125 7.96875 1.1328125 C8.11068337 4.13612268 8.01111378 7.12498384 7.96875 10.1328125 C4.33875 10.1328125 0.70875 10.1328125 -3.03125 10.1328125 C-3.12890625 3.19921875 -3.12890625 3.19921875 -3.03125 1.1328125 C-2.03125 0.1328125 -2.03125 0.1328125 0 0 Z " fill="#1B4F82" transform="translate(1200.03125,287.8671875)"/>
<path d="M0 0 C3.3 0 6.6 0 10 0 C10 3.3 10 6.6 10 10 C6.7 10 3.4 10 0 10 C0 6.7 0 3.4 0 0 Z " fill="#1B4F82" transform="translate(1382,288)"/>
<path d="M0 0 C3.3 0 6.6 0 10 0 C10 3.3 10 6.6 10 10 C6.7 10 3.4 10 0 10 C0 6.7 0 3.4 0 0 Z " fill="#1B4F82" transform="translate(945,288)"/>
<path d="M0 0 C3.46679688 0.04882812 3.46679688 0.04882812 6.93359375 0.09765625 C6.93359375 3.39765625 6.93359375 6.69765625 6.93359375 10.09765625 C3.63359375 10.09765625 0.33359375 10.09765625 -3.06640625 10.09765625 C-3.1640625 3.1640625 -3.1640625 3.1640625 -3.06640625 1.09765625 C-2.06640625 0.09765625 -2.06640625 0.09765625 0 0 Z " fill="#1B4F82" transform="translate(1694.06640625,287.90234375)"/>
</svg>
