<?xml version="1.0" standalone="no"?>
<!DOCTYPE svg PUBLIC "-//W3C//DTD SVG 20010904//EN"
 "http://www.w3.org/TR/2001/REC-SVG-20010904/DTD/svg10.dtd">
<svg version="1.0" xmlns="http://www.w3.org/2000/svg"
 width="960.000000pt" height="579.000000pt" viewBox="0 0 960.000000 579.000000"
 preserveAspectRatio="xMidYMid meet">

<g transform="translate(0.000000,579.000000) scale(0.100000,-0.100000)"
fill="#000000" stroke="none">
<path d="M3068 5267 c3 -490 2 -515 -16 -537 -12 -15 -35 -26 -63 -30 -27 -5
19 -7 116 -7 88 0 143 2 123 4 -26 3 -45 13 -63 34 l-25 31 0 401 0 402 34
-35 c30 -31 790 -845 805 -862 3 -4 5 223 3 505 -3 508 -3 513 18 539 13 17
37 31 63 36 32 8 5 10 -118 10 -97 0 -145 -3 -122 -8 21 -4 50 -18 63 -31 l24
-25 -2 -401 -3 -402 -415 444 c-228 244 -417 445 -420 445 -3 0 -4 -231 -2
-513z"/>
<path d="M5295 5769 c-22 -4 -157 -9 -300 -9 -190 -2 -249 -5 -218 -12 26 -5
50 -19 63 -35 19 -25 20 -38 20 -489 l0 -463 -23 -27 c-14 -16 -39 -30 -63
-34 -23 -5 30 -7 136 -7 96 0 158 2 138 4 -26 3 -45 13 -63 34 l-25 31 0 214
0 214 148 0 c164 0 173 -3 192 -66 6 -20 8 9 8 91 0 96 -2 114 -10 90 -22 -64
-27 -65 -190 -65 l-148 0 0 240 0 240 174 0 c195 0 210 -5 226 -70 6 -28 8
-18 9 48 1 91 5 88 -74 71z"/>
<path d="M6115 5769 c-22 -4 -157 -9 -300 -10 -143 -1 -251 -3 -240 -6 48 -10
77 -28 90 -54 13 -23 15 -105 15 -483 l0 -455 -23 -27 c-14 -16 -39 -30 -63
-34 -21 -4 104 -8 282 -9 l321 -1 38 108 c50 142 51 146 16 81 -35 -66 -95
-121 -150 -137 -21 -7 -103 -12 -185 -12 l-146 0 0 230 0 230 153 0 c170 0
181 -4 190 -65 2 -16 4 24 4 90 0 66 -2 105 -4 88 -7 -56 -29 -63 -195 -63
l-148 0 0 240 0 240 168 0 c148 0 171 -2 199 -20 18 -11 35 -30 37 -42 3 -13
7 -32 9 -43 3 -11 5 22 6 73 1 102 5 98 -74 81z"/>
<path d="M6632 5765 c-100 -31 -162 -113 -170 -225 -8 -112 14 -145 223 -340
97 -90 183 -177 192 -194 27 -50 22 -144 -9 -197 -65 -111 -243 -137 -342 -50
-30 27 -57 90 -63 149 -5 46 -8 52 -15 32 -16 -43 -21 -165 -8 -189 28 -53
208 -100 309 -81 150 28 240 147 229 299 -7 93 -27 121 -225 305 -203 189
-220 213 -211 305 12 128 157 200 278 139 43 -22 58 -41 89 -118 7 -20 10 -4
10 71 l1 96 -92 7 c-121 8 -145 7 -196 -9z"/>
<path d="M1875 5751 c25 -6 70 -26 77 -34 1 -1 4 -173 7 -382 l6 -380 31 -65
c78 -163 255 -248 457 -220 184 26 311 151 338 333 5 34 9 206 9 383 0 306 1
322 20 339 10 9 34 21 52 25 21 5 -21 8 -112 8 -115 0 -136 -2 -102 -10 75
-17 74 -8 70 -420 -4 -415 -5 -419 -90 -513 -70 -77 -128 -100 -253 -100 -89
0 -105 3 -150 27 -95 50 -155 139 -174 258 -6 36 -11 205 -11 377 0 310 0 312
23 338 12 15 38 30 57 35 23 5 -20 8 -125 8 -88 0 -146 -3 -130 -7z"/>
<path d="M4269 5750 c18 -4 45 -20 60 -34 l26 -26 3 -438 c2 -240 0 -451 -3
-469 -8 -46 -36 -74 -81 -83 -24 -5 26 -8 131 -8 97 0 154 3 133 7 -90 18 -89
13 -86 539 l3 452 26 26 c15 14 42 30 60 34 21 5 -30 8 -136 8 -106 0 -157 -3
-136 -8z"/>
<path d="M7149 5750 c18 -4 45 -20 60 -34 l26 -26 3 -428 c2 -235 0 -446 -3
-469 -8 -56 -33 -84 -81 -93 -24 -5 26 -8 131 -8 101 0 155 3 132 8 -21 4 -48
17 -60 29 -22 21 -22 24 -25 506 l-3 485 103 0 c133 0 173 -12 224 -65 45 -47
64 -101 64 -186 0 -74 -18 -124 -62 -174 -48 -55 -110 -79 -200 -80 -55 0 -65
-2 -52 -12 27 -19 115 -34 163 -27 151 22 261 144 261 289 0 119 -56 212 -158
262 l-57 28 -250 2 c-151 1 -237 -2 -216 -7z"/>
<path d="M724 4237 l-711 -442 2050 -3 2050 -2 340 211 c288 178 343 209 361
201 12 -5 167 -100 345 -211 l323 -201 2052 2 2052 3 -710 440 c-390 242 -714
441 -721 443 -6 1 -146 -81 -311 -183 l-299 -185 -2746 0 -2747 0 -298 185
c-164 102 -303 185 -309 184 -5 0 -330 -199 -721 -442z"/>
<path d="M4517 3862 l-268 -167 276 -3 c151 -1 398 -1 548 0 l273 3 -264 164
c-145 90 -271 165 -280 167 -10 2 -138 -72 -285 -164z"/>
<path d="M993 3593 c-8 -3 -13 -23 -13 -49 l0 -44 50 0 50 0 0 44 c0 31 -5 46
-16 50 -18 7 -53 7 -71 -1z"/>
<path d="M1677 3594 c-4 -4 -7 -27 -7 -51 l0 -43 46 0 45 0 -3 48 c-3 46 -4
47 -38 50 -20 2 -39 0 -43 -4z"/>
<path d="M2363 3593 c-8 -3 -13 -23 -13 -49 l0 -44 50 0 50 0 0 44 c0 31 -5
46 -16 50 -18 7 -53 7 -71 -1z"/>
<path d="M3047 3594 c-4 -4 -7 -27 -7 -51 l0 -43 46 0 45 0 -3 48 c-3 46 -4
47 -38 50 -20 2 -39 0 -43 -4z"/>
<path d="M3733 3593 c-8 -3 -13 -23 -13 -49 l0 -44 50 0 50 0 0 44 c0 31 -5
46 -16 50 -18 7 -53 7 -71 -1z"/>
<path d="M5787 3594 c-4 -4 -7 -27 -7 -51 l0 -43 46 0 45 0 -3 48 c-3 46 -4
47 -38 50 -20 2 -39 0 -43 -4z"/>
<path d="M6473 3593 c-8 -3 -13 -23 -13 -49 l0 -44 50 0 50 0 0 44 c0 31 -5
46 -16 50 -18 7 -53 7 -71 -1z"/>
<path d="M7157 3594 c-4 -4 -7 -27 -7 -51 l0 -43 46 0 45 0 -3 48 c-3 46 -4
47 -38 50 -20 2 -39 0 -43 -4z"/>
<path d="M7843 3593 c-8 -3 -13 -23 -13 -49 l0 -44 50 0 50 0 0 44 c0 31 -5
46 -16 50 -18 7 -53 7 -71 -1z"/>
<path d="M8527 3594 c-4 -4 -7 -27 -7 -51 l0 -43 46 0 45 0 -3 48 c-3 46 -4
47 -38 50 -20 2 -39 0 -43 -4z"/>
<path d="M913 3570 c-34 -15 -43 -24 -43 -45 0 -23 3 -25 45 -25 l45 0 0 45
c0 25 -1 45 -2 45 -2 0 -22 -9 -45 -20z"/>
<path d="M1100 3545 l0 -45 45 0 c41 0 45 2 45 25 0 24 -13 35 -64 55 -26 9
-26 9 -26 -35z"/>
<path d="M1630 3583 c-60 -22 -80 -37 -80 -59 0 -22 4 -24 50 -24 l50 0 0 45
c0 25 -1 45 -2 44 -2 0 -10 -3 -18 -6z"/>
<path d="M1780 3545 l0 -45 50 0 c46 0 50 2 50 23 0 24 -16 36 -72 57 -28 9
-28 9 -28 -35z"/>
<path d="M2283 3570 c-34 -15 -43 -24 -43 -45 0 -23 3 -25 45 -25 l45 0 0 45
c0 25 -1 45 -2 45 -2 0 -22 -9 -45 -20z"/>
<path d="M2470 3545 l0 -45 45 0 c41 0 45 2 45 25 0 24 -13 35 -64 55 -26 9
-26 9 -26 -35z"/>
<path d="M3000 3583 c-60 -22 -80 -37 -80 -59 0 -22 4 -24 50 -24 l50 0 0 45
c0 25 -1 45 -2 44 -2 0 -10 -3 -18 -6z"/>
<path d="M3150 3545 l0 -45 50 0 c46 0 50 2 50 24 0 18 -10 29 -45 45 -25 12
-47 21 -50 21 -3 0 -5 -20 -5 -45z"/>
<path d="M3653 3570 c-34 -15 -43 -24 -43 -45 0 -23 3 -25 45 -25 l45 0 0 45
c0 25 -1 45 -2 45 -2 0 -22 -9 -45 -20z"/>
<path d="M3840 3545 l0 -45 45 0 c41 0 45 2 45 25 0 24 -13 35 -64 55 -26 9
-26 9 -26 -35z"/>
<path d="M4415 3503 c24 -305 129 -539 301 -672 37 -28 73 -51 81 -51 22 0
102 61 156 119 127 136 211 356 224 584 l6 107 -388 0 -387 0 7 -87z"/>
<path d="M5740 3583 c-60 -22 -80 -37 -80 -59 0 -22 4 -24 50 -24 l50 0 0 45
c0 25 -1 45 -2 44 -2 0 -10 -3 -18 -6z"/>
<path d="M5900 3546 l0 -46 45 0 c41 0 45 2 45 24 0 18 -10 28 -37 41 -21 10
-41 20 -45 22 -5 2 -8 -16 -8 -41z"/>
<path d="M6393 3570 c-34 -15 -43 -24 -43 -45 0 -23 3 -25 45 -25 l45 0 0 45
c0 25 -1 45 -2 45 -2 0 -22 -9 -45 -20z"/>
<path d="M6580 3545 l0 -45 45 0 c41 0 45 2 45 25 0 24 -13 35 -64 55 -26 9
-26 9 -26 -35z"/>
<path d="M7270 3546 l0 -46 45 0 c41 0 45 2 45 24 0 18 -10 28 -37 41 -21 10
-41 20 -45 22 -5 2 -8 -16 -8 -41z"/>
<path d="M7763 3570 c-34 -15 -43 -24 -43 -45 0 -23 3 -25 45 -25 l45 0 0 45
c0 25 -1 45 -2 45 -2 0 -22 -9 -45 -20z"/>
<path d="M7950 3545 l0 -45 45 0 c41 0 45 2 45 25 0 24 -13 35 -64 55 -26 9
-26 9 -26 -35z"/>
<path d="M8640 3545 l0 -45 45 0 c40 0 45 2 45 23 0 22 -20 40 -66 57 -23 9
-24 8 -24 -35z"/>
<path d="M7063 3560 c-20 -12 -33 -28 -33 -40 0 -17 7 -20 50 -20 l50 0 0 40
c0 47 -16 52 -67 20z"/>
<path d="M8433 3560 c-20 -12 -33 -28 -33 -40 0 -17 7 -20 50 -20 l50 0 0 40
c0 47 -16 52 -67 20z"/>
<path d="M870 3430 l0 -50 45 0 45 0 0 50 0 50 -45 0 -45 0 0 -50z"/>
<path d="M987 3474 c-4 -4 -7 -27 -7 -51 l0 -43 51 0 50 0 -3 48 -3 47 -40 3
c-23 2 -44 0 -48 -4z"/>
<path d="M1100 3430 l0 -50 45 0 45 0 0 50 0 50 -45 0 -45 0 0 -50z"/>
<path d="M1550 3431 l0 -51 51 0 50 0 -3 48 -3 47 -47 3 -48 3 0 -50z"/>
<path d="M1670 3430 l0 -50 45 0 45 0 0 50 0 50 -45 0 -45 0 0 -50z"/>
<path d="M1787 3473 c-4 -3 -7 -26 -7 -50 l0 -43 50 0 50 0 0 50 0 50 -43 0
c-24 0 -47 -3 -50 -7z"/>
<path d="M2240 3430 l0 -50 45 0 45 0 0 50 0 50 -45 0 -45 0 0 -50z"/>
<path d="M2357 3474 c-4 -4 -7 -27 -7 -51 l0 -43 51 0 50 0 -3 48 -3 47 -40 3
c-23 2 -44 0 -48 -4z"/>
<path d="M2470 3430 l0 -50 45 0 45 0 0 50 0 50 -45 0 -45 0 0 -50z"/>
<path d="M2920 3431 l0 -51 51 0 50 0 -3 48 -3 47 -47 3 -48 3 0 -50z"/>
<path d="M3040 3430 l0 -50 45 0 45 0 0 50 0 50 -45 0 -45 0 0 -50z"/>
<path d="M3157 3473 c-4 -3 -7 -26 -7 -50 l0 -43 50 0 50 0 0 50 0 50 -43 0
c-24 0 -47 -3 -50 -7z"/>
<path d="M3610 3430 l0 -50 45 0 45 0 0 50 0 50 -45 0 -45 0 0 -50z"/>
<path d="M3727 3473 c-4 -3 -7 -26 -7 -50 l0 -43 50 0 50 0 0 50 0 50 -43 0
c-24 0 -47 -3 -50 -7z"/>
<path d="M3840 3430 l0 -50 45 0 45 0 0 50 0 50 -45 0 -45 0 0 -50z"/>
<path d="M5660 3431 l0 -51 51 0 50 0 -3 48 -3 47 -47 3 -48 3 0 -50z"/>
<path d="M5780 3430 l0 -50 45 0 45 0 0 50 0 50 -45 0 -45 0 0 -50z"/>
<path d="M5900 3430 l0 -50 45 0 45 0 0 50 0 50 -45 0 -45 0 0 -50z"/>
<path d="M6350 3430 l0 -50 45 0 45 0 0 50 0 50 -45 0 -45 0 0 -50z"/>
<path d="M6467 3473 c-4 -3 -7 -26 -7 -50 l0 -43 50 0 50 0 0 50 0 50 -43 0
c-24 0 -47 -3 -50 -7z"/>
<path d="M6580 3430 l0 -50 45 0 45 0 0 50 0 50 -45 0 -45 0 0 -50z"/>
<path d="M7037 3474 c-4 -4 -7 -27 -7 -51 l0 -43 51 0 50 0 -3 48 -3 47 -40 3
c-23 2 -44 0 -48 -4z"/>
<path d="M7150 3430 l0 -50 45 0 45 0 0 50 0 50 -45 0 -45 0 0 -50z"/>
<path d="M7270 3430 l0 -50 45 0 45 0 0 50 0 50 -45 0 -45 0 0 -50z"/>
<path d="M7720 3430 l0 -50 45 0 45 0 0 50 0 50 -45 0 -45 0 0 -50z"/>
<path d="M7837 3473 c-4 -3 -7 -26 -7 -50 l0 -43 50 0 50 0 0 50 0 50 -43 0
c-24 0 -47 -3 -50 -7z"/>
<path d="M7950 3430 l0 -50 45 0 45 0 0 50 0 50 -45 0 -45 0 0 -50z"/>
<path d="M8407 3474 c-4 -4 -7 -27 -7 -51 l0 -43 51 0 50 0 -3 48 -3 47 -40 3
c-23 2 -44 0 -48 -4z"/>
<path d="M8520 3430 l0 -50 45 0 45 0 0 50 0 50 -45 0 -45 0 0 -50z"/>
<path d="M8640 3430 l0 -50 45 0 45 0 0 50 0 50 -45 0 -45 0 0 -50z"/>
<path d="M870 3315 l0 -45 45 0 45 0 0 45 0 45 -45 0 -45 0 0 -45z"/>
<path d="M980 3315 l0 -45 50 0 50 0 0 45 0 45 -50 0 -50 0 0 -45z"/>
<path d="M1100 3315 l0 -45 45 0 45 0 0 45 0 45 -45 0 -45 0 0 -45z"/>
<path d="M1550 3315 l0 -45 50 0 50 0 0 45 0 45 -50 0 -50 0 0 -45z"/>
<path d="M1670 3315 l0 -45 45 0 45 0 0 45 0 45 -45 0 -45 0 0 -45z"/>
<path d="M1780 3315 l0 -45 50 0 50 0 0 45 0 45 -50 0 -50 0 0 -45z"/>
<path d="M2240 3315 l0 -45 45 0 45 0 0 45 0 45 -45 0 -45 0 0 -45z"/>
<path d="M2350 3315 l0 -45 50 0 50 0 0 45 0 45 -50 0 -50 0 0 -45z"/>
<path d="M2470 3315 l0 -45 45 0 45 0 0 45 0 45 -45 0 -45 0 0 -45z"/>
<path d="M2920 3315 l0 -45 50 0 50 0 0 45 0 45 -50 0 -50 0 0 -45z"/>
<path d="M3040 3315 l0 -45 45 0 45 0 0 45 0 45 -45 0 -45 0 0 -45z"/>
<path d="M3150 3315 l0 -45 50 0 50 0 0 45 0 45 -50 0 -50 0 0 -45z"/>
<path d="M3610 3315 l0 -45 45 0 45 0 0 45 0 45 -45 0 -45 0 0 -45z"/>
<path d="M3720 3315 l0 -45 50 0 50 0 0 45 0 45 -50 0 -50 0 0 -45z"/>
<path d="M3840 3315 l0 -45 45 0 45 0 0 45 0 45 -45 0 -45 0 0 -45z"/>
<path d="M5660 3315 l0 -45 50 0 50 0 0 45 0 45 -50 0 -50 0 0 -45z"/>
<path d="M5780 3315 l0 -45 45 0 45 0 0 45 0 45 -45 0 -45 0 0 -45z"/>
<path d="M5900 3315 l0 -45 45 0 45 0 0 45 0 45 -45 0 -45 0 0 -45z"/>
<path d="M6350 3315 l0 -45 45 0 45 0 0 45 0 45 -45 0 -45 0 0 -45z"/>
<path d="M6460 3315 l0 -45 50 0 50 0 0 45 0 45 -50 0 -50 0 0 -45z"/>
<path d="M6580 3315 l0 -45 45 0 45 0 0 45 0 45 -45 0 -45 0 0 -45z"/>
<path d="M7030 3315 l0 -45 50 0 50 0 0 45 0 45 -50 0 -50 0 0 -45z"/>
<path d="M7150 3315 l0 -45 45 0 45 0 0 45 0 45 -45 0 -45 0 0 -45z"/>
<path d="M7270 3315 l0 -45 45 0 45 0 0 45 0 45 -45 0 -45 0 0 -45z"/>
<path d="M7720 3315 l0 -45 45 0 45 0 0 45 0 45 -45 0 -45 0 0 -45z"/>
<path d="M7830 3315 l0 -45 50 0 50 0 0 45 0 45 -50 0 -50 0 0 -45z"/>
<path d="M7950 3315 l0 -45 45 0 45 0 0 45 0 45 -45 0 -45 0 0 -45z"/>
<path d="M8400 3315 l0 -45 50 0 50 0 0 45 0 45 -50 0 -50 0 0 -45z"/>
<path d="M8520 3315 l0 -45 45 0 45 0 0 45 0 45 -45 0 -45 0 0 -45z"/>
<path d="M8640 3315 l0 -45 45 0 45 0 0 45 0 45 -45 0 -45 0 0 -45z"/>
<path d="M870 3195 l0 -45 45 0 45 0 0 45 0 45 -45 0 -45 0 0 -45z"/>
<path d="M980 3195 l0 -45 50 0 50 0 0 45 0 45 -50 0 -50 0 0 -45z"/>
<path d="M1100 3195 l0 -45 45 0 45 0 0 45 0 45 -45 0 -45 0 0 -45z"/>
<path d="M1550 3195 l0 -45 50 0 50 0 0 45 0 45 -50 0 -50 0 0 -45z"/>
<path d="M1670 3195 l0 -45 45 0 45 0 0 45 0 45 -45 0 -45 0 0 -45z"/>
<path d="M1780 3195 l0 -45 50 0 50 0 0 45 0 45 -50 0 -50 0 0 -45z"/>
<path d="M2240 3195 l0 -45 45 0 45 0 0 45 0 45 -45 0 -45 0 0 -45z"/>
<path d="M2350 3195 l0 -45 50 0 50 0 0 45 0 45 -50 0 -50 0 0 -45z"/>
<path d="M2470 3195 l0 -45 45 0 45 0 0 45 0 45 -45 0 -45 0 0 -45z"/>
<path d="M2920 3195 l0 -45 50 0 50 0 0 45 0 45 -50 0 -50 0 0 -45z"/>
<path d="M3040 3195 l0 -45 45 0 45 0 0 45 0 45 -45 0 -45 0 0 -45z"/>
<path d="M3150 3195 l0 -45 50 0 50 0 0 45 0 45 -50 0 -50 0 0 -45z"/>
<path d="M3610 3195 l0 -45 45 0 45 0 0 45 0 45 -45 0 -45 0 0 -45z"/>
<path d="M3720 3195 l0 -45 50 0 50 0 0 45 0 45 -50 0 -50 0 0 -45z"/>
<path d="M3840 3195 l0 -45 45 0 45 0 0 45 0 45 -45 0 -45 0 0 -45z"/>
<path d="M5660 3195 l0 -45 50 0 50 0 0 45 0 45 -50 0 -50 0 0 -45z"/>
<path d="M5780 3195 l0 -45 45 0 45 0 0 45 0 45 -45 0 -45 0 0 -45z"/>
<path d="M5900 3195 l0 -45 45 0 45 0 0 45 0 45 -45 0 -45 0 0 -45z"/>
<path d="M6350 3195 l0 -45 45 0 45 0 0 45 0 45 -45 0 -45 0 0 -45z"/>
<path d="M6460 3195 l0 -45 50 0 50 0 0 45 0 45 -50 0 -50 0 0 -45z"/>
<path d="M6580 3195 l0 -45 45 0 45 0 0 45 0 45 -45 0 -45 0 0 -45z"/>
<path d="M7030 3195 l0 -45 50 0 50 0 0 45 0 45 -50 0 -50 0 0 -45z"/>
<path d="M7150 3195 l0 -45 45 0 45 0 0 45 0 45 -45 0 -45 0 0 -45z"/>
<path d="M7270 3195 l0 -45 45 0 45 0 0 45 0 45 -45 0 -45 0 0 -45z"/>
<path d="M7720 3195 l0 -45 45 0 45 0 0 45 0 45 -45 0 -45 0 0 -45z"/>
<path d="M7830 3195 l0 -45 50 0 50 0 0 45 0 45 -50 0 -50 0 0 -45z"/>
<path d="M7950 3195 l0 -45 45 0 45 0 0 45 0 45 -45 0 -45 0 0 -45z"/>
<path d="M8400 3195 l0 -45 50 0 50 0 0 45 0 45 -50 0 -50 0 0 -45z"/>
<path d="M8520 3195 l0 -45 45 0 45 0 0 45 0 45 -45 0 -45 0 0 -45z"/>
<path d="M8640 3195 l0 -45 45 0 45 0 0 45 0 45 -45 0 -45 0 0 -45z"/>
<path d="M870 3080 l0 -50 45 0 45 0 0 50 0 50 -45 0 -45 0 0 -50z"/>
<path d="M987 3124 c-4 -4 -7 -27 -7 -51 l0 -43 51 0 50 0 -3 48 -3 47 -40 3
c-23 2 -44 0 -48 -4z"/>
<path d="M1100 3080 l0 -50 45 0 45 0 0 50 0 50 -45 0 -45 0 0 -50z"/>
<path d="M1550 3081 l0 -51 51 0 50 0 -3 48 -3 47 -47 3 -48 3 0 -50z"/>
<path d="M1670 3080 l0 -50 45 0 45 0 0 50 0 50 -45 0 -45 0 0 -50z"/>
<path d="M1787 3123 c-4 -3 -7 -26 -7 -50 l0 -43 50 0 50 0 0 50 0 50 -43 0
c-24 0 -47 -3 -50 -7z"/>
<path d="M2240 3080 l0 -50 45 0 45 0 0 50 0 50 -45 0 -45 0 0 -50z"/>
<path d="M2357 3124 c-4 -4 -7 -27 -7 -51 l0 -43 51 0 50 0 -3 48 -3 47 -40 3
c-23 2 -44 0 -48 -4z"/>
<path d="M2470 3080 l0 -50 45 0 45 0 0 50 0 50 -45 0 -45 0 0 -50z"/>
<path d="M2920 3081 l0 -51 51 0 50 0 -3 48 -3 47 -47 3 -48 3 0 -50z"/>
<path d="M3040 3080 l0 -50 45 0 45 0 0 50 0 50 -45 0 -45 0 0 -50z"/>
<path d="M3157 3123 c-4 -3 -7 -26 -7 -50 l0 -43 50 0 50 0 0 50 0 50 -43 0
c-24 0 -47 -3 -50 -7z"/>
<path d="M3610 3080 l0 -50 45 0 45 0 0 50 0 50 -45 0 -45 0 0 -50z"/>
<path d="M3727 3123 c-4 -3 -7 -26 -7 -50 l0 -43 50 0 50 0 0 50 0 50 -43 0
c-24 0 -47 -3 -50 -7z"/>
<path d="M3840 3080 l0 -50 45 0 45 0 0 50 0 50 -45 0 -45 0 0 -50z"/>
<path d="M5660 3081 l0 -51 51 0 50 0 -3 48 -3 47 -47 3 -48 3 0 -50z"/>
<path d="M5780 3080 l0 -50 45 0 45 0 0 50 0 50 -45 0 -45 0 0 -50z"/>
<path d="M5900 3080 l0 -50 45 0 45 0 0 50 0 50 -45 0 -45 0 0 -50z"/>
<path d="M6350 3080 l0 -50 45 0 45 0 0 50 0 50 -45 0 -45 0 0 -50z"/>
<path d="M6467 3123 c-4 -3 -7 -26 -7 -50 l0 -43 50 0 50 0 0 50 0 50 -43 0
c-24 0 -47 -3 -50 -7z"/>
<path d="M6580 3080 l0 -50 45 0 45 0 0 50 0 50 -45 0 -45 0 0 -50z"/>
<path d="M7037 3124 c-4 -4 -7 -27 -7 -51 l0 -43 51 0 50 0 -3 48 -3 47 -40 3
c-23 2 -44 0 -48 -4z"/>
<path d="M7150 3080 l0 -50 45 0 45 0 0 50 0 50 -45 0 -45 0 0 -50z"/>
<path d="M7270 3080 l0 -50 45 0 45 0 0 50 0 50 -45 0 -45 0 0 -50z"/>
<path d="M7720 3080 l0 -50 45 0 45 0 0 50 0 50 -45 0 -45 0 0 -50z"/>
<path d="M7837 3123 c-4 -3 -7 -26 -7 -50 l0 -43 50 0 50 0 0 50 0 50 -43 0
c-24 0 -47 -3 -50 -7z"/>
<path d="M7950 3080 l0 -50 45 0 45 0 0 50 0 50 -45 0 -45 0 0 -50z"/>
<path d="M8407 3124 c-4 -4 -7 -27 -7 -51 l0 -43 51 0 50 0 -3 48 -3 47 -40 3
c-23 2 -44 0 -48 -4z"/>
<path d="M8520 3080 l0 -50 45 0 45 0 0 50 0 50 -45 0 -45 0 0 -50z"/>
<path d="M8640 3080 l0 -50 45 0 45 0 0 50 0 50 -45 0 -45 0 0 -50z"/>
<path d="M870 2965 l0 -45 45 0 45 0 0 45 0 45 -45 0 -45 0 0 -45z"/>
<path d="M980 2965 l0 -45 50 0 50 0 0 45 0 45 -50 0 -50 0 0 -45z"/>
<path d="M1100 2965 l0 -45 45 0 45 0 0 45 0 45 -45 0 -45 0 0 -45z"/>
<path d="M1550 2965 l0 -45 50 0 50 0 0 45 0 45 -50 0 -50 0 0 -45z"/>
<path d="M1670 2965 l0 -45 45 0 45 0 0 45 0 45 -45 0 -45 0 0 -45z"/>
<path d="M1780 2965 l0 -45 50 0 50 0 0 45 0 45 -50 0 -50 0 0 -45z"/>
<path d="M2240 2965 l0 -45 45 0 45 0 0 45 0 45 -45 0 -45 0 0 -45z"/>
<path d="M2350 2965 l0 -45 50 0 50 0 0 45 0 45 -50 0 -50 0 0 -45z"/>
<path d="M2470 2965 l0 -45 45 0 45 0 0 45 0 45 -45 0 -45 0 0 -45z"/>
<path d="M2920 2965 l0 -45 50 0 50 0 0 45 0 45 -50 0 -50 0 0 -45z"/>
<path d="M3040 2965 l0 -45 45 0 45 0 0 45 0 45 -45 0 -45 0 0 -45z"/>
<path d="M3150 2965 l0 -45 50 0 50 0 0 45 0 45 -50 0 -50 0 0 -45z"/>
<path d="M3610 2965 l0 -45 45 0 45 0 0 45 0 45 -45 0 -45 0 0 -45z"/>
<path d="M3720 2965 l0 -45 50 0 50 0 0 45 0 45 -50 0 -50 0 0 -45z"/>
<path d="M3840 2965 l0 -45 45 0 45 0 0 45 0 45 -45 0 -45 0 0 -45z"/>
<path d="M5660 2965 l0 -45 50 0 50 0 0 45 0 45 -50 0 -50 0 0 -45z"/>
<path d="M5780 2965 l0 -45 45 0 45 0 0 45 0 45 -45 0 -45 0 0 -45z"/>
<path d="M5900 2965 l0 -45 45 0 45 0 0 45 0 45 -45 0 -45 0 0 -45z"/>
<path d="M6350 2965 l0 -45 45 0 45 0 0 45 0 45 -45 0 -45 0 0 -45z"/>
<path d="M6460 2965 l0 -45 50 0 50 0 0 45 0 45 -50 0 -50 0 0 -45z"/>
<path d="M6580 2965 l0 -45 45 0 45 0 0 45 0 45 -45 0 -45 0 0 -45z"/>
<path d="M7030 2965 l0 -45 50 0 50 0 0 45 0 45 -50 0 -50 0 0 -45z"/>
<path d="M7150 2965 l0 -45 45 0 45 0 0 45 0 45 -45 0 -45 0 0 -45z"/>
<path d="M7270 2965 l0 -45 45 0 45 0 0 45 0 45 -45 0 -45 0 0 -45z"/>
<path d="M7720 2965 l0 -45 45 0 45 0 0 45 0 45 -45 0 -45 0 0 -45z"/>
<path d="M7830 2965 l0 -45 50 0 50 0 0 45 0 45 -50 0 -50 0 0 -45z"/>
<path d="M7950 2965 l0 -45 45 0 45 0 0 45 0 45 -45 0 -45 0 0 -45z"/>
<path d="M8400 2965 l0 -45 50 0 50 0 0 45 0 45 -50 0 -50 0 0 -45z"/>
<path d="M8520 2965 l0 -45 45 0 45 0 0 45 0 45 -45 0 -45 0 0 -45z"/>
<path d="M8640 2965 l0 -45 45 0 45 0 0 45 0 45 -45 0 -45 0 0 -45z"/>
<path d="M690 2675 l0 -45 1710 0 1710 0 0 45 0 45 -1710 0 -1710 0 0 -45z"/>
<path d="M4360 2675 l0 -45 435 0 435 0 0 45 0 45 -435 0 -435 0 0 -45z"/>
<path d="M5480 2675 l0 -45 1715 0 1715 0 0 45 0 45 -1715 0 -1715 0 0 -45z"/>
<path d="M870 2515 l0 -45 45 0 45 0 0 45 0 45 -45 0 -45 0 0 -45z"/>
<path d="M980 2515 l0 -45 50 0 50 0 0 45 0 45 -50 0 -50 0 0 -45z"/>
<path d="M1100 2515 l0 -45 45 0 45 0 0 45 0 45 -45 0 -45 0 0 -45z"/>
<path d="M1550 2515 l0 -45 50 0 50 0 0 45 0 45 -50 0 -50 0 0 -45z"/>
<path d="M1670 2515 l0 -45 45 0 45 0 0 45 0 45 -45 0 -45 0 0 -45z"/>
<path d="M1780 2515 l0 -45 50 0 50 0 0 45 0 45 -50 0 -50 0 0 -45z"/>
<path d="M2240 2280 l0 -280 250 0 250 0 0 280 0 280 -250 0 -250 0 0 -280z"/>
<path d="M2920 2280 l0 -280 255 0 255 0 0 280 0 280 -255 0 -255 0 0 -280z"/>
<path d="M3610 2280 l0 -280 250 0 250 0 0 280 0 280 -250 0 -250 0 0 -280z"/>
<path d="M4360 2165 l0 -395 50 0 50 0 0 395 0 395 -50 0 -50 0 0 -395z"/>
<path d="M4580 2515 l0 -45 45 0 45 0 0 45 0 45 -45 0 -45 0 0 -45z"/>
<path d="M4690 2515 l0 -45 50 0 50 0 0 45 0 45 -50 0 -50 0 0 -45z"/>
<path d="M4810 2515 l0 -45 45 0 45 0 0 45 0 45 -45 0 -45 0 0 -45z"/>
<path d="M4930 2515 l0 -45 45 0 45 0 0 45 0 45 -45 0 -45 0 0 -45z"/>
<path d="M5140 2165 l0 -395 45 0 45 0 0 395 0 395 -45 0 -45 0 0 -395z"/>
<path d="M5482 2283 l3 -278 253 -3 252 -2 0 280 0 280 -255 0 -255 0 2 -277z"/>
<path d="M6170 2280 l0 -280 250 0 250 0 0 280 0 280 -250 0 -250 0 0 -280z"/>
<path d="M6852 2283 l3 -278 253 -3 252 -2 0 280 0 280 -255 0 -255 0 2 -277z"/>
<path d="M7720 2515 l0 -45 45 0 45 0 0 45 0 45 -45 0 -45 0 0 -45z"/>
<path d="M7830 2515 l0 -45 50 0 50 0 0 45 0 45 -50 0 -50 0 0 -45z"/>
<path d="M7950 2515 l0 -45 45 0 45 0 0 45 0 45 -45 0 -45 0 0 -45z"/>
<path d="M8400 2515 l0 -45 50 0 50 0 0 45 0 45 -50 0 -50 0 0 -45z"/>
<path d="M8520 2515 l0 -45 45 0 45 0 0 45 0 45 -45 0 -45 0 0 -45z"/>
<path d="M8640 2515 l0 -45 45 0 45 0 0 45 0 45 -45 0 -45 0 0 -45z"/>
<path d="M870 2400 l0 -50 45 0 45 0 0 50 0 50 -45 0 -45 0 0 -50z"/>
<path d="M984 2437 c-3 -9 -4 -30 -2 -49 3 -32 4 -33 48 -33 l45 0 0 45 0 45
-43 3 c-30 2 -44 -1 -48 -11z"/>
<path d="M1100 2400 l0 -50 45 0 45 0 0 50 0 50 -45 0 -45 0 0 -50z"/>
<path d="M1550 2400 l0 -51 48 3 47 3 0 45 0 45 -47 3 -48 3 0 -51z"/>
<path d="M1670 2400 l0 -50 45 0 45 0 0 50 0 50 -45 0 -45 0 0 -50z"/>
<path d="M1784 2436 c-3 -8 -4 -29 -2 -48 3 -32 5 -33 51 -36 l47 -3 0 50 0
51 -45 0 c-30 0 -47 -5 -51 -14z"/>
<path d="M4580 2400 l0 -50 45 0 45 0 0 50 0 50 -45 0 -45 0 0 -50z"/>
<path d="M4694 2437 c-3 -9 -4 -30 -2 -49 3 -32 4 -33 48 -33 l45 0 0 45 0 45
-43 3 c-30 2 -44 -1 -48 -11z"/>
<path d="M4810 2400 l0 -50 45 0 45 0 0 50 0 50 -45 0 -45 0 0 -50z"/>
<path d="M4930 2400 l0 -50 45 0 45 0 0 50 0 50 -45 0 -45 0 0 -50z"/>
<path d="M7720 2400 l0 -50 45 0 45 0 0 50 0 50 -45 0 -45 0 0 -50z"/>
<path d="M7834 2436 c-3 -8 -4 -29 -2 -48 3 -32 5 -33 51 -36 l47 -3 0 50 0
51 -45 0 c-30 0 -47 -5 -51 -14z"/>
<path d="M7950 2400 l0 -50 45 0 45 0 0 50 0 50 -45 0 -45 0 0 -50z"/>
<path d="M8404 2437 c-3 -9 -4 -30 -2 -49 3 -32 4 -33 48 -33 l45 0 0 45 0 45
-43 3 c-30 2 -44 -1 -48 -11z"/>
<path d="M8520 2400 l0 -50 45 0 45 0 0 50 0 50 -45 0 -45 0 0 -50z"/>
<path d="M8640 2400 l0 -50 45 0 45 0 0 50 0 50 -45 0 -45 0 0 -50z"/>
<path d="M870 2285 l0 -45 45 0 45 0 0 45 0 45 -45 0 -45 0 0 -45z"/>
<path d="M980 2285 l0 -45 50 0 50 0 0 45 0 45 -50 0 -50 0 0 -45z"/>
<path d="M1100 2285 l0 -45 45 0 45 0 0 45 0 45 -45 0 -45 0 0 -45z"/>
<path d="M1550 2285 l0 -45 50 0 50 0 0 45 0 45 -50 0 -50 0 0 -45z"/>
<path d="M1670 2285 l0 -45 45 0 45 0 0 45 0 45 -45 0 -45 0 0 -45z"/>
<path d="M1780 2285 l0 -45 50 0 50 0 0 45 0 45 -50 0 -50 0 0 -45z"/>
<path d="M4580 2285 l0 -45 45 0 45 0 0 45 0 45 -45 0 -45 0 0 -45z"/>
<path d="M4690 2285 l0 -45 50 0 50 0 0 45 0 45 -50 0 -50 0 0 -45z"/>
<path d="M4810 2285 l0 -45 45 0 45 0 0 45 0 45 -45 0 -45 0 0 -45z"/>
<path d="M4930 2285 l0 -45 45 0 45 0 0 45 0 45 -45 0 -45 0 0 -45z"/>
<path d="M7720 2285 l0 -45 45 0 45 0 0 45 0 45 -45 0 -45 0 0 -45z"/>
<path d="M7830 2285 l0 -45 50 0 50 0 0 45 0 45 -50 0 -50 0 0 -45z"/>
<path d="M7950 2285 l0 -45 45 0 45 0 0 45 0 45 -45 0 -45 0 0 -45z"/>
<path d="M8400 2285 l0 -45 50 0 50 0 0 45 0 45 -50 0 -50 0 0 -45z"/>
<path d="M8520 2285 l0 -45 45 0 45 0 0 45 0 45 -45 0 -45 0 0 -45z"/>
<path d="M8640 2285 l0 -45 45 0 45 0 0 45 0 45 -45 0 -45 0 0 -45z"/>
<path d="M870 2165 l0 -45 45 0 45 0 0 45 0 45 -45 0 -45 0 0 -45z"/>
<path d="M980 2165 l0 -45 50 0 50 0 0 45 0 45 -50 0 -50 0 0 -45z"/>
<path d="M1100 2165 l0 -45 45 0 45 0 0 45 0 45 -45 0 -45 0 0 -45z"/>
<path d="M1550 2165 l0 -45 50 0 50 0 0 45 0 45 -50 0 -50 0 0 -45z"/>
<path d="M1670 2165 l0 -45 45 0 45 0 0 45 0 45 -45 0 -45 0 0 -45z"/>
<path d="M1780 2165 l0 -45 50 0 50 0 0 45 0 45 -50 0 -50 0 0 -45z"/>
<path d="M4580 2165 l0 -45 45 0 45 0 0 45 0 45 -45 0 -45 0 0 -45z"/>
<path d="M4690 2165 l0 -45 50 0 50 0 0 45 0 45 -50 0 -50 0 0 -45z"/>
<path d="M4810 2165 l0 -45 45 0 45 0 0 45 0 45 -45 0 -45 0 0 -45z"/>
<path d="M4930 2165 l0 -45 45 0 45 0 0 45 0 45 -45 0 -45 0 0 -45z"/>
<path d="M7720 2165 l0 -45 45 0 45 0 0 45 0 45 -45 0 -45 0 0 -45z"/>
<path d="M7830 2165 l0 -45 50 0 50 0 0 45 0 45 -50 0 -50 0 0 -45z"/>
<path d="M7950 2165 l0 -45 45 0 45 0 0 45 0 45 -45 0 -45 0 0 -45z"/>
<path d="M8400 2165 l0 -45 50 0 50 0 0 45 0 45 -50 0 -50 0 0 -45z"/>
<path d="M8520 2165 l0 -45 45 0 45 0 0 45 0 45 -45 0 -45 0 0 -45z"/>
<path d="M8640 2165 l0 -45 45 0 45 0 0 45 0 45 -45 0 -45 0 0 -45z"/>
<path d="M870 2050 l0 -50 45 0 45 0 0 50 0 50 -45 0 -45 0 0 -50z"/>
<path d="M984 2087 c-3 -9 -4 -30 -2 -49 3 -32 4 -33 48 -33 l45 0 0 45 0 45
-43 3 c-30 2 -44 -1 -48 -11z"/>
<path d="M1100 2050 l0 -50 45 0 45 0 0 50 0 50 -45 0 -45 0 0 -50z"/>
<path d="M1550 2050 l0 -51 48 3 47 3 0 45 0 45 -47 3 -48 3 0 -51z"/>
<path d="M1670 2050 l0 -50 45 0 45 0 0 50 0 50 -45 0 -45 0 0 -50z"/>
<path d="M1784 2086 c-3 -8 -4 -29 -2 -48 3 -32 5 -33 51 -36 l47 -3 0 50 0
51 -45 0 c-30 0 -47 -5 -51 -14z"/>
<path d="M4580 2050 l0 -50 45 0 45 0 0 50 0 50 -45 0 -45 0 0 -50z"/>
<path d="M4694 2087 c-3 -9 -4 -30 -2 -49 3 -32 4 -33 48 -33 l45 0 0 45 0 45
-43 3 c-30 2 -44 -1 -48 -11z"/>
<path d="M4810 2050 l0 -50 45 0 45 0 0 50 0 50 -45 0 -45 0 0 -50z"/>
<path d="M4930 2050 l0 -50 45 0 45 0 0 50 0 50 -45 0 -45 0 0 -50z"/>
<path d="M7720 2050 l0 -50 45 0 45 0 0 50 0 50 -45 0 -45 0 0 -50z"/>
<path d="M7834 2086 c-3 -8 -4 -29 -2 -48 3 -32 5 -33 51 -36 l47 -3 0 50 0
51 -45 0 c-30 0 -47 -5 -51 -14z"/>
<path d="M7950 2050 l0 -50 45 0 45 0 0 50 0 50 -45 0 -45 0 0 -50z"/>
<path d="M8404 2087 c-3 -9 -4 -30 -2 -49 3 -32 4 -33 48 -33 l45 0 0 45 0 45
-43 3 c-30 2 -44 -1 -48 -11z"/>
<path d="M8520 2050 l0 -50 45 0 45 0 0 50 0 50 -45 0 -45 0 0 -50z"/>
<path d="M8640 2050 l0 -50 45 0 45 0 0 50 0 50 -45 0 -45 0 0 -50z"/>
<path d="M4580 1935 l0 -45 45 0 45 0 0 45 0 45 -45 0 -45 0 0 -45z"/>
<path d="M4690 1935 l0 -45 50 0 50 0 0 45 0 45 -50 0 -50 0 0 -45z"/>
<path d="M4810 1935 l0 -45 45 0 45 0 0 45 0 45 -45 0 -45 0 0 -45z"/>
<path d="M4930 1935 l0 -45 45 0 45 0 0 45 0 45 -45 0 -45 0 0 -45z"/>
<path d="M690 1895 l0 -45 1710 0 1710 0 0 45 0 45 -1710 0 -1710 0 0 -45z"/>
<path d="M5480 1895 l0 -45 1715 0 1715 0 0 45 0 45 -1715 0 -1715 0 0 -45z"/>
<path d="M4580 1815 l0 -45 45 0 45 0 0 45 0 45 -45 0 -45 0 0 -45z"/>
<path d="M4690 1815 l0 -45 50 0 50 0 0 45 0 45 -50 0 -50 0 0 -45z"/>
<path d="M4810 1815 l0 -45 45 0 45 0 0 45 0 45 -45 0 -45 0 0 -45z"/>
<path d="M4930 1815 l0 -45 45 0 45 0 0 45 0 45 -45 0 -45 0 0 -45z"/>
<path d="M690 1685 l0 -95 4110 0 4110 0 0 95 0 95 -1715 0 -1715 0 0 -45 0
-45 -685 0 -685 0 0 45 0 45 -1710 0 -1710 0 0 -95z"/>
<path d="M7277 1273 c-8 -12 79 -37 95 -27 9 6 4 10 -17 15 -17 4 -40 10 -51
14 -12 4 -24 3 -27 -2z"/>
<path d="M3980 1253 l-75 -4 3 -166 c3 -150 2 -169 -14 -180 -16 -11 -12 -13
26 -13 34 0 41 3 32 12 -7 7 -12 43 -12 91 l0 79 55 -4 c30 -3 55 -1 55 4 0 4
-25 8 -55 8 l-55 0 0 80 0 80 64 0 c42 0 66 -4 69 -12 3 -7 6 -3 6 10 1 12 -4
21 -11 20 -7 -1 -47 -4 -88 -5z"/>
<path d="M6995 1248 c-31 -18 -44 -40 -45 -76 0 -28 11 -43 72 -101 59 -56 71
-73 71 -99 0 -45 -28 -72 -73 -72 -41 0 -66 20 -73 60 -3 18 -5 15 -6 -13 -1
-32 3 -39 25 -47 35 -14 96 -12 115 3 23 17 39 52 39 83 0 20 -19 46 -75 103
-80 80 -90 106 -55 141 24 24 57 26 88 4 19 -13 22 -13 22 -1 0 26 -69 35
-105 15z"/>
<path d="M40 1105 l5 -145 32 -32 c27 -27 41 -32 90 -36 49 -3 64 0 93 20 20
14 40 38 47 58 17 49 17 280 1 280 -10 0 -12 -31 -10 -127 2 -107 0 -134 -15
-163 -21 -41 -54 -60 -107 -60 -30 0 -45 7 -73 35 l-34 34 3 141 c3 134 2 140
-17 140 -19 0 -20 -5 -15 -145z"/>
<path d="M8078 1238 c8 -8 12 -59 12 -164 0 -125 -3 -155 -16 -168 -14 -15
-12 -16 26 -16 38 0 40 1 26 16 -13 13 -16 43 -16 175 l0 159 48 0 c53 0 64
-5 81 -37 29 -56 2 -118 -59 -133 l-35 -8 38 -1 c98 -3 136 132 50 177 -30 17
-171 16 -155 0z"/>
<path d="M1440 1203 l-85 -4 3 -140 c2 -97 -1 -145 -9 -155 -10 -12 3 -14 84
-14 77 0 96 3 101 16 9 24 7 29 -6 16 -7 -7 -39 -12 -75 -12 l-63 0 0 65 0 65
55 0 c30 0 55 3 55 8 0 4 -25 5 -55 4 l-55 -4 0 71 0 71 64 0 c42 0 66 -4 69
-12 3 -7 6 -3 6 10 1 12 0 21 -1 20 -2 -1 -41 -4 -88 -5z"/>
<path d="M1983 1200 c-12 -5 -29 -20 -39 -35 -23 -35 -7 -70 54 -115 68 -51
82 -67 82 -93 0 -66 -121 -80 -143 -17 -4 10 -6 7 -6 -7 -1 -28 26 -43 77 -43
54 0 92 31 92 74 0 40 -10 52 -83 106 -51 38 -58 47 -55 74 4 42 45 65 88 49
16 -6 30 -8 30 -3 0 18 -61 24 -97 10z"/>
<path d="M3570 1203 l-85 -4 3 -140 c2 -97 -1 -145 -9 -155 -10 -12 3 -14 84
-14 77 0 96 3 101 16 9 24 7 29 -6 16 -7 -7 -39 -12 -75 -12 l-63 0 0 65 0 65
55 0 c30 0 55 3 55 8 0 4 -25 5 -55 4 l-55 -4 0 71 0 71 64 0 c42 0 66 -4 69
-12 3 -7 6 -3 6 10 1 12 0 21 -1 20 -2 -1 -41 -4 -88 -5z"/>
<path d="M4240 1203 l-85 -4 3 -146 c2 -112 0 -148 -10 -154 -7 -5 28 -9 83
-9 95 0 96 0 108 27 12 27 12 27 -6 10 -14 -12 -37 -17 -81 -17 l-62 0 0 65 0
65 54 0 c44 0 55 -4 59 -17 3 -10 5 0 6 22 0 32 -2 36 -10 23 -7 -13 -23 -18
-59 -18 l-50 0 0 71 0 71 70 -4 c51 -2 70 0 70 10 0 6 -1 11 -2 10 -2 -1 -41
-4 -88 -5z"/>
<path d="M4895 1201 c-51 -4 -85 -9 -77 -14 20 -13 17 -261 -4 -281 -14 -15
-7 -16 80 -16 86 0 96 2 106 21 10 19 10 20 -9 10 -11 -6 -47 -11 -80 -11
l-61 0 0 66 0 66 60 -4 c36 -2 60 1 60 7 0 6 -24 9 -60 7 l-60 -4 0 72 0 72
70 -4 c51 -2 70 0 70 10 0 6 -1 11 -2 10 -2 -1 -43 -4 -93 -7z"/>
<path d="M6640 1203 l-85 -4 3 -146 c2 -112 0 -148 -10 -155 -7 -5 29 -7 86
-6 95 3 99 4 108 27 8 24 8 24 -10 8 -13 -12 -36 -17 -80 -17 l-62 0 0 65 0
65 54 0 c34 0 56 -5 59 -12 3 -7 6 0 6 17 1 22 -2 26 -11 17 -7 -7 -34 -12
-60 -12 l-48 0 0 71 0 71 70 -4 c51 -2 70 0 70 10 0 6 -1 11 -2 10 -2 -1 -41
-4 -88 -5z"/>
<path d="M7622 1197 c-103 -38 -144 -166 -77 -246 52 -61 150 -79 225 -41 95
49 113 169 36 246 -49 49 -119 64 -184 41z m135 -22 c88 -58 84 -213 -8 -261
-48 -24 -122 -15 -159 21 -48 46 -58 134 -22 201 31 59 128 79 189 39z"/>
<path d="M9365 1195 c-54 -19 -101 -72 -110 -124 -5 -33 -2 -51 17 -89 61
-124 245 -124 306 0 41 83 8 168 -83 209 -48 22 -76 23 -130 4z m115 -11 c54
-22 80 -66 80 -135 0 -91 -53 -149 -135 -149 -80 0 -135 59 -135 143 0 69 23
112 73 136 50 25 65 26 117 5z"/>
<path d="M430 1058 c0 -99 -4 -148 -12 -156 -9 -9 -4 -12 23 -12 21 0 29 3 21
8 -9 6 -12 39 -10 126 l3 118 132 -126 132 -127 3 156 c3 132 1 155 -12 155
-13 0 -15 -19 -12 -120 2 -66 -1 -120 -6 -120 -4 0 -21 14 -38 31 -16 17 -73
71 -126 121 l-98 90 0 -144z"/>
<path d="M838 1188 c8 -8 12 -55 12 -145 0 -115 -2 -133 -17 -142 -14 -8 -7
-10 31 -11 43 0 47 2 32 13 -15 11 -17 29 -14 155 l3 142 -29 0 c-23 0 -27 -3
-18 -12z"/>
<path d="M982 1183 c8 -10 41 -78 74 -150 54 -123 73 -153 75 -120 0 6 30 74
67 150 63 129 66 137 45 137 -16 0 -23 -6 -23 -20 0 -29 -92 -242 -100 -233
-14 16 -90 214 -90 233 0 16 -7 20 -32 20 -29 0 -30 -1 -16 -17z"/>
<path d="M1638 1058 c3 -127 2 -144 -14 -155 -16 -11 -12 -13 27 -12 24 0 38
3 32 6 -10 3 -13 43 -13 149 l0 144 36 0 c60 0 94 -25 94 -70 0 -41 -26 -70
-65 -70 l-33 0 26 -29 c15 -16 44 -49 65 -75 22 -26 47 -46 58 -46 18 0 18 1
2 18 -10 9 -36 39 -58 66 -30 37 -36 51 -26 54 27 9 61 51 61 76 0 61 -38 86
-132 86 l-63 0 3 -142z"/>
<path d="M2198 1188 c8 -8 12 -55 12 -145 0 -115 -2 -133 -17 -142 -14 -8 -8
-10 27 -11 27 0 40 4 32 9 -10 6 -12 42 -10 154 l3 147 -29 0 c-23 0 -27 -3
-18 -12z"/>
<path d="M2370 1181 c5 -11 10 -74 10 -140 0 -100 -3 -122 -17 -137 -17 -16
-12 -17 94 -12 124 6 170 24 198 78 23 44 19 121 -8 161 -36 54 -77 69 -190
69 -93 0 -97 -1 -87 -19z m200 -4 c62 -31 88 -125 56 -201 -22 -54 -49 -66
-143 -66 l-83 0 0 140 0 140 73 0 c39 0 83 -6 97 -13z"/>
<path d="M2801 1059 c-35 -77 -74 -147 -85 -155 -19 -13 -18 -14 23 -14 35 0
41 3 32 13 -8 10 -6 25 6 56 l16 42 70 -3 70 -3 16 -43 c14 -38 14 -44 1 -52
-11 -7 0 -10 34 -10 47 0 48 0 28 18 -11 9 -46 76 -78 147 -31 72 -60 133 -63
137 -3 4 -35 -56 -70 -133z m118 -36 c1 -9 -17 -13 -59 -13 -33 0 -60 2 -60 4
0 2 14 35 31 73 l31 68 28 -60 c16 -33 29 -66 29 -72z"/>
<path d="M3098 1053 c2 -111 0 -148 -10 -155 -8 -6 28 -8 93 -5 123 4 171 23
201 77 25 49 24 119 -5 161 -36 54 -77 69 -187 69 l-95 0 3 -147z m201 124
c84 -43 95 -200 17 -248 -23 -14 -50 -19 -108 -19 l-78 0 0 140 0 140 73 0
c39 0 83 -6 96 -13z"/>
<path d="M4438 1058 c3 -126 1 -144 -14 -155 -15 -11 -4 -13 67 -13 137 1 197
23 229 86 20 40 18 113 -5 152 -31 51 -86 72 -191 72 l-89 0 3 -142z m197 118
c49 -21 68 -64 63 -144 -4 -58 -8 -68 -36 -93 -30 -27 -38 -29 -112 -29 l-80
0 0 140 0 140 65 0 c36 0 81 -6 100 -14z"/>
<path d="M5098 1054 c2 -113 0 -149 -10 -155 -8 -6 2 -9 27 -9 30 0 36 3 27
12 -8 8 -12 56 -12 150 l0 138 43 0 c60 0 87 -22 87 -70 0 -48 -21 -70 -65
-70 l-33 0 32 -33 c17 -19 47 -53 67 -75 19 -23 43 -42 53 -42 13 0 2 17 -38
64 -59 67 -64 76 -43 76 24 0 60 48 60 80 0 54 -32 74 -121 78 l-77 4 3 -148z"/>
<path d="M5521 1179 c-5 -13 -36 -81 -69 -151 -54 -113 -63 -127 -88 -131 -18
-2 -8 -5 23 -6 45 -1 51 1 46 17 -2 11 2 35 11 55 l15 37 70 0 69 0 15 -44
c11 -32 12 -47 4 -55 -8 -8 1 -11 33 -11 37 0 41 2 28 13 -9 6 -44 75 -78 152
-35 77 -64 142 -66 144 -2 2 -8 -7 -13 -20z m40 -96 l26 -68 -54 -3 c-31 -2
-58 -1 -60 2 -7 6 47 136 56 136 3 0 18 -30 32 -67z"/>
<path d="M5768 1059 c2 -97 -1 -145 -9 -155 -10 -12 3 -14 84 -14 77 0 96 3
101 16 9 24 7 29 -6 16 -7 -7 -39 -12 -76 -12 l-63 0 3 145 c3 139 2 145 -17
145 -19 0 -20 -6 -17 -141z"/>
<path d="M6168 1188 c8 -8 12 -54 12 -139 0 -107 -3 -130 -17 -145 -16 -16
-11 -16 92 -12 124 5 164 20 196 71 16 25 19 45 17 94 -4 70 -27 105 -85 129
-43 18 -233 20 -215 2z m233 -35 c57 -56 52 -176 -9 -223 -20 -16 -40 -20
-108 -20 l-84 0 0 141 0 141 85 -3 c80 -4 86 -6 116 -36z"/>
<path d="M8375 1067 c-33 -73 -70 -142 -82 -154 l-22 -23 41 0 c33 0 38 3 29
13 -8 10 -6 24 6 55 l16 42 69 0 69 0 15 -37 c9 -20 13 -44 11 -55 -4 -15 1
-18 35 -18 39 0 40 0 21 18 -11 9 -46 76 -78 147 -32 72 -61 133 -64 137 -3 3
-33 -53 -66 -125z m93 14 c12 -29 22 -58 22 -62 0 -5 -27 -9 -60 -9 -58 0 -59
1 -51 23 31 78 53 119 60 111 4 -5 17 -33 29 -63z"/>
<path d="M8640 1083 c3 -66 11 -128 18 -140 39 -70 185 -70 224 0 7 12 15 74
18 140 4 100 3 117 -10 117 -13 0 -15 -21 -15 -126 0 -125 0 -126 -28 -150
-41 -35 -114 -34 -148 2 -23 24 -24 32 -24 150 0 117 -1 124 -20 124 -19 0
-20 -5 -15 -117z"/>
<path d="M9008 1188 c8 -8 12 -55 12 -145 0 -115 -2 -133 -17 -142 -13 -8 10
-10 83 -11 96 0 102 1 107 21 4 17 3 19 -6 10 -6 -6 -40 -11 -75 -11 l-63 0 3
145 3 145 -29 0 c-23 0 -27 -3 -18 -12z"/>
<path d="M7250 1049 c-35 -77 -71 -145 -80 -149 -11 -7 -5 -9 21 -10 33 0 36
2 32 24 -3 13 2 38 11 55 16 30 18 31 85 31 l68 0 13 -39 c7 -22 10 -47 7 -55
-5 -13 1 -16 36 -16 30 1 38 3 27 10 -9 5 -44 72 -79 149 -35 78 -67 141 -70
141 -4 0 -36 -63 -71 -141z m103 24 l26 -63 -60 0 c-32 0 -59 4 -59 9 0 5 7
26 16 47 9 22 21 50 26 63 11 31 20 21 51 -56z"/>
<path d="M1370 570 c0 -20 7 -20 3430 -20 3423 0 3430 0 3430 20 0 20 -7 20
-3430 20 -3423 0 -3430 0 -3430 -20z"/>
<path d="M4475 292 c-6 -4 -10 -63 -10 -139 0 -112 2 -133 15 -133 12 0 15 16
12 97 -4 160 -6 183 -17 175z"/>
<path d="M4607 288 c-59 -45 -33 -149 37 -147 l31 1 -29 8 c-37 11 -46 25 -46
73 0 24 7 44 20 57 22 22 13 27 -13 8z"/>
<path d="M4695 276 c46 -46 30 -181 -28 -245 l-22 -24 26 16 c68 44 98 183 53
244 -12 15 -29 29 -38 31 -12 3 -10 -3 9 -22z"/>
<path d="M4820 290 c-8 -5 -12 -11 -10 -14 3 -2 14 2 24 10 22 15 10 19 -14 4z"/>
<path d="M4900 280 c11 -11 20 -29 20 -40 0 -24 -33 -60 -57 -61 -10 0 -3 -5
15 -10 60 -18 65 -88 10 -134 -18 -16 -24 -25 -15 -25 9 0 29 14 46 31 39 38
41 80 6 115 -24 24 -24 25 -5 44 34 34 17 100 -26 100 -10 0 -9 -5 6 -20z"/>
<path d="M5103 289 c37 -22 16 -94 -33 -112 -10 -4 -9 -6 6 -6 57 -2 73 -84
25 -132 -37 -37 -21 -38 18 -1 46 41 50 75 13 111 -29 29 -29 31 -11 47 10 9
21 25 25 36 7 24 -21 68 -44 68 -16 -1 -16 -1 1 -11z"/>
<path d="M5013 275 c-3 -9 -3 -18 -1 -21 3 -3 8 4 11 16 6 23 -1 27 -10 5z"/>
<path d="M5038 3 c7 -3 16 -2 19 1 4 3 -2 6 -13 5 -11 0 -14 -3 -6 -6z"/>
</g>
</svg>
